  0
SECTION
  2
HEADER
  9
$ACADVER
  1
AC1027
  9
$ACADMAINTVER
 70
   105
  9
$DWGCODEPAGE
  3
ANSI_1252
  9
$REQUIREDVERSIONS
160
                 0
  9
$INSBASE
 10
0.0
 20
0.0
 30
0.0
  9
$EXTMIN
 10
1.000000000000000E+20
 20
1.000000000000000E+20
 30
1.000000000000000E+20
  9
$EXTMAX
 10
-1.000000000000000E+20
 20
-1.000000000000000E+20
 30
-1.000000000000000E+20
  9
$LIMMIN
 10
0.0
 20
0.0
  9
$LIMMAX
 10
12.0
 20
9.0
  9
$ORTHOMODE
 70
     0
  9
$REGENMODE
 70
     1
  9
$FILLMODE
 70
     1
  9
$QTEXTMODE
 70
     0
  9
$MIRRTEXT
 70
     1
  9
$LTSCALE
 40
1.0
  9
$ATTMODE
 70
     1
  9
$TEXTSIZE
 40
0.2
  9
$TRACEWID
 40
0.05
  9
$TEXTSTYLE
  7
Standard
  9
$CLAYER
  8
0
  9
$CELTYPE
  6
ByLayer
  9
$CECOLOR
 62
   256
  9
$CELTSCALE
 40
1.0
  9
$DISPSILH
 70
     0
  9
$DIMSCALE
 40
1.0
  9
$DIMASZ
 40
0.09
  9
$DIMEXO
 40
0.0625
  9
$DIMDLI
 40
0.38
  9
$DIMRND
 40
0.0
  9
$DIMDLE
 40
0.0
  9
$DIMEXE
 40
0.18
  9
$DIMTP
 40
0.0
  9
$DIMTM
 40
0.0
  9
$DIMTXT
 40
0.0526345673404497
  9
$DIMCEN
 40
0.09
  9
$DIMTSZ
 40
0.0
  9
$DIMTOL
 70
     0
  9
$DIMLIM
 70
     0
  9
$DIMTIH
 70
     1
  9
$DIMTOH
 70
     1
  9
$DIMSE1
 70
     0
  9
$DIMSE2
 70
     0
  9
$DIMTAD
 70
     0
  9
$DIMZIN
 70
     0
  9
$DIMBLK
  1

  9
$DIMASO
 70
     1
  9
$DIMSHO
 70
     1
  9
$DIMPOST
  1

  9
$DIMAPOST
  1

  9
$DIMALT
 70
     0
  9
$DIMALTD
 70
     2
  9
$DIMALTF
 40
25.4
  9
$DIMLFAC
 40
1.0
  9
$DIMTOFL
 70
     0
  9
$DIMTVP
 40
0.0
  9
$DIMTIX
 70
     0
  9
$DIMSOXD
 70
     0
  9
$DIMSAH
 70
     0
  9
$DIMBLK1
  1

  9
$DIMBLK2
  1

  9
$DIMSTYLE
  2
Standard
  9
$DIMCLRD
 70
     0
  9
$DIMCLRE
 70
     0
  9
$DIMCLRT
 70
     0
  9
$DIMTFAC
 40
1.0
  9
$DIMGAP
 40
0.09
  9
$DIMJUST
 70
     0
  9
$DIMSD1
 70
     0
  9
$DIMSD2
 70
     0
  9
$DIMTOLJ
 70
     1
  9
$DIMTZIN
 70
     0
  9
$DIMALTZ
 70
     0
  9
$DIMALTTZ
 70
     0
  9
$DIMUPT
 70
     0
  9
$DIMDEC
 70
     4
  9
$DIMTDEC
 70
     4
  9
$DIMALTU
 70
     2
  9
$DIMALTTD
 70
     2
  9
$DIMTXSTY
  7
Standard
  9
$DIMAUNIT
 70
     0
  9
$DIMADEC
 70
     0
  9
$DIMALTRND
 40
0.0
  9
$DIMAZIN
 70
     0
  9
$DIMDSEP
 70
    46
  9
$DIMATFIT
 70
     3
  9
$DIMFRAC
 70
     0
  9
$DIMLDRBLK
  1

  9
$DIMLUNIT
 70
     2
  9
$DIMLWD
 70
    -2
  9
$DIMLWE
 70
    -2
  9
$DIMTMOVE
 70
     0
  9
$DIMFXL
 40
1.0
  9
$DIMFXLON
 70
     0
  9
$DIMJOGANG
 40
0.7853981633974483
  9
$DIMTFILL
 70
     0
  9
$DIMTFILLCLR
 70
     0
  9
$DIMARCSYM
 70
     0
  9
$DIMLTYPE
  6

  9
$DIMLTEX1
  6

  9
$DIMLTEX2
  6

  9
$DIMTXTDIRECTION
 70
     0
  9
$LUNITS
 70
     2
  9
$LUPREC
 70
     4
  9
$SKETCHINC
 40
0.1
  9
$FILLETRAD
 40
0.5
  9
$AUNITS
 70
     0
  9
$AUPREC
 70
     0
  9
$MENU
  1
.
  9
$ELEVATION
 40
0.0
  9
$PELEVATION
 40
0.0
  9
$THICKNESS
 40
0.0
  9
$LIMCHECK
 70
     0
  9
$CHAMFERA
 40
0.0
  9
$CHAMFERB
 40
0.0
  9
$CHAMFERC
 40
0.0
  9
$CHAMFERD
 40
0.0
  9
$SKPOLY
 70
     0
  9
$TDCREATE
 40
2458621.341441134
  9
$TDUCREATE
 40
2458621.508107801
  9
$TDUPDATE
 40
2458621.341444306
  9
$TDUUPDATE
 40
2458621.508110972
  9
$TDINDWG
 40
0.0000000116
  9
$TDUSRTIMER
 40
0.0000000116
  9
$USRTIMER
 70
     1
  9
$ANGBASE
 50
0.0
  9
$ANGDIR
 70
     0
  9
$PDMODE
 70
     0
  9
$PDSIZE
 40
0.0
  9
$PLINEWID
 40
0.0
  9
$SPLFRAME
 70
     0
  9
$SPLINETYPE
 70
     6
  9
$SPLINESEGS
 70
     8
  9
$HANDSEED
  5
239
  9
$SURFTAB1
 70
     6
  9
$SURFTAB2
 70
     6
  9
$SURFTYPE
 70
     6
  9
$SURFU
 70
     6
  9
$SURFV
 70
     6
  9
$UCSBASE
  2

  9
$UCSNAME
  2

  9
$UCSORG
 10
0.0
 20
0.0
 30
0.0
  9
$UCSXDIR
 10
1.0
 20
0.0
 30
0.0
  9
$UCSYDIR
 10
0.0
 20
1.0
 30
0.0
  9
$UCSORTHOREF
  2

  9
$UCSORTHOVIEW
 70
     0
  9
$UCSORGTOP
 10
0.0
 20
0.0
 30
0.0
  9
$UCSORGBOTTOM
 10
0.0
 20
0.0
 30
0.0
  9
$UCSORGLEFT
 10
0.0
 20
0.0
 30
0.0
  9
$UCSORGRIGHT
 10
0.0
 20
0.0
 30
0.0
  9
$UCSORGFRONT
 10
0.0
 20
0.0
 30
0.0
  9
$UCSORGBACK
 10
0.0
 20
0.0
 30
0.0
  9
$PUCSBASE
  2

  9
$PUCSNAME
  2

  9
$PUCSORG
 10
0.0
 20
0.0
 30
0.0
  9
$PUCSXDIR
 10
1.0
 20
0.0
 30
0.0
  9
$PUCSYDIR
 10
0.0
 20
1.0
 30
0.0
  9
$PUCSORTHOREF
  2

  9
$PUCSORTHOVIEW
 70
     0
  9
$PUCSORGTOP
 10
0.0
 20
0.0
 30
0.0
  9
$PUCSORGBOTTOM
 10
0.0
 20
0.0
 30
0.0
  9
$PUCSORGLEFT
 10
0.0
 20
0.0
 30
0.0
  9
$PUCSORGRIGHT
 10
0.0
 20
0.0
 30
0.0
  9
$PUCSORGFRONT
 10
0.0
 20
0.0
 30
0.0
  9
$PUCSORGBACK
 10
0.0
 20
0.0
 30
0.0
  9
$USERI1
 70
     0
  9
$USERI2
 70
     0
  9
$USERI3
 70
     0
  9
$USERI4
 70
     0
  9
$USERI5
 70
     0
  9
$USERR1
 40
0.0
  9
$USERR2
 40
0.0
  9
$USERR3
 40
0.0
  9
$USERR4
 40
0.0
  9
$USERR5
 40
0.0
  9
$WORLDVIEW
 70
     1
  9
$SHADEDGE
 70
     3
  9
$SHADEDIF
 70
    70
  9
$TILEMODE
 70
     1
  9
$MAXACTVP
 70
    64
  9
$PINSBASE
 10
0.0
 20
0.0
 30
0.0
  9
$PLIMCHECK
 70
     0
  9
$PEXTMIN
 10
1.000000000000000E+20
 20
1.000000000000000E+20
 30
1.000000000000000E+20
  9
$PEXTMAX
 10
-1.000000000000000E+20
 20
-1.000000000000000E+20
 30
-1.000000000000000E+20
  9
$PLIMMIN
 10
0.0
 20
0.0
  9
$PLIMMAX
 10
12.0
 20
9.0
  9
$UNITMODE
 70
     0
  9
$VISRETAIN
 70
     1
  9
$PLINEGEN
 70
     0
  9
$PSLTSCALE
 70
     1
  9
$TREEDEPTH
 70
  3020
  9
$CMLSTYLE
  2
Standard
  9
$CMLJUST
 70
     0
  9
$CMLSCALE
 40
1.0
  9
$PROXYGRAPHICS
 70
     1
  9
$MEASUREMENT
 70
     0
  9
$CELWEIGHT
370
    -1
  9
$ENDCAPS
280
     0
  9
$JOINSTYLE
280
     0
  9
$LWDISPLAY
290
     0
  9
$INSUNITS
 70
     1
  9
$HYPERLINKBASE
  1

  9
$STYLESHEET
  1

  9
$XEDIT
290
     1
  9
$CEPSNTYPE
380
     0
  9
$PSTYLEMODE
290
     1
  9
$FINGERPRINTGUID
  2
{d9928c7c-43a4-41e7-bb62-96b9027d057d}
  9
$VERSIONGUID
  2
{FAEB1C32-E019-11D5-929B-00C0DF256EC4}
  9
$EXTNAMES
290
     1
  9
$PSVPSCALE
 40
0.0
  9
$OLESTARTUP
290
     0
  9
$SORTENTS
280
   127
  9
$INDEXCTL
280
     0
  9
$HIDETEXT
280
     1
  9
$XCLIPFRAME
280
     2
  9
$HALOGAP
280
     0
  9
$OBSCOLOR
 70
   257
  9
$OBSLTYPE
280
     0
  9
$INTERSECTIONDISPLAY
280
     0
  9
$INTERSECTIONCOLOR
 70
   257
  9
$DIMASSOC
280
     2
  9
$PROJECTNAME
  1

  9
$CAMERADISPLAY
290
     0
  9
$LENSLENGTH
 40
50.0
  9
$CAMERAHEIGHT
 40
0.0
  9
$STEPSPERSEC
 40
2.0
  9
$STEPSIZE
 40
6.0
  9
$3DDWFPREC
 40
2.0
  9
$PSOLWIDTH
 40
0.25
  9
$PSOLHEIGHT
 40
4.0
  9
$LOFTANG1
 40
1.570796326794897
  9
$LOFTANG2
 40
1.570796326794897
  9
$LOFTMAG1
 40
0.0
  9
$LOFTMAG2
 40
0.0
  9
$LOFTPARAM
 70
     7
  9
$LOFTNORMALS
280
     1
  9
$LATITUDE
 40
37.795
  9
$LONGITUDE
 40
-122.394
  9
$NORTHDIRECTION
 40
0.0
  9
$TIMEZONE
 70
 -8000
  9
$LIGHTGLYPHDISPLAY
280
     1
  9
$TILEMODELIGHTSYNCH
280
     1
  9
$CMATERIAL
347
44
  9
$SOLIDHIST
280
     0
  9
$SHOWHIST
280
     1
  9
$DWFFRAME
280
     2
  9
$DGNFRAME
280
     2
  9
$REALWORLDSCALE
290
     1
  9
$INTERFERECOLOR
 62
   256
  9
$CSHADOW
280
     0
  9
$SHADOWPLANELOCATION
 40
0.0
  0
ENDSEC
  0
SECTION
  2
CLASSES
  0
CLASS
  1
ACDBDICTIONARYWDFLT
  2
AcDbDictionaryWithDefault
  3
ObjectDBX Classes
 90
        0
 91
        3
280
     0
281
     0
  0
CLASS
  1
VISUALSTYLE
  2
AcDbVisualStyle
  3
ObjectDBX Classes
 90
     4095
 91
        3
280
     0
281
     0
  0
CLASS
  1
MATERIAL
  2
AcDbMaterial
  3
ObjectDBX Classes
 90
     1153
 91
        3
280
     0
281
     0
  0
CLASS
  1
SCALE
  2
AcDbScale
  3
ObjectDBX Classes
 90
     1153
 91
        3
280
     0
281
     0
  0
CLASS
  1
TABLESTYLE
  2
AcDbTableStyle
  3
ObjectDBX Classes
 90
     4095
 91
        3
280
     0
281
     0
  0
CLASS
  1
MLEADERSTYLE
  2
AcDbMLeaderStyle
  3
ACDB_MLEADERSTYLE_CLASS
 90
     4095
 91
        3
280
     0
281
     0
  0
CLASS
  1
SUN
  2
AcDbSun
  3
SCENEOE
 90
     1153
 91
        3
280
     0
281
     0
  0
CLASS
  1
DICTIONARYVAR
  2
AcDbDictionaryVar
  3
ObjectDBX Classes
 90
        0
 91
        3
280
     0
281
     0
  0
CLASS
  1
CELLSTYLEMAP
  2
AcDbCellStyleMap
  3
ObjectDBX Classes
 90
     1152
 91
        3
280
     0
281
     0
  0
ENDSEC
  0
SECTION
  2
TABLES
  0
TABLE
  2
VPORT
  5
8
330
0
100
AcDbSymbolTable
 70
     1
  0
VPORT
  5
29
330
8
100
AcDbSymbolTableRecord
100
AcDbViewportTableRecord
  2
*Active
 70
     0
 10
0.0
 20
0.0
 11
1.0
 21
1.0
 12
10.42990654205607
 22
4.5
 13
0.0
 23
0.0
 14
0.5
 24
0.5
 15
0.5
 25
0.5
 16
0.0
 26
0.0
 36
1.0
 17
0.0
 27
0.0
 37
0.0
 40
9.0
 41
1.972972972850329
 42
50.0
 43
0.0
 44
0.0
 50
0.0
 51
0.0
 71
     0
 72
   100
 73
     1
 74
     3
 75
     0
 76
     0
 77
     0
 78
     0
281
     0
 65
     1
110
0.0
120
0.0
130
0.0
111
1.0
121
0.0
131
0.0
112
0.0
122
1.0
132
0.0
 79
     0
146
0.0
348
2F
 60
     3
 61
     5
292
     1
282
     1
141
0.0
142
0.0
 63
   250
361
6D
  0
ENDTAB
  0
TABLE
  2
LTYPE
  5
5
330
0
100
AcDbSymbolTable
 70
     2
  0
LTYPE
  5
14
330
5
100
AcDbSymbolTableRecord
100
AcDbLinetypeTableRecord
  2
ByBlock
 70
     0
  3

 72
    65
 73
     0
 40
0.0
  0
LTYPE
  5
15
330
5
100
AcDbSymbolTableRecord
100
AcDbLinetypeTableRecord
  2
ByLayer
 70
     0
  3

 72
    65
 73
     0
 40
0.0
  0
LTYPE
  5
16
330
5
100
AcDbSymbolTableRecord
100
AcDbLinetypeTableRecord
  2
Continuous
 70
     0
  3
Solid line
 72
    65
 73
     0
 40
0.0
  0
LTYPE
  5
79
330
5
100
AcDbSymbolTableRecord
100
AcDbLinetypeTableRecord
  2
HIDDEN2
 70
     0
  3
Hidden (.5x) _ _ _ _ _ _ _ _ _ _ _ _ _ _ _ _ _ 
 72
    65
 73
     2
 40
0.1875
 49
0.125
 74
     0
 49
-0.0625
 74
     0
  0
ENDTAB
  0
TABLE
  2
LAYER
  5
2
330
0
100
AcDbSymbolTable
 70
     6
  0
LAYER
  5
10
330
2
100
AcDbSymbolTableRecord
100
AcDbLayerTableRecord
  2
0
 70
     0
 62
     7
  6
Continuous
370
    -3
390
F
347
46
348
0
  0
LAYER
  5
6E
330
2
100
AcDbSymbolTableRecord
100
AcDbLayerTableRecord
  2
VISIBLE
 70
     0
 62
     7
  6
Continuous
370
     0
390
F
347
46
348
0
  0
LAYER
  5
7A
330
2
100
AcDbSymbolTableRecord
100
AcDbLayerTableRecord
  2
HIDDEN
 70
     0
 62
   253
  6
HIDDEN2
370
     0
390
F
347
46
348
0
  0
LAYER
  5
9C
330
2
100
AcDbSymbolTableRecord
100
AcDbLayerTableRecord
  2
DIMENSIONS
 70
     0
 62
     7
  6
Continuous
370
     0
390
F
347
46
348
0
  0
LAYER
  5
EF
330
2
100
AcDbSymbolTableRecord
100
AcDbLayerTableRecord
  2
CONTINUOUS
 70
     0
 62
     7
  6
Continuous
370
     0
390
F
347
46
348
0
  0
LAYER
  5
115
330
2
100
AcDbSymbolTableRecord
100
AcDbLayerTableRecord
  2
CENTER
 70
     0
 62
   204
  6
Continuous
370
     0
390
F
347
46
348
0
  0
ENDTAB
  0
TABLE
  2
STYLE
  5
3
330
0
100
AcDbSymbolTable
 70
     1
  0
STYLE
  5
11
330
3
100
AcDbSymbolTableRecord
100
AcDbTextStyleTableRecord
  2
Standard
 70
     0
 40
0.0
 41
1.0
 50
0.0
 71
     0
 42
0.2
  3
txt
  4

  0
ENDTAB
  0
TABLE
  2
VIEW
  5
6
330
0
100
AcDbSymbolTable
 70
     0
  0
ENDTAB
  0
TABLE
  2
UCS
  5
7
330
0
100
AcDbSymbolTable
 70
     0
  0
ENDTAB
  0
TABLE
  2
APPID
  5
9
330
0
100
AcDbSymbolTable
 70
     1
  0
APPID
  5
12
330
9
100
AcDbSymbolTableRecord
100
AcDbRegAppTableRecord
  2
ACAD
 70
     0
  0
ENDTAB
  0
TABLE
  2
DIMSTYLE
  5
A
330
0
100
AcDbSymbolTable
 70
     1
100
AcDbDimStyleTable
  0
DIMSTYLE
105
27
102
{ACAD_REACTORS
330
9D
330
AE
330
BF
330
CB
330
D7
330
E3
330
122
330
12E
330
13A
330
146
330
152
330
15E
330
16A
330
176
330
182
330
18E
330
19A
330
1A6
330
1B2
330
1BE
330
1CA
330
1D6
330
1E2
102
}
330
A
100
AcDbSymbolTableRecord
100
AcDbDimStyleTableRecord
  2
Standard
 70
     0
178
     0
340
11
  0
ENDTAB
  0
TABLE
  2
BLOCK_RECORD
  5
1
330
0
100
AcDbSymbolTable
 70
    25
  0
BLOCK_RECORD
  5
1F
330
1
100
AcDbSymbolTableRecord
100
AcDbBlockTableRecord
  2
*Model_Space
340
22
 70
     0
280
     1
281
     0
  0
BLOCK_RECORD
  5
1B
330
1
100
AcDbSymbolTableRecord
100
AcDbBlockTableRecord
  2
*Paper_Space
340
1E
 70
     0
280
     1
281
     0
  0
BLOCK_RECORD
  5
23
330
1
100
AcDbSymbolTableRecord
100
AcDbBlockTableRecord
  2
*Paper_Space0
340
26
 70
     0
280
     1
281
     0
  0
BLOCK_RECORD
  5
9E
330
1
100
AcDbSymbolTableRecord
100
AcDbBlockTableRecord
  2
D1
340
0
 70
     0
280
     1
281
     0
  0
BLOCK_RECORD
  5
AF
330
1
100
AcDbSymbolTableRecord
100
AcDbBlockTableRecord
  2
D2
340
0
 70
     0
280
     1
281
     0
  0
BLOCK_RECORD
  5
C0
330
1
100
AcDbSymbolTableRecord
100
AcDbBlockTableRecord
  2
D3
340
0
 70
     0
280
     1
281
     0
  0
BLOCK_RECORD
  5
CC
330
1
100
AcDbSymbolTableRecord
100
AcDbBlockTableRecord
  2
D4
340
0
 70
     0
280
     1
281
     0
  0
BLOCK_RECORD
  5
D8
330
1
100
AcDbSymbolTableRecord
100
AcDbBlockTableRecord
  2
D5
340
0
 70
     0
280
     1
281
     0
  0
BLOCK_RECORD
  5
E4
330
1
100
AcDbSymbolTableRecord
100
AcDbBlockTableRecord
  2
D6
340
0
 70
     0
280
     1
281
     0
  0
BLOCK_RECORD
  5
123
330
1
100
AcDbSymbolTableRecord
100
AcDbBlockTableRecord
  2
D7
340
0
 70
     0
280
     1
281
     0
  0
BLOCK_RECORD
  5
12F
330
1
100
AcDbSymbolTableRecord
100
AcDbBlockTableRecord
  2
D8
340
0
 70
     0
280
     1
281
     0
  0
BLOCK_RECORD
  5
13B
330
1
100
AcDbSymbolTableRecord
100
AcDbBlockTableRecord
  2
D9
340
0
 70
     0
280
     1
281
     0
  0
BLOCK_RECORD
  5
147
330
1
100
AcDbSymbolTableRecord
100
AcDbBlockTableRecord
  2
D10
340
0
 70
     0
280
     1
281
     0
  0
BLOCK_RECORD
  5
153
330
1
100
AcDbSymbolTableRecord
100
AcDbBlockTableRecord
  2
D11
340
0
 70
     0
280
     1
281
     0
  0
BLOCK_RECORD
  5
15F
330
1
100
AcDbSymbolTableRecord
100
AcDbBlockTableRecord
  2
D12
340
0
 70
     0
280
     1
281
     0
  0
BLOCK_RECORD
  5
16B
330
1
100
AcDbSymbolTableRecord
100
AcDbBlockTableRecord
  2
D13
340
0
 70
     0
280
     1
281
     0
  0
BLOCK_RECORD
  5
177
330
1
100
AcDbSymbolTableRecord
100
AcDbBlockTableRecord
  2
D14
340
0
 70
     0
280
     1
281
     0
  0
BLOCK_RECORD
  5
183
330
1
100
AcDbSymbolTableRecord
100
AcDbBlockTableRecord
  2
D15
340
0
 70
     0
280
     1
281
     0
  0
BLOCK_RECORD
  5
18F
330
1
100
AcDbSymbolTableRecord
100
AcDbBlockTableRecord
  2
D16
340
0
 70
     0
280
     1
281
     0
  0
BLOCK_RECORD
  5
19B
330
1
100
AcDbSymbolTableRecord
100
AcDbBlockTableRecord
  2
D17
340
0
 70
     0
280
     1
281
     0
  0
BLOCK_RECORD
  5
1A7
330
1
100
AcDbSymbolTableRecord
100
AcDbBlockTableRecord
  2
D18
340
0
 70
     0
280
     1
281
     0
  0
BLOCK_RECORD
  5
1B3
330
1
100
AcDbSymbolTableRecord
100
AcDbBlockTableRecord
  2
D19
340
0
 70
     0
280
     1
281
     0
  0
BLOCK_RECORD
  5
1BF
330
1
100
AcDbSymbolTableRecord
100
AcDbBlockTableRecord
  2
D20
340
0
 70
     0
280
     1
281
     0
  0
BLOCK_RECORD
  5
1CB
330
1
100
AcDbSymbolTableRecord
100
AcDbBlockTableRecord
  2
D21
340
0
 70
     0
280
     1
281
     0
  0
BLOCK_RECORD
  5
1D7
330
1
100
AcDbSymbolTableRecord
100
AcDbBlockTableRecord
  2
D22
340
0
 70
     0
280
     1
281
     0
  0
BLOCK_RECORD
  5
1E3
330
1
100
AcDbSymbolTableRecord
100
AcDbBlockTableRecord
  2
D23
340
0
 70
     0
280
     1
281
     0
  0
BLOCK_RECORD
  5
1FF
330
1
100
AcDbSymbolTableRecord
100
AcDbBlockTableRecord
  2
BLOCK7
340
0
102
{BLKREFS
331
1FE
102
}
 70
     0
280
     1
281
     0
  0
ENDTAB
  0
ENDSEC
  0
SECTION
  2
BLOCKS
  0
BLOCK
  5
20
330
1F
100
AcDbEntity
  8
0
100
AcDbBlockBegin
  2
*Model_Space
 70
     0
 10
0.0
 20
0.0
 30
0.0
  3
*Model_Space
  1

  0
ENDBLK
  5
21
330
1F
100
AcDbEntity
  8
0
100
AcDbBlockEnd
  0
BLOCK
  5
1C
330
1B
100
AcDbEntity
 67
     1
  8
0
100
AcDbBlockBegin
  2
*Paper_Space
 70
     0
 10
0.0
 20
0.0
 30
0.0
  3
*Paper_Space
  1

  0
ENDBLK
  5
1D
330
1B
100
AcDbEntity
 67
     1
  8
0
100
AcDbBlockEnd
  0
BLOCK
  5
24
330
23
100
AcDbEntity
  8
0
100
AcDbBlockBegin
  2
*Paper_Space0
 70
     0
 10
0.0
 20
0.0
 30
0.0
  3
*Paper_Space0
  1

  0
ENDBLK
  5
25
330
23
100
AcDbEntity
  8
0
100
AcDbBlockEnd
  0
BLOCK
  5
9F
330
9E
100
AcDbEntity
  8
0
100
AcDbBlockBegin
  2
D1
 70
     0
 10
0.0
 20
0.0
 30
0.0
  3
D1
  1

  0
MTEXT
  5
A1
330
9E
100
AcDbEntity
  8
DIMENSIONS
100
AcDbMText
 10
10.62653860123867
 20
4.105451688991776
 30
0.0
 40
0.0775536798367834
 41
0.0
 46
0.0
 71
     5
 72
     1
  1
{\fAlibre Symbols|b0|i0|c0|p0;n}{\fArial|b0|i0|c0|p0;1.010}{\fMicrosoft Sans Serif|b0|i0|c0|p0;\H0.9444444x;}
 73
     1
 44
1.0
  0
MTEXT
  5
A2
330
9E
100
AcDbEntity
  8
DIMENSIONS
100
AcDbMText
 10
10.62653860123867
 20
4.105451688991776
 30
0.0
 40
0.0775536798367834
 41
0.0
 46
0.0
 71
     5
 72
     1
  1
{\fArial|b0|i0|c0|p0;}
 73
     1
 44
1.0
  0
MTEXT
  5
A3
330
9E
100
AcDbEntity
  8
DIMENSIONS
100
AcDbMText
 10
10.62653860123867
 20
4.105451688991776
 30
0.0
 40
0.0775536798367834
 41
0.0
 46
0.0
 71
     5
 72
     1
  1
{\fArial|b0|i0|c0|p0;}
 73
     1
 44
1.0
  0
MTEXT
  5
A4
330
9E
100
AcDbEntity
  8
DIMENSIONS
100
AcDbMText
 10
10.41126082346089
 20
4.105451688991776
 30
0.0
 40
0.0775536798367834
 41
0.0
 46
0.0
 71
     5
 72
     1
  1
{\fArial|b0|i0|c0|p0;}
 73
     1
 44
1.0
  0
MTEXT
  5
A5
330
9E
100
AcDbEntity
  8
DIMENSIONS
100
AcDbMText
 10
10.84181637901644
 20
4.105451688991776
 30
0.0
 40
0.0775536798367834
 41
0.0
 46
0.0
 71
     5
 72
     1
  1
{\fArial|b0|i0|c0|p0;}
 73
     1
 44
1.0
  0
LINE
  5
A6
330
9E
100
AcDbEntity
  8
DIMENSIONS
100
AcDbLine
 10
10.90431642907808
 20
4.105451707764894
 30
0.0
 11
11.15431642907808
 21
4.105451707764894
 31
0.0
  0
LWPOLYLINE
  5
A7
330
9E
100
AcDbEntity
  8
DIMENSIONS
100
AcDbPolyline
 90
        4
 70
     0
 43
0.0
 10
11.27985760501054
 20
4.437424383499312
 10
11.297662067695
 20
4.526911818977807
 10
11.32572261635373
 20
4.516300239973198
 10
11.27985760501054
 20
4.437424383499312
  0
LINE
  5
A8
330
9E
100
AcDbEntity
  8
DIMENSIONS
100
AcDbLine
 10
11.27985760501054
 20
4.437424383499311
 30
0.0
 11
11.15431642907808
 21
4.105451707764894
 31
0.0
  0
LWPOLYLINE
  5
A9
330
9E
100
AcDbEntity
  8
DIMENSIONS
100
AcDbPolyline
 90
        4
 70
     0
 43
0.0
 10
11.45848585158812
 20
4.909776952587933
 10
11.44068138890366
 20
4.820289517109439
 10
11.41262084024493
 20
4.830901096114047
 10
11.45848585158812
 20
4.909776952587933
  0
LINE
  5
AA
330
9E
100
AcDbEntity
  8
DIMENSIONS
100
AcDbLine
 10
11.42665111457429
 20
4.825595306611744
 30
0.0
 11
11.31169234202437
 21
4.521606029475501
 31
0.0
  0
LINE
  5
AB
330
9E
100
AcDbEntity
  8
DIMENSIONS
100
AcDbLine
 10
8.150421728299332
 20
4.861100668043623
 30
0.0
 11
8.150421728299332
 21
4.861100668043623
 31
0.0
  0
LWPOLYLINE
  5
AC
330
9E
100
AcDbEntity
  8
DIMENSIONS
100
AcDbPolyline
 90
        5
 70
     0
 43
0.0
 10
8.150421728299332
 20
4.861100668043623
 10
8.150421728299332
 20
4.861100668043623
 10
8.150421728299332
 20
4.861100668043623
 10
8.150421728299332
 20
4.861100668043623
 10
8.150421728299332
 20
4.861100668043623
  0
HATCH
  5
AD
330
9E
100
AcDbEntity
  8
0
 62
     7
100
AcDbHatch
 10
0.0
 20
0.0
 30
0.0
210
0.0
220
0.0
230
1.0
  2
SOLID
 70
     1
 71
     0
 91
        2
 92
        0
 93
        3
 72
     1
 10
11.32572261635373
 20
4.516300239973198
 11
11.27985760501054
 21
4.437424383499312
 72
     1
 10
11.27985760501054
 20
4.437424383499312
 11
11.297662067695
 21
4.526911818977807
 72
     1
 10
11.297662067695
 20
4.526911818977807
 11
11.32572261635373
 21
4.516300239973198
 97
        0
 92
        0
 93
        3
 72
     1
 10
11.41262084024493
 20
4.830901096114047
 11
11.45848585158812
 21
4.909776952587933
 72
     1
 10
11.45848585158812
 20
4.909776952587933
 11
11.44068138890366
 21
4.820289517109439
 72
     1
 10
11.44068138890366
 20
4.820289517109439
 11
11.41262084024493
 21
4.830901096114047
 97
        0
 75
     0
 76
     1
 98
        0
  0
ENDBLK
  5
A0
330
9E
100
AcDbEntity
  8
0
100
AcDbBlockEnd
  0
BLOCK
  5
B0
330
AF
100
AcDbEntity
  8
0
100
AcDbBlockBegin
  2
D2
 70
     0
 10
0.0
 20
0.0
 30
0.0
  3
D2
  1

  0
MTEXT
  5
B2
330
AF
100
AcDbEntity
  8
DIMENSIONS
100
AcDbMText
 10
10.70195596049148
 20
3.796738752229967
 30
0.0
 40
0.0775536798367834
 41
0.0
 46
0.0
 71
     5
 72
     1
  1
{\fAlibre Symbols|b0|i0|c0|p0;n}{\fArial|b0|i0|c0|p0;.397}{\fArial|b0|i0|c0|p0;}
 73
     1
 44
1.0
  0
MTEXT
  5
B3
330
AF
100
AcDbEntity
  8
DIMENSIONS
100
AcDbMText
 10
10.70195596049148
 20
3.796738752229967
 30
0.0
 40
0.0775536798367834
 41
0.0
 46
0.0
 71
     5
 72
     1
  1
{\fArial|b0|i0|c0|p0;}
 73
     1
 44
1.0
  0
MTEXT
  5
B4
330
AF
100
AcDbEntity
  8
DIMENSIONS
100
AcDbMText
 10
10.70195596049148
 20
3.796738752229967
 30
0.0
 40
0.0775536798367834
 41
0.0
 46
0.0
 71
     5
 72
     1
  1
{\fArial|b0|i0|c0|p0;}
 73
     1
 44
1.0
  0
MTEXT
  5
B5
330
AF
100
AcDbEntity
  8
DIMENSIONS
100
AcDbMText
 10
10.51445596049148
 20
3.796738752229967
 30
0.0
 40
0.0775536798367834
 41
0.0
 46
0.0
 71
     5
 72
     1
  1
{\fArial|b0|i0|c0|p0;}
 73
     1
 44
1.0
  0
MTEXT
  5
B6
330
AF
100
AcDbEntity
  8
DIMENSIONS
100
AcDbMText
 10
10.88945596049148
 20
3.796738752229967
 30
0.0
 40
0.0775536798367834
 41
0.0
 46
0.0
 71
     5
 72
     1
  1
{\fArial|b0|i0|c0|p0;}
 73
     1
 44
1.0
  0
LINE
  5
B7
330
AF
100
AcDbEntity
  8
DIMENSIONS
100
AcDbLine
 10
10.9519560280747
 20
3.796738742843408
 30
0.0
 11
11.2019560280747
 21
3.796738742843408
 31
0.0
  0
LWPOLYLINE
  5
B8
330
AF
100
AcDbEntity
  8
DIMENSIONS
100
AcDbPolyline
 90
        4
 70
     0
 43
0.0
 10
11.35057999657867
 20
4.576107540021043
 10
11.34845547330894
 20
4.484890839790897
 10
11.31898651773536
 20
4.490510506809737
 10
11.35057999657867
 20
4.576107540021043
  0
LINE
  5
B9
330
AF
100
AcDbEntity
  8
DIMENSIONS
100
AcDbLine
 10
11.33372099552215
 20
4.487700673300317
 30
0.0
 11
11.2019560280747
 21
3.796738742843408
 31
0.0
  0
LWPOLYLINE
  5
BA
330
AF
100
AcDbEntity
  8
DIMENSIONS
100
AcDbPolyline
 90
        4
 70
     0
 43
0.0
 10
11.38776346001999
 20
4.771093796066202
 10
11.38988798328972
 20
4.862310496296348
 10
11.4193569388633
 20
4.856690829277508
 10
11.38776346001999
 20
4.771093796066202
  0
LINE
  5
BB
330
AF
100
AcDbEntity
  8
DIMENSIONS
100
AcDbLine
 10
11.40462246107651
 20
4.859500662786928
 30
0.0
 11
11.43459401851032
 21
5.016668425845998
 31
0.0
  0
LINE
  5
BC
330
AF
100
AcDbEntity
  8
DIMENSIONS
100
AcDbLine
 10
8.150421728299332
 20
4.861100668043623
 30
0.0
 11
8.150421728299332
 21
4.861100668043623
 31
0.0
  0
LWPOLYLINE
  5
BD
330
AF
100
AcDbEntity
  8
DIMENSIONS
100
AcDbPolyline
 90
        5
 70
     0
 43
0.0
 10
8.150421728299332
 20
4.861100668043623
 10
8.150421728299332
 20
4.861100668043623
 10
8.150421728299332
 20
4.861100668043623
 10
8.150421728299332
 20
4.861100668043623
 10
8.150421728299332
 20
4.861100668043623
  0
HATCH
  5
BE
330
AF
100
AcDbEntity
  8
0
 62
     7
100
AcDbHatch
 10
0.0
 20
0.0
 30
0.0
210
0.0
220
0.0
230
1.0
  2
SOLID
 70
     1
 71
     0
 91
        2
 92
        0
 93
        3
 72
     1
 10
11.31898651773536
 20
4.490510506809737
 11
11.35057999657867
 21
4.576107540021043
 72
     1
 10
11.35057999657867
 20
4.576107540021043
 11
11.34845547330894
 21
4.484890839790897
 72
     1
 10
11.34845547330894
 20
4.484890839790897
 11
11.31898651773536
 21
4.490510506809737
 97
        0
 92
        0
 93
        3
 72
     1
 10
11.4193569388633
 20
4.856690829277508
 11
11.38776346001999
 21
4.771093796066202
 72
     1
 10
11.38776346001999
 20
4.771093796066202
 11
11.38988798328972
 21
4.862310496296348
 72
     1
 10
11.38988798328972
 20
4.862310496296348
 11
11.4193569388633
 21
4.856690829277508
 97
        0
 75
     0
 76
     1
 98
        0
  0
ENDBLK
  5
B1
330
AF
100
AcDbEntity
  8
0
100
AcDbBlockEnd
  0
BLOCK
  5
C1
330
C0
100
AcDbEntity
  8
0
100
AcDbBlockBegin
  2
D3
 70
     0
 10
0.0
 20
0.0
 30
0.0
  3
D3
  1

  0
MTEXT
  5
C3
330
C0
100
AcDbEntity
  8
DIMENSIONS
100
AcDbMText
 10
3.439959939070572
 20
4.361100668043623
 30
0.0
 40
0.0775536798367834
 41
0.0
 46
0.0
 71
     5
 72
     1
  1
{\fArial|b0|i0|c0|p0;.000}{\fArial|b0|i0|c0|p0;}
 73
     1
 44
1.0
  0
MTEXT
  5
C4
330
C0
100
AcDbEntity
  8
DIMENSIONS
100
AcDbMText
 10
3.439959939070572
 20
4.361100668043623
 30
0.0
 40
0.0775536798367834
 41
0.0
 46
0.0
 71
     5
 72
     1
  1
{\fArial|b0|i0|c0|p0;}
 73
     1
 44
1.0
  0
MTEXT
  5
C5
330
C0
100
AcDbEntity
  8
DIMENSIONS
100
AcDbMText
 10
3.439959939070572
 20
4.361100668043623
 30
0.0
 40
0.0775536798367834
 41
0.0
 46
0.0
 71
     5
 72
     1
  1
{\fArial|b0|i0|c0|p0;}
 73
     1
 44
1.0
  0
MTEXT
  5
C6
330
C0
100
AcDbEntity
  8
DIMENSIONS
100
AcDbMText
 10
3.301071050181683
 20
4.361100668043623
 30
0.0
 40
0.0775536798367834
 41
0.0
 46
0.0
 71
     5
 72
     1
  1
{\fArial|b0|i0|c0|p0;}
 73
     1
 44
1.0
  0
MTEXT
  5
C7
330
C0
100
AcDbEntity
  8
DIMENSIONS
100
AcDbMText
 10
3.57884882795946
 20
4.361100668043623
 30
0.0
 40
0.0775536798367834
 41
0.0
 46
0.0
 71
     5
 72
     1
  1
{\fArial|b0|i0|c0|p0;}
 73
     1
 44
1.0
  0
LINE
  5
C8
330
C0
100
AcDbEntity
  8
DIMENSIONS
100
AcDbLine
 10
3.806671728299332
 20
4.361100668043623
 30
0.0
 11
4.141348726167426
 21
4.361100668043623
 31
0.0
  0
LINE
  5
C9
330
C0
100
AcDbEntity
  8
DIMENSIONS
100
AcDbLine
 10
4.141348726167426
 20
4.361100668043623
 30
0.0
 11
3.891348726167426
 21
4.361100675552869
 31
0.0
  0
LINE
  5
CA
330
C0
100
AcDbEntity
  8
DIMENSIONS
100
AcDbLine
 10
3.891348726167426
 20
4.361100675552869
 30
0.0
 11
3.641348726167426
 21
4.361100675552869
 31
0.0
  0
ENDBLK
  5
C2
330
C0
100
AcDbEntity
  8
0
100
AcDbBlockEnd
  0
BLOCK
  5
CD
330
CC
100
AcDbEntity
  8
0
100
AcDbBlockBegin
  2
D4
 70
     0
 10
0.0
 20
0.0
 30
0.0
  3
D4
  1

  0
MTEXT
  5
CF
330
CC
100
AcDbEntity
  8
DIMENSIONS
100
AcDbMText
 10
3.439959845204981
 20
4.673600668043623
 30
0.0
 40
0.0775536798367834
 41
0.0
 46
0.0
 71
     5
 72
     1
  1
{\fArial|b0|i0|c0|p0;.625}{\fArial|b0|i0|c0|p0;}
 73
     1
 44
1.0
  0
MTEXT
  5
D0
330
CC
100
AcDbEntity
  8
DIMENSIONS
100
AcDbMText
 10
3.439959845204981
 20
4.673600668043623
 30
0.0
 40
0.0775536798367834
 41
0.0
 46
0.0
 71
     5
 72
     1
  1
{\fArial|b0|i0|c0|p0;}
 73
     1
 44
1.0
  0
MTEXT
  5
D1
330
CC
100
AcDbEntity
  8
DIMENSIONS
100
AcDbMText
 10
3.439959845204981
 20
4.673600668043623
 30
0.0
 40
0.0775536798367834
 41
0.0
 46
0.0
 71
     5
 72
     1
  1
{\fArial|b0|i0|c0|p0;}
 73
     1
 44
1.0
  0
MTEXT
  5
D2
330
CC
100
AcDbEntity
  8
DIMENSIONS
100
AcDbMText
 10
3.301070956316092
 20
4.673600668043623
 30
0.0
 40
0.0775536798367834
 41
0.0
 46
0.0
 71
     5
 72
     1
  1
{\fArial|b0|i0|c0|p0;}
 73
     1
 44
1.0
  0
MTEXT
  5
D3
330
CC
100
AcDbEntity
  8
DIMENSIONS
100
AcDbMText
 10
3.578848734093869
 20
4.673600668043623
 30
0.0
 40
0.0775536798367834
 41
0.0
 46
0.0
 71
     5
 72
     1
  1
{\fArial|b0|i0|c0|p0;}
 73
     1
 44
1.0
  0
LINE
  5
D4
330
CC
100
AcDbEntity
  8
DIMENSIONS
100
AcDbLine
 10
4.869171728299332
 20
4.673600668043623
 30
0.0
 11
4.141348726167426
 21
4.673600668043623
 31
0.0
  0
LINE
  5
D5
330
CC
100
AcDbEntity
  8
DIMENSIONS
100
AcDbLine
 10
4.141348726167426
 20
4.673600668043623
 30
0.0
 11
3.891348726167426
 21
4.67360067085959
 31
0.0
  0
LINE
  5
D6
330
CC
100
AcDbEntity
  8
DIMENSIONS
100
AcDbLine
 10
3.891348726167426
 20
4.67360067085959
 30
0.0
 11
3.641348726167426
 21
4.67360067085959
 31
0.0
  0
ENDBLK
  5
CE
330
CC
100
AcDbEntity
  8
0
100
AcDbBlockEnd
  0
BLOCK
  5
D9
330
D8
100
AcDbEntity
  8
0
100
AcDbBlockBegin
  2
D5
 70
     0
 10
0.0
 20
0.0
 30
0.0
  3
D5
  1

  0
MTEXT
  5
DB
330
D8
100
AcDbEntity
  8
DIMENSIONS
100
AcDbMText
 10
3.412182072016182
 20
5.029471680604509
 30
0.0
 40
0.0775536798367834
 41
0.0
 46
0.0
 71
     5
 72
     1
  1
{\fArial|b0|i0|c0|p0;1.337}{\fArial|b0|i0|c0|p0;}
 73
     1
 44
1.0
  0
MTEXT
  5
DC
330
D8
100
AcDbEntity
  8
DIMENSIONS
100
AcDbMText
 10
3.412182072016182
 20
5.029471680604509
 30
0.0
 40
0.0775536798367834
 41
0.0
 46
0.0
 71
     5
 72
     1
  1
{\fArial|b0|i0|c0|p0;}
 73
     1
 44
1.0
  0
MTEXT
  5
DD
330
D8
100
AcDbEntity
  8
DIMENSIONS
100
AcDbMText
 10
3.412182072016182
 20
5.029471680604509
 30
0.0
 40
0.0775536798367834
 41
0.0
 46
0.0
 71
     5
 72
     1
  1
{\fArial|b0|i0|c0|p0;}
 73
     1
 44
1.0
  0
MTEXT
  5
DE
330
D8
100
AcDbEntity
  8
DIMENSIONS
100
AcDbMText
 10
3.245515405349515
 20
5.029471680604509
 30
0.0
 40
0.0775536798367834
 41
0.0
 46
0.0
 71
     5
 72
     1
  1
{\fArial|b0|i0|c0|p0;}
 73
     1
 44
1.0
  0
MTEXT
  5
DF
330
D8
100
AcDbEntity
  8
DIMENSIONS
100
AcDbMText
 10
3.578848738682848
 20
5.029471680604509
 30
0.0
 40
0.0775536798367834
 41
0.0
 46
0.0
 71
     5
 72
     1
  1
{\fArial|b0|i0|c0|p0;}
 73
     1
 44
1.0
  0
LINE
  5
E0
330
D8
100
AcDbEntity
  8
DIMENSIONS
100
AcDbLine
 10
6.712921728310414
 20
5.029471680604508
 30
0.0
 11
4.141348726167426
 21
5.029471680604508
 31
0.0
  0
LINE
  5
E1
330
D8
100
AcDbEntity
  8
DIMENSIONS
100
AcDbLine
 10
4.141348726167426
 20
5.029471680604508
 30
0.0
 11
3.891348726167426
 21
5.029471680873981
 31
0.0
  0
LINE
  5
E2
330
D8
100
AcDbEntity
  8
DIMENSIONS
100
AcDbLine
 10
3.891348726167426
 20
5.029471680873981
 30
0.0
 11
3.641348726167426
 21
5.029471680873981
 31
0.0
  0
ENDBLK
  5
DA
330
D8
100
AcDbEntity
  8
0
100
AcDbBlockEnd
  0
BLOCK
  5
E5
330
E4
100
AcDbEntity
  8
0
100
AcDbBlockBegin
  2
D6
 70
     0
 10
0.0
 20
0.0
 30
0.0
  3
D6
  1

  0
MTEXT
  5
E7
330
E4
100
AcDbEntity
  8
DIMENSIONS
100
AcDbMText
 10
3.412182072016182
 20
5.361100668043623
 30
0.0
 40
0.0775536798367834
 41
0.0
 46
0.0
 71
     5
 72
     1
  1
{\fArial|b0|i0|c0|p0;2.000}{\fArial|b0|i0|c0|p0;}
 73
     1
 44
1.0
  0
MTEXT
  5
E8
330
E4
100
AcDbEntity
  8
DIMENSIONS
100
AcDbMText
 10
3.412182072016182
 20
5.361100668043623
 30
0.0
 40
0.0775536798367834
 41
0.0
 46
0.0
 71
     5
 72
     1
  1
{\fArial|b0|i0|c0|p0;}
 73
     1
 44
1.0
  0
MTEXT
  5
E9
330
E4
100
AcDbEntity
  8
DIMENSIONS
100
AcDbMText
 10
3.412182072016182
 20
5.361100668043623
 30
0.0
 40
0.0775536798367834
 41
0.0
 46
0.0
 71
     5
 72
     1
  1
{\fArial|b0|i0|c0|p0;}
 73
     1
 44
1.0
  0
MTEXT
  5
EA
330
E4
100
AcDbEntity
  8
DIMENSIONS
100
AcDbMText
 10
3.245515405349515
 20
5.361100668043623
 30
0.0
 40
0.0775536798367834
 41
0.0
 46
0.0
 71
     5
 72
     1
  1
{\fArial|b0|i0|c0|p0;}
 73
     1
 44
1.0
  0
MTEXT
  5
EB
330
E4
100
AcDbEntity
  8
DIMENSIONS
100
AcDbMText
 10
3.578848738682848
 20
5.361100668043623
 30
0.0
 40
0.0775536798367834
 41
0.0
 46
0.0
 71
     5
 72
     1
  1
{\fArial|b0|i0|c0|p0;}
 73
     1
 44
1.0
  0
LINE
  5
EC
330
E4
100
AcDbEntity
  8
DIMENSIONS
100
AcDbLine
 10
3.806671728299332
 20
5.361100668043623
 30
0.0
 11
4.141348726167426
 21
5.361100668043623
 31
0.0
  0
LINE
  5
ED
330
E4
100
AcDbEntity
  8
DIMENSIONS
100
AcDbLine
 10
4.141348726167426
 20
5.361100668043623
 30
0.0
 11
3.891348726167426
 21
5.361100660534376
 31
0.0
  0
LINE
  5
EE
330
E4
100
AcDbEntity
  8
DIMENSIONS
100
AcDbLine
 10
3.891348726167426
 20
5.361100660534376
 30
0.0
 11
3.641348726167426
 21
5.361100660534376
 31
0.0
  0
ENDBLK
  5
E6
330
E4
100
AcDbEntity
  8
0
100
AcDbBlockEnd
  0
BLOCK
  5
124
330
123
100
AcDbEntity
  8
0
100
AcDbBlockBegin
  2
D7
 70
     0
 10
0.0
 20
0.0
 30
0.0
  3
D7
  1

  0
MTEXT
  5
126
330
123
100
AcDbEntity
  8
DIMENSIONS
100
AcDbMText
 10
3.869171728299331
 20
6.549720253531413
 30
0.0
 40
0.0775536798367834
 41
0.0
 46
0.0
 71
     5
 72
     1
  1
{\fArial|b0|i0|c0|p0;.000}{\fArial|b0|i0|c0|p0;}
 11
6.123031769111886E-17
 21
1.0
 31
0.0
 73
     1
 44
1.0
  0
MTEXT
  5
127
330
123
100
AcDbEntity
  8
DIMENSIONS
100
AcDbMText
 10
3.869171728299331
 20
6.549720253531413
 30
0.0
 40
0.0775536798367834
 41
0.0
 46
0.0
 71
     5
 72
     1
  1
{\fArial|b0|i0|c0|p0;}
 11
6.123031769111886E-17
 21
1.0
 31
0.0
 73
     1
 44
1.0
  0
MTEXT
  5
128
330
123
100
AcDbEntity
  8
DIMENSIONS
100
AcDbMText
 10
3.869171728299331
 20
6.549720253531413
 30
0.0
 40
0.0775536798367834
 41
0.0
 46
0.0
 71
     5
 72
     1
  1
{\fArial|b0|i0|c0|p0;}
 11
6.123031769111886E-17
 21
1.0
 31
0.0
 73
     1
 44
1.0
  0
MTEXT
  5
129
330
123
100
AcDbEntity
  8
DIMENSIONS
100
AcDbMText
 10
3.869171728299331
 20
6.410831364642524
 30
0.0
 40
0.0775536798367834
 41
0.0
 46
0.0
 71
     5
 72
     1
  1
{\fArial|b0|i0|c0|p0;}
 11
6.123031769111886E-17
 21
1.0
 31
0.0
 73
     1
 44
1.0
  0
MTEXT
  5
12A
330
123
100
AcDbEntity
  8
DIMENSIONS
100
AcDbMText
 10
3.869171728299331
 20
6.688609142420303
 30
0.0
 40
0.0775536798367834
 41
0.0
 46
0.0
 71
     5
 72
     1
  1
{\fArial|b0|i0|c0|p0;}
 11
6.123031769111886E-17
 21
1.0
 31
0.0
 73
     1
 44
1.0
  0
LINE
  5
12B
330
123
100
AcDbEntity
  8
DIMENSIONS
100
AcDbLine
 10
3.869171728299331
 20
7.271406652420551
 30
0.0
 11
3.869171728299331
 21
7.251109265905691
 31
0.0
  0
LINE
  5
12C
330
123
100
AcDbEntity
  8
DIMENSIONS
100
AcDbLine
 10
3.869171728299331
 20
7.251109265905691
 30
0.0
 11
3.869171726422018
 21
7.001109265905691
 31
0.0
  0
LINE
  5
12D
330
123
100
AcDbEntity
  8
DIMENSIONS
100
AcDbLine
 10
3.869171726422018
 20
7.001109265905691
 30
0.0
 11
3.869171726422018
 21
6.751109265905691
 31
0.0
  0
ENDBLK
  5
125
330
123
100
AcDbEntity
  8
0
100
AcDbBlockEnd
  0
BLOCK
  5
130
330
12F
100
AcDbEntity
  8
0
100
AcDbBlockBegin
  2
D8
 70
     0
 10
0.0
 20
0.0
 30
0.0
  3
D8
  1

  0
MTEXT
  5
132
330
12F
100
AcDbEntity
  8
DIMENSIONS
100
AcDbMText
 10
4.056671728299332
 20
6.549720441262579
 30
0.0
 40
0.0775536798367834
 41
0.0
 46
0.0
 71
     5
 72
     1
  1
{\fArial|b0|i0|c0|p0;.375}{\fArial|b0|i0|c0|p0;}
 11
6.123031769111886E-17
 21
1.0
 31
0.0
 73
     1
 44
1.0
  0
MTEXT
  5
133
330
12F
100
AcDbEntity
  8
DIMENSIONS
100
AcDbMText
 10
4.056671728299332
 20
6.549720441262579
 30
0.0
 40
0.0775536798367834
 41
0.0
 46
0.0
 71
     5
 72
     1
  1
{\fArial|b0|i0|c0|p0;}
 11
6.123031769111886E-17
 21
1.0
 31
0.0
 73
     1
 44
1.0
  0
MTEXT
  5
134
330
12F
100
AcDbEntity
  8
DIMENSIONS
100
AcDbMText
 10
4.056671728299332
 20
6.549720441262579
 30
0.0
 40
0.0775536798367834
 41
0.0
 46
0.0
 71
     5
 72
     1
  1
{\fArial|b0|i0|c0|p0;}
 11
6.123031769111886E-17
 21
1.0
 31
0.0
 73
     1
 44
1.0
  0
MTEXT
  5
135
330
12F
100
AcDbEntity
  8
DIMENSIONS
100
AcDbMText
 10
4.056671728299332
 20
6.41083155237369
 30
0.0
 40
0.0775536798367834
 41
0.0
 46
0.0
 71
     5
 72
     1
  1
{\fArial|b0|i0|c0|p0;}
 11
6.123031769111886E-17
 21
1.0
 31
0.0
 73
     1
 44
1.0
  0
MTEXT
  5
136
330
12F
100
AcDbEntity
  8
DIMENSIONS
100
AcDbMText
 10
4.056671728299332
 20
6.688609330151468
 30
0.0
 40
0.0775536798367834
 41
0.0
 46
0.0
 71
     5
 72
     1
  1
{\fArial|b0|i0|c0|p0;}
 11
6.123031769111886E-17
 21
1.0
 31
0.0
 73
     1
 44
1.0
  0
LINE
  5
137
330
12F
100
AcDbEntity
  8
DIMENSIONS
100
AcDbLine
 10
4.056671728299332
 20
7.083906652420551
 30
0.0
 11
4.056671728299332
 21
7.251109333488911
 31
0.0
  0
LINE
  5
138
330
12F
100
AcDbEntity
  8
DIMENSIONS
100
AcDbLine
 10
4.056671728299332
 20
7.251109333488911
 30
0.0
 11
4.056671726422018
 21
7.001109333488911
 31
0.0
  0
LINE
  5
139
330
12F
100
AcDbEntity
  8
DIMENSIONS
100
AcDbLine
 10
4.056671726422018
 20
7.001109333488911
 30
0.0
 11
4.056671726422018
 21
6.751109333488911
 31
0.0
  0
ENDBLK
  5
131
330
12F
100
AcDbEntity
  8
0
100
AcDbBlockEnd
  0
BLOCK
  5
13C
330
13B
100
AcDbEntity
  8
0
100
AcDbBlockBegin
  2
D9
 70
     0
 10
0.0
 20
0.0
 30
0.0
  3
D9
  1

  0
MTEXT
  5
13E
330
13B
100
AcDbEntity
  8
DIMENSIONS
100
AcDbMText
 10
4.931671728299332
 20
6.521942611754435
 30
0.0
 40
0.0775536798367834
 41
0.0
 46
0.0
 71
     5
 72
     1
  1
{\fArial|b0|i0|c0|p0;2.125}{\fArial|b0|i0|c0|p0;}
 11
6.123031769111886E-17
 21
1.0
 31
0.0
 73
     1
 44
1.0
  0
MTEXT
  5
13F
330
13B
100
AcDbEntity
  8
DIMENSIONS
100
AcDbMText
 10
4.931671728299332
 20
6.521942611754435
 30
0.0
 40
0.0775536798367834
 41
0.0
 46
0.0
 71
     5
 72
     1
  1
{\fArial|b0|i0|c0|p0;}
 11
6.123031769111886E-17
 21
1.0
 31
0.0
 73
     1
 44
1.0
  0
MTEXT
  5
140
330
13B
100
AcDbEntity
  8
DIMENSIONS
100
AcDbMText
 10
4.931671728299332
 20
6.521942611754435
 30
0.0
 40
0.0775536798367834
 41
0.0
 46
0.0
 71
     5
 72
     1
  1
{\fArial|b0|i0|c0|p0;}
 11
6.123031769111886E-17
 21
1.0
 31
0.0
 73
     1
 44
1.0
  0
MTEXT
  5
141
330
13B
100
AcDbEntity
  8
DIMENSIONS
100
AcDbMText
 10
4.931671728299332
 20
6.355275945087768
 30
0.0
 40
0.0775536798367834
 41
0.0
 46
0.0
 71
     5
 72
     1
  1
{\fArial|b0|i0|c0|p0;}
 11
6.123031769111886E-17
 21
1.0
 31
0.0
 73
     1
 44
1.0
  0
MTEXT
  5
142
330
13B
100
AcDbEntity
  8
DIMENSIONS
100
AcDbMText
 10
4.931671728299332
 20
6.688609278421102
 30
0.0
 40
0.0775536798367834
 41
0.0
 46
0.0
 71
     5
 72
     1
  1
{\fArial|b0|i0|c0|p0;}
 11
6.123031769111886E-17
 21
1.0
 31
0.0
 73
     1
 44
1.0
  0
LINE
  5
143
330
13B
100
AcDbEntity
  8
DIMENSIONS
100
AcDbLine
 10
4.931671728299332
 20
7.331406652420551
 30
0.0
 11
4.931671728299332
 21
7.251109273414937
 31
0.0
  0
LINE
  5
144
330
13B
100
AcDbEntity
  8
DIMENSIONS
100
AcDbLine
 10
4.931671728299332
 20
7.251109273414937
 30
0.0
 11
4.931671726422019
 21
7.001109273414937
 31
0.0
  0
LINE
  5
145
330
13B
100
AcDbEntity
  8
DIMENSIONS
100
AcDbLine
 10
4.931671726422019
 20
7.001109273414937
 30
0.0
 11
4.931671726422019
 21
6.751109273414937
 31
0.0
  0
ENDBLK
  5
13D
330
13B
100
AcDbEntity
  8
0
100
AcDbBlockEnd
  0
BLOCK
  5
148
330
147
100
AcDbEntity
  8
0
100
AcDbBlockBegin
  2
D10
 70
     0
 10
0.0
 20
0.0
 30
0.0
  3
D10
  1

  0
MTEXT
  5
14A
330
147
100
AcDbEntity
  8
DIMENSIONS
100
AcDbMText
 10
5.431671728299332
 20
6.521942611754435
 30
0.0
 40
0.0775536798367834
 41
0.0
 46
0.0
 71
     5
 72
     1
  1
{\fArial|b0|i0|c0|p0;3.125}{\fArial|b0|i0|c0|p0;}
 11
6.123031769111886E-17
 21
1.0
 31
0.0
 73
     1
 44
1.0
  0
MTEXT
  5
14B
330
147
100
AcDbEntity
  8
DIMENSIONS
100
AcDbMText
 10
5.431671728299332
 20
6.521942611754435
 30
0.0
 40
0.0775536798367834
 41
0.0
 46
0.0
 71
     5
 72
     1
  1
{\fArial|b0|i0|c0|p0;}
 11
6.123031769111886E-17
 21
1.0
 31
0.0
 73
     1
 44
1.0
  0
MTEXT
  5
14C
330
147
100
AcDbEntity
  8
DIMENSIONS
100
AcDbMText
 10
5.431671728299332
 20
6.521942611754435
 30
0.0
 40
0.0775536798367834
 41
0.0
 46
0.0
 71
     5
 72
     1
  1
{\fArial|b0|i0|c0|p0;}
 11
6.123031769111886E-17
 21
1.0
 31
0.0
 73
     1
 44
1.0
  0
MTEXT
  5
14D
330
147
100
AcDbEntity
  8
DIMENSIONS
100
AcDbMText
 10
5.431671728299332
 20
6.355275945087768
 30
0.0
 40
0.0775536798367834
 41
0.0
 46
0.0
 71
     5
 72
     1
  1
{\fArial|b0|i0|c0|p0;}
 11
6.123031769111886E-17
 21
1.0
 31
0.0
 73
     1
 44
1.0
  0
MTEXT
  5
14E
330
147
100
AcDbEntity
  8
DIMENSIONS
100
AcDbMText
 10
5.431671728299332
 20
6.688609278421102
 30
0.0
 40
0.0775536798367834
 41
0.0
 46
0.0
 71
     5
 72
     1
  1
{\fArial|b0|i0|c0|p0;}
 11
6.123031769111886E-17
 21
1.0
 31
0.0
 73
     1
 44
1.0
  0
LINE
  5
14F
330
147
100
AcDbEntity
  8
DIMENSIONS
100
AcDbLine
 10
5.431671728299332
 20
7.083906652420551
 30
0.0
 11
5.431671728299332
 21
7.251109265905691
 31
0.0
  0
LINE
  5
150
330
147
100
AcDbEntity
  8
DIMENSIONS
100
AcDbLine
 10
5.431671728299332
 20
7.251109265905691
 30
0.0
 11
5.431671726422019
 21
7.001109265905691
 31
0.0
  0
LINE
  5
151
330
147
100
AcDbEntity
  8
DIMENSIONS
100
AcDbLine
 10
5.431671726422019
 20
7.001109265905691
 30
0.0
 11
5.431671726422019
 21
6.751109265905691
 31
0.0
  0
ENDBLK
  5
149
330
147
100
AcDbEntity
  8
0
100
AcDbBlockEnd
  0
BLOCK
  5
154
330
153
100
AcDbEntity
  8
0
100
AcDbBlockBegin
  2
D11
 70
     0
 10
0.0
 20
0.0
 30
0.0
  3
D11
  1

  0
MTEXT
  5
156
330
153
100
AcDbEntity
  8
DIMENSIONS
100
AcDbMText
 10
6.775421728310414
 20
6.521942564821644
 30
0.0
 40
0.0775536798367834
 41
0.0
 46
0.0
 71
     5
 72
     1
  1
{\fArial|b0|i0|c0|p0;5.813}{\fArial|b0|i0|c0|p0;}
 11
6.123031769111886E-17
 21
1.0
 31
0.0
 73
     1
 44
1.0
  0
MTEXT
  5
157
330
153
100
AcDbEntity
  8
DIMENSIONS
100
AcDbMText
 10
6.775421728310414
 20
6.521942564821644
 30
0.0
 40
0.0775536798367834
 41
0.0
 46
0.0
 71
     5
 72
     1
  1
{\fArial|b0|i0|c0|p0;}
 11
6.123031769111886E-17
 21
1.0
 31
0.0
 73
     1
 44
1.0
  0
MTEXT
  5
158
330
153
100
AcDbEntity
  8
DIMENSIONS
100
AcDbMText
 10
6.775421728310414
 20
6.521942564821644
 30
0.0
 40
0.0775536798367834
 41
0.0
 46
0.0
 71
     5
 72
     1
  1
{\fArial|b0|i0|c0|p0;}
 11
6.123031769111886E-17
 21
1.0
 31
0.0
 73
     1
 44
1.0
  0
MTEXT
  5
159
330
153
100
AcDbEntity
  8
DIMENSIONS
100
AcDbMText
 10
6.775421728310414
 20
6.355275898154977
 30
0.0
 40
0.0775536798367834
 41
0.0
 46
0.0
 71
     5
 72
     1
  1
{\fArial|b0|i0|c0|p0;}
 11
6.123031769111886E-17
 21
1.0
 31
0.0
 73
     1
 44
1.0
  0
MTEXT
  5
15A
330
153
100
AcDbEntity
  8
DIMENSIONS
100
AcDbMText
 10
6.775421728310414
 20
6.688609231488311
 30
0.0
 40
0.0775536798367834
 41
0.0
 46
0.0
 71
     5
 72
     1
  1
{\fArial|b0|i0|c0|p0;}
 11
6.123031769111886E-17
 21
1.0
 31
0.0
 73
     1
 44
1.0
  0
LINE
  5
15B
330
153
100
AcDbEntity
  8
DIMENSIONS
100
AcDbLine
 10
6.775421728310414
 20
7.331406652420551
 30
0.0
 11
6.775421728310414
 21
7.25110923398031
 31
0.0
  0
LINE
  5
15C
330
153
100
AcDbEntity
  8
DIMENSIONS
100
AcDbLine
 10
6.775421728310414
 20
7.25110923398031
 30
0.0
 11
6.775421773365892
 21
7.00110923398031
 31
0.0
  0
LINE
  5
15D
330
153
100
AcDbEntity
  8
DIMENSIONS
100
AcDbLine
 10
6.775421773365892
 20
7.00110923398031
 30
0.0
 11
6.775421773365892
 21
6.75110923398031
 31
0.0
  0
ENDBLK
  5
155
330
153
100
AcDbEntity
  8
0
100
AcDbBlockEnd
  0
BLOCK
  5
160
330
15F
100
AcDbEntity
  8
0
100
AcDbBlockBegin
  2
D12
 70
     0
 10
0.0
 20
0.0
 30
0.0
  3
D12
  1

  0
MTEXT
  5
162
330
15F
100
AcDbEntity
  8
DIMENSIONS
100
AcDbMText
 10
8.931671728299332
 20
6.487220348335652
 30
0.0
 40
0.0775536798367834
 41
0.0
 46
0.0
 71
     5
 72
     1
  1
{\fArial|b0|i0|c0|p0;10.125}{\fArial|b0|i0|c0|p0;}
 11
6.123031769111886E-17
 21
1.0
 31
0.0
 73
     1
 44
1.0
  0
MTEXT
  5
163
330
15F
100
AcDbEntity
  8
DIMENSIONS
100
AcDbMText
 10
8.931671728299332
 20
6.487220348335652
 30
0.0
 40
0.0775536798367834
 41
0.0
 46
0.0
 71
     5
 72
     1
  1
{\fArial|b0|i0|c0|p0;}
 11
6.123031769111886E-17
 21
1.0
 31
0.0
 73
     1
 44
1.0
  0
MTEXT
  5
164
330
15F
100
AcDbEntity
  8
DIMENSIONS
100
AcDbMText
 10
8.931671728299332
 20
6.487220348335652
 30
0.0
 40
0.0775536798367834
 41
0.0
 46
0.0
 71
     5
 72
     1
  1
{\fArial|b0|i0|c0|p0;}
 11
6.123031769111886E-17
 21
1.0
 31
0.0
 73
     1
 44
1.0
  0
MTEXT
  5
165
330
15F
100
AcDbEntity
  8
DIMENSIONS
100
AcDbMText
 10
8.931671728299332
 20
6.285831459446762
 30
0.0
 40
0.0775536798367834
 41
0.0
 46
0.0
 71
     5
 72
     1
  1
{\fArial|b0|i0|c0|p0;}
 11
6.123031769111886E-17
 21
1.0
 31
0.0
 73
     1
 44
1.0
  0
MTEXT
  5
166
330
15F
100
AcDbEntity
  8
DIMENSIONS
100
AcDbMText
 10
8.931671728299332
 20
6.688609237224541
 30
0.0
 40
0.0775536798367834
 41
0.0
 46
0.0
 71
     5
 72
     1
  1
{\fArial|b0|i0|c0|p0;}
 11
6.123031769111886E-17
 21
1.0
 31
0.0
 73
     1
 44
1.0
  0
LINE
  5
167
330
15F
100
AcDbEntity
  8
DIMENSIONS
100
AcDbLine
 10
8.931671728299332
 20
7.083906652420551
 30
0.0
 11
8.931671728299332
 21
7.25110923680736
 31
0.0
  0
LINE
  5
168
330
15F
100
AcDbEntity
  8
DIMENSIONS
100
AcDbLine
 10
8.931671728299332
 20
7.25110923680736
 30
0.0
 11
8.931671749888414
 21
7.00110923680736
 31
0.0
  0
LINE
  5
169
330
15F
100
AcDbEntity
  8
DIMENSIONS
100
AcDbLine
 10
8.931671749888414
 20
7.00110923680736
 30
0.0
 11
8.931671749888414
 21
6.75110923680736
 31
0.0
  0
ENDBLK
  5
161
330
15F
100
AcDbEntity
  8
0
100
AcDbBlockEnd
  0
BLOCK
  5
16C
330
16B
100
AcDbEntity
  8
0
100
AcDbBlockBegin
  2
D13
 70
     0
 10
0.0
 20
0.0
 30
0.0
  3
D13
  1

  0
MTEXT
  5
16E
330
16B
100
AcDbEntity
  8
DIMENSIONS
100
AcDbMText
 10
9.525421728310414
 20
6.487220324869256
 30
0.0
 40
0.0775536798367834
 41
0.0
 46
0.0
 71
     5
 72
     1
  1
{\fArial|b0|i0|c0|p0;11.313}{\fArial|b0|i0|c0|p0;}
 11
6.123031769111886E-17
 21
1.0
 31
0.0
 73
     1
 44
1.0
  0
MTEXT
  5
16F
330
16B
100
AcDbEntity
  8
DIMENSIONS
100
AcDbMText
 10
9.525421728310414
 20
6.487220324869256
 30
0.0
 40
0.0775536798367834
 41
0.0
 46
0.0
 71
     5
 72
     1
  1
{\fArial|b0|i0|c0|p0;}
 11
6.123031769111886E-17
 21
1.0
 31
0.0
 73
     1
 44
1.0
  0
MTEXT
  5
170
330
16B
100
AcDbEntity
  8
DIMENSIONS
100
AcDbMText
 10
9.525421728310414
 20
6.487220324869256
 30
0.0
 40
0.0775536798367834
 41
0.0
 46
0.0
 71
     5
 72
     1
  1
{\fArial|b0|i0|c0|p0;}
 11
6.123031769111886E-17
 21
1.0
 31
0.0
 73
     1
 44
1.0
  0
MTEXT
  5
171
330
16B
100
AcDbEntity
  8
DIMENSIONS
100
AcDbMText
 10
9.525421728310414
 20
6.285831435980366
 30
0.0
 40
0.0775536798367834
 41
0.0
 46
0.0
 71
     5
 72
     1
  1
{\fArial|b0|i0|c0|p0;}
 11
6.123031769111886E-17
 21
1.0
 31
0.0
 73
     1
 44
1.0
  0
MTEXT
  5
172
330
16B
100
AcDbEntity
  8
DIMENSIONS
100
AcDbMText
 10
9.525421728310414
 20
6.688609213758145
 30
0.0
 40
0.0775536798367834
 41
0.0
 46
0.0
 71
     5
 72
     1
  1
{\fArial|b0|i0|c0|p0;}
 11
6.123031769111886E-17
 21
1.0
 31
0.0
 73
     1
 44
1.0
  0
LINE
  5
173
330
16B
100
AcDbEntity
  8
DIMENSIONS
100
AcDbLine
 10
9.525421728310414
 20
7.331406652420551
 30
0.0
 11
9.525421728310414
 21
7.251109239612245
 31
0.0
  0
LINE
  5
174
330
16B
100
AcDbEntity
  8
DIMENSIONS
100
AcDbLine
 10
9.525421728310414
 20
7.251109239612245
 30
0.0
 11
9.525421726433102
 21
7.001109239612245
 31
0.0
  0
LINE
  5
175
330
16B
100
AcDbEntity
  8
DIMENSIONS
100
AcDbLine
 10
9.525421726433102
 20
7.001109239612245
 30
0.0
 11
9.525421726433102
 21
6.751109239612245
 31
0.0
  0
ENDBLK
  5
16D
330
16B
100
AcDbEntity
  8
0
100
AcDbBlockEnd
  0
BLOCK
  5
178
330
177
100
AcDbEntity
  8
0
100
AcDbBlockBegin
  2
D14
 70
     0
 10
0.0
 20
0.0
 30
0.0
  3
D14
  1

  0
MTEXT
  5
17A
330
177
100
AcDbEntity
  8
DIMENSIONS
100
AcDbMText
 10
9.369171728299332
 20
6.487220324869256
 30
0.0
 40
0.0775536798367834
 41
0.0
 46
0.0
 71
     5
 72
     1
  1
{\fArial|b0|i0|c0|p0;11.000}{\fArial|b0|i0|c0|p0;}
 11
6.123031769111886E-17
 21
1.0
 31
0.0
 73
     1
 44
1.0
  0
MTEXT
  5
17B
330
177
100
AcDbEntity
  8
DIMENSIONS
100
AcDbMText
 10
9.369171728299332
 20
6.487220324869256
 30
0.0
 40
0.0775536798367834
 41
0.0
 46
0.0
 71
     5
 72
     1
  1
{\fArial|b0|i0|c0|p0;}
 11
6.123031769111886E-17
 21
1.0
 31
0.0
 73
     1
 44
1.0
  0
MTEXT
  5
17C
330
177
100
AcDbEntity
  8
DIMENSIONS
100
AcDbMText
 10
9.369171728299332
 20
6.487220324869256
 30
0.0
 40
0.0775536798367834
 41
0.0
 46
0.0
 71
     5
 72
     1
  1
{\fArial|b0|i0|c0|p0;}
 11
6.123031769111886E-17
 21
1.0
 31
0.0
 73
     1
 44
1.0
  0
MTEXT
  5
17D
330
177
100
AcDbEntity
  8
DIMENSIONS
100
AcDbMText
 10
9.369171728299332
 20
6.285831435980366
 30
0.0
 40
0.0775536798367834
 41
0.0
 46
0.0
 71
     5
 72
     1
  1
{\fArial|b0|i0|c0|p0;}
 11
6.123031769111886E-17
 21
1.0
 31
0.0
 73
     1
 44
1.0
  0
MTEXT
  5
17E
330
177
100
AcDbEntity
  8
DIMENSIONS
100
AcDbMText
 10
9.369171728299332
 20
6.688609213758145
 30
0.0
 40
0.0775536798367834
 41
0.0
 46
0.0
 71
     5
 72
     1
  1
{\fArial|b0|i0|c0|p0;}
 11
6.123031769111886E-17
 21
1.0
 31
0.0
 73
     1
 44
1.0
  0
LINE
  5
17F
330
177
100
AcDbEntity
  8
DIMENSIONS
100
AcDbLine
 10
9.369171728299332
 20
7.083906652420551
 30
0.0
 11
9.369171728299332
 21
7.251109277169561
 31
0.0
  0
LINE
  5
180
330
177
100
AcDbEntity
  8
DIMENSIONS
100
AcDbLine
 10
9.369171728299332
 20
7.251109277169561
 30
0.0
 11
9.369171726422017
 21
7.001109277169561
 31
0.0
  0
LINE
  5
181
330
177
100
AcDbEntity
  8
DIMENSIONS
100
AcDbLine
 10
9.369171726422017
 20
7.001109277169561
 30
0.0
 11
9.369171726422017
 21
6.751109277169561
 31
0.0
  0
ENDBLK
  5
179
330
177
100
AcDbEntity
  8
0
100
AcDbBlockEnd
  0
BLOCK
  5
184
330
183
100
AcDbEntity
  8
0
100
AcDbBlockBegin
  2
D15
 70
     0
 10
0.0
 20
0.0
 30
0.0
  3
D15
  1

  0
MTEXT
  5
186
330
183
100
AcDbEntity
  8
DIMENSIONS
100
AcDbMText
 10
10.93167172829933
 20
6.487220324869256
 30
0.0
 40
0.0775536798367834
 41
0.0
 46
0.0
 71
     5
 72
     1
  1
{\fArial|b0|i0|c0|p0;14.125}{\fArial|b0|i0|c0|p0;}
 11
6.123031769111886E-17
 21
1.0
 31
0.0
 73
     1
 44
1.0
  0
MTEXT
  5
187
330
183
100
AcDbEntity
  8
DIMENSIONS
100
AcDbMText
 10
10.93167172829933
 20
6.487220324869256
 30
0.0
 40
0.0775536798367834
 41
0.0
 46
0.0
 71
     5
 72
     1
  1
{\fArial|b0|i0|c0|p0;}
 11
6.123031769111886E-17
 21
1.0
 31
0.0
 73
     1
 44
1.0
  0
MTEXT
  5
188
330
183
100
AcDbEntity
  8
DIMENSIONS
100
AcDbMText
 10
10.93167172829933
 20
6.487220324869256
 30
0.0
 40
0.0775536798367834
 41
0.0
 46
0.0
 71
     5
 72
     1
  1
{\fArial|b0|i0|c0|p0;}
 11
6.123031769111886E-17
 21
1.0
 31
0.0
 73
     1
 44
1.0
  0
MTEXT
  5
189
330
183
100
AcDbEntity
  8
DIMENSIONS
100
AcDbMText
 10
10.93167172829933
 20
6.285831435980366
 30
0.0
 40
0.0775536798367834
 41
0.0
 46
0.0
 71
     5
 72
     1
  1
{\fArial|b0|i0|c0|p0;}
 11
6.123031769111886E-17
 21
1.0
 31
0.0
 73
     1
 44
1.0
  0
MTEXT
  5
18A
330
183
100
AcDbEntity
  8
DIMENSIONS
100
AcDbMText
 10
10.93167172829933
 20
6.688609213758145
 30
0.0
 40
0.0775536798367834
 41
0.0
 46
0.0
 71
     5
 72
     1
  1
{\fArial|b0|i0|c0|p0;}
 11
6.123031769111886E-17
 21
1.0
 31
0.0
 73
     1
 44
1.0
  0
LINE
  5
18B
330
183
100
AcDbEntity
  8
DIMENSIONS
100
AcDbLine
 10
10.93167172829933
 20
7.083906652420551
 30
0.0
 11
10.93167172829933
 21
7.251109277169561
 31
0.0
  0
LINE
  5
18C
330
183
100
AcDbEntity
  8
DIMENSIONS
100
AcDbLine
 10
10.93167172829933
 20
7.251109277169561
 30
0.0
 11
10.93167172642202
 21
7.001109277169561
 31
0.0
  0
LINE
  5
18D
330
183
100
AcDbEntity
  8
DIMENSIONS
100
AcDbLine
 10
10.93167172642202
 20
7.001109277169561
 30
0.0
 11
10.93167172642202
 21
6.751109277169561
 31
0.0
  0
ENDBLK
  5
185
330
183
100
AcDbEntity
  8
0
100
AcDbBlockEnd
  0
BLOCK
  5
190
330
18F
100
AcDbEntity
  8
0
100
AcDbBlockBegin
  2
D16
 70
     0
 10
0.0
 20
0.0
 30
0.0
  3
D16
  1

  0
MTEXT
  5
192
330
18F
100
AcDbEntity
  8
DIMENSIONS
100
AcDbMText
 10
11.36917172829933
 20
6.487220324869256
 30
0.0
 40
0.0775536798367834
 41
0.0
 46
0.0
 71
     5
 72
     1
  1
{\fArial|b0|i0|c0|p0;15.000}{\fArial|b0|i0|c0|p0;}
 11
6.123031769111886E-17
 21
1.0
 31
0.0
 73
     1
 44
1.0
  0
MTEXT
  5
193
330
18F
100
AcDbEntity
  8
DIMENSIONS
100
AcDbMText
 10
11.36917172829933
 20
6.487220324869256
 30
0.0
 40
0.0775536798367834
 41
0.0
 46
0.0
 71
     5
 72
     1
  1
{\fArial|b0|i0|c0|p0;}
 11
6.123031769111886E-17
 21
1.0
 31
0.0
 73
     1
 44
1.0
  0
MTEXT
  5
194
330
18F
100
AcDbEntity
  8
DIMENSIONS
100
AcDbMText
 10
11.36917172829933
 20
6.487220324869256
 30
0.0
 40
0.0775536798367834
 41
0.0
 46
0.0
 71
     5
 72
     1
  1
{\fArial|b0|i0|c0|p0;}
 11
6.123031769111886E-17
 21
1.0
 31
0.0
 73
     1
 44
1.0
  0
MTEXT
  5
195
330
18F
100
AcDbEntity
  8
DIMENSIONS
100
AcDbMText
 10
11.36917172829933
 20
6.285831435980366
 30
0.0
 40
0.0775536798367834
 41
0.0
 46
0.0
 71
     5
 72
     1
  1
{\fArial|b0|i0|c0|p0;}
 11
6.123031769111886E-17
 21
1.0
 31
0.0
 73
     1
 44
1.0
  0
MTEXT
  5
196
330
18F
100
AcDbEntity
  8
DIMENSIONS
100
AcDbMText
 10
11.36917172829933
 20
6.688609213758145
 30
0.0
 40
0.0775536798367834
 41
0.0
 46
0.0
 71
     5
 72
     1
  1
{\fArial|b0|i0|c0|p0;}
 11
6.123031769111886E-17
 21
1.0
 31
0.0
 73
     1
 44
1.0
  0
LINE
  5
197
330
18F
100
AcDbEntity
  8
DIMENSIONS
100
AcDbLine
 10
11.36917172829933
 20
7.331406652420551
 30
0.0
 11
11.36917172829933
 21
7.251109247132574
 31
0.0
  0
LINE
  5
198
330
18F
100
AcDbEntity
  8
DIMENSIONS
100
AcDbLine
 10
11.36917172829933
 20
7.251109247132574
 30
0.0
 11
11.36917172642202
 21
7.001109247132574
 31
0.0
  0
LINE
  5
199
330
18F
100
AcDbEntity
  8
DIMENSIONS
100
AcDbLine
 10
11.36917172642202
 20
7.001109247132574
 30
0.0
 11
11.36917172642202
 21
6.751109247132574
 31
0.0
  0
ENDBLK
  5
191
330
18F
100
AcDbEntity
  8
0
100
AcDbBlockEnd
  0
BLOCK
  5
19C
330
19B
100
AcDbEntity
  8
0
100
AcDbBlockBegin
  2
D17
 70
     0
 10
0.0
 20
0.0
 30
0.0
  3
D17
  1

  0
MTEXT
  5
19E
330
19B
100
AcDbEntity
  8
DIMENSIONS
100
AcDbMText
 10
11.86917172829933
 20
6.487220418734839
 30
0.0
 40
0.0775536798367834
 41
0.0
 46
0.0
 71
     5
 72
     1
  1
{\fArial|b0|i0|c0|p0;16.000}{\fArial|b0|i0|c0|p0;}
 11
6.123031769111886E-17
 21
1.0
 31
0.0
 73
     1
 44
1.0
  0
MTEXT
  5
19F
330
19B
100
AcDbEntity
  8
DIMENSIONS
100
AcDbMText
 10
11.86917172829933
 20
6.487220418734839
 30
0.0
 40
0.0775536798367834
 41
0.0
 46
0.0
 71
     5
 72
     1
  1
{\fArial|b0|i0|c0|p0;}
 11
6.123031769111886E-17
 21
1.0
 31
0.0
 73
     1
 44
1.0
  0
MTEXT
  5
1A0
330
19B
100
AcDbEntity
  8
DIMENSIONS
100
AcDbMText
 10
11.86917172829933
 20
6.487220418734839
 30
0.0
 40
0.0775536798367834
 41
0.0
 46
0.0
 71
     5
 72
     1
  1
{\fArial|b0|i0|c0|p0;}
 11
6.123031769111886E-17
 21
1.0
 31
0.0
 73
     1
 44
1.0
  0
MTEXT
  5
1A1
330
19B
100
AcDbEntity
  8
DIMENSIONS
100
AcDbMText
 10
11.86917172829933
 20
6.285831529845949
 30
0.0
 40
0.0775536798367834
 41
0.0
 46
0.0
 71
     5
 72
     1
  1
{\fArial|b0|i0|c0|p0;}
 11
6.123031769111886E-17
 21
1.0
 31
0.0
 73
     1
 44
1.0
  0
MTEXT
  5
1A2
330
19B
100
AcDbEntity
  8
DIMENSIONS
100
AcDbMText
 10
11.86917172829933
 20
6.688609307623728
 30
0.0
 40
0.0775536798367834
 41
0.0
 46
0.0
 71
     5
 72
     1
  1
{\fArial|b0|i0|c0|p0;}
 11
6.123031769111886E-17
 21
1.0
 31
0.0
 73
     1
 44
1.0
  0
LINE
  5
1A3
330
19B
100
AcDbEntity
  8
DIMENSIONS
100
AcDbLine
 10
11.86917172829933
 20
7.083906652420551
 30
0.0
 11
11.86917172829933
 21
7.251109145757746
 31
0.0
  0
LINE
  5
1A4
330
19B
100
AcDbEntity
  8
DIMENSIONS
100
AcDbLine
 10
11.86917172829933
 20
7.251109145757746
 30
0.0
 11
11.86917172642202
 21
7.001109145757746
 31
0.0
  0
LINE
  5
1A5
330
19B
100
AcDbEntity
  8
DIMENSIONS
100
AcDbLine
 10
11.86917172642202
 20
7.001109145757746
 30
0.0
 11
11.86917172642202
 21
6.751109145757746
 31
0.0
  0
ENDBLK
  5
19D
330
19B
100
AcDbEntity
  8
0
100
AcDbBlockEnd
  0
BLOCK
  5
1A8
330
1A7
100
AcDbEntity
  8
0
100
AcDbBlockBegin
  2
D18
 70
     0
 10
0.0
 20
0.0
 30
0.0
  3
D18
  1

  0
MTEXT
  5
1AA
330
1A7
100
AcDbEntity
  8
DIMENSIONS
100
AcDbMText
 10
12.24417172829933
 20
6.487220418734839
 30
0.0
 40
0.0775536798367834
 41
0.0
 46
0.0
 71
     5
 72
     1
  1
{\fArial|b0|i0|c0|p0;16.750}{\fArial|b0|i0|c0|p0;}
 11
6.123031769111886E-17
 21
1.0
 31
0.0
 73
     1
 44
1.0
  0
MTEXT
  5
1AB
330
1A7
100
AcDbEntity
  8
DIMENSIONS
100
AcDbMText
 10
12.24417172829933
 20
6.487220418734839
 30
0.0
 40
0.0775536798367834
 41
0.0
 46
0.0
 71
     5
 72
     1
  1
{\fArial|b0|i0|c0|p0;}
 11
6.123031769111886E-17
 21
1.0
 31
0.0
 73
     1
 44
1.0
  0
MTEXT
  5
1AC
330
1A7
100
AcDbEntity
  8
DIMENSIONS
100
AcDbMText
 10
12.24417172829933
 20
6.487220418734839
 30
0.0
 40
0.0775536798367834
 41
0.0
 46
0.0
 71
     5
 72
     1
  1
{\fArial|b0|i0|c0|p0;}
 11
6.123031769111886E-17
 21
1.0
 31
0.0
 73
     1
 44
1.0
  0
MTEXT
  5
1AD
330
1A7
100
AcDbEntity
  8
DIMENSIONS
100
AcDbMText
 10
12.24417172829933
 20
6.285831529845949
 30
0.0
 40
0.0775536798367834
 41
0.0
 46
0.0
 71
     5
 72
     1
  1
{\fArial|b0|i0|c0|p0;}
 11
6.123031769111886E-17
 21
1.0
 31
0.0
 73
     1
 44
1.0
  0
MTEXT
  5
1AE
330
1A7
100
AcDbEntity
  8
DIMENSIONS
100
AcDbMText
 10
12.24417172829933
 20
6.688609307623728
 30
0.0
 40
0.0775536798367834
 41
0.0
 46
0.0
 71
     5
 72
     1
  1
{\fArial|b0|i0|c0|p0;}
 11
6.123031769111886E-17
 21
1.0
 31
0.0
 73
     1
 44
1.0
  0
LINE
  5
1AF
330
1A7
100
AcDbEntity
  8
DIMENSIONS
100
AcDbLine
 10
12.24417172829933
 20
7.083906652420551
 30
0.0
 11
12.24417172829933
 21
7.251109280924184
 31
0.0
  0
LINE
  5
1B0
330
1A7
100
AcDbEntity
  8
DIMENSIONS
100
AcDbLine
 10
12.24417172829933
 20
7.251109280924184
 30
0.0
 11
12.24417172642202
 21
7.001109280924184
 31
0.0
  0
LINE
  5
1B1
330
1A7
100
AcDbEntity
  8
DIMENSIONS
100
AcDbLine
 10
12.24417172642202
 20
7.001109280924184
 30
0.0
 11
12.24417172642202
 21
6.751109280924184
 31
0.0
  0
ENDBLK
  5
1A9
330
1A7
100
AcDbEntity
  8
0
100
AcDbBlockEnd
  0
BLOCK
  5
1B4
330
1B3
100
AcDbEntity
  8
0
100
AcDbBlockBegin
  2
D19
 70
     0
 10
0.0
 20
0.0
 30
0.0
  3
D19
  1

  0
MTEXT
  5
1B6
330
1B3
100
AcDbEntity
  8
DIMENSIONS
100
AcDbMText
 10
12.43167172829933
 20
6.487220418734839
 30
0.0
 40
0.0775536798367834
 41
0.0
 46
0.0
 71
     5
 72
     1
  1
{\fArial|b0|i0|c0|p0;17.125}{\fArial|b0|i0|c0|p0;}
 11
6.123031769111886E-17
 21
1.0
 31
0.0
 73
     1
 44
1.0
  0
MTEXT
  5
1B7
330
1B3
100
AcDbEntity
  8
DIMENSIONS
100
AcDbMText
 10
12.43167172829933
 20
6.487220418734839
 30
0.0
 40
0.0775536798367834
 41
0.0
 46
0.0
 71
     5
 72
     1
  1
{\fArial|b0|i0|c0|p0;}
 11
6.123031769111886E-17
 21
1.0
 31
0.0
 73
     1
 44
1.0
  0
MTEXT
  5
1B8
330
1B3
100
AcDbEntity
  8
DIMENSIONS
100
AcDbMText
 10
12.43167172829933
 20
6.487220418734839
 30
0.0
 40
0.0775536798367834
 41
0.0
 46
0.0
 71
     5
 72
     1
  1
{\fArial|b0|i0|c0|p0;}
 11
6.123031769111886E-17
 21
1.0
 31
0.0
 73
     1
 44
1.0
  0
MTEXT
  5
1B9
330
1B3
100
AcDbEntity
  8
DIMENSIONS
100
AcDbMText
 10
12.43167172829933
 20
6.285831529845949
 30
0.0
 40
0.0775536798367834
 41
0.0
 46
0.0
 71
     5
 72
     1
  1
{\fArial|b0|i0|c0|p0;}
 11
6.123031769111886E-17
 21
1.0
 31
0.0
 73
     1
 44
1.0
  0
MTEXT
  5
1BA
330
1B3
100
AcDbEntity
  8
DIMENSIONS
100
AcDbMText
 10
12.43167172829933
 20
6.688609307623728
 30
0.0
 40
0.0775536798367834
 41
0.0
 46
0.0
 71
     5
 72
     1
  1
{\fArial|b0|i0|c0|p0;}
 11
6.123031769111886E-17
 21
1.0
 31
0.0
 73
     1
 44
1.0
  0
LINE
  5
1BB
330
1B3
100
AcDbEntity
  8
DIMENSIONS
100
AcDbLine
 10
12.43167172829933
 20
7.271406652420551
 30
0.0
 11
12.43167172829933
 21
7.251109160776239
 31
0.0
  0
LINE
  5
1BC
330
1B3
100
AcDbEntity
  8
DIMENSIONS
100
AcDbLine
 10
12.43167172829933
 20
7.251109160776239
 30
0.0
 11
12.43167172642202
 21
7.001109160776239
 31
0.0
  0
LINE
  5
1BD
330
1B3
100
AcDbEntity
  8
DIMENSIONS
100
AcDbLine
 10
12.43167172642202
 20
7.001109160776239
 30
0.0
 11
12.43167172642202
 21
6.751109160776239
 31
0.0
  0
ENDBLK
  5
1B5
330
1B3
100
AcDbEntity
  8
0
100
AcDbBlockEnd
  0
BLOCK
  5
1C0
330
1BF
100
AcDbEntity
  8
0
100
AcDbBlockBegin
  2
D20
 70
     0
 10
0.0
 20
0.0
 30
0.0
  3
D20
  1

  0
MTEXT
  5
1C2
330
1BF
100
AcDbEntity
  8
DIMENSIONS
100
AcDbMText
 10
3.471111203741831
 20
6.958906652420551
 30
0.0
 40
0.0775536798367834
 41
0.0
 46
0.0
 71
     5
 72
     1
  1
{\fArial|b0|i0|c0|p0;.000}{\fArial|b0|i0|c0|p0;}
 73
     1
 44
1.0
  0
MTEXT
  5
1C3
330
1BF
100
AcDbEntity
  8
DIMENSIONS
100
AcDbMText
 10
3.471111203741831
 20
6.958906652420551
 30
0.0
 40
0.0775536798367834
 41
0.0
 46
0.0
 71
     5
 72
     1
  1
{\fArial|b0|i0|c0|p0;}
 73
     1
 44
1.0
  0
MTEXT
  5
1C4
330
1BF
100
AcDbEntity
  8
DIMENSIONS
100
AcDbMText
 10
3.471111203741831
 20
6.958906652420551
 30
0.0
 40
0.0775536798367834
 41
0.0
 46
0.0
 71
     5
 72
     1
  1
{\fArial|b0|i0|c0|p0;}
 73
     1
 44
1.0
  0
MTEXT
  5
1C5
330
1BF
100
AcDbEntity
  8
DIMENSIONS
100
AcDbMText
 10
3.332222314852942
 20
6.958906652420551
 30
0.0
 40
0.0775536798367834
 41
0.0
 46
0.0
 71
     5
 72
     1
  1
{\fArial|b0|i0|c0|p0;}
 73
     1
 44
1.0
  0
MTEXT
  5
1C6
330
1BF
100
AcDbEntity
  8
DIMENSIONS
100
AcDbMText
 10
3.61000009263072
 20
6.958906652420551
 30
0.0
 40
0.0775536798367834
 41
0.0
 46
0.0
 71
     5
 72
     1
  1
{\fArial|b0|i0|c0|p0;}
 73
     1
 44
1.0
  0
LINE
  5
1C7
330
1BF
100
AcDbEntity
  8
DIMENSIONS
100
AcDbLine
 10
3.806671728299332
 20
6.958906652420551
 30
0.0
 11
4.172500084704273
 21
6.958906652420551
 31
0.0
  0
LINE
  5
1C8
330
1BF
100
AcDbEntity
  8
DIMENSIONS
100
AcDbLine
 10
4.172500084704273
 20
6.958906652420551
 30
0.0
 11
3.922500084704274
 21
6.958906658052486
 31
0.0
  0
LINE
  5
1C9
330
1BF
100
AcDbEntity
  8
DIMENSIONS
100
AcDbLine
 10
3.922500084704274
 20
6.958906658052486
 30
0.0
 11
3.672500084704274
 21
6.958906658052486
 31
0.0
  0
ENDBLK
  5
1C1
330
1BF
100
AcDbEntity
  8
0
100
AcDbBlockEnd
  0
BLOCK
  5
1CC
330
1CB
100
AcDbEntity
  8
0
100
AcDbBlockBegin
  2
D21
 70
     0
 10
0.0
 20
0.0
 30
0.0
  3
D21
  1

  0
MTEXT
  5
1CE
330
1CB
100
AcDbEntity
  8
DIMENSIONS
100
AcDbMText
 10
3.471111203741831
 20
7.110906652420551
 30
0.0
 40
0.0775536798367834
 41
0.0
 46
0.0
 71
     5
 72
     1
  1
{\fArial|b0|i0|c0|p0;.304}{\fArial|b0|i0|c0|p0;}
 73
     1
 44
1.0
  0
MTEXT
  5
1CF
330
1CB
100
AcDbEntity
  8
DIMENSIONS
100
AcDbMText
 10
3.471111203741831
 20
7.110906652420551
 30
0.0
 40
0.0775536798367834
 41
0.0
 46
0.0
 71
     5
 72
     1
  1
{\fArial|b0|i0|c0|p0;}
 73
     1
 44
1.0
  0
MTEXT
  5
1D0
330
1CB
100
AcDbEntity
  8
DIMENSIONS
100
AcDbMText
 10
3.471111203741831
 20
7.110906652420551
 30
0.0
 40
0.0775536798367834
 41
0.0
 46
0.0
 71
     5
 72
     1
  1
{\fArial|b0|i0|c0|p0;}
 73
     1
 44
1.0
  0
MTEXT
  5
1D1
330
1CB
100
AcDbEntity
  8
DIMENSIONS
100
AcDbMText
 10
3.332222314852942
 20
7.110906652420551
 30
0.0
 40
0.0775536798367834
 41
0.0
 46
0.0
 71
     5
 72
     1
  1
{\fArial|b0|i0|c0|p0;}
 73
     1
 44
1.0
  0
MTEXT
  5
1D2
330
1CB
100
AcDbEntity
  8
DIMENSIONS
100
AcDbMText
 10
3.61000009263072
 20
7.110906652420551
 30
0.0
 40
0.0775536798367834
 41
0.0
 46
0.0
 71
     5
 72
     1
  1
{\fArial|b0|i0|c0|p0;}
 73
     1
 44
1.0
  0
LINE
  5
1D3
330
1CB
100
AcDbEntity
  8
DIMENSIONS
100
AcDbLine
 10
4.616671728299332
 20
7.110906652420551
 30
0.0
 11
4.172500084704273
 21
7.110906652420551
 31
0.0
  0
LINE
  5
1D4
330
1CB
100
AcDbEntity
  8
DIMENSIONS
100
AcDbLine
 10
4.172500084704273
 20
7.110906652420551
 30
0.0
 11
3.922500084704274
 21
7.110906645068999
 31
0.0
  0
LINE
  5
1D5
330
1CB
100
AcDbEntity
  8
DIMENSIONS
100
AcDbLine
 10
3.922500084704274
 20
7.110906645068999
 30
0.0
 11
3.672500084704274
 21
7.110906645068999
 31
0.0
  0
ENDBLK
  5
1CD
330
1CB
100
AcDbEntity
  8
0
100
AcDbBlockEnd
  0
BLOCK
  5
1D8
330
1D7
100
AcDbEntity
  8
0
100
AcDbBlockBegin
  2
D22
 70
     0
 10
0.0
 20
0.0
 30
0.0
  3
D22
  1

  0
MTEXT
  5
1DA
330
1D7
100
AcDbEntity
  8
DIMENSIONS
100
AcDbMText
 10
3.471111203741831
 20
7.208906652420552
 30
0.0
 40
0.0775536798367834
 41
0.0
 46
0.0
 71
     5
 72
     1
  1
{\fArial|b0|i0|c0|p0;.375}{\fArial|b0|i0|c0|p0;}
 73
     1
 44
1.0
  0
MTEXT
  5
1DB
330
1D7
100
AcDbEntity
  8
DIMENSIONS
100
AcDbMText
 10
3.471111203741831
 20
7.208906652420552
 30
0.0
 40
0.0775536798367834
 41
0.0
 46
0.0
 71
     5
 72
     1
  1
{\fArial|b0|i0|c0|p0;}
 73
     1
 44
1.0
  0
MTEXT
  5
1DC
330
1D7
100
AcDbEntity
  8
DIMENSIONS
100
AcDbMText
 10
3.471111203741831
 20
7.208906652420552
 30
0.0
 40
0.0775536798367834
 41
0.0
 46
0.0
 71
     5
 72
     1
  1
{\fArial|b0|i0|c0|p0;}
 73
     1
 44
1.0
  0
MTEXT
  5
1DD
330
1D7
100
AcDbEntity
  8
DIMENSIONS
100
AcDbMText
 10
3.332222314852942
 20
7.208906652420552
 30
0.0
 40
0.0775536798367834
 41
0.0
 46
0.0
 71
     5
 72
     1
  1
{\fArial|b0|i0|c0|p0;}
 73
     1
 44
1.0
  0
MTEXT
  5
1DE
330
1D7
100
AcDbEntity
  8
DIMENSIONS
100
AcDbMText
 10
3.61000009263072
 20
7.208906652420552
 30
0.0
 40
0.0775536798367834
 41
0.0
 46
0.0
 71
     5
 72
     1
  1
{\fArial|b0|i0|c0|p0;}
 73
     1
 44
1.0
  0
LINE
  5
1DF
330
1D7
100
AcDbEntity
  8
DIMENSIONS
100
AcDbLine
 10
3.994171728299332
 20
7.146406652420551
 30
0.0
 11
4.172500084704273
 21
7.146406652420551
 31
0.0
  0
LINE
  5
1E0
330
1D7
100
AcDbEntity
  8
DIMENSIONS
100
AcDbLine
 10
4.172500084704273
 20
7.146406652420551
 30
0.0
 11
3.922500084704274
 21
7.208906654297863
 31
0.0
  0
LINE
  5
1E1
330
1D7
100
AcDbEntity
  8
DIMENSIONS
100
AcDbLine
 10
3.922500084704274
 20
7.208906654297863
 30
0.0
 11
3.672500084704274
 21
7.208906654297863
 31
0.0
  0
ENDBLK
  5
1D9
330
1D7
100
AcDbEntity
  8
0
100
AcDbBlockEnd
  0
BLOCK
  5
1E4
330
1E3
100
AcDbEntity
  8
0
100
AcDbBlockBegin
  2
D23
 70
     0
 10
0.0
 20
0.0
 30
0.0
  3
D23
  1

  0
MTEXT
  5
1E6
330
1E3
100
AcDbEntity
  8
DIMENSIONS
100
AcDbMText
 10
3.471111203741831
 20
7.333906652420551
 30
0.0
 40
0.0775536798367834
 41
0.0
 46
0.0
 71
     5
 72
     1
  1
{\fArial|b0|i0|c0|p0;.750}{\fArial|b0|i0|c0|p0;}
 73
     1
 44
1.0
  0
MTEXT
  5
1E7
330
1E3
100
AcDbEntity
  8
DIMENSIONS
100
AcDbMText
 10
3.471111203741831
 20
7.333906652420551
 30
0.0
 40
0.0775536798367834
 41
0.0
 46
0.0
 71
     5
 72
     1
  1
{\fArial|b0|i0|c0|p0;}
 73
     1
 44
1.0
  0
MTEXT
  5
1E8
330
1E3
100
AcDbEntity
  8
DIMENSIONS
100
AcDbMText
 10
3.471111203741831
 20
7.333906652420551
 30
0.0
 40
0.0775536798367834
 41
0.0
 46
0.0
 71
     5
 72
     1
  1
{\fArial|b0|i0|c0|p0;}
 73
     1
 44
1.0
  0
MTEXT
  5
1E9
330
1E3
100
AcDbEntity
  8
DIMENSIONS
100
AcDbMText
 10
3.332222314852942
 20
7.333906652420551
 30
0.0
 40
0.0775536798367834
 41
0.0
 46
0.0
 71
     5
 72
     1
  1
{\fArial|b0|i0|c0|p0;}
 73
     1
 44
1.0
  0
MTEXT
  5
1EA
330
1E3
100
AcDbEntity
  8
DIMENSIONS
100
AcDbMText
 10
3.61000009263072
 20
7.333906652420551
 30
0.0
 40
0.0775536798367834
 41
0.0
 46
0.0
 71
     5
 72
     1
  1
{\fArial|b0|i0|c0|p0;}
 73
     1
 44
1.0
  0
LINE
  5
1EB
330
1E3
100
AcDbEntity
  8
DIMENSIONS
100
AcDbLine
 10
3.806671728299332
 20
7.333906652420551
 30
0.0
 11
4.172500084704273
 21
7.333906652420551
 31
0.0
  0
LINE
  5
1EC
330
1E3
100
AcDbEntity
  8
DIMENSIONS
100
AcDbLine
 10
4.172500084704273
 20
7.333906652420551
 30
0.0
 11
3.922500084704274
 21
7.333906652420551
 31
0.0
  0
LINE
  5
1ED
330
1E3
100
AcDbEntity
  8
DIMENSIONS
100
AcDbLine
 10
3.922500084704274
 20
7.333906652420551
 30
0.0
 11
3.672500084704274
 21
7.333906652420551
 31
0.0
  0
ENDBLK
  5
1E5
330
1E3
100
AcDbEntity
  8
0
100
AcDbBlockEnd
  0
BLOCK
  5
200
330
1FF
100
AcDbEntity
  8
0
100
AcDbBlockBegin
  2
BLOCK7
 70
     0
 10
0.0
 20
0.0
 30
0.0
  3
BLOCK7
  1

  0
LINE
  5
202
330
1FF
100
AcDbEntity
  8
CONTINUOUS
100
AcDbLine
 10
0.4999999999999999
 20
0.4999999999999999
 30
0.0
 11
16.50000000000004
 21
0.4999999999999999
 31
0.0
  0
LINE
  5
203
330
1FF
100
AcDbEntity
  8
CONTINUOUS
100
AcDbLine
 10
16.50000000000004
 20
10.5
 30
0.0
 11
0.4999999999999999
 21
10.5
 31
0.0
  0
LINE
  5
204
330
1FF
100
AcDbEntity
  8
CONTINUOUS
100
AcDbLine
 10
1.12000000000002
 20
0.88
 30
0.0
 11
15.87999999999996
 21
0.88
 31
0.0
  0
LINE
  5
205
330
1FF
100
AcDbEntity
  8
CONTINUOUS
100
AcDbLine
 10
15.88
 20
10.12
 30
0.0
 11
1.120000000000039
 21
10.12
 31
0.0
  0
LWPOLYLINE
  5
206
330
1FF
100
AcDbEntity
  8
CONTINUOUS
100
AcDbPolyline
 90
        5
 70
     0
 43
0.0
 10
8.35
 20
0.730000000000004
 10
8.65
 20
0.730000000000004
 10
8.5
 20
0.88
 10
8.5
 20
0.88
 10
8.35
 20
0.730000000000004
  0
LWPOLYLINE
  5
207
330
1FF
100
AcDbEntity
  8
CONTINUOUS
100
AcDbPolyline
 90
        5
 70
     0
 43
0.0
 10
8.35
 20
10.27
 10
8.65
 20
10.27
 10
8.5
 20
10.12
 10
8.5
 20
10.12
 10
8.35
 20
10.27
  0
LINE
  5
208
330
1FF
100
AcDbEntity
  8
CONTINUOUS
100
AcDbLine
 10
0.4999999999999999
 20
10.5
 30
0.0
 11
0.4999999999999999
 21
0.4999999999999999
 31
0.0
  0
LINE
  5
209
330
1FF
100
AcDbEntity
  8
CONTINUOUS
100
AcDbLine
 10
1.120000000000039
 20
10.12
 30
0.0
 11
1.12000000000002
 21
0.88
 31
0.0
  0
LWPOLYLINE
  5
20A
330
1FF
100
AcDbEntity
  8
CONTINUOUS
100
AcDbPolyline
 90
        5
 70
     0
 43
0.0
 10
0.98
 20
5.35
 10
0.98
 20
5.649999999999999
 10
1.12000000000002
 20
5.499999999999999
 10
1.12000000000002
 20
5.499999999999999
 10
0.98
 20
5.35
  0
LINE
  5
20B
330
1FF
100
AcDbEntity
  8
CONTINUOUS
100
AcDbLine
 10
16.50000000000004
 20
0.4999999999999999
 30
0.0
 11
16.50000000000004
 21
10.5
 31
0.0
  0
LINE
  5
20C
330
1FF
100
AcDbEntity
  8
CONTINUOUS
100
AcDbLine
 10
15.87999999999996
 20
0.88
 30
0.0
 11
15.88
 21
10.12
 31
0.0
  0
LWPOLYLINE
  5
20D
330
1FF
100
AcDbEntity
  8
CONTINUOUS
100
AcDbPolyline
 90
        5
 70
     0
 43
0.0
 10
16.02000000000004
 20
5.35
 10
16.02000000000004
 20
5.649999999999999
 10
15.88
 20
5.499999999999999
 10
15.88
 20
5.499999999999999
 10
16.02000000000004
 20
5.35
  0
LINE
  5
20E
330
1FF
100
AcDbEntity
  8
CONTINUOUS
100
AcDbLine
 10
11.63
 20
1.13
 30
0.0
 11
15.88
 21
1.13
 31
0.0
  0
LINE
  5
20F
330
1FF
100
AcDbEntity
  8
CONTINUOUS
100
AcDbLine
 10
12.01
 20
1.13
 30
0.0
 11
12.01
 21
1.51
 31
0.0
  0
LINE
  5
210
330
1FF
100
AcDbEntity
  8
CONTINUOUS
100
AcDbLine
 10
12.63
 20
0.88
 30
0.0
 11
12.63
 21
1.13
 31
0.0
  0
LINE
  5
211
330
1FF
100
AcDbEntity
  8
CONTINUOUS
100
AcDbLine
 10
13.13000000000004
 20
1.13
 30
0.0
 11
13.13000000000004
 21
1.51
 31
0.0
  0
LINE
  5
212
330
1FF
100
AcDbEntity
  8
CONTINUOUS
100
AcDbLine
 10
14.13
 20
0.88
 30
0.0
 11
14.13
 21
1.13
 31
0.0
  0
LINE
  5
213
330
1FF
100
AcDbEntity
  8
CONTINUOUS
100
AcDbLine
 10
15.5
 20
1.13
 30
0.0
 11
15.5
 21
1.51
 31
0.0
  0
LINE
  5
214
330
1FF
100
AcDbEntity
  8
CONTINUOUS
100
AcDbLine
 10
10.38
 20
9.870000000000001
 30
0.0
 11
15.88
 21
9.870000000000001
 31
0.0
  0
LINE
  5
215
330
1FF
100
AcDbEntity
  8
CONTINUOUS
100
AcDbLine
 10
10.38
 20
9.620000000000001
 30
0.0
 11
15.88
 21
9.620000000000001
 31
0.0
  0
LINE
  5
216
330
1FF
100
AcDbEntity
  8
CONTINUOUS
100
AcDbLine
 10
10.38
 20
10.12
 30
0.0
 11
10.38
 21
9.072700000000001
 31
0.0
  0
LINE
  5
217
330
1FF
100
AcDbEntity
  8
CONTINUOUS
100
AcDbLine
 10
10.88
 20
9.620000000000001
 30
0.0
 11
10.88
 21
9.870000000000001
 31
0.0
  0
LINE
  5
218
330
1FF
100
AcDbEntity
  8
CONTINUOUS
100
AcDbLine
 10
11.26
 20
9.620000000000001
 30
0.0
 11
11.26
 21
9.870000000000001
 31
0.0
  0
LINE
  5
219
330
1FF
100
AcDbEntity
  8
CONTINUOUS
100
AcDbLine
 10
14.00000000000004
 20
9.620000000000001
 30
0.0
 11
14.00000000000004
 21
9.870000000000001
 31
0.0
  0
LINE
  5
21A
330
1FF
100
AcDbEntity
  8
CONTINUOUS
100
AcDbLine
 10
14.88
 20
9.620000000000001
 30
0.0
 11
14.88
 21
9.870000000000001
 31
0.0
  0
LINE
  5
21B
330
1FF
100
AcDbEntity
  8
CONTINUOUS
100
AcDbLine
 10
8.5
 20
0.6300000000000039
 30
0.0
 11
8.5
 21
0.730000000000004
 31
0.0
  0
LINE
  5
21C
330
1FF
100
AcDbEntity
  8
CONTINUOUS
100
AcDbLine
 10
0.88
 20
5.499999999999999
 30
0.0
 11
0.98
 21
5.499999999999999
 31
0.0
  0
LINE
  5
21D
330
1FF
100
AcDbEntity
  8
CONTINUOUS
100
AcDbLine
 10
8.5
 20
10.37
 30
0.0
 11
8.5
 21
10.27
 31
0.0
  0
LINE
  5
21E
330
1FF
100
AcDbEntity
  8
CONTINUOUS
100
AcDbLine
 10
16.12000000000004
 20
5.499999999999999
 30
0.0
 11
16.02000000000004
 21
5.499999999999999
 31
0.0
  0
LINE
  5
21F
330
1FF
100
AcDbEntity
  8
CONTINUOUS
100
AcDbLine
 10
11.63
 20
1.51
 30
0.0
 11
15.88
 21
1.51
 31
0.0
  0
LINE
  5
220
330
1FF
100
AcDbEntity
  8
CONTINUOUS
100
AcDbLine
 10
11.63
 20
0.88
 30
0.0
 11
11.63
 21
1.51
 31
0.0
  0
MTEXT
  5
221
330
1FF
100
AcDbEntity
  8
CONTINUOUS
100
AcDbMText
 10
0.4440925196850473
 20
0.590316535433067
 30
0.0
 40
0.180958586285828
 41
0.0
 46
0.0
 71
     4
 72
     1
  1
{\fArial|b0|i0|c0|p0;\C7;}
 73
     1
 44
1.0
  0
MTEXT
  5
222
330
1FF
100
AcDbEntity
  8
CONTINUOUS
100
AcDbMText
 10
15.12441751968504
 20
9.759476535433071
 30
0.0
 40
0.0603195287619427
 41
0.0
 46
0.0
 71
     4
 72
     1
  1
{\fArial|b0|i0|c0|p0;\C7;APPROVED}{\fArial|b0|i0|c0|p0;\C7;}
 73
     1
 44
1.0
  0
MTEXT
  5
223
330
1FF
100
AcDbEntity
  8
CONTINUOUS
100
AcDbMText
 10
13.64436064161106
 20
1.267061987444705
 30
0.0
 40
0.0775536798367834
 41
0.0
 46
0.0
 71
     4
 72
     1
  1
{\fArial|b0|i0|c0|p0;\C7;Depth (Right)}{\fArial|b0|i0|c0|p0;\C7;}
 73
     1
 44
1.0
  0
MTEXT
  5
224
330
1FF
100
AcDbEntity
  8
CONTINUOUS
100
AcDbMText
 10
13.20401751968504
 20
1.445076535433071
 30
0.0
 40
0.0603195287619427
 41
0.0
 46
0.0
 71
     4
 72
     1
  1
{\fArial|b0|i0|c0|p0;\C7;DWG NO.}{\fArial|b0|i0|c0|p0;\C7;}
 73
     1
 44
1.0
  0
MTEXT
  5
225
330
1FF
100
AcDbEntity
  8
CONTINUOUS
100
AcDbMText
 10
13.09321751968504
 20
10.00167653543307
 30
0.0
 40
0.0603195287619427
 41
0.0
 46
0.0
 71
     4
 72
     1
  1
{\fArial|b0|i0|c0|p0;\C7;REVISIONS}{\fArial|b0|i0|c0|p0;\C7;}
 73
     1
 44
1.0
  0
MTEXT
  5
226
330
1FF
100
AcDbEntity
  8
CONTINUOUS
100
AcDbMText
 10
10.49171751968504
 20
9.759476535433071
 30
0.0
 40
0.0603195287619427
 41
0.0
 46
0.0
 71
     4
 72
     1
  1
{\fArial|b0|i0|c0|p0;\C7;ZONE}{\fArial|b0|i0|c0|p0;\C7;}
 73
     1
 44
1.0
  0
MTEXT
  5
227
330
1FF
100
AcDbEntity
  8
CONTINUOUS
100
AcDbMText
 10
11.72091751968504
 20
1.445076535433071
 30
0.0
 40
0.0603195287619427
 41
0.0
 46
0.0
 71
     4
 72
     1
  1
{\fArial|b0|i0|c0|p0;\C7;SIZE}{\fArial|b0|i0|c0|p0;\C7;}
 73
     1
 44
1.0
  0
MTEXT
  5
228
330
1FF
100
AcDbEntity
  8
CONTINUOUS
100
AcDbMText
 10
14.95034578578677
 20
0.9999521510807559
 30
0.0
 40
0.0775536798367834
 41
0.0
 46
0.0
 71
     5
 72
     1
  1
{\fArial|b0|i0|c0|p0;\C7;2 OF 2}{\fArial|b0|i0|c0|p0;\C7;}
 73
     1
 44
1.0
  0
MTEXT
  5
229
330
1FF
100
AcDbEntity
  8
CONTINUOUS
100
AcDbMText
 10
12.26501751968504
 20
9.759476535433071
 30
0.0
 40
0.0603195287619427
 41
0.0
 46
0.0
 71
     4
 72
     1
  1
{\fArial|b0|i0|c0|p0;\C7;DESCRIPTION}{\fArial|b0|i0|c0|p0;\C7;}
 73
     1
 44
1.0
  0
MTEXT
  5
22A
330
1FF
100
AcDbEntity
  8
CONTINUOUS
100
AcDbMText
 10
10.96311751968504
 20
9.759476535433071
 30
0.0
 40
0.0603195287619427
 41
0.0
 46
0.0
 71
     4
 72
     1
  1
{\fArial|b0|i0|c0|p0;\C7;REV}{\fArial|b0|i0|c0|p0;\C7;}
 73
     1
 44
1.0
  0
MTEXT
  5
22B
330
1FF
100
AcDbEntity
  8
CONTINUOUS
100
AcDbMText
 10
15.58351751968504
 20
1.445076535433071
 30
0.0
 40
0.0603195287619427
 41
0.0
 46
0.0
 71
     4
 72
     1
  1
{\fArial|b0|i0|c0|p0;\C7;REV}{\fArial|b0|i0|c0|p0;\C7;}
 73
     1
 44
1.0
  0
MTEXT
  5
22C
330
1FF
100
AcDbEntity
  8
CONTINUOUS
100
AcDbMText
 10
11.75956978554252
 20
1.284119165971858
 30
0.0
 40
0.1464902841361465
 41
0.0
 46
0.0
 71
     4
 72
     1
  1
{\fArial|b0|i0|c0|p0;\C7;B}{\fArial|b0|i0|c0|p0;\C7;}
 73
     1
 44
1.0
  0
MTEXT
  5
22D
330
1FF
100
AcDbEntity
  8
CONTINUOUS
100
AcDbMText
 10
12.08191751968504
 20
1.445076535433071
 30
0.0
 40
0.0603195287619427
 41
0.0
 46
0.0
 71
     4
 72
     1
  1
{\fArial|b0|i0|c0|p0;\C7;FSCM NO.}{\fArial|b0|i0|c0|p0;\C7;}
 73
     1
 44
1.0
  0
MTEXT
  5
22E
330
1FF
100
AcDbEntity
  8
CONTINUOUS
100
AcDbMText
 10
14.17406705062744
 20
1.056925201730807
 30
0.0
 40
0.0603195287619427
 41
0.0
 46
0.0
 71
     4
 72
     1
  1
{\fArial|b0|i0|c0|p0;\C7;SHEET}{\fArial|b0|i0|c0|p0;\C7;}
 73
     1
 44
1.0
  0
MTEXT
  5
22F
330
1FF
100
AcDbEntity
  8
CONTINUOUS
100
AcDbMText
 10
14.33071751968504
 20
9.759476535433071
 30
0.0
 40
0.0603195287619427
 41
0.0
 46
0.0
 71
     4
 72
     1
  1
{\fArial|b0|i0|c0|p0;\C7;DATE}{\fArial|b0|i0|c0|p0;\C7;}
 73
     1
 44
1.0
  0
ENDBLK
  5
201
330
1FF
100
AcDbEntity
  8
0
100
AcDbBlockEnd
  0
ENDSEC
  0
SECTION
  2
ENTITIES
  0
LINE
  5
6F
330
1F
100
AcDbEntity
  8
VISIBLE
100
AcDbLine
 10
3.869171728299331
 20
5.361100668043623
 30
0.0
 11
12.43167172829933
 21
5.361100668043623
 31
0.0
  0
CIRCLE
  5
70
330
1F
100
AcDbEntity
  8
VISIBLE
100
AcDbCircle
 10
4.931671728299332
 20
4.673600668043623
 30
0.0
 40
0.0992499999999996
  0
LINE
  5
71
330
1F
100
AcDbEntity
  8
VISIBLE
100
AcDbLine
 10
12.43167172829933
 20
5.361100668043623
 30
0.0
 11
12.43167172829933
 21
4.361100668043623
 31
0.0
  0
LINE
  5
72
330
1F
100
AcDbEntity
  8
VISIBLE
100
AcDbLine
 10
3.869171728299331
 20
4.361100668043623
 30
0.0
 11
3.869171728299331
 21
5.361100668043623
 31
0.0
  0
CIRCLE
  5
73
330
1F
100
AcDbEntity
  8
VISIBLE
100
AcDbCircle
 10
9.525421728310414
 20
5.029471680604508
 30
0.0
 40
0.0630000000000006
  0
CIRCLE
  5
74
330
1F
100
AcDbEntity
  8
VISIBLE
100
AcDbCircle
 10
4.931671728299332
 20
4.673600668043623
 30
0.0
 40
0.2524999999999995
  0
CIRCLE
  5
75
330
1F
100
AcDbEntity
  8
VISIBLE
100
AcDbCircle
 10
11.36917172829933
 20
4.673600668043623
 30
0.0
 40
0.2524999999999995
  0
LINE
  5
76
330
1F
100
AcDbEntity
  8
VISIBLE
100
AcDbLine
 10
12.43167172829933
 20
4.361100668043623
 30
0.0
 11
3.869171728299331
 21
4.361100668043623
 31
0.0
  0
CIRCLE
  5
77
330
1F
100
AcDbEntity
  8
VISIBLE
100
AcDbCircle
 10
11.36917172829933
 20
4.673600668043623
 30
0.0
 40
0.0992500000000014
  0
CIRCLE
  5
78
330
1F
100
AcDbEntity
  8
VISIBLE
100
AcDbCircle
 10
6.775421728310414
 20
5.029471680604508
 30
0.0
 40
0.0629999999999997
  0
LINE
  5
7B
330
1F
100
AcDbEntity
  8
HIDDEN
100
AcDbLine
 10
3.947296728299332
 20
4.986100668043623
 30
0.0
 11
4.166046728299332
 21
4.986100668043623
 31
0.0
  0
LINE
  5
7C
330
1F
100
AcDbEntity
  8
HIDDEN
100
AcDbLine
 10
10.93167172829933
 20
4.736100668043623
 30
0.0
 11
10.88267172829933
 21
4.736100668043623
 31
0.0
  0
LINE
  5
7D
330
1F
100
AcDbEntity
  8
HIDDEN
100
AcDbLine
 10
10.98067172829933
 20
4.736100668043623
 30
0.0
 11
10.93167172829933
 21
4.736100668043623
 31
0.0
  0
LINE
  5
7E
330
1F
100
AcDbEntity
  8
HIDDEN
100
AcDbLine
 10
5.322296728299332
 20
4.986100668043623
 30
0.0
 11
5.541046728299332
 21
4.986100668043623
 31
0.0
  0
LINE
  5
7F
330
1F
100
AcDbEntity
  8
HIDDEN
100
AcDbLine
 10
9.369171728299332
 20
4.736100668043623
 30
0.0
 11
9.320171728299332
 21
4.736100668043623
 31
0.0
  0
LINE
  5
80
330
1F
100
AcDbEntity
  8
HIDDEN
100
AcDbLine
 10
9.418171728299331
 20
4.736100668043623
 30
0.0
 11
9.369171728299332
 21
4.736100668043623
 31
0.0
  0
LINE
  5
81
330
1F
100
AcDbEntity
  8
HIDDEN
100
AcDbLine
 10
8.822296728299332
 20
4.986100668043623
 30
0.0
 11
9.041046728299332
 21
4.986100668043623
 31
0.0
  0
LINE
  5
82
330
1F
100
AcDbEntity
  8
HIDDEN
100
AcDbLine
 10
11.75979672829933
 20
4.986100668043623
 30
0.0
 11
11.97854672829933
 21
4.986100668043623
 31
0.0
  0
LINE
  5
83
330
1F
100
AcDbEntity
  8
HIDDEN
100
AcDbLine
 10
12.13479672829933
 20
4.986100668043623
 30
0.0
 11
12.35354672829933
 21
4.986100668043623
 31
0.0
  0
LINE
  5
84
330
1F
100
AcDbEntity
  8
HIDDEN
100
AcDbLine
 10
12.13479672829933
 20
5.361100668043623
 30
0.0
 11
12.13479672829933
 21
4.986100668043623
 31
0.0
  0
LINE
  5
85
330
1F
100
AcDbEntity
  8
HIDDEN
100
AcDbLine
 10
4.120921728299331
 20
4.986100668043623
 30
0.0
 11
4.120921728299331
 21
4.361100668043623
 31
0.0
  0
LINE
  5
86
330
1F
100
AcDbEntity
  8
HIDDEN
100
AcDbLine
 10
12.17992172829933
 20
4.986100668043623
 30
0.0
 11
12.17992172829933
 21
4.361100668043623
 31
0.0
  0
LINE
  5
87
330
1F
100
AcDbEntity
  8
HIDDEN
100
AcDbLine
 10
8.995921728299331
 20
4.986100668043623
 30
0.0
 11
8.995921728299331
 21
4.361100668043623
 31
0.0
  0
LINE
  5
88
330
1F
100
AcDbEntity
  8
HIDDEN
100
AcDbLine
 10
9.320171728299332
 20
4.361100668043623
 30
0.0
 11
9.320171728299332
 21
4.736100668043623
 31
0.0
  0
LINE
  5
89
330
1F
100
AcDbEntity
  8
HIDDEN
100
AcDbLine
 10
11.80492172829933
 20
4.986100668043623
 30
0.0
 11
11.80492172829933
 21
4.361100668043623
 31
0.0
  0
LINE
  5
8A
330
1F
100
AcDbEntity
  8
HIDDEN
100
AcDbLine
 10
3.992421728299331
 20
4.986100668043623
 30
0.0
 11
3.992421728299331
 21
4.361100668043623
 31
0.0
  0
LINE
  5
8B
330
1F
100
AcDbEntity
  8
HIDDEN
100
AcDbLine
 10
5.541046728299332
 20
5.361100668043623
 30
0.0
 11
5.541046728299332
 21
4.986100668043623
 31
0.0
  0
LINE
  5
8C
330
1F
100
AcDbEntity
  8
HIDDEN
100
AcDbLine
 10
12.30842172829933
 20
4.986100668043623
 30
0.0
 11
12.30842172829933
 21
4.361100668043623
 31
0.0
  0
LINE
  5
8D
330
1F
100
AcDbEntity
  8
HIDDEN
100
AcDbLine
 10
8.867421728299332
 20
4.986100668043623
 30
0.0
 11
8.867421728299332
 21
4.361100668043623
 31
0.0
  0
LINE
  5
8E
330
1F
100
AcDbEntity
  8
HIDDEN
100
AcDbLine
 10
9.418171728299331
 20
4.361100668043623
 30
0.0
 11
9.418171728299331
 21
4.736100668043623
 31
0.0
  0
LINE
  5
8F
330
1F
100
AcDbEntity
  8
HIDDEN
100
AcDbLine
 10
5.495921728299331
 20
4.986100668043623
 30
0.0
 11
5.495921728299331
 21
4.361100668043623
 31
0.0
  0
LINE
  5
90
330
1F
100
AcDbEntity
  8
HIDDEN
100
AcDbLine
 10
11.97854672829933
 20
5.361100668043623
 30
0.0
 11
11.97854672829933
 21
4.986100668043623
 31
0.0
  0
LINE
  5
91
330
1F
100
AcDbEntity
  8
HIDDEN
100
AcDbLine
 10
5.322296728299332
 20
5.361100668043623
 30
0.0
 11
5.322296728299332
 21
4.986100668043623
 31
0.0
  0
LINE
  5
92
330
1F
100
AcDbEntity
  8
HIDDEN
100
AcDbLine
 10
10.88267172829933
 20
4.361100668043623
 30
0.0
 11
10.88267172829933
 21
4.736100668043623
 31
0.0
  0
LINE
  5
93
330
1F
100
AcDbEntity
  8
HIDDEN
100
AcDbLine
 10
4.166046728299332
 20
5.361100668043623
 30
0.0
 11
4.166046728299332
 21
4.986100668043623
 31
0.0
  0
LINE
  5
94
330
1F
100
AcDbEntity
  8
HIDDEN
100
AcDbLine
 10
9.041046728299332
 20
5.361100668043623
 30
0.0
 11
9.041046728299332
 21
4.986100668043623
 31
0.0
  0
LINE
  5
95
330
1F
100
AcDbEntity
  8
HIDDEN
100
AcDbLine
 10
11.93342172829933
 20
4.986100668043623
 30
0.0
 11
11.93342172829933
 21
4.361100668043623
 31
0.0
  0
LINE
  5
96
330
1F
100
AcDbEntity
  8
HIDDEN
100
AcDbLine
 10
8.822296728299332
 20
5.361100668043623
 30
0.0
 11
8.822296728299332
 21
4.986100668043623
 31
0.0
  0
LINE
  5
97
330
1F
100
AcDbEntity
  8
HIDDEN
100
AcDbLine
 10
3.947296728299332
 20
5.361100668043623
 30
0.0
 11
3.947296728299332
 21
4.986100668043623
 31
0.0
  0
LINE
  5
98
330
1F
100
AcDbEntity
  8
HIDDEN
100
AcDbLine
 10
5.367421728299332
 20
4.986100668043623
 30
0.0
 11
5.367421728299332
 21
4.361100668043623
 31
0.0
  0
LINE
  5
99
330
1F
100
AcDbEntity
  8
HIDDEN
100
AcDbLine
 10
11.75979672829933
 20
5.361100668043623
 30
0.0
 11
11.75979672829933
 21
4.986100668043623
 31
0.0
  0
LINE
  5
9A
330
1F
100
AcDbEntity
  8
HIDDEN
100
AcDbLine
 10
12.35354672829933
 20
5.361100668043623
 30
0.0
 11
12.35354672829933
 21
4.986100668043623
 31
0.0
  0
LINE
  5
9B
330
1F
100
AcDbEntity
  8
HIDDEN
100
AcDbLine
 10
10.98067172829933
 20
4.361100668043623
 30
0.0
 11
10.98067172829933
 21
4.736100668043623
 31
0.0
  0
DIMENSION
  5
9D
330
1F
100
AcDbEntity
  8
DIMENSIONS
100
AcDbDimension
280
     0
  2
D1
 10
11.45991274222141
 20
4.909232411220118
 30
0.0
 11
18.776960329538
 21
8.966552357035399
 31
0.0
 70
    35
  1
<>
 71
     5
 42
-1.0
 73
     0
 74
     0
 75
     0
  3
Standard
100
AcDbDiametricDimension
 15
11.27843071437726
 25
4.437968924867127
 35
0.0
 40
0.0
1001
ACAD
1000
DSTYLE
1002
{
1070
    76
1070
     0
1070
    75
1070
     0
1070
   282
1070
     0
1070
   281
1070
     0
1070
    77
1070
     0
1070
    79
1070
     0
1070
    78
1070
     0
1070
   272
1070
     3
1070
   271
1070
     3
1070
   179
1070
     3
1070
   140
1040
0.0984076433121019
1070
    71
1070
     0
1070
    72
1070
     0
1070
    48
1040
0.0
1070
    47
1040
0.0
1002
}
  0
DIMENSION
  5
AE
330
1F
100
AcDbEntity
  8
DIMENSIONS
100
AcDbDimension
280
     0
  2
D2
 10
11.38818530612694
 20
4.771012404288253
 30
0.0
 11
18.85237768879082
 21
8.65783942027359
 31
0.0
 70
    35
  1
<>
 71
     5
 42
-1.0
 73
     0
 74
     0
 75
     0
  3
Standard
100
AcDbDiametricDimension
 15
11.35015815047172
 25
4.576188931798992
 35
0.0
 40
0.0
1001
ACAD
1000
DSTYLE
1002
{
1070
    76
1070
     0
1070
    75
1070
     0
1070
   282
1070
     0
1070
   281
1070
     0
1070
    77
1070
     0
1070
    79
1070
     0
1070
    78
1070
     0
1070
   272
1070
     3
1070
   271
1070
     3
1070
   179
1070
     3
1070
   140
1040
0.0984076433121019
1070
    71
1070
     0
1070
    72
1070
     0
1070
    48
1040
0.0
1070
    47
1040
0.0
1002
}
  0
DIMENSION
  5
BF
330
1F
100
AcDbEntity
  8
DIMENSIONS
100
AcDbDimension
280
     0
  2
D3
 10
3.869171728299331
 20
4.361100668043623
 30
0.0
 11
11.5903816673699
 21
9.222201336087245
 31
0.0
 70
    38
  1
<>
 71
     5
 42
-1.0
 73
     0
 74
     0
 75
     0
 53
360.0
  3
Standard
100
AcDbOrdinateDimension
 13
3.869171728299331
 23
4.361100668043623
 33
0.0
 14
11.5903816673699
 24
9.222201336087245
 34
0.0
1001
ACAD
1000
DSTYLE
1002
{
1070
    76
1070
     0
1070
    75
1070
     0
1070
   282
1070
     0
1070
   281
1070
     0
1070
    77
1070
     0
1070
    79
1070
     0
1070
    78
1070
     0
1070
   272
1070
     3
1070
   271
1070
     3
1070
   179
1070
     3
1070
   140
1040
0.0984076433121019
1070
    71
1070
     0
1070
    72
1070
     0
1070
    48
1040
0.0
1070
    47
1040
0.0
1002
}
  0
DIMENSION
  5
CB
330
1F
100
AcDbEntity
  8
DIMENSIONS
100
AcDbDimension
280
     0
  2
D4
 10
3.869171728299331
 20
4.361100668043623
 30
0.0
 11
11.59038157350431
 21
9.534701336087245
 31
0.0
 70
    38
  1
<>
 71
     5
 42
-1.0
 73
     0
 74
     0
 75
     0
 53
360.0
  3
Standard
100
AcDbOrdinateDimension
 13
4.931671728299332
 23
4.673600668043623
 33
0.0
 14
11.59038157350431
 24
9.534701336087245
 34
0.0
1001
ACAD
1000
DSTYLE
1002
{
1070
    76
1070
     0
1070
    75
1070
     0
1070
   282
1070
     0
1070
   281
1070
     0
1070
    77
1070
     0
1070
    79
1070
     0
1070
    78
1070
     0
1070
   272
1070
     3
1070
   271
1070
     3
1070
   179
1070
     3
1070
   140
1040
0.0984076433121019
1070
    71
1070
     0
1070
    72
1070
     0
1070
    48
1040
0.0
1070
    47
1040
0.0
1002
}
  0
DIMENSION
  5
D7
330
1F
100
AcDbEntity
  8
DIMENSIONS
100
AcDbDimension
280
     0
  2
D5
 10
3.869171728299331
 20
4.361100668043623
 30
0.0
 11
11.56260380031551
 21
9.890572348648131
 31
0.0
 70
    38
  1
<>
 71
     5
 42
-1.0
 73
     0
 74
     0
 75
     0
 53
360.0
  3
Standard
100
AcDbOrdinateDimension
 13
6.775421728310414
 23
5.029471680604508
 33
0.0
 14
11.56260380031551
 24
9.890572348648131
 34
0.0
1001
ACAD
1000
DSTYLE
1002
{
1070
    76
1070
     0
1070
    75
1070
     0
1070
   282
1070
     0
1070
   281
1070
     0
1070
    77
1070
     0
1070
    79
1070
     0
1070
    78
1070
     0
1070
   272
1070
     3
1070
   271
1070
     3
1070
   179
1070
     3
1070
   140
1040
0.0984076433121019
1070
    71
1070
     0
1070
    72
1070
     0
1070
    48
1040
0.0
1070
    47
1040
0.0
1002
}
  0
DIMENSION
  5
E3
330
1F
100
AcDbEntity
  8
DIMENSIONS
100
AcDbDimension
280
     0
  2
D6
 10
3.869171728299331
 20
4.361100668043623
 30
0.0
 11
11.56260380031551
 21
10.22220133608725
 31
0.0
 70
    38
  1
<>
 71
     5
 42
-1.0
 73
     0
 74
     0
 75
     0
 53
360.0
  3
Standard
100
AcDbOrdinateDimension
 13
3.869171728299331
 23
5.361100668043623
 33
0.0
 14
11.56260380031551
 24
10.22220133608725
 34
0.0
1001
ACAD
1000
DSTYLE
1002
{
1070
    76
1070
     0
1070
    75
1070
     0
1070
   282
1070
     0
1070
   281
1070
     0
1070
    77
1070
     0
1070
    79
1070
     0
1070
    78
1070
     0
1070
   272
1070
     3
1070
   271
1070
     3
1070
   179
1070
     3
1070
   140
1040
0.0984076433121019
1070
    71
1070
     0
1070
    72
1070
     0
1070
    48
1040
0.0
1070
    47
1040
0.0
1002
}
  0
MTEXT
  5
F0
330
1F
100
AcDbEntity
  8
CONTINUOUS
100
AcDbMText
 10
5.043196273951063
 20
5.575770790252244
 30
0.0
 40
0.0775536798367834
 41
0.0
 46
0.0
 71
     4
 72
     1
  1
{\fArial|b0|i0|c0|p0;\C7;2x 5/16-18 UNC }{\fAlibre Symbols|b0|i0|c0|p0;\C7;x}{\fArial|b0|i0|c0|p0;\C7; 5.000}{\fArial|b0|i0|c0|p0;\C7;}
 73
     1
 44
1.0
  0
LINE
  5
F1
330
1F
100
AcDbEntity
  8
CONTINUOUS
100
AcDbLine
 10
6.529908872376259
 20
5.575770790252244
 30
0.0
 11
6.34240887237626
 21
5.575770790252244
 31
0.0
  0
LINE
  5
F2
330
1F
100
AcDbEntity
  8
CONTINUOUS
100
AcDbLine
 10
6.712704290232415
 20
5.169026411663426
 30
0.0
 11
6.712704290232415
 21
5.169026411663426
 31
0.0
  0
LINE
  5
F3
330
1F
100
AcDbEntity
  8
CONTINUOUS
100
AcDbLine
 10
6.712704290232415
 20
5.169026411663426
 30
0.0
 11
6.529908872376259
 21
5.575770790252244
 31
0.0
  0
LWPOLYLINE
  5
F4
330
1F
100
AcDbEntity
  8
CONTINUOUS
100
AcDbPolyline
 90
        4
 70
     0
 43
0.0
 10
6.749596900866536
 20
5.086935393393462
 10
6.699022453854088
 20
5.162877643224403
 10
6.726386126610741
 20
5.175175180102443
 10
6.749596900866536
 20
5.086935393393462
  0
HATCH
  5
F5
330
1F
100
AcDbEntity
  8
0
 62
     7
100
AcDbHatch
 10
0.0
 20
0.0
 30
0.0
210
0.0
220
0.0
230
1.0
  2
SOLID
 70
     1
 71
     0
 91
        1
 92
        0
 93
        3
 72
     1
 10
6.726386126610741
 20
5.175175180102443
 11
6.749596900866536
 21
5.086935393393462
 72
     1
 10
6.749596900866536
 20
5.086935393393462
 11
6.699022453854088
 21
5.162877643224403
 72
     1
 10
6.699022453854088
 20
5.162877643224403
 11
6.726386126610741
 21
5.175175180102443
 97
        0
 75
     0
 76
     1
 98
        0
  0
MTEXT
  5
F6
330
1F
100
AcDbEntity
  8
CONTINUOUS
100
AcDbMText
 10
10.25848304568311
 20
4.014668322537655
 30
0.0
 40
0.0775536798367834
 41
0.0
 46
0.0
 71
     1
 72
     1
  1
{\fArial|b0|i0|c0|p0;\C7;2x}{\fArial|b0|i0|c0|p0;\C7;}
 73
     1
 44
1.0
  0
LINE
  5
F7
330
1F
100
AcDbEntity
  8
VISIBLE
100
AcDbLine
 10
3.869171728299331
 20
6.958906652420551
 30
0.0
 11
12.43167172829933
 21
6.958906652420551
 31
0.0
  0
CIRCLE
  5
F8
330
1F
100
AcDbEntity
  8
VISIBLE
100
AcDbCircle
 10
5.431671728299332
 20
7.146406652420551
 30
0.0
 40
0.109375
  0
CIRCLE
  5
F9
330
1F
100
AcDbEntity
  8
VISIBLE
100
AcDbCircle
 10
11.86917172829933
 20
7.146406652420551
 30
0.0
 40
0.109375
  0
CIRCLE
  5
FA
330
1F
100
AcDbEntity
  8
VISIBLE
100
AcDbCircle
 10
11.86917172829933
 20
7.146406652420551
 30
0.0
 40
0.0642499999999995
  0
CIRCLE
  5
FB
330
1F
100
AcDbEntity
  8
VISIBLE
100
AcDbCircle
 10
5.431671728299332
 20
7.146406652420551
 30
0.0
 40
0.0642499999999995
  0
CIRCLE
  5
FC
330
1F
100
AcDbEntity
  8
VISIBLE
100
AcDbCircle
 10
4.056671728299332
 20
7.146406652420551
 30
0.0
 40
0.0642499999999995
  0
LINE
  5
FD
330
1F
100
AcDbEntity
  8
VISIBLE
100
AcDbLine
 10
3.869171728299331
 20
7.333906652420551
 30
0.0
 11
3.869171728299331
 21
6.958906652420551
 31
0.0
  0
CIRCLE
  5
FE
330
1F
100
AcDbEntity
  8
VISIBLE
100
AcDbCircle
 10
8.931671728299332
 20
7.146406652420551
 30
0.0
 40
0.109375
  0
LINE
  5
FF
330
1F
100
AcDbEntity
  8
VISIBLE
100
AcDbLine
 10
12.43167172829933
 20
7.333906652420551
 30
0.0
 11
3.869171728299331
 21
7.333906652420551
 31
0.0
  0
LINE
  5
100
330
1F
100
AcDbEntity
  8
VISIBLE
100
AcDbLine
 10
12.43167172829933
 20
7.333906652420551
 30
0.0
 11
12.43167172829933
 21
6.958906652420551
 31
0.0
  0
CIRCLE
  5
101
330
1F
100
AcDbEntity
  8
VISIBLE
100
AcDbCircle
 10
12.24417172829933
 20
7.146406652420551
 30
0.0
 40
0.109375
  0
CIRCLE
  5
102
330
1F
100
AcDbEntity
  8
VISIBLE
100
AcDbCircle
 10
8.931671728299332
 20
7.146406652420551
 30
0.0
 40
0.0642499999999995
  0
CIRCLE
  5
103
330
1F
100
AcDbEntity
  8
VISIBLE
100
AcDbCircle
 10
4.056671728299332
 20
7.146406652420551
 30
0.0
 40
0.109375
  0
CIRCLE
  5
104
330
1F
100
AcDbEntity
  8
VISIBLE
100
AcDbCircle
 10
12.24417172829933
 20
7.146406652420551
 30
0.0
 40
0.0642500000000013
  0
CIRCLE
  5
105
330
1F
100
AcDbEntity
  8
HIDDEN
100
AcDbCircle
 10
10.93167172829933
 20
7.146406652420551
 30
0.0
 40
0.0489999999999995
  0
LINE
  5
106
330
1F
100
AcDbEntity
  8
HIDDEN
100
AcDbLine
 10
11.62167172829933
 20
7.110906652420551
 30
0.0
 11
11.11667172829933
 21
7.110906652420551
 31
0.0
  0
CIRCLE
  5
107
330
1F
100
AcDbEntity
  8
HIDDEN
100
AcDbCircle
 10
9.369171728299332
 20
7.146406652420551
 30
0.0
 40
0.0489999999999995
  0
LINE
  5
108
330
1F
100
AcDbEntity
  8
HIDDEN
100
AcDbLine
 10
5.184171728299331
 20
7.110906652420551
 30
0.0
 11
4.679171728299332
 21
7.110906652420551
 31
0.0
  0
LINE
  5
109
330
1F
100
AcDbEntity
  8
HIDDEN
100
AcDbLine
 10
11.46842172829933
 20
7.110906652420551
 30
0.0
 11
11.46842172829933
 21
7.333906652420551
 31
0.0
  0
LINE
  5
10A
330
1F
100
AcDbEntity
  8
HIDDEN
100
AcDbLine
 10
11.62167172829933
 20
6.958906652420551
 30
0.0
 11
11.62167172829933
 21
7.110906652420551
 31
0.0
  0
LINE
  5
10B
330
1F
100
AcDbEntity
  8
HIDDEN
100
AcDbLine
 10
11.26992172829933
 20
7.110906652420551
 30
0.0
 11
11.26992172829933
 21
7.333906652420551
 31
0.0
  0
LINE
  5
10C
330
1F
100
AcDbEntity
  8
HIDDEN
100
AcDbLine
 10
9.462421728310414
 20
6.958906652420551
 30
0.0
 11
9.462421728310414
 21
7.333906652420551
 31
0.0
  0
LINE
  5
10D
330
1F
100
AcDbEntity
  8
HIDDEN
100
AcDbLine
 10
4.832421728299331
 20
7.110906652420551
 30
0.0
 11
4.832421728299331
 21
7.333906652420551
 31
0.0
  0
LINE
  5
10E
330
1F
100
AcDbEntity
  8
HIDDEN
100
AcDbLine
 10
11.11667172829933
 20
6.958906652420551
 30
0.0
 11
11.11667172829933
 21
7.110906652420551
 31
0.0
  0
LINE
  5
10F
330
1F
100
AcDbEntity
  8
HIDDEN
100
AcDbLine
 10
6.838421728310414
 20
6.958906652420551
 30
0.0
 11
6.838421728310414
 21
7.333906652420551
 31
0.0
  0
LINE
  5
110
330
1F
100
AcDbEntity
  8
HIDDEN
100
AcDbLine
 10
5.184171728299331
 20
6.958906652420551
 30
0.0
 11
5.184171728299331
 21
7.110906652420551
 31
0.0
  0
LINE
  5
111
330
1F
100
AcDbEntity
  8
HIDDEN
100
AcDbLine
 10
4.679171728299332
 20
6.958906652420551
 30
0.0
 11
4.679171728299332
 21
7.110906652420551
 31
0.0
  0
LINE
  5
112
330
1F
100
AcDbEntity
  8
HIDDEN
100
AcDbLine
 10
5.030921728299331
 20
7.110906652420551
 30
0.0
 11
5.030921728299331
 21
7.333906652420551
 31
0.0
  0
LINE
  5
113
330
1F
100
AcDbEntity
  8
HIDDEN
100
AcDbLine
 10
6.712421728310416
 20
6.958906652420551
 30
0.0
 11
6.712421728310416
 21
7.333906652420551
 31
0.0
  0
LINE
  5
114
330
1F
100
AcDbEntity
  8
HIDDEN
100
AcDbLine
 10
9.588421728310415
 20
6.958906652420551
 30
0.0
 11
9.588421728310415
 21
7.333906652420551
 31
0.0
  0
LINE
  5
116
330
1F
100
AcDbEntity
  8
CENTER
100
AcDbLine
 10
4.931671728299332
 20
7.207406652420551
 30
0.0
 11
4.931671728299332
 21
7.237406652420551
 31
0.0
  0
LINE
  5
117
330
1F
100
AcDbEntity
  8
CENTER
100
AcDbLine
 10
4.931671728299332
 20
7.177406652420551
 30
0.0
 11
4.931671728299332
 21
7.050906652420551
 31
0.0
  0
LINE
  5
118
330
1F
100
AcDbEntity
  8
CENTER
100
AcDbLine
 10
4.931671728299332
 20
7.267406652420551
 30
0.0
 11
4.931671728299332
 21
7.393906652420551
 31
0.0
  0
LINE
  5
119
330
1F
100
AcDbEntity
  8
CENTER
100
AcDbLine
 10
6.775421728310414
 20
7.131406652420551
 30
0.0
 11
6.775421728310414
 21
7.161406652420551
 31
0.0
  0
LINE
  5
11A
330
1F
100
AcDbEntity
  8
CENTER
100
AcDbLine
 10
6.775421728310414
 20
7.101406652420551
 30
0.0
 11
6.775421728310414
 21
6.898906652420552
 31
0.0
  0
LINE
  5
11B
330
1F
100
AcDbEntity
  8
CENTER
100
AcDbLine
 10
6.775421728310414
 20
7.191406652420551
 30
0.0
 11
6.775421728310414
 21
7.393906652420551
 31
0.0
  0
LINE
  5
11C
330
1F
100
AcDbEntity
  8
CENTER
100
AcDbLine
 10
9.525421728310414
 20
7.131406652420551
 30
0.0
 11
9.525421728310414
 21
7.161406652420551
 31
0.0
  0
LINE
  5
11D
330
1F
100
AcDbEntity
  8
CENTER
100
AcDbLine
 10
9.525421728310414
 20
7.101406652420551
 30
0.0
 11
9.525421728310414
 21
6.898906652420552
 31
0.0
  0
LINE
  5
11E
330
1F
100
AcDbEntity
  8
CENTER
100
AcDbLine
 10
9.525421728310414
 20
7.191406652420551
 30
0.0
 11
9.525421728310414
 21
7.393906652420551
 31
0.0
  0
LINE
  5
11F
330
1F
100
AcDbEntity
  8
CENTER
100
AcDbLine
 10
11.36917172829933
 20
7.207406652420551
 30
0.0
 11
11.36917172829933
 21
7.237406652420551
 31
0.0
  0
LINE
  5
120
330
1F
100
AcDbEntity
  8
CENTER
100
AcDbLine
 10
11.36917172829933
 20
7.177406652420551
 30
0.0
 11
11.36917172829933
 21
7.050906652420551
 31
0.0
  0
LINE
  5
121
330
1F
100
AcDbEntity
  8
CENTER
100
AcDbLine
 10
11.36917172829933
 20
7.267406652420551
 30
0.0
 11
11.36917172829933
 21
7.393906652420551
 31
0.0
  0
DIMENSION
  5
122
330
1F
100
AcDbEntity
  8
DIMENSIONS
100
AcDbDimension
280
     0
  2
D7
 10
3.869171728299331
 20
7.333906652420551
 30
0.0
 11
12.01959345659866
 21
13.88362690595196
 31
0.0
 70
    38
  1
<>
 71
     5
 42
-1.0
 73
     0
 74
     0
 75
     0
 53
90.0
  3
Standard
100
AcDbOrdinateDimension
 13
3.869171728299331
 23
7.333906652420551
 33
0.0
 14
12.01959345659866
 24
13.88362690595196
 34
0.0
1001
ACAD
1000
DSTYLE
1002
{
1070
    76
1070
     0
1070
    75
1070
     0
1070
   282
1070
     0
1070
   281
1070
     0
1070
    77
1070
     0
1070
    79
1070
     0
1070
    78
1070
     0
1070
   272
1070
     3
1070
   271
1070
     3
1070
   179
1070
     3
1070
   140
1040
0.0984076433121019
1070
    71
1070
     0
1070
    72
1070
     0
1070
    48
1040
0.0
1070
    47
1040
0.0
1002
}
  0
DIMENSION
  5
12E
330
1F
100
AcDbEntity
  8
DIMENSIONS
100
AcDbDimension
280
     0
  2
D8
 10
3.869171728299331
 20
7.333906652420551
 30
0.0
 11
12.20709345659866
 21
13.88362709368313
 31
0.0
 70
    38
  1
<>
 71
     5
 42
-1.0
 73
     0
 74
     0
 75
     0
 53
90.0
  3
Standard
100
AcDbOrdinateDimension
 13
4.056671728299332
 23
7.146406652420551
 33
0.0
 14
12.20709345659866
 24
13.88362709368313
 34
0.0
1001
ACAD
1000
DSTYLE
1002
{
1070
    76
1070
     0
1070
    75
1070
     0
1070
   282
1070
     0
1070
   281
1070
     0
1070
    77
1070
     0
1070
    79
1070
     0
1070
    78
1070
     0
1070
   272
1070
     3
1070
   271
1070
     3
1070
   179
1070
     3
1070
   140
1040
0.0984076433121019
1070
    71
1070
     0
1070
    72
1070
     0
1070
    48
1040
0.0
1070
    47
1040
0.0
1002
}
  0
DIMENSION
  5
13A
330
1F
100
AcDbEntity
  8
DIMENSIONS
100
AcDbDimension
280
     0
  2
D9
 10
3.869171728299331
 20
7.333906652420551
 30
0.0
 11
13.08209345659866
 21
13.85584926417499
 31
0.0
 70
    38
  1
<>
 71
     5
 42
-1.0
 73
     0
 74
     0
 75
     0
 53
90.0
  3
Standard
100
AcDbOrdinateDimension
 13
4.931671728299332
 23
7.393906652420551
 33
0.0
 14
13.08209345659866
 24
13.85584926417499
 34
0.0
1001
ACAD
1000
DSTYLE
1002
{
1070
    76
1070
     0
1070
    75
1070
     0
1070
   282
1070
     0
1070
   281
1070
     0
1070
    77
1070
     0
1070
    79
1070
     0
1070
    78
1070
     0
1070
   272
1070
     3
1070
   271
1070
     3
1070
   179
1070
     3
1070
   140
1040
0.0984076433121019
1070
    71
1070
     0
1070
    72
1070
     0
1070
    48
1040
0.0
1070
    47
1040
0.0
1002
}
  0
DIMENSION
  5
146
330
1F
100
AcDbEntity
  8
DIMENSIONS
100
AcDbDimension
280
     0
  2
D10
 10
3.869171728299331
 20
7.333906652420551
 30
0.0
 11
13.58209345659866
 21
13.85584926417499
 31
0.0
 70
    38
  1
<>
 71
     5
 42
-1.0
 73
     0
 74
     0
 75
     0
 53
90.0
  3
Standard
100
AcDbOrdinateDimension
 13
5.431671728299332
 23
7.146406652420551
 33
0.0
 14
13.58209345659866
 24
13.85584926417499
 34
0.0
1001
ACAD
1000
DSTYLE
1002
{
1070
    76
1070
     0
1070
    75
1070
     0
1070
   282
1070
     0
1070
   281
1070
     0
1070
    77
1070
     0
1070
    79
1070
     0
1070
    78
1070
     0
1070
   272
1070
     3
1070
   271
1070
     3
1070
   179
1070
     3
1070
   140
1040
0.0984076433121019
1070
    71
1070
     0
1070
    72
1070
     0
1070
    48
1040
0.0
1070
    47
1040
0.0
1002
}
  0
DIMENSION
  5
152
330
1F
100
AcDbEntity
  8
DIMENSIONS
100
AcDbDimension
280
     0
  2
D11
 10
3.869171728299331
 20
7.333906652420551
 30
0.0
 11
14.92584345660975
 21
13.85584921724219
 31
0.0
 70
    38
  1
<>
 71
     5
 42
-1.0
 73
     0
 74
     0
 75
     0
 53
90.0
  3
Standard
100
AcDbOrdinateDimension
 13
6.775421728310414
 23
7.393906652420551
 33
0.0
 14
14.92584345660975
 24
13.85584921724219
 34
0.0
1001
ACAD
1000
DSTYLE
1002
{
1070
    76
1070
     0
1070
    75
1070
     0
1070
   282
1070
     0
1070
   281
1070
     0
1070
    77
1070
     0
1070
    79
1070
     0
1070
    78
1070
     0
1070
   272
1070
     3
1070
   271
1070
     3
1070
   179
1070
     3
1070
   140
1040
0.0984076433121019
1070
    71
1070
     0
1070
    72
1070
     0
1070
    48
1040
0.0
1070
    47
1040
0.0
1002
}
  0
DIMENSION
  5
15E
330
1F
100
AcDbEntity
  8
DIMENSIONS
100
AcDbDimension
280
     0
  2
D12
 10
3.869171728299331
 20
7.333906652420551
 30
0.0
 11
17.08209345659866
 21
13.8211270007562
 31
0.0
 70
    38
  1
<>
 71
     5
 42
-1.0
 73
     0
 74
     0
 75
     0
 53
90.0
  3
Standard
100
AcDbOrdinateDimension
 13
8.931671728299332
 23
7.146406652420551
 33
0.0
 14
17.08209345659866
 24
13.8211270007562
 34
0.0
1001
ACAD
1000
DSTYLE
1002
{
1070
    76
1070
     0
1070
    75
1070
     0
1070
   282
1070
     0
1070
   281
1070
     0
1070
    77
1070
     0
1070
    79
1070
     0
1070
    78
1070
     0
1070
   272
1070
     3
1070
   271
1070
     3
1070
   179
1070
     3
1070
   140
1040
0.0984076433121019
1070
    71
1070
     0
1070
    72
1070
     0
1070
    48
1040
0.0
1070
    47
1040
0.0
1002
}
  0
DIMENSION
  5
16A
330
1F
100
AcDbEntity
  8
DIMENSIONS
100
AcDbDimension
280
     0
  2
D13
 10
3.869171728299331
 20
7.333906652420551
 30
0.0
 11
17.67584345660975
 21
13.82112697728981
 31
0.0
 70
    38
  1
<>
 71
     5
 42
-1.0
 73
     0
 74
     0
 75
     0
 53
90.0
  3
Standard
100
AcDbOrdinateDimension
 13
9.525421728310414
 23
7.393906652420551
 33
0.0
 14
17.67584345660975
 24
13.82112697728981
 34
0.0
1001
ACAD
1000
DSTYLE
1002
{
1070
    76
1070
     0
1070
    75
1070
     0
1070
   282
1070
     0
1070
   281
1070
     0
1070
    77
1070
     0
1070
    79
1070
     0
1070
    78
1070
     0
1070
   272
1070
     3
1070
   271
1070
     3
1070
   179
1070
     3
1070
   140
1040
0.0984076433121019
1070
    71
1070
     0
1070
    72
1070
     0
1070
    48
1040
0.0
1070
    47
1040
0.0
1002
}
  0
DIMENSION
  5
176
330
1F
100
AcDbEntity
  8
DIMENSIONS
100
AcDbDimension
280
     0
  2
D14
 10
3.869171728299331
 20
7.333906652420551
 30
0.0
 11
17.51959345659866
 21
13.82112697728981
 31
0.0
 70
    38
  1
<>
 71
     5
 42
-1.0
 73
     0
 74
     0
 75
     0
 53
90.0
  3
Standard
100
AcDbOrdinateDimension
 13
9.369171728299332
 23
7.146406652420551
 33
0.0
 14
17.51959345659866
 24
13.82112697728981
 34
0.0
1001
ACAD
1000
DSTYLE
1002
{
1070
    76
1070
     0
1070
    75
1070
     0
1070
   282
1070
     0
1070
   281
1070
     0
1070
    77
1070
     0
1070
    79
1070
     0
1070
    78
1070
     0
1070
   272
1070
     3
1070
   271
1070
     3
1070
   179
1070
     3
1070
   140
1040
0.0984076433121019
1070
    71
1070
     0
1070
    72
1070
     0
1070
    48
1040
0.0
1070
    47
1040
0.0
1002
}
  0
DIMENSION
  5
182
330
1F
100
AcDbEntity
  8
DIMENSIONS
100
AcDbDimension
280
     0
  2
D15
 10
3.869171728299331
 20
7.333906652420551
 30
0.0
 11
19.08209345659866
 21
13.82112697728981
 31
0.0
 70
    38
  1
<>
 71
     5
 42
-1.0
 73
     0
 74
     0
 75
     0
 53
90.0
  3
Standard
100
AcDbOrdinateDimension
 13
10.93167172829933
 23
7.146406652420551
 33
0.0
 14
19.08209345659866
 24
13.82112697728981
 34
0.0
1001
ACAD
1000
DSTYLE
1002
{
1070
    76
1070
     0
1070
    75
1070
     0
1070
   282
1070
     0
1070
   281
1070
     0
1070
    77
1070
     0
1070
    79
1070
     0
1070
    78
1070
     0
1070
   272
1070
     3
1070
   271
1070
     3
1070
   179
1070
     3
1070
   140
1040
0.0984076433121019
1070
    71
1070
     0
1070
    72
1070
     0
1070
    48
1040
0.0
1070
    47
1040
0.0
1002
}
  0
DIMENSION
  5
18E
330
1F
100
AcDbEntity
  8
DIMENSIONS
100
AcDbDimension
280
     0
  2
D16
 10
3.869171728299331
 20
7.333906652420551
 30
0.0
 11
19.51959345659866
 21
13.82112697728981
 31
0.0
 70
    38
  1
<>
 71
     5
 42
-1.0
 73
     0
 74
     0
 75
     0
 53
90.0
  3
Standard
100
AcDbOrdinateDimension
 13
11.36917172829933
 23
7.393906652420551
 33
0.0
 14
19.51959345659866
 24
13.82112697728981
 34
0.0
1001
ACAD
1000
DSTYLE
1002
{
1070
    76
1070
     0
1070
    75
1070
     0
1070
   282
1070
     0
1070
   281
1070
     0
1070
    77
1070
     0
1070
    79
1070
     0
1070
    78
1070
     0
1070
   272
1070
     3
1070
   271
1070
     3
1070
   179
1070
     3
1070
   140
1040
0.0984076433121019
1070
    71
1070
     0
1070
    72
1070
     0
1070
    48
1040
0.0
1070
    47
1040
0.0
1002
}
  0
DIMENSION
  5
19A
330
1F
100
AcDbEntity
  8
DIMENSIONS
100
AcDbDimension
280
     0
  2
D17
 10
3.869171728299331
 20
7.333906652420551
 30
0.0
 11
20.01959345659866
 21
13.82112707115539
 31
0.0
 70
    38
  1
<>
 71
     5
 42
-1.0
 73
     0
 74
     0
 75
     0
 53
90.0
  3
Standard
100
AcDbOrdinateDimension
 13
11.86917172829933
 23
7.146406652420551
 33
0.0
 14
20.01959345659866
 24
13.82112707115539
 34
0.0
1001
ACAD
1000
DSTYLE
1002
{
1070
    76
1070
     0
1070
    75
1070
     0
1070
   282
1070
     0
1070
   281
1070
     0
1070
    77
1070
     0
1070
    79
1070
     0
1070
    78
1070
     0
1070
   272
1070
     3
1070
   271
1070
     3
1070
   179
1070
     3
1070
   140
1040
0.0984076433121019
1070
    71
1070
     0
1070
    72
1070
     0
1070
    48
1040
0.0
1070
    47
1040
0.0
1002
}
  0
DIMENSION
  5
1A6
330
1F
100
AcDbEntity
  8
DIMENSIONS
100
AcDbDimension
280
     0
  2
D18
 10
3.869171728299331
 20
7.333906652420551
 30
0.0
 11
20.39459345659866
 21
13.82112707115539
 31
0.0
 70
    38
  1
<>
 71
     5
 42
-1.0
 73
     0
 74
     0
 75
     0
 53
90.0
  3
Standard
100
AcDbOrdinateDimension
 13
12.24417172829933
 23
7.146406652420551
 33
0.0
 14
20.39459345659866
 24
13.82112707115539
 34
0.0
1001
ACAD
1000
DSTYLE
1002
{
1070
    76
1070
     0
1070
    75
1070
     0
1070
   282
1070
     0
1070
   281
1070
     0
1070
    77
1070
     0
1070
    79
1070
     0
1070
    78
1070
     0
1070
   272
1070
     3
1070
   271
1070
     3
1070
   179
1070
     3
1070
   140
1040
0.0984076433121019
1070
    71
1070
     0
1070
    72
1070
     0
1070
    48
1040
0.0
1070
    47
1040
0.0
1002
}
  0
DIMENSION
  5
1B2
330
1F
100
AcDbEntity
  8
DIMENSIONS
100
AcDbDimension
280
     0
  2
D19
 10
3.869171728299331
 20
7.333906652420551
 30
0.0
 11
20.58209345659866
 21
13.82112707115539
 31
0.0
 70
    38
  1
<>
 71
     5
 42
-1.0
 73
     0
 74
     0
 75
     0
 53
90.0
  3
Standard
100
AcDbOrdinateDimension
 13
12.43167172829933
 23
7.333906652420551
 33
0.0
 14
20.58209345659866
 24
13.82112707115539
 34
0.0
1001
ACAD
1000
DSTYLE
1002
{
1070
    76
1070
     0
1070
    75
1070
     0
1070
   282
1070
     0
1070
   281
1070
     0
1070
    77
1070
     0
1070
    79
1070
     0
1070
    78
1070
     0
1070
   272
1070
     3
1070
   271
1070
     3
1070
   179
1070
     3
1070
   140
1040
0.0984076433121019
1070
    71
1070
     0
1070
    72
1070
     0
1070
    48
1040
0.0
1070
    47
1040
0.0
1002
}
  0
DIMENSION
  5
1BE
330
1F
100
AcDbEntity
  8
DIMENSIONS
100
AcDbDimension
280
     0
  2
D20
 10
3.869171728299331
 20
6.958906652420551
 30
0.0
 11
11.62153293204116
 21
14.2928133048411
 31
0.0
 70
    38
  1
<>
 71
     5
 42
-1.0
 73
     0
 74
     0
 75
     0
 53
360.0
  3
Standard
100
AcDbOrdinateDimension
 13
3.869171728299331
 23
6.958906652420551
 33
0.0
 14
11.62153293204116
 24
14.2928133048411
 34
0.0
1001
ACAD
1000
DSTYLE
1002
{
1070
    76
1070
     0
1070
    75
1070
     0
1070
   282
1070
     0
1070
   281
1070
     0
1070
    77
1070
     0
1070
    79
1070
     0
1070
    78
1070
     0
1070
   272
1070
     3
1070
   271
1070
     3
1070
   179
1070
     3
1070
   140
1040
0.0984076433121019
1070
    71
1070
     0
1070
    72
1070
     0
1070
    48
1040
0.0
1070
    47
1040
0.0
1002
}
  0
DIMENSION
  5
1CA
330
1F
100
AcDbEntity
  8
DIMENSIONS
100
AcDbDimension
280
     0
  2
D21
 10
3.869171728299331
 20
6.958906652420551
 30
0.0
 11
11.62153293204116
 21
14.4448133048411
 31
0.0
 70
    38
  1
<>
 71
     5
 42
-1.0
 73
     0
 74
     0
 75
     0
 53
360.0
  3
Standard
100
AcDbOrdinateDimension
 13
4.679171728299332
 23
7.110906652420551
 33
0.0
 14
11.62153293204116
 24
14.4448133048411
 34
0.0
1001
ACAD
1000
DSTYLE
1002
{
1070
    76
1070
     0
1070
    75
1070
     0
1070
   282
1070
     0
1070
   281
1070
     0
1070
    77
1070
     0
1070
    79
1070
     0
1070
    78
1070
     0
1070
   272
1070
     3
1070
   271
1070
     3
1070
   179
1070
     3
1070
   140
1040
0.0984076433121019
1070
    71
1070
     0
1070
    72
1070
     0
1070
    48
1040
0.0
1070
    47
1040
0.0
1002
}
  0
DIMENSION
  5
1D6
330
1F
100
AcDbEntity
  8
DIMENSIONS
100
AcDbDimension
280
     0
  2
D22
 10
3.869171728299331
 20
6.958906652420551
 30
0.0
 11
11.62153293204116
 21
14.5428133048411
 31
0.0
 70
    38
  1
<>
 71
     5
 42
-1.0
 73
     0
 74
     0
 75
     0
 53
360.0
  3
Standard
100
AcDbOrdinateDimension
 13
4.056671728299332
 23
7.146406652420551
 33
0.0
 14
11.62153293204116
 24
14.5428133048411
 34
0.0
1001
ACAD
1000
DSTYLE
1002
{
1070
    76
1070
     0
1070
    75
1070
     0
1070
   282
1070
     0
1070
   281
1070
     0
1070
    77
1070
     0
1070
    79
1070
     0
1070
    78
1070
     0
1070
   272
1070
     3
1070
   271
1070
     3
1070
   179
1070
     3
1070
   140
1040
0.0984076433121019
1070
    71
1070
     0
1070
    72
1070
     0
1070
    48
1040
0.0
1070
    47
1040
0.0
1002
}
  0
DIMENSION
  5
1E2
330
1F
100
AcDbEntity
  8
DIMENSIONS
100
AcDbDimension
280
     0
  2
D23
 10
3.869171728299331
 20
6.958906652420551
 30
0.0
 11
11.62153293204116
 21
14.6678133048411
 31
0.0
 70
    38
  1
<>
 71
     5
 42
-1.0
 73
     0
 74
     0
 75
     0
 53
360.0
  3
Standard
100
AcDbOrdinateDimension
 13
3.869171728299331
 23
7.333906652420551
 33
0.0
 14
11.62153293204116
 24
14.6678133048411
 34
0.0
1001
ACAD
1000
DSTYLE
1002
{
1070
    76
1070
     0
1070
    75
1070
     0
1070
   282
1070
     0
1070
   281
1070
     0
1070
    77
1070
     0
1070
    79
1070
     0
1070
    78
1070
     0
1070
   272
1070
     3
1070
   271
1070
     3
1070
   179
1070
     3
1070
   140
1040
0.0984076433121019
1070
    71
1070
     0
1070
    72
1070
     0
1070
    48
1040
0.0
1070
    47
1040
0.0
1002
}
  0
MTEXT
  5
1EE
330
1F
100
AcDbEntity
  8
CONTINUOUS
100
AcDbMText
 10
4.869171728299331
 20
7.89017123177559
 30
0.0
 40
0.0775536798367834
 41
0.0
 46
0.0
 71
     4
 72
     1
  3
{\fArial|b0|i0|c0|p0;\C7;5x }{\fAlibre Symbols|b0|i0|c0|p0;\C7;n}{\fArial|b0|i0|c0|p0;\C7;.257 }{\fAlibre Symbols|b0|i0|c0|p0;\C7;x}{\fArial|b0|i0|c0|p0;\C7; THRU}{\fArial|b0|i0|c0|p0;\C7;\P}{\fAlibre Symbols|b0|i0|c0|p0;\C7;vn}{\fArial|b0|i0|c0|p0;\
  1
C7;.438 }{\fAlibre Symbols|b0|i0|c0|p0;\C7;x}{\fArial|b0|i0|c0|p0;\C7; .750}{\fArial|b0|i0|c0|p0;\C7;}
 73
     1
 44
1.0
  0
LINE
  5
1EF
330
1F
100
AcDbEntity
  8
CONTINUOUS
100
AcDbLine
 10
4.632459129874134
 20
7.89017123177559
 30
0.0
 11
4.819959129874134
 21
7.89017123177559
 31
0.0
  0
LINE
  5
1F0
330
1F
100
AcDbEntity
  8
CONTINUOUS
100
AcDbLine
 10
4.178719737976695
 20
7.304060304324912
 30
0.0
 11
4.178719737976695
 21
7.304060304324912
 31
0.0
  0
LINE
  5
1F1
330
1F
100
AcDbEntity
  8
CONTINUOUS
100
AcDbLine
 10
4.178719737976695
 20
7.304060304324912
 30
0.0
 11
4.632459129874134
 21
7.89017123177559
 31
0.0
  0
LWPOLYLINE
  5
1F2
330
1F
100
AcDbEntity
  8
CONTINUOUS
100
AcDbPolyline
 90
        4
 70
     0
 43
0.0
 10
4.123625965583151
 20
7.232893765534214
 10
4.166858648178247
 20
7.313242599723838
 10
4.190580827775146
 20
7.294878008925989
 10
4.123625965583151
 20
7.232893765534214
  0
HATCH
  5
1F3
330
1F
100
AcDbEntity
  8
0
 62
     7
100
AcDbHatch
 10
0.0
 20
0.0
 30
0.0
210
0.0
220
0.0
230
1.0
  2
SOLID
 70
     1
 71
     0
 91
        1
 92
        0
 93
        3
 72
     1
 10
4.190580827775146
 20
7.294878008925989
 11
4.123625965583151
 21
7.232893765534214
 72
     1
 10
4.123625965583151
 20
7.232893765534214
 11
4.166858648178247
 21
7.313242599723838
 72
     1
 10
4.166858648178247
 20
7.313242599723838
 11
4.190580827775146
 21
7.294878008925989
 97
        0
 75
     0
 76
     1
 98
        0
  0
MTEXT
  5
1F4
330
1F
100
AcDbEntity
  8
CONTINUOUS
100
AcDbMText
 10
9.149272167776497
 20
7.757614546198464
 30
0.0
 40
0.0775536798367834
 41
0.0
 46
0.0
 71
     4
 72
     1
  1
{\fArial|b0|i0|c0|p0;\C7;2x 1/4-20 UNC }{\fAlibre Symbols|b0|i0|c0|p0;\C7;x}{\fArial|b0|i0|c0|p0;\C7; .750}{\fArial|b0|i0|c0|p0;\C7;}
 73
     1
 44
1.0
  0
LINE
  5
1F5
330
1F
100
AcDbEntity
  8
CONTINUOUS
100
AcDbLine
 10
10.51098476620169
 20
7.757614546198464
 30
0.0
 11
10.32348476620169
 21
7.757614546198464
 31
0.0
  0
LINE
  5
1F6
330
1F
100
AcDbEntity
  8
CONTINUOUS
100
AcDbLine
 10
10.85286297811797
 20
7.2609063506509
 30
0.0
 11
10.85286297811797
 21
7.2609063506509
 31
0.0
  0
LINE
  5
1F7
330
1F
100
AcDbEntity
  8
CONTINUOUS
100
AcDbLine
 10
10.85286297811797
 20
7.2609063506509
 30
0.0
 11
10.51098476620169
 21
7.757614546198464
 31
0.0
  0
LWPOLYLINE
  5
1F8
330
1F
100
AcDbEntity
  8
CONTINUOUS
100
AcDbPolyline
 90
        4
 70
     0
 43
0.0
 10
10.90389022643686
 20
7.186769855393822
 10
10.84050689557512
 20
7.252401809264423
 10
10.86521906066082
 20
7.269410892037385
 10
10.90389022643686
 20
7.186769855393822
  0
HATCH
  5
1F9
330
1F
100
AcDbEntity
  8
0
 62
     7
100
AcDbHatch
 10
0.0
 20
0.0
 30
0.0
210
0.0
220
0.0
230
1.0
  2
SOLID
 70
     1
 71
     0
 91
        1
 92
        0
 93
        3
 72
     1
 10
10.86521906066082
 20
7.269410892037385
 11
10.90389022643686
 21
7.186769855393822
 72
     1
 10
10.90389022643686
 20
7.186769855393822
 11
10.84050689557512
 21
7.252401809264423
 72
     1
 10
10.84050689557512
 20
7.252401809264423
 11
10.86521906066082
 21
7.269410892037385
 97
        0
 75
     0
 76
     1
 98
        0
  0
LINE
  5
1FA
330
1F
100
AcDbEntity
  8
VISIBLE
100
AcDbLine
 10
13.28827815919409
 20
5.361100668043623
 30
0.0
 11
13.28827815919409
 21
4.361100668043623
 31
0.0
  0
LINE
  5
1FB
330
1F
100
AcDbEntity
  8
VISIBLE
100
AcDbLine
 10
13.66327815919409
 20
4.361100668043623
 30
0.0
 11
13.28827815919409
 21
4.361100668043623
 31
0.0
  0
LINE
  5
1FC
330
1F
100
AcDbEntity
  8
VISIBLE
100
AcDbLine
 10
13.66327815919409
 20
5.361100668043623
 30
0.0
 11
13.28827815919409
 21
5.361100668043623
 31
0.0
  0
LINE
  5
1FD
330
1F
100
AcDbEntity
  8
VISIBLE
100
AcDbLine
 10
13.66327815919409
 20
4.361100668043623
 30
0.0
 11
13.66327815919409
 21
5.361100668043623
 31
0.0
  0
INSERT
  5
1FE
330
1F
100
AcDbEntity
  8
CONTINUOUS
100
AcDbBlockReference
  2
BLOCK7
 10
0.0
 20
0.0
 30
0.0
  0
ENDSEC
  0
SECTION
  2
OBJECTS
  0
DICTIONARY
  5
C
330
0
100
AcDbDictionary
281
     1
  3
ACAD_DETAILVIEWSTYLE
350
237
  3
ACAD_GROUP
350
D
  3
ACAD_LAYOUT
350
1A
  3
ACAD_MATERIAL
350
43
  3
ACAD_MLEADERSTYLE
350
6B
  3
ACAD_MLINESTYLE
350
17
  3
ACAD_PLOTSETTINGS
350
19
  3
ACAD_PLOTSTYLENAME
350
E
  3
ACAD_SCALELIST
350
47
  3
ACAD_SECTIONVIEWSTYLE
350
238
  3
ACAD_TABLESTYLE
350
69
  3
ACAD_VISUALSTYLE
350
2A
  3
ACDB_RECOMPOSE_DATA
350
234
  3
AcDbVariableDictionary
350
230
  0
SUN
  5
6D
330
29
100
AcDbSun
 90
        1
290
     0
 63
     7
421
 16777215
 40
1.0
291
     1
 91
  2455826
 92
 54000000
292
     0
 70
     2
 71
   256
280
     1
  0
DICTIONARY
  5
237
102
{ACAD_REACTORS
330
C
102
}
330
C
100
AcDbDictionary
281
     1
  0
DICTIONARY
  5
D
102
{ACAD_REACTORS
330
C
102
}
330
C
100
AcDbDictionary
281
     1
  0
DICTIONARY
  5
1A
102
{ACAD_REACTORS
330
C
102
}
330
C
100
AcDbDictionary
281
     1
  3
Layout1
350
1E
  3
Layout2
350
26
  3
Model
350
22
  0
DICTIONARY
  5
43
102
{ACAD_REACTORS
330
C
102
}
330
C
100
AcDbDictionary
281
     1
  3
ByBlock
350
45
  3
ByLayer
350
44
  3
Global
350
46
  0
DICTIONARY
  5
6B
102
{ACAD_REACTORS
330
C
102
}
330
C
100
AcDbDictionary
281
     1
  3
Standard
350
6C
  0
DICTIONARY
  5
17
102
{ACAD_REACTORS
330
C
102
}
330
C
100
AcDbDictionary
281
     1
  3
Standard
350
18
  0
DICTIONARY
  5
19
102
{ACAD_REACTORS
330
C
102
}
330
C
100
AcDbDictionary
281
     1
  0
ACDBDICTIONARYWDFLT
  5
E
102
{ACAD_REACTORS
330
C
102
}
330
C
100
AcDbDictionary
281
     1
  3
Normal
350
F
100
AcDbDictionaryWithDefault
340
F
  0
DICTIONARY
  5
47
102
{ACAD_REACTORS
330
C
102
}
330
C
100
AcDbDictionary
281
     1
  3
A0
350
48
  3
A1
350
49
  3
A2
350
4A
  3
A3
350
4B
  3
A4
350
4C
  3
A5
350
4D
  3
A6
350
4E
  3
A7
350
4F
  3
A8
350
50
  3
A9
350
51
  3
B0
350
52
  3
B1
350
53
  3
B2
350
54
  3
B3
350
55
  3
B4
350
56
  3
B5
350
57
  3
B6
350
58
  3
B7
350
59
  3
B8
350
5A
  3
B9
350
5B
  3
C0
350
5C
  3
C1
350
5D
  3
C2
350
5E
  3
C3
350
5F
  3
C4
350
60
  3
C5
350
61
  3
C6
350
62
  3
C7
350
63
  3
C8
350
64
  3
C9
350
65
  3
D0
350
66
  3
D1
350
67
  3
D2
350
68
  0
DICTIONARY
  5
238
102
{ACAD_REACTORS
330
C
102
}
330
C
100
AcDbDictionary
281
     1
  0
DICTIONARY
  5
69
102
{ACAD_REACTORS
330
C
102
}
330
C
100
AcDbDictionary
281
     1
  3
Standard
350
6A
  0
DICTIONARY
  5
2A
102
{ACAD_REACTORS
330
C
102
}
330
C
100
AcDbDictionary
281
     1
  3
2dWireframe
350
2F
  3
Basic
350
32
  3
Brighten
350
36
  3
ColorChange
350
3A
  3
Conceptual
350
34
  3
Dim
350
35
  3
EdgeColorOff
350
3D
  3
Facepattern
350
39
  3
Flat
350
2B
  3
FlatWithEdges
350
2C
  3
Gouraud
350
2D
  3
GouraudWithEdges
350
2E
  3
Hidden
350
31
  3
JitterOff
350
3B
  3
Linepattern
350
38
  3
OverhangOff
350
3C
  3
Realistic
350
33
  3
Shaded
350
42
  3
Shaded with edges
350
41
  3
Shades of Gray
350
3E
  3
Sketchy
350
3F
  3
Thicken
350
37
  3
Wireframe
350
30
  3
X-Ray
350
40
  0
XRECORD
  5
234
102
{ACAD_REACTORS
330
C
102
}
330
C
100
AcDbXrecord
280
     1
 90
        1
330
6A
  0
DICTIONARY
  5
230
102
{ACAD_REACTORS
330
C
102
}
330
C
100
AcDbDictionary
281
     1
  3
CANNOSCALE
350
231
  3
CMLEADERSTYLE
350
236
  3
CTABLESTYLE
350
235
  0
LAYOUT
  5
1E
102
{ACAD_REACTORS
330
1A
102
}
330
1A
100
AcDbPlotSettings
  1

  2
none_device
  4

  6

 40
0.0
 41
0.0
 42
0.0
 43
0.0
 44
0.0
 45
0.0
 46
0.0
 47
0.0
 48
0.0
 49
0.0
140
0.0
141
0.0
142
1.0
143
1.0
 70
   688
 72
     0
 73
     0
 74
     5
  7

 75
    16
 76
     0
 77
     2
 78
   300
147
1.0
148
0.0
149
0.0
100
AcDbLayout
  1
Layout1
 70
     1
 71
     1
 10
0.0
 20
0.0
 11
12.0
 21
9.0
 12
0.0
 22
0.0
 32
0.0
 14
1.000000000000000E+20
 24
1.000000000000000E+20
 34
1.000000000000000E+20
 15
-1.000000000000000E+20
 25
-1.000000000000000E+20
 35
-1.000000000000000E+20
146
0.0
 13
0.0
 23
0.0
 33
0.0
 16
1.0
 26
0.0
 36
0.0
 17
0.0
 27
1.0
 37
0.0
 76
     0
330
1B
  0
LAYOUT
  5
26
102
{ACAD_REACTORS
330
1A
102
}
330
1A
100
AcDbPlotSettings
  1

  2
none_device
  4

  6

 40
0.0
 41
0.0
 42
0.0
 43
0.0
 44
0.0
 45
0.0
 46
0.0
 47
0.0
 48
0.0
 49
0.0
140
0.0
141
0.0
142
1.0
143
1.0
 70
   688
 72
     0
 73
     0
 74
     5
  7

 75
    16
 76
     0
 77
     2
 78
   300
147
1.0
148
0.0
149
0.0
100
AcDbLayout
  1
Layout2
 70
     1
 71
     2
 10
0.0
 20
0.0
 11
0.0
 21
0.0
 12
0.0
 22
0.0
 32
0.0
 14
0.0
 24
0.0
 34
0.0
 15
0.0
 25
0.0
 35
0.0
146
0.0
 13
0.0
 23
0.0
 33
0.0
 16
1.0
 26
0.0
 36
0.0
 17
0.0
 27
1.0
 37
0.0
 76
     0
330
23
  0
LAYOUT
  5
22
102
{ACAD_REACTORS
330
1A
102
}
330
1A
100
AcDbPlotSettings
  1

  2
none_device
  4
Letter_(8.50_x_11.00_Inches)
  6

 40
6.35
 41
6.35
 42
6.35000508
 43
6.35000508
 44
215.9
 45
279.4
 46
0.0
 47
0.0
 48
0.0
 49
0.0
140
0.0
141
0.0
142
1.0
143
1.0
 70
  1712
 72
     0
 73
     0
 74
     0
  7

 75
     0
 76
     0
 77
     2
 78
   300
147
1.0
148
0.0
149
0.0
100
AcDbLayout
  1
Model
 70
     1
 71
     0
 10
0.0
 20
0.0
 11
12.0
 21
9.0
 12
0.0
 22
0.0
 32
0.0
 14
1.000000000000000E+20
 24
1.000000000000000E+20
 34
1.000000000000000E+20
 15
-1.000000000000000E+20
 25
-1.000000000000000E+20
 35
-1.000000000000000E+20
146
0.0
 13
0.0
 23
0.0
 33
0.0
 16
1.0
 26
0.0
 36
0.0
 17
0.0
 27
1.0
 37
0.0
 76
     0
330
1F
331
29
  0
MATERIAL
  5
45
102
{ACAD_REACTORS
330
43
102
}
330
43
100
AcDbMaterial
  1
ByBlock
 72
     1
 94
      127
  0
MATERIAL
  5
44
102
{ACAD_REACTORS
330
43
102
}
330
43
100
AcDbMaterial
  1
ByLayer
 72
     1
 94
      127
  0
MATERIAL
  5
46
102
{ACAD_REACTORS
330
43
102
}
330
43
100
AcDbMaterial
  1
Global
 72
     1
 94
      127
  0
MLEADERSTYLE
  5
6C
102
{ACAD_REACTORS
330
6B
102
}
330
6B
100
AcDbMLeaderStyle
179
     2
170
     2
171
     1
172
     0
 90
        2
 40
0.0
 41
0.0
173
     1
 91
-1056964608
340
14
 92
       -2
290
     1
 42
0.09
291
     1
 43
0.36
  3
Standard
341
0
 44
0.18
300

342
11
174
     1
178
     6
175
     1
176
     0
 93
-1056964608
 45
0.18
292
     0
297
     0
 46
0.18
343
0
 94
-1056964608
 47
1.0
 49
1.0
140
1.0
293
     1
141
0.0
294
     1
177
     0
142
1.0
295
     0
296
     0
143
0.125
271
     0
272
     9
273
     9
298
     0
  0
MLINESTYLE
  5
18
102
{ACAD_REACTORS
330
17
102
}
330
17
100
AcDbMlineStyle
  2
Standard
 70
     0
  3

 62
   256
 51
90.0
 52
90.0
 71
     2
 49
0.5
 62
   256
  6
BYLAYER
 49
-0.5
 62
   256
  6
BYLAYER
  0
ACDBPLACEHOLDER
  5
F
102
{ACAD_REACTORS
330
E
102
}
330
E
  0
SCALE
  5
48
102
{ACAD_REACTORS
330
47
102
}
330
47
100
AcDbScale
 70
     0
300
1:1
140
1.0
141
1.0
290
     1
  0
SCALE
  5
49
102
{ACAD_REACTORS
330
47
102
}
330
47
100
AcDbScale
 70
     0
300
1:2
140
1.0
141
2.0
290
     0
  0
SCALE
  5
4A
102
{ACAD_REACTORS
330
47
102
}
330
47
100
AcDbScale
 70
     0
300
1:4
140
1.0
141
4.0
290
     0
  0
SCALE
  5
4B
102
{ACAD_REACTORS
330
47
102
}
330
47
100
AcDbScale
 70
     0
300
1:5
140
1.0
141
5.0
290
     0
  0
SCALE
  5
4C
102
{ACAD_REACTORS
330
47
102
}
330
47
100
AcDbScale
 70
     0
300
1:8
140
1.0
141
8.0
290
     0
  0
SCALE
  5
4D
102
{ACAD_REACTORS
330
47
102
}
330
47
100
AcDbScale
 70
     0
300
1:10
140
1.0
141
10.0
290
     0
  0
SCALE
  5
4E
102
{ACAD_REACTORS
330
47
102
}
330
47
100
AcDbScale
 70
     0
300
1:16
140
1.0
141
16.0
290
     0
  0
SCALE
  5
4F
102
{ACAD_REACTORS
330
47
102
}
330
47
100
AcDbScale
 70
     0
300
1:20
140
1.0
141
20.0
290
     0
  0
SCALE
  5
50
102
{ACAD_REACTORS
330
47
102
}
330
47
100
AcDbScale
 70
     0
300
1:30
140
1.0
141
30.0
290
     0
  0
SCALE
  5
51
102
{ACAD_REACTORS
330
47
102
}
330
47
100
AcDbScale
 70
     0
300
1:40
140
1.0
141
40.0
290
     0
  0
SCALE
  5
52
102
{ACAD_REACTORS
330
47
102
}
330
47
100
AcDbScale
 70
     0
300
1:50
140
1.0
141
50.0
290
     0
  0
SCALE
  5
53
102
{ACAD_REACTORS
330
47
102
}
330
47
100
AcDbScale
 70
     0
300
1:100
140
1.0
141
100.0
290
     0
  0
SCALE
  5
54
102
{ACAD_REACTORS
330
47
102
}
330
47
100
AcDbScale
 70
     0
300
2:1
140
2.0
141
1.0
290
     0
  0
SCALE
  5
55
102
{ACAD_REACTORS
330
47
102
}
330
47
100
AcDbScale
 70
     0
300
4:1
140
4.0
141
1.0
290
     0
  0
SCALE
  5
56
102
{ACAD_REACTORS
330
47
102
}
330
47
100
AcDbScale
 70
     0
300
8:1
140
8.0
141
1.0
290
     0
  0
SCALE
  5
57
102
{ACAD_REACTORS
330
47
102
}
330
47
100
AcDbScale
 70
     0
300
10:1
140
10.0
141
1.0
290
     0
  0
SCALE
  5
58
102
{ACAD_REACTORS
330
47
102
}
330
47
100
AcDbScale
 70
     0
300
100:1
140
100.0
141
1.0
290
     0
  0
SCALE
  5
59
102
{ACAD_REACTORS
330
47
102
}
330
47
100
AcDbScale
 70
     0
300
1/128" = 1'-0"
140
0.0078125
141
12.0
290
     0
  0
SCALE
  5
5A
102
{ACAD_REACTORS
330
47
102
}
330
47
100
AcDbScale
 70
     0
300
1/64" = 1'-0"
140
0.015625
141
12.0
290
     0
  0
SCALE
  5
5B
102
{ACAD_REACTORS
330
47
102
}
330
47
100
AcDbScale
 70
     0
300
1/32" = 1'-0"
140
0.03125
141
12.0
290
     0
  0
SCALE
  5
5C
102
{ACAD_REACTORS
330
47
102
}
330
47
100
AcDbScale
 70
     0
300
1/16" = 1'-0"
140
0.0625
141
12.0
290
     0
  0
SCALE
  5
5D
102
{ACAD_REACTORS
330
47
102
}
330
47
100
AcDbScale
 70
     0
300
3/32" = 1'-0"
140
0.09375
141
12.0
290
     0
  0
SCALE
  5
5E
102
{ACAD_REACTORS
330
47
102
}
330
47
100
AcDbScale
 70
     0
300
1/8" = 1'-0"
140
0.125
141
12.0
290
     0
  0
SCALE
  5
5F
102
{ACAD_REACTORS
330
47
102
}
330
47
100
AcDbScale
 70
     0
300
3/16" = 1'-0"
140
0.1875
141
12.0
290
     0
  0
SCALE
  5
60
102
{ACAD_REACTORS
330
47
102
}
330
47
100
AcDbScale
 70
     0
300
1/4" = 1'-0"
140
0.25
141
12.0
290
     0
  0
SCALE
  5
61
102
{ACAD_REACTORS
330
47
102
}
330
47
100
AcDbScale
 70
     0
300
3/8" = 1'-0"
140
0.375
141
12.0
290
     0
  0
SCALE
  5
62
102
{ACAD_REACTORS
330
47
102
}
330
47
100
AcDbScale
 70
     0
300
1/2" = 1'-0"
140
0.5
141
12.0
290
     0
  0
SCALE
  5
63
102
{ACAD_REACTORS
330
47
102
}
330
47
100
AcDbScale
 70
     0
300
3/4" = 1'-0"
140
0.75
141
12.0
290
     0
  0
SCALE
  5
64
102
{ACAD_REACTORS
330
47
102
}
330
47
100
AcDbScale
 70
     0
300
1" = 1'-0"
140
1.0
141
12.0
290
     0
  0
SCALE
  5
65
102
{ACAD_REACTORS
330
47
102
}
330
47
100
AcDbScale
 70
     0
300
1-1/2" = 1'-0"
140
1.5
141
12.0
290
     0
  0
SCALE
  5
66
102
{ACAD_REACTORS
330
47
102
}
330
47
100
AcDbScale
 70
     0
300
3" = 1'-0"
140
3.0
141
12.0
290
     0
  0
SCALE
  5
67
102
{ACAD_REACTORS
330
47
102
}
330
47
100
AcDbScale
 70
     0
300
6" = 1'-0"
140
6.0
141
12.0
290
     0
  0
SCALE
  5
68
102
{ACAD_REACTORS
330
47
102
}
330
47
100
AcDbScale
 70
     0
300
1'-0" = 1'-0"
140
12.0
141
12.0
290
     0
  0
TABLESTYLE
  5
6A
102
{ACAD_REACTORS
330
69
102
}
102
{ACAD_XDICTIONARY
360
232
102
}
330
69
100
AcDbTableStyle
  3
Standard
 70
     0
 71
     0
 40
0.06
 41
0.06
280
     0
281
     0
  7
Standard
140
0.18
170
     2
 62
     0
 63
   257
283
     0
 90
        4
 91
        0
  1

274
    -2
284
     1
 64
     0
275
    -2
285
     1
 65
     0
276
    -2
286
     1
 66
     0
277
    -2
287
     1
 67
     0
278
    -2
288
     1
 68
     0
279
    -2
289
     1
 69
     0
  7
Standard
140
0.25
170
     5
 62
     0
 63
   257
283
     0
 90
        4
 91
        0
  1

274
    -2
284
     1
 64
     0
275
    -2
285
     1
 65
     0
276
    -2
286
     1
 66
     0
277
    -2
287
     1
 67
     0
278
    -2
288
     1
 68
     0
279
    -2
289
     1
 69
     0
  7
Standard
140
0.18
170
     5
 62
     0
 63
   257
283
     0
 90
        4
 91
        0
  1

274
    -2
284
     1
 64
     0
275
    -2
285
     1
 65
     0
276
    -2
286
     1
 66
     0
277
    -2
287
     1
 67
     0
278
    -2
288
     1
 68
     0
279
    -2
289
     1
 69
     0
  0
VISUALSTYLE
  5
2F
102
{ACAD_REACTORS
330
2A
102
}
330
2A
100
AcDbVisualStyle
  2
2dWireframe
 70
     4
177
     3
291
     0
 70
    58
 90
        0
176
     1
 90
        2
176
     1
 90
        0
176
     1
 90
        0
176
     1
 40
0.6
176
     1
 40
30.0
176
     1
 62
     7
420
 16777215
176
     1
 90
        1
176
     1
 90
        4
176
     1
 62
     7
176
     1
 62
   257
176
     1
 90
        1
176
     1
 90
        1
176
     1
 40
1.0
176
     1
 90
        0
176
     1
 62
   257
176
     1
 40
1.0
176
     1
 90
        1
176
     1
 90
        6
176
     1
 90
        2
176
     1
 62
     7
176
     1
 90
        5
176
     1
 90
        0
176
     1
 90
        0
176
     1
290
     0
176
     1
 90
        1
176
     1
 40
0.0
176
     1
 90
        0
176
     1
290
     1
176
     1
290
     1
176
     1
290
     0
176
     1
290
     0
176
     1
290
     0
176
     1
290
     0
176
     1
290
     0
176
     1
290
     0
176
     1
290
     0
176
     1
 90
       50
176
     1
 40
0.0
176
     1
 40
1.0
176
     1
 90
        0
176
     1
 62
    18
420
        0
176
     1
 90
       50
176
     1
 90
        3
176
     1
 62
     5
420
      255
176
     1
290
     0
176
     1
 90
       50
176
     1
 90
       50
176
     1
 90
       50
176
     1
290
     0
176
     1
 90
       50
176
     1
 62
   256
176
     0
 40
1.0
176
     0
 90
        2
176
     1
  1
strokes_ogs.tif
176
     1
290
     0
176
     1
 40
1.0
176
     1
 40
1.0
176
     1
  0
VISUALSTYLE
  5
32
102
{ACAD_REACTORS
330
2A
102
}
330
2A
100
AcDbVisualStyle
  2
Basic
 70
     7
177
     3
291
     1
 70
    58
 90
        1
176
     1
 90
        0
176
     1
 90
        1
176
     1
 90
        0
176
     1
 40
0.6
176
     1
 40
30.0
176
     1
 62
     7
420
 16777215
176
     1
 90
        0
176
     1
 90
        4
176
     1
 62
     7
176
     1
 62
   257
176
     1
 90
        1
176
     1
 90
        1
176
     1
 40
1.0
176
     1
 90
        8
176
     1
 62
     7
176
     1
 40
1.0
176
     1
 90
        1
176
     1
 90
        6
176
     1
 90
        2
176
     1
 62
     7
176
     1
 90
        5
176
     1
 90
        0
176
     1
 90
        0
176
     1
290
     0
176
     1
 90
        1
176
     1
 40
0.0
176
     1
 90
        0
176
     1
290
     0
176
     1
290
     1
176
     1
290
     1
176
     1
290
     0
176
     1
290
     0
176
     1
290
     0
176
     1
290
     0
176
     1
290
     0
176
     1
290
     0
176
     1
 90
       50
176
     1
 40
0.0
176
     1
 40
1.0
176
     1
 90
        0
176
     1
 62
    18
420
        0
176
     1
 90
       50
176
     1
 90
        3
176
     1
 62
     5
420
      255
176
     1
290
     0
176
     1
 90
       50
176
     1
 90
       50
176
     1
 90
       50
176
     1
290
     0
176
     1
 90
       50
176
     1
 62
   256
176
     0
 40
1.0
176
     0
 90
        2
176
     1
  1
strokes_ogs.tif
176
     1
290
     0
176
     1
 40
1.0
176
     1
 40
1.0
176
     1
  0
VISUALSTYLE
  5
36
102
{ACAD_REACTORS
330
2A
102
}
330
2A
100
AcDbVisualStyle
  2
Brighten
 70
    12
177
     3
291
     1
 70
    58
 90
        2
176
     1
 90
        2
176
     1
 90
        0
176
     1
 90
        0
176
     1
 40
0.6
176
     1
 40
30.0
176
     1
 62
     7
420
 16777215
176
     1
 90
        1
176
     1
 90
        4
176
     1
 62
     7
176
     1
 62
   257
176
     1
 90
        1
176
     1
 90
        1
176
     1
 40
1.0
176
     1
 90
        8
176
     1
 62
     7
176
     1
 40
1.0
176
     1
 90
        1
176
     1
 90
        6
176
     1
 90
        2
176
     1
 62
     7
176
     1
 90
        5
176
     1
 90
        0
176
     1
 90
        0
176
     1
290
     0
176
     1
 90
        1
176
     1
 40
50.0
176
     1
 90
        0
176
     1
290
     0
176
     1
290
     1
176
     1
290
     1
176
     1
290
     0
176
     1
290
     0
176
     1
290
     0
176
     1
290
     0
176
     1
290
     0
176
     1
290
     0
176
     1
 90
       50
176
     1
 40
0.0
176
     1
 40
1.0
176
     1
 90
        0
176
     1
 62
    18
420
        0
176
     1
 90
       50
176
     1
 90
        3
176
     1
 62
     5
420
      255
176
     1
290
     0
176
     1
 90
       50
176
     1
 90
       50
176
     1
 90
       50
176
     1
290
     0
176
     1
 90
       50
176
     1
 62
   256
176
     0
 40
1.0
176
     0
 90
        2
176
     1
  1
strokes_ogs.tif
176
     1
290
     0
176
     1
 40
1.0
176
     1
 40
1.0
176
     1
  0
VISUALSTYLE
  5
3A
102
{ACAD_REACTORS
330
2A
102
}
330
2A
100
AcDbVisualStyle
  2
ColorChange
 70
    16
177
     3
291
     1
 70
    58
 90
        2
176
     1
 90
        2
176
     1
 90
        3
176
     1
 90
        0
176
     1
 40
0.6
176
     1
 40
30.0
176
     1
 62
     8
420
  8421504
176
     1
 90
        1
176
     1
 90
        4
176
     1
 62
     7
176
     1
 62
   257
176
     1
 90
        1
176
     1
 90
        1
176
     1
 40
1.0
176
     1
 90
        8
176
     1
 62
     8
420
  8421504
176
     1
 40
1.0
176
     1
 90
        1
176
     1
 90
        6
176
     1
 90
        2
176
     1
 62
     7
176
     1
 90
        5
176
     1
 90
        0
176
     1
 90
        0
176
     1
290
     0
176
     1
 90
        1
176
     1
 40
0.0
176
     1
 90
        0
176
     1
290
     0
176
     1
290
     1
176
     1
290
     1
176
     1
290
     0
176
     1
290
     0
176
     1
290
     0
176
     1
290
     0
176
     1
290
     0
176
     1
290
     0
176
     1
 90
       50
176
     1
 40
0.0
176
     1
 40
1.0
176
     1
 90
        0
176
     1
 62
    18
420
        0
176
     1
 90
       50
176
     1
 90
        3
176
     1
 62
     5
420
      255
176
     1
290
     0
176
     1
 90
       50
176
     1
 90
       50
176
     1
 90
       50
176
     1
290
     0
176
     1
 90
       50
176
     1
 62
   256
176
     0
 40
1.0
176
     0
 90
        2
176
     1
  1
strokes_ogs.tif
176
     1
290
     0
176
     1
 40
1.0
176
     1
 40
1.0
176
     1
  0
VISUALSTYLE
  5
34
102
{ACAD_REACTORS
330
2A
102
}
330
2A
100
AcDbVisualStyle
  2
Conceptual
 70
     9
177
     3
291
     0
 70
    58
 90
        3
176
     1
 90
        2
176
     1
 90
        0
176
     1
 90
        0
176
     1
 40
0.6
176
     1
 40
30.0
176
     1
 62
     7
420
 16777215
176
     1
 90
        2
176
     1
 90
        2
176
     1
 62
     7
176
     1
 62
   257
176
     1
 90
        1
176
     1
 90
        1
176
     1
 40
179.0
176
     1
 90
        8
176
     1
 62
     7
176
     1
 40
1.0
176
     1
 90
        1
176
     1
 90
        6
176
     1
 90
        2
176
     1
 62
     7
176
     1
 90
        3
176
     1
 90
        0
176
     1
 90
        0
176
     1
290
     0
176
     1
 90
        1
176
     1
 40
0.0
176
     1
 90
        0
176
     1
290
     0
176
     1
290
     1
176
     1
290
     1
176
     1
290
     0
176
     1
290
     0
176
     1
290
     0
176
     1
290
     0
176
     1
290
     0
176
     1
290
     0
176
     1
 90
       50
176
     1
 40
0.0
176
     1
 40
1.0
176
     1
 90
        0
176
     1
 62
    18
420
        0
176
     1
 90
       50
176
     1
 90
        3
176
     1
 62
     5
420
      255
176
     1
290
     0
176
     1
 90
       50
176
     1
 90
       50
176
     1
 90
       50
176
     1
290
     0
176
     1
 90
       50
176
     1
 62
   256
176
     0
 40
1.0
176
     0
 90
        2
176
     1
  1
strokes_ogs.tif
176
     1
290
     0
176
     1
 40
1.0
176
     1
 40
1.0
176
     1
  0
VISUALSTYLE
  5
35
102
{ACAD_REACTORS
330
2A
102
}
330
2A
100
AcDbVisualStyle
  2
Dim
 70
    11
177
     3
291
     1
 70
    58
 90
        2
176
     1
 90
        2
176
     1
 90
        0
176
     1
 90
        0
176
     1
 40
0.6
176
     1
 40
30.0
176
     1
 62
     7
420
 16777215
176
     1
 90
        1
176
     1
 90
        4
176
     1
 62
     7
176
     1
 62
   257
176
     1
 90
        1
176
     1
 90
        1
176
     1
 40
1.0
176
     1
 90
        8
176
     1
 62
     7
176
     1
 40
1.0
176
     1
 90
        1
176
     1
 90
        6
176
     1
 90
        2
176
     1
 62
     7
176
     1
 90
        5
176
     1
 90
        0
176
     1
 90
        0
176
     1
290
     0
176
     1
 90
        1
176
     1
 40
-50.0
176
     1
 90
        0
176
     1
290
     0
176
     1
290
     1
176
     1
290
     1
176
     1
290
     0
176
     1
290
     0
176
     1
290
     0
176
     1
290
     0
176
     1
290
     0
176
     1
290
     0
176
     1
 90
       50
176
     1
 40
0.0
176
     1
 40
1.0
176
     1
 90
        0
176
     1
 62
    18
420
        0
176
     1
 90
       50
176
     1
 90
        3
176
     1
 62
     5
420
      255
176
     1
290
     0
176
     1
 90
       50
176
     1
 90
       50
176
     1
 90
       50
176
     1
290
     0
176
     1
 90
       50
176
     1
 62
   256
176
     0
 40
1.0
176
     0
 90
        2
176
     1
  1
strokes_ogs.tif
176
     1
290
     0
176
     1
 40
1.0
176
     1
 40
1.0
176
     1
  0
VISUALSTYLE
  5
3D
102
{ACAD_REACTORS
330
2A
102
}
330
2A
100
AcDbVisualStyle
  2
EdgeColorOff
 70
    22
177
     3
291
     1
 70
    58
 90
        2
176
     0
 90
        2
176
     0
 90
        0
176
     0
 90
        0
176
     0
 40
0.6
176
     0
 40
30.0
176
     0
 62
     7
420
 16777215
176
     0
 90
        1
176
     0
 90
        4
176
     0
 62
     7
176
     0
 62
   257
176
     0
 90
        1
176
     0
 90
        1
176
     0
 40
1.0
176
     0
 90
        8
176
     2
 62
     7
176
     0
 40
1.0
176
     0
 90
        1
176
     0
 90
        6
176
     0
 90
        2
176
     0
 62
     7
176
     0
 90
        5
176
     0
 90
        0
176
     0
 90
        0
176
     0
290
     0
176
     0
 90
        1
176
     0
 40
0.0
176
     0
 90
        0
176
     0
290
     0
176
     0
290
     1
176
     0
290
     1
176
     0
290
     0
176
     0
290
     0
176
     0
290
     0
176
     0
290
     0
176
     0
290
     0
176
     0
290
     0
176
     0
 90
       50
176
     0
 40
0.0
176
     0
 40
1.0
176
     0
 90
        0
176
     0
 62
    18
420
        0
176
     0
 90
       50
176
     0
 90
        3
176
     0
 62
     5
420
      255
176
     0
290
     0
176
     0
 90
       50
176
     0
 90
       50
176
     0
 90
       50
176
     0
290
     0
176
     0
 90
       50
176
     0
 62
   256
176
     0
 40
1.0
176
     0
 90
        2
176
     0
  1
strokes_ogs.tif
176
     0
290
     0
176
     0
 40
1.0
176
     0
 40
1.0
176
     0
  0
VISUALSTYLE
  5
39
102
{ACAD_REACTORS
330
2A
102
}
330
2A
100
AcDbVisualStyle
  2
Facepattern
 70
    15
177
     3
291
     1
 70
    58
 90
        2
176
     1
 90
        2
176
     1
 90
        0
176
     1
 90
        0
176
     1
 40
0.6
176
     1
 40
30.0
176
     1
 62
     7
420
 16777215
176
     1
 90
        1
176
     1
 90
        4
176
     1
 62
     7
176
     1
 62
   257
176
     1
 90
        1
176
     1
 90
        1
176
     1
 40
1.0
176
     1
 90
        8
176
     1
 62
     7
176
     1
 40
1.0
176
     1
 90
        1
176
     1
 90
        6
176
     1
 90
        2
176
     1
 62
     7
176
     1
 90
        5
176
     1
 90
        0
176
     1
 90
        0
176
     1
290
     0
176
     1
 90
        1
176
     1
 40
0.0
176
     1
 90
        0
176
     1
290
     0
176
     1
290
     1
176
     1
290
     1
176
     1
290
     0
176
     1
290
     0
176
     1
290
     0
176
     1
290
     0
176
     1
290
     0
176
     1
290
     0
176
     1
 90
       50
176
     1
 40
0.0
176
     1
 40
1.0
176
     1
 90
        0
176
     1
 62
    18
420
        0
176
     1
 90
       50
176
     1
 90
        3
176
     1
 62
     5
420
      255
176
     1
290
     0
176
     1
 90
       50
176
     1
 90
       50
176
     1
 90
       50
176
     1
290
     0
176
     1
 90
       50
176
     1
 62
   256
176
     0
 40
1.0
176
     0
 90
        2
176
     1
  1
strokes_ogs.tif
176
     1
290
     0
176
     1
 40
1.0
176
     1
 40
1.0
176
     1
  0
VISUALSTYLE
  5
2B
102
{ACAD_REACTORS
330
2A
102
}
330
2A
100
AcDbVisualStyle
  2
Flat
 70
     0
177
     3
291
     1
 70
    58
 90
        2
176
     1
 90
        1
176
     1
 90
        1
176
     1
 90
        2
176
     1
 40
0.6
176
     1
 40
30.0
176
     1
 62
     7
420
 16777215
176
     1
 90
        0
176
     1
 90
        0
176
     1
 62
     7
176
     1
 62
   257
176
     1
 90
        1
176
     1
 90
        1
176
     1
 40
1.0
176
     1
 90
        8
176
     1
 62
     7
176
     1
 40
1.0
176
     1
 90
        1
176
     1
 90
        6
176
     1
 90
        2
176
     1
 62
     7
176
     1
 90
        5
176
     1
 90
        0
176
     1
 90
        0
176
     1
290
     0
176
     1
 90
       13
176
     1
 40
0.0
176
     1
 90
        0
176
     1
290
     0
176
     1
290
     1
176
     1
290
     1
176
     1
290
     0
176
     1
290
     0
176
     1
290
     0
176
     1
290
     0
176
     1
290
     0
176
     1
290
     0
176
     1
 90
       50
176
     1
 40
0.0
176
     1
 40
1.0
176
     1
 90
        0
176
     1
 62
    18
420
        0
176
     1
 90
       50
176
     1
 90
        3
176
     1
 62
     5
420
      255
176
     1
290
     0
176
     1
 90
       50
176
     1
 90
       50
176
     1
 90
       50
176
     1
290
     0
176
     1
 90
       50
176
     1
 62
   256
176
     0
 40
1.0
176
     0
 90
        2
176
     1
  1
strokes_ogs.tif
176
     1
290
     0
176
     1
 40
1.0
176
     1
 40
1.0
176
     1
  0
VISUALSTYLE
  5
2C
102
{ACAD_REACTORS
330
2A
102
}
330
2A
100
AcDbVisualStyle
  2
FlatWithEdges
 70
     1
177
     3
291
     1
 70
    58
 90
        2
176
     1
 90
        1
176
     1
 90
        1
176
     1
 90
        2
176
     1
 40
0.6
176
     1
 40
30.0
176
     1
 62
     7
420
 16777215
176
     1
 90
        1
176
     1
 90
        0
176
     1
 62
     7
176
     1
 62
   257
176
     1
 90
        1
176
     1
 90
        1
176
     1
 40
1.0
176
     1
 90
        0
176
     1
 62
   257
176
     1
 40
1.0
176
     1
 90
        1
176
     1
 90
        6
176
     1
 90
        2
176
     1
 62
     7
176
     1
 90
        5
176
     1
 90
        0
176
     1
 90
        0
176
     1
290
     0
176
     1
 90
       13
176
     1
 40
0.0
176
     1
 90
        0
176
     1
290
     0
176
     1
290
     1
176
     1
290
     1
176
     1
290
     0
176
     1
290
     0
176
     1
290
     0
176
     1
290
     0
176
     1
290
     0
176
     1
290
     0
176
     1
 90
       50
176
     1
 40
0.0
176
     1
 40
1.0
176
     1
 90
        0
176
     1
 62
    18
420
        0
176
     1
 90
       50
176
     1
 90
        3
176
     1
 62
     5
420
      255
176
     1
290
     0
176
     1
 90
       50
176
     1
 90
       50
176
     1
 90
       50
176
     1
290
     0
176
     1
 90
       50
176
     1
 62
   256
176
     0
 40
1.0
176
     0
 90
        2
176
     1
  1
strokes_ogs.tif
176
     1
290
     0
176
     1
 40
1.0
176
     1
 40
1.0
176
     1
  0
VISUALSTYLE
  5
2D
102
{ACAD_REACTORS
330
2A
102
}
330
2A
100
AcDbVisualStyle
  2
Gouraud
 70
     2
177
     3
291
     1
 70
    58
 90
        2
176
     1
 90
        2
176
     1
 90
        1
176
     1
 90
        2
176
     1
 40
0.6
176
     1
 40
30.0
176
     1
 62
     7
420
 16777215
176
     1
 90
        0
176
     1
 90
        0
176
     1
 62
     7
176
     1
 62
   257
176
     1
 90
        1
176
     1
 90
        1
176
     1
 40
1.0
176
     1
 90
        0
176
     1
 62
     7
176
     1
 40
1.0
176
     1
 90
        1
176
     1
 90
        6
176
     1
 90
        2
176
     1
 62
     7
176
     1
 90
        5
176
     1
 90
        0
176
     1
 90
        0
176
     1
290
     0
176
     1
 90
       13
176
     1
 40
0.0
176
     1
 90
        0
176
     1
290
     0
176
     1
290
     1
176
     1
290
     1
176
     1
290
     0
176
     1
290
     0
176
     1
290
     0
176
     1
290
     0
176
     1
290
     0
176
     1
290
     0
176
     1
 90
       50
176
     1
 40
0.0
176
     1
 40
1.0
176
     1
 90
        0
176
     1
 62
    18
420
        0
176
     1
 90
       50
176
     1
 90
        3
176
     1
 62
     5
420
      255
176
     1
290
     0
176
     1
 90
       50
176
     1
 90
       50
176
     1
 90
       50
176
     1
290
     0
176
     1
 90
       50
176
     1
 62
   256
176
     0
 40
1.0
176
     0
 90
        2
176
     1
  1
strokes_ogs.tif
176
     1
290
     0
176
     1
 40
1.0
176
     1
 40
1.0
176
     1
  0
VISUALSTYLE
  5
2E
102
{ACAD_REACTORS
330
2A
102
}
330
2A
100
AcDbVisualStyle
  2
GouraudWithEdges
 70
     3
177
     3
291
     1
 70
    58
 90
        2
176
     1
 90
        2
176
     1
 90
        1
176
     1
 90
        2
176
     1
 40
0.6
176
     1
 40
30.0
176
     1
 62
     7
420
 16777215
176
     1
 90
        1
176
     1
 90
        0
176
     1
 62
     7
176
     1
 62
   257
176
     1
 90
        1
176
     1
 90
        1
176
     1
 40
1.0
176
     1
 90
        0
176
     1
 62
   257
176
     1
 40
1.0
176
     1
 90
        1
176
     1
 90
        6
176
     1
 90
        2
176
     1
 62
     7
176
     1
 90
        5
176
     1
 90
        0
176
     1
 90
        0
176
     1
290
     0
176
     1
 90
       13
176
     1
 40
0.0
176
     1
 90
        0
176
     1
290
     0
176
     1
290
     1
176
     1
290
     1
176
     1
290
     0
176
     1
290
     0
176
     1
290
     0
176
     1
290
     0
176
     1
290
     0
176
     1
290
     0
176
     1
 90
       50
176
     1
 40
0.0
176
     1
 40
1.0
176
     1
 90
        0
176
     1
 62
    18
420
        0
176
     1
 90
       50
176
     1
 90
        3
176
     1
 62
     5
420
      255
176
     1
290
     0
176
     1
 90
       50
176
     1
 90
       50
176
     1
 90
       50
176
     1
290
     0
176
     1
 90
       50
176
     1
 62
   256
176
     0
 40
1.0
176
     0
 90
        2
176
     1
  1
strokes_ogs.tif
176
     1
290
     0
176
     1
 40
1.0
176
     1
 40
1.0
176
     1
  0
VISUALSTYLE
  5
31
102
{ACAD_REACTORS
330
2A
102
}
330
2A
100
AcDbVisualStyle
  2
Hidden
 70
     6
177
     3
291
     0
 70
    58
 90
        1
176
     1
 90
        2
176
     1
 90
        2
176
     1
 90
        0
176
     1
 40
0.6
176
     1
 40
30.0
176
     1
 62
     7
420
 16777215
176
     1
 90
        2
176
     1
 90
        2
176
     1
 62
     7
176
     1
 62
   257
176
     1
 90
        2
176
     1
 90
        1
176
     1
 40
40.0
176
     1
 90
        0
176
     1
 62
   257
176
     1
 40
1.0
176
     1
 90
        1
176
     1
 90
        6
176
     1
 90
        2
176
     1
 62
     7
176
     1
 90
        3
176
     1
 90
        0
176
     1
 90
        0
176
     1
290
     0
176
     1
 90
        1
176
     1
 40
0.0
176
     1
 90
        0
176
     1
290
     0
176
     1
290
     1
176
     1
290
     1
176
     1
290
     0
176
     1
290
     0
176
     1
290
     0
176
     1
290
     0
176
     1
290
     0
176
     1
290
     0
176
     1
 90
       50
176
     1
 40
0.0
176
     1
 40
1.0
176
     1
 90
        0
176
     1
 62
    18
420
        0
176
     1
 90
       50
176
     1
 90
        3
176
     1
 62
     5
420
      255
176
     1
290
     0
176
     1
 90
       50
176
     1
 90
       50
176
     1
 90
       50
176
     1
290
     0
176
     1
 90
       50
176
     1
 62
   256
176
     0
 40
1.0
176
     0
 90
        2
176
     1
  1
strokes_ogs.tif
176
     1
290
     0
176
     1
 40
1.0
176
     1
 40
1.0
176
     1
  0
VISUALSTYLE
  5
3B
102
{ACAD_REACTORS
330
2A
102
}
330
2A
100
AcDbVisualStyle
  2
JitterOff
 70
    20
177
     3
291
     1
 70
    58
 90
        2
176
     0
 90
        2
176
     0
 90
        0
176
     0
 90
        0
176
     0
 40
0.6
176
     0
 40
30.0
176
     0
 62
     7
420
 16777215
176
     0
 90
        1
176
     0
 90
        4
176
     0
 62
     7
176
     0
 62
   257
176
     0
 90
        1
176
     0
 90
        1
176
     0
 40
1.0
176
     0
 90
       10
176
     2
 62
     7
176
     0
 40
1.0
176
     0
 90
        1
176
     0
 90
        6
176
     0
 90
        2
176
     0
 62
     7
176
     0
 90
        5
176
     0
 90
        0
176
     0
 90
        0
176
     0
290
     0
176
     0
 90
        1
176
     0
 40
0.0
176
     0
 90
        0
176
     0
290
     0
176
     0
290
     1
176
     0
290
     1
176
     0
290
     0
176
     0
290
     0
176
     0
290
     0
176
     0
290
     0
176
     0
290
     0
176
     0
290
     0
176
     0
 90
       50
176
     0
 40
0.0
176
     0
 40
1.0
176
     0
 90
        0
176
     0
 62
    18
420
        0
176
     0
 90
       50
176
     0
 90
        3
176
     0
 62
     5
420
      255
176
     0
290
     0
176
     0
 90
       50
176
     0
 90
       50
176
     0
 90
       50
176
     0
290
     0
176
     0
 90
       50
176
     0
 62
   256
176
     0
 40
1.0
176
     0
 90
        2
176
     0
  1
strokes_ogs.tif
176
     0
290
     0
176
     0
 40
1.0
176
     0
 40
1.0
176
     0
  0
VISUALSTYLE
  5
38
102
{ACAD_REACTORS
330
2A
102
}
330
2A
100
AcDbVisualStyle
  2
Linepattern
 70
    14
177
     3
291
     1
 70
    58
 90
        2
176
     1
 90
        2
176
     1
 90
        0
176
     1
 90
        0
176
     1
 40
0.6
176
     1
 40
30.0
176
     1
 62
     7
420
 16777215
176
     1
 90
        1
176
     1
 90
        4
176
     1
 62
     7
176
     1
 62
   257
176
     1
 90
        7
176
     1
 90
        7
176
     1
 40
1.0
176
     1
 90
        8
176
     1
 62
     7
176
     1
 40
1.0
176
     1
 90
        1
176
     1
 90
        6
176
     1
 90
        2
176
     1
 62
     7
176
     1
 90
        5
176
     1
 90
        0
176
     1
 90
        0
176
     1
290
     0
176
     1
 90
        1
176
     1
 40
0.0
176
     1
 90
        0
176
     1
290
     0
176
     1
290
     1
176
     1
290
     1
176
     1
290
     0
176
     1
290
     0
176
     1
290
     0
176
     1
290
     0
176
     1
290
     0
176
     1
290
     0
176
     1
 90
       50
176
     1
 40
0.0
176
     1
 40
1.0
176
     1
 90
        0
176
     1
 62
    18
420
        0
176
     1
 90
       50
176
     1
 90
        3
176
     1
 62
     5
420
      255
176
     1
290
     0
176
     1
 90
       50
176
     1
 90
       50
176
     1
 90
       50
176
     1
290
     0
176
     1
 90
       50
176
     1
 62
   256
176
     0
 40
1.0
176
     0
 90
        2
176
     1
  1
strokes_ogs.tif
176
     1
290
     0
176
     1
 40
1.0
176
     1
 40
1.0
176
     1
  0
VISUALSTYLE
  5
3C
102
{ACAD_REACTORS
330
2A
102
}
330
2A
100
AcDbVisualStyle
  2
OverhangOff
 70
    21
177
     3
291
     1
 70
    58
 90
        2
176
     0
 90
        2
176
     0
 90
        0
176
     0
 90
        0
176
     0
 40
0.6
176
     0
 40
30.0
176
     0
 62
     7
420
 16777215
176
     0
 90
        1
176
     0
 90
        4
176
     0
 62
     7
176
     0
 62
   257
176
     0
 90
        1
176
     0
 90
        1
176
     0
 40
1.0
176
     0
 90
        9
176
     2
 62
     7
176
     0
 40
1.0
176
     0
 90
        1
176
     0
 90
        6
176
     0
 90
        2
176
     0
 62
     7
176
     0
 90
        5
176
     0
 90
        0
176
     0
 90
        0
176
     0
290
     0
176
     0
 90
        1
176
     0
 40
0.0
176
     0
 90
        0
176
     0
290
     0
176
     0
290
     1
176
     0
290
     1
176
     0
290
     0
176
     0
290
     0
176
     0
290
     0
176
     0
290
     0
176
     0
290
     0
176
     0
290
     0
176
     0
 90
       50
176
     0
 40
0.0
176
     0
 40
1.0
176
     0
 90
        0
176
     0
 62
    18
420
        0
176
     0
 90
       50
176
     0
 90
        3
176
     0
 62
     5
420
      255
176
     0
290
     0
176
     0
 90
       50
176
     0
 90
       50
176
     0
 90
       50
176
     0
290
     0
176
     0
 90
       50
176
     0
 62
   256
176
     0
 40
1.0
176
     0
 90
        2
176
     0
  1
strokes_ogs.tif
176
     0
290
     0
176
     0
 40
1.0
176
     0
 40
1.0
176
     0
  0
VISUALSTYLE
  5
33
102
{ACAD_REACTORS
330
2A
102
}
330
2A
100
AcDbVisualStyle
  2
Realistic
 70
     8
177
     3
291
     0
 70
    58
 90
        2
176
     1
 90
        3
176
     1
 90
        0
176
     1
 90
        2
176
     1
 40
0.6
176
     1
 40
30.0
176
     1
 62
     7
420
 16777215
176
     1
 90
        0
176
     1
 90
        0
176
     1
 62
     7
176
     1
 62
   257
176
     1
 90
        1
176
     1
 90
        1
176
     1
 40
1.0
176
     1
 90
        8
176
     1
 62
   257
176
     1
 40
1.0
176
     1
 90
        1
176
     1
 90
        6
176
     1
 90
        2
176
     1
 62
     7
176
     1
 90
        3
176
     1
 90
        0
176
     1
 90
        0
176
     1
290
     0
176
     1
 90
       13
176
     1
 40
0.0
176
     1
 90
        0
176
     1
290
     0
176
     1
290
     1
176
     1
290
     1
176
     1
290
     0
176
     1
290
     0
176
     1
290
     0
176
     1
290
     0
176
     1
290
     0
176
     1
290
     0
176
     1
 90
       50
176
     1
 40
0.0
176
     1
 40
1.0
176
     1
 90
        0
176
     1
 62
    18
420
        0
176
     1
 90
       50
176
     1
 90
        3
176
     1
 62
     5
420
      255
176
     1
290
     0
176
     1
 90
       50
176
     1
 90
       50
176
     1
 90
       50
176
     1
290
     0
176
     1
 90
       50
176
     1
 62
   256
176
     0
 40
1.0
176
     0
 90
        2
176
     1
  1
strokes_ogs.tif
176
     1
290
     0
176
     1
 40
1.0
176
     1
 40
1.0
176
     1
  0
VISUALSTYLE
  5
42
102
{ACAD_REACTORS
330
2A
102
}
330
2A
100
AcDbVisualStyle
  2
Shaded
 70
    27
177
     3
291
     0
 70
    58
 90
        2
176
     1
 90
        2
176
     1
 90
        1
176
     1
 90
        2
176
     1
 40
0.6
176
     1
 40
30.0
176
     1
 62
     7
420
 16777215
176
     1
 90
        0
176
     1
 90
        4
176
     1
 62
     7
176
     1
 62
   257
176
     1
 90
        1
176
     1
 90
        1
176
     1
 40
1.0
176
     1
 90
        8
176
     1
 62
   257
176
     1
 40
1.0
176
     1
 90
        1
176
     1
 90
        6
176
     1
 90
        2
176
     1
 62
     8
420
  7895160
176
     1
 90
        3
176
     1
 90
        0
176
     1
 90
        0
176
     1
290
     0
176
     1
 90
        5
176
     1
 40
0.0
176
     1
 90
        0
176
     1
290
     0
176
     1
290
     1
176
     1
290
     1
176
     1
290
     0
176
     1
290
     0
176
     1
290
     0
176
     1
290
     0
176
     1
290
     0
176
     1
290
     0
176
     1
 90
       50
176
     1
 40
0.0
176
     1
 40
1.0
176
     1
 90
        0
176
     1
 62
    18
420
        0
176
     1
 90
       50
176
     1
 90
        3
176
     1
 62
     5
420
      255
176
     1
290
     0
176
     1
 90
       50
176
     1
 90
       50
176
     1
 90
       50
176
     1
290
     0
176
     1
 90
       50
176
     1
 62
   256
176
     0
 40
1.0
176
     0
 90
        2
176
     1
  1
strokes_ogs.tif
176
     1
290
     0
176
     1
 40
1.0
176
     1
 40
1.0
176
     1
  0
VISUALSTYLE
  5
41
102
{ACAD_REACTORS
330
2A
102
}
330
2A
100
AcDbVisualStyle
  2
Shaded with edges
 70
    26
177
     3
291
     0
 70
    58
 90
        2
176
     1
 90
        2
176
     1
 90
        1
176
     1
 90
        2
176
     1
 40
0.6
176
     1
 40
30.0
176
     1
 62
     7
420
 16777215
176
     1
 90
        1
176
     1
 90
       10
176
     1
 62
     7
176
     1
 62
   257
176
     1
 90
        2
176
     1
 90
        1
176
     1
 40
1.0
176
     1
 90
        8
176
     1
 62
   257
176
     1
 40
1.0
176
     1
 90
        1
176
     1
 90
        6
176
     1
 90
        2
176
     1
 62
     7
176
     1
 90
        3
176
     1
 90
        0
176
     1
 90
        0
176
     1
290
     0
176
     1
 90
        5
176
     1
 40
0.0
176
     1
 90
        0
176
     1
290
     0
176
     1
290
     1
176
     1
290
     1
176
     1
290
     0
176
     1
290
     0
176
     1
290
     0
176
     1
290
     0
176
     1
290
     0
176
     1
290
     0
176
     1
 90
       50
176
     1
 40
0.0
176
     1
 40
1.0
176
     1
 90
        0
176
     1
 62
    18
420
        0
176
     1
 90
       50
176
     1
 90
        3
176
     1
 62
     5
420
      255
176
     1
290
     0
176
     1
 90
       50
176
     1
 90
       50
176
     1
 90
       50
176
     1
290
     0
176
     1
 90
       50
176
     1
 62
   256
176
     0
 40
1.0
176
     0
 90
        2
176
     1
  1
strokes_ogs.tif
176
     1
290
     0
176
     1
 40
1.0
176
     1
 40
1.0
176
     1
  0
VISUALSTYLE
  5
3E
102
{ACAD_REACTORS
330
2A
102
}
330
2A
100
AcDbVisualStyle
  2
Shades of Gray
 70
    23
177
     3
291
     0
 70
    58
 90
        2
176
     1
 90
        2
176
     1
 90
        3
176
     1
 90
        0
176
     1
 40
0.6
176
     1
 40
30.0
176
     1
 62
     7
420
 16777215
176
     1
 90
        2
176
     1
 90
        2
176
     1
 62
     7
176
     1
 62
     7
176
     1
 90
        1
176
     1
 90
        1
176
     1
 40
40.0
176
     1
 90
        8
176
     1
 62
     7
176
     1
 40
1.0
176
     1
 90
        1
176
     1
 90
        6
176
     1
 90
        2
176
     1
 62
     7
176
     1
 90
        3
176
     1
 90
        0
176
     1
 90
        0
176
     1
290
     0
176
     1
 90
        1
176
     1
 40
0.0
176
     1
 90
        0
176
     1
290
     0
176
     1
290
     1
176
     1
290
     1
176
     1
290
     0
176
     1
290
     0
176
     1
290
     0
176
     1
290
     0
176
     1
290
     0
176
     1
290
     0
176
     1
 90
       50
176
     1
 40
0.0
176
     1
 40
1.0
176
     1
 90
        0
176
     1
 62
    18
420
        0
176
     1
 90
       50
176
     1
 90
        3
176
     1
 62
     5
420
      255
176
     1
290
     0
176
     1
 90
       50
176
     1
 90
       50
176
     1
 90
       50
176
     1
290
     0
176
     1
 90
       50
176
     1
 62
   256
176
     0
 40
1.0
176
     0
 90
        2
176
     1
  1
strokes_ogs.tif
176
     1
290
     0
176
     1
 40
1.0
176
     1
 40
1.0
176
     1
  0
VISUALSTYLE
  5
3F
102
{ACAD_REACTORS
330
2A
102
}
330
2A
100
AcDbVisualStyle
  2
Sketchy
 70
    24
177
     3
291
     0
 70
    58
 90
        1
176
     1
 90
        2
176
     1
 90
        2
176
     1
 90
        0
176
     1
 40
0.6
176
     1
 40
30.0
176
     1
 62
     7
420
 16777215
176
     1
 90
        2
176
     1
 90
        2
176
     1
 62
     7
176
     1
 62
     7
176
     1
 90
        1
176
     1
 90
        1
176
     1
 40
40.0
176
     1
 90
       11
176
     1
 62
     7
176
     1
 40
1.0
176
     1
 90
        1
176
     1
 90
        6
176
     1
 90
        2
176
     1
 62
     7
176
     1
 90
        6
176
     1
 90
        0
176
     1
 90
        0
176
     1
290
     0
176
     1
 90
        1
176
     1
 40
0.0
176
     1
 90
        0
176
     1
290
     0
176
     1
290
     1
176
     1
290
     1
176
     1
290
     0
176
     1
290
     0
176
     1
290
     0
176
     1
290
     0
176
     1
290
     0
176
     1
290
     0
176
     1
 90
       50
176
     1
 40
0.0
176
     1
 40
1.0
176
     1
 90
        0
176
     1
 62
    18
420
        0
176
     1
 90
       50
176
     1
 90
        3
176
     1
 62
     5
420
      255
176
     1
290
     0
176
     1
 90
       50
176
     1
 90
       50
176
     1
 90
       50
176
     1
290
     0
176
     1
 90
       50
176
     1
 62
   256
176
     0
 40
1.0
176
     0
 90
        2
176
     1
  1
strokes_ogs.tif
176
     1
290
     0
176
     1
 40
1.0
176
     1
 40
1.0
176
     1
  0
VISUALSTYLE
  5
37
102
{ACAD_REACTORS
330
2A
102
}
330
2A
100
AcDbVisualStyle
  2
Thicken
 70
    13
177
     3
291
     1
 70
    58
 90
        2
176
     1
 90
        2
176
     1
 90
        0
176
     1
 90
        0
176
     1
 40
0.6
176
     1
 40
30.0
176
     1
 62
     7
420
 16777215
176
     1
 90
        1
176
     1
 90
        4
176
     1
 62
     7
176
     1
 62
   257
176
     1
 90
        1
176
     1
 90
        1
176
     1
 40
1.0
176
     1
 90
       12
176
     1
 62
     7
176
     1
 40
1.0
176
     1
 90
        1
176
     1
 90
        6
176
     1
 90
        2
176
     1
 62
     7
176
     1
 90
        5
176
     1
 90
        0
176
     1
 90
        0
176
     1
290
     0
176
     1
 90
        1
176
     1
 40
0.0
176
     1
 90
        0
176
     1
290
     0
176
     1
290
     1
176
     1
290
     1
176
     1
290
     0
176
     1
290
     0
176
     1
290
     0
176
     1
290
     0
176
     1
290
     0
176
     1
290
     0
176
     1
 90
       50
176
     1
 40
0.0
176
     1
 40
1.0
176
     1
 90
        0
176
     1
 62
    18
420
        0
176
     1
 90
       50
176
     1
 90
        3
176
     1
 62
     5
420
      255
176
     1
290
     0
176
     1
 90
       50
176
     1
 90
       50
176
     1
 90
       50
176
     1
290
     0
176
     1
 90
       50
176
     1
 62
   256
176
     0
 40
1.0
176
     0
 90
        2
176
     1
  1
strokes_ogs.tif
176
     1
290
     0
176
     1
 40
1.0
176
     1
 40
1.0
176
     1
  0
VISUALSTYLE
  5
30
102
{ACAD_REACTORS
330
2A
102
}
330
2A
100
AcDbVisualStyle
  2
Wireframe
 70
     5
177
     3
291
     0
 70
    58
 90
        0
176
     1
 90
        2
176
     1
 90
        0
176
     1
 90
        0
176
     1
 40
0.6
176
     1
 40
30.0
176
     1
 62
     7
420
 16777215
176
     1
 90
        1
176
     1
 90
        4
176
     1
 62
     7
176
     1
 62
   257
176
     1
 90
        1
176
     1
 90
        1
176
     1
 40
1.0
176
     1
 90
        0
176
     1
 62
   257
176
     1
 40
1.0
176
     1
 90
        1
176
     1
 90
        6
176
     1
 90
        2
176
     1
 62
     7
176
     1
 90
        3
176
     1
 90
        0
176
     1
 90
        0
176
     1
290
     0
176
     1
 90
        1
176
     1
 40
0.0
176
     1
 90
        0
176
     1
290
     0
176
     1
290
     1
176
     1
290
     1
176
     1
290
     0
176
     1
290
     0
176
     1
290
     0
176
     1
290
     0
176
     1
290
     0
176
     1
290
     0
176
     1
 90
       50
176
     1
 40
0.0
176
     1
 40
1.0
176
     1
 90
        0
176
     1
 62
    18
420
        0
176
     1
 90
       50
176
     1
 90
        3
176
     1
 62
     5
420
      255
176
     1
290
     0
176
     1
 90
       50
176
     1
 90
       50
176
     1
 90
       50
176
     1
290
     0
176
     1
 90
       50
176
     1
 62
   256
176
     0
 40
1.0
176
     0
 90
        2
176
     1
  1
strokes_ogs.tif
176
     1
290
     0
176
     1
 40
1.0
176
     1
 40
1.0
176
     1
  0
VISUALSTYLE
  5
40
102
{ACAD_REACTORS
330
2A
102
}
330
2A
100
AcDbVisualStyle
  2
X-Ray
 70
    25
177
     3
291
     0
 70
    58
 90
        2
176
     1
 90
        2
176
     1
 90
        1
176
     1
 90
        1
176
     1
 40
0.5
176
     1
 40
30.0
176
     1
 62
     7
420
 16777215
176
     1
 90
        1
176
     1
 90
        0
176
     1
 62
     7
176
     1
 62
   257
176
     1
 90
        1
176
     1
 90
        1
176
     1
 40
1.0
176
     1
 90
        8
176
     1
 62
     7
176
     1
 40
1.0
176
     1
 90
        1
176
     1
 90
        6
176
     1
 90
        2
176
     1
 62
     7
176
     1
 90
        3
176
     1
 90
        0
176
     1
 90
        0
176
     1
290
     0
176
     1
 90
       13
176
     1
 40
0.0
176
     1
 90
        0
176
     1
290
     0
176
     1
290
     1
176
     1
290
     1
176
     1
290
     0
176
     1
290
     0
176
     1
290
     0
176
     1
290
     0
176
     1
290
     0
176
     1
290
     0
176
     1
 90
       50
176
     1
 40
0.0
176
     1
 40
1.0
176
     1
 90
        0
176
     1
 62
    18
420
        0
176
     1
 90
       50
176
     1
 90
        3
176
     1
 62
     5
420
      255
176
     1
290
     0
176
     1
 90
       50
176
     1
 90
       50
176
     1
 90
       50
176
     1
290
     0
176
     1
 90
       50
176
     1
 62
   256
176
     0
 40
1.0
176
     0
 90
        2
176
     1
  1
strokes_ogs.tif
176
     1
290
     0
176
     1
 40
1.0
176
     1
 40
1.0
176
     1
  0
DICTIONARYVAR
  5
231
102
{ACAD_REACTORS
330
230
102
}
330
230
100
DictionaryVariables
280
     0
  1
1:1
  0
DICTIONARYVAR
  5
236
102
{ACAD_REACTORS
330
230
102
}
330
230
100
DictionaryVariables
280
     0
  1
Standard
  0
DICTIONARYVAR
  5
235
102
{ACAD_REACTORS
330
230
102
}
330
230
100
DictionaryVariables
280
     0
  1
Standard
  0
DICTIONARY
  5
232
330
6A
100
AcDbDictionary
280
     1
281
     1
  3
ACAD_ROUNDTRIP_2008_TABLESTYLE_CELLSTYLEMAP
360
233
  0
CELLSTYLEMAP
  5
233
102
{ACAD_REACTORS
330
232
102
}
330
232
100
AcDbCellStyleMap
 90
        3
300
CELLSTYLE
  1
TABLEFORMAT_BEGIN
 90
        5
170
     1
 91
        0
 92
    32768
 62
   257
 93
        1
300
CONTENTFORMAT
  1
CONTENTFORMAT_BEGIN
 90
        0
 91
        0
 92
        4
 93
        0
300

 40
0.0
140
1.0
 94
        5
 62
     0
340
11
144
0.25
309
CONTENTFORMAT_END
171
     1
301
MARGIN
  1
CELLMARGIN_BEGIN
 40
0.06
 40
0.06
 40
0.06
 40
0.06
 40
0.06
 40
0.06
309
CELLMARGIN_END
 94
        6
 95
        1
302
GRIDFORMAT
  1
GRIDFORMAT_BEGIN
 90
        0
 91
        1
 62
     0
 92
       -2
340
14
 93
        0
 40
0.045
309
GRIDFORMAT_END
 95
        2
302
GRIDFORMAT
  1
GRIDFORMAT_BEGIN
 90
        0
 91
        1
 62
     0
 92
       -2
340
14
 93
        0
 40
0.045
309
GRIDFORMAT_END
 95
        4
302
GRIDFORMAT
  1
GRIDFORMAT_BEGIN
 90
        0
 91
        1
 62
     0
 92
       -2
340
14
 93
        0
 40
0.045
309
GRIDFORMAT_END
 95
        8
302
GRIDFORMAT
  1
GRIDFORMAT_BEGIN
 90
        0
 91
        1
 62
     0
 92
       -2
340
14
 93
        0
 40
0.045
309
GRIDFORMAT_END
 95
       16
302
GRIDFORMAT
  1
GRIDFORMAT_BEGIN
 90
        0
 91
        1
 62
     0
 92
       -2
340
14
 93
        0
 40
0.045
309
GRIDFORMAT_END
 95
       32
302
GRIDFORMAT
  1
GRIDFORMAT_BEGIN
 90
        0
 91
        1
 62
     0
 92
       -2
340
14
 93
        0
 40
0.045
309
GRIDFORMAT_END
309
TABLEFORMAT_END
  1
CELLSTYLE_BEGIN
 90
        1
 91
        1
300
_TITLE
309
CELLSTYLE_END
300
CELLSTYLE
  1
TABLEFORMAT_BEGIN
 90
        5
170
     1
 91
        0
 92
        0
 62
   257
 93
        1
300
CONTENTFORMAT
  1
CONTENTFORMAT_BEGIN
 90
        0
 91
        0
 92
        4
 93
        0
300

 40
0.0
140
1.0
 94
        5
 62
     0
340
11
144
0.18
309
CONTENTFORMAT_END
171
     1
301
MARGIN
  1
CELLMARGIN_BEGIN
 40
0.06
 40
0.06
 40
0.06
 40
0.06
 40
0.06
 40
0.06
309
CELLMARGIN_END
 94
        6
 95
        1
302
GRIDFORMAT
  1
GRIDFORMAT_BEGIN
 90
        0
 91
        1
 62
     0
 92
       -2
340
14
 93
        0
 40
0.045
309
GRIDFORMAT_END
 95
        2
302
GRIDFORMAT
  1
GRIDFORMAT_BEGIN
 90
        0
 91
        1
 62
     0
 92
       -2
340
14
 93
        0
 40
0.045
309
GRIDFORMAT_END
 95
        4
302
GRIDFORMAT
  1
GRIDFORMAT_BEGIN
 90
        0
 91
        1
 62
     0
 92
       -2
340
14
 93
        0
 40
0.045
309
GRIDFORMAT_END
 95
        8
302
GRIDFORMAT
  1
GRIDFORMAT_BEGIN
 90
        0
 91
        1
 62
     0
 92
       -2
340
14
 93
        0
 40
0.045
309
GRIDFORMAT_END
 95
       16
302
GRIDFORMAT
  1
GRIDFORMAT_BEGIN
 90
        0
 91
        1
 62
     0
 92
       -2
340
14
 93
        0
 40
0.045
309
GRIDFORMAT_END
 95
       32
302
GRIDFORMAT
  1
GRIDFORMAT_BEGIN
 90
        0
 91
        1
 62
     0
 92
       -2
340
14
 93
        0
 40
0.045
309
GRIDFORMAT_END
309
TABLEFORMAT_END
  1
CELLSTYLE_BEGIN
 90
        2
 91
        1
300
_HEADER
309
CELLSTYLE_END
300
CELLSTYLE
  1
TABLEFORMAT_BEGIN
 90
        5
170
     1
 91
        0
 92
        0
 62
   257
 93
        1
300
CONTENTFORMAT
  1
CONTENTFORMAT_BEGIN
 90
        0
 91
        0
 92
        4
 93
        0
300

 40
0.0
140
1.0
 94
        2
 62
     0
340
11
144
0.18
309
CONTENTFORMAT_END
171
     1
301
MARGIN
  1
CELLMARGIN_BEGIN
 40
0.06
 40
0.06
 40
0.06
 40
0.06
 40
0.06
 40
0.06
309
CELLMARGIN_END
 94
        6
 95
        1
302
GRIDFORMAT
  1
GRIDFORMAT_BEGIN
 90
        0
 91
        1
 62
     0
 92
       -2
340
14
 93
        0
 40
0.045
309
GRIDFORMAT_END
 95
        2
302
GRIDFORMAT
  1
GRIDFORMAT_BEGIN
 90
        0
 91
        1
 62
     0
 92
       -2
340
14
 93
        0
 40
0.045
309
GRIDFORMAT_END
 95
        4
302
GRIDFORMAT
  1
GRIDFORMAT_BEGIN
 90
        0
 91
        1
 62
     0
 92
       -2
340
14
 93
        0
 40
0.045
309
GRIDFORMAT_END
 95
        8
302
GRIDFORMAT
  1
GRIDFORMAT_BEGIN
 90
        0
 91
        1
 62
     0
 92
       -2
340
14
 93
        0
 40
0.045
309
GRIDFORMAT_END
 95
       16
302
GRIDFORMAT
  1
GRIDFORMAT_BEGIN
 90
        0
 91
        1
 62
     0
 92
       -2
340
14
 93
        0
 40
0.045
309
GRIDFORMAT_END
 95
       32
302
GRIDFORMAT
  1
GRIDFORMAT_BEGIN
 90
        0
 91
        1
 62
     0
 92
       -2
340
14
 93
        0
 40
0.045
309
GRIDFORMAT_END
309
TABLEFORMAT_END
  1
CELLSTYLE_BEGIN
 90
        3
 91
        2
300
_DATA
309
CELLSTYLE_END
  0
ENDSEC
  0
EOF
