  0
SECTION
  2
HEADER
  9
$ACADVER
  1
AC1027
  9
$ACADMAINTVER
 70
   105
  9
$DWGCODEPAGE
  3
ANSI_1252
  9
$REQUIREDVERSIONS
160
                 0
  9
$INSBASE
 10
0.0
 20
0.0
 30
0.0
  9
$EXTMIN
 10
1.000000000000000E+20
 20
1.000000000000000E+20
 30
1.000000000000000E+20
  9
$EXTMAX
 10
-1.000000000000000E+20
 20
-1.000000000000000E+20
 30
-1.000000000000000E+20
  9
$LIMMIN
 10
0.0
 20
0.0
  9
$LIMMAX
 10
12.0
 20
9.0
  9
$ORTHOMODE
 70
     0
  9
$REGENMODE
 70
     1
  9
$FILLMODE
 70
     1
  9
$QTEXTMODE
 70
     0
  9
$MIRRTEXT
 70
     1
  9
$LTSCALE
 40
1.0
  9
$ATTMODE
 70
     1
  9
$TEXTSIZE
 40
0.2
  9
$TRACEWID
 40
0.05
  9
$TEXTSTYLE
  7
Standard
  9
$CLAYER
  8
0
  9
$CELTYPE
  6
ByLayer
  9
$CECOLOR
 62
   256
  9
$CELTSCALE
 40
1.0
  9
$DISPSILH
 70
     0
  9
$DIMSCALE
 40
1.0
  9
$DIMASZ
 40
0.09
  9
$DIMEXO
 40
0.0625
  9
$DIMDLI
 40
0.38
  9
$DIMRND
 40
0.0
  9
$DIMDLE
 40
0.0
  9
$DIMEXE
 40
0.18
  9
$DIMTP
 40
0.0
  9
$DIMTM
 40
0.0
  9
$DIMTXT
 40
0.0526345673404497
  9
$DIMCEN
 40
0.09
  9
$DIMTSZ
 40
0.0
  9
$DIMTOL
 70
     0
  9
$DIMLIM
 70
     0
  9
$DIMTIH
 70
     1
  9
$DIMTOH
 70
     1
  9
$DIMSE1
 70
     0
  9
$DIMSE2
 70
     0
  9
$DIMTAD
 70
     0
  9
$DIMZIN
 70
     0
  9
$DIMBLK
  1

  9
$DIMASO
 70
     1
  9
$DIMSHO
 70
     1
  9
$DIMPOST
  1

  9
$DIMAPOST
  1

  9
$DIMALT
 70
     0
  9
$DIMALTD
 70
     2
  9
$DIMALTF
 40
25.4
  9
$DIMLFAC
 40
1.0
  9
$DIMTOFL
 70
     0
  9
$DIMTVP
 40
0.0
  9
$DIMTIX
 70
     0
  9
$DIMSOXD
 70
     0
  9
$DIMSAH
 70
     0
  9
$DIMBLK1
  1

  9
$DIMBLK2
  1

  9
$DIMSTYLE
  2
Standard
  9
$DIMCLRD
 70
     0
  9
$DIMCLRE
 70
     0
  9
$DIMCLRT
 70
     0
  9
$DIMTFAC
 40
1.0
  9
$DIMGAP
 40
0.09
  9
$DIMJUST
 70
     0
  9
$DIMSD1
 70
     0
  9
$DIMSD2
 70
     0
  9
$DIMTOLJ
 70
     1
  9
$DIMTZIN
 70
     0
  9
$DIMALTZ
 70
     0
  9
$DIMALTTZ
 70
     0
  9
$DIMUPT
 70
     0
  9
$DIMDEC
 70
     4
  9
$DIMTDEC
 70
     4
  9
$DIMALTU
 70
     2
  9
$DIMALTTD
 70
     2
  9
$DIMTXSTY
  7
Standard
  9
$DIMAUNIT
 70
     0
  9
$DIMADEC
 70
     0
  9
$DIMALTRND
 40
0.0
  9
$DIMAZIN
 70
     0
  9
$DIMDSEP
 70
    46
  9
$DIMATFIT
 70
     3
  9
$DIMFRAC
 70
     0
  9
$DIMLDRBLK
  1

  9
$DIMLUNIT
 70
     2
  9
$DIMLWD
 70
    -2
  9
$DIMLWE
 70
    -2
  9
$DIMTMOVE
 70
     0
  9
$DIMFXL
 40
1.0
  9
$DIMFXLON
 70
     0
  9
$DIMJOGANG
 40
0.7853981633974483
  9
$DIMTFILL
 70
     0
  9
$DIMTFILLCLR
 70
     0
  9
$DIMARCSYM
 70
     0
  9
$DIMLTYPE
  6

  9
$DIMLTEX1
  6

  9
$DIMLTEX2
  6

  9
$DIMTXTDIRECTION
 70
     0
  9
$LUNITS
 70
     2
  9
$LUPREC
 70
     4
  9
$SKETCHINC
 40
0.1
  9
$FILLETRAD
 40
0.5
  9
$AUNITS
 70
     0
  9
$AUPREC
 70
     0
  9
$MENU
  1
.
  9
$ELEVATION
 40
0.0
  9
$PELEVATION
 40
0.0
  9
$THICKNESS
 40
0.0
  9
$LIMCHECK
 70
     0
  9
$CHAMFERA
 40
0.0
  9
$CHAMFERB
 40
0.0
  9
$CHAMFERC
 40
0.0
  9
$CHAMFERD
 40
0.0
  9
$SKPOLY
 70
     0
  9
$TDCREATE
 40
2458621.352422454
  9
$TDUCREATE
 40
2458621.51908912
  9
$TDUPDATE
 40
2458621.352425023
  9
$TDUUPDATE
 40
2458621.51909169
  9
$TDINDWG
 40
0.0000000116
  9
$TDUSRTIMER
 40
0.0000000116
  9
$USRTIMER
 70
     1
  9
$ANGBASE
 50
0.0
  9
$ANGDIR
 70
     0
  9
$PDMODE
 70
     0
  9
$PDSIZE
 40
0.0
  9
$PLINEWID
 40
0.0
  9
$SPLFRAME
 70
     0
  9
$SPLINETYPE
 70
     6
  9
$SPLINESEGS
 70
     8
  9
$HANDSEED
  5
1E2
  9
$SURFTAB1
 70
     6
  9
$SURFTAB2
 70
     6
  9
$SURFTYPE
 70
     6
  9
$SURFU
 70
     6
  9
$SURFV
 70
     6
  9
$UCSBASE
  2

  9
$UCSNAME
  2

  9
$UCSORG
 10
0.0
 20
0.0
 30
0.0
  9
$UCSXDIR
 10
1.0
 20
0.0
 30
0.0
  9
$UCSYDIR
 10
0.0
 20
1.0
 30
0.0
  9
$UCSORTHOREF
  2

  9
$UCSORTHOVIEW
 70
     0
  9
$UCSORGTOP
 10
0.0
 20
0.0
 30
0.0
  9
$UCSORGBOTTOM
 10
0.0
 20
0.0
 30
0.0
  9
$UCSORGLEFT
 10
0.0
 20
0.0
 30
0.0
  9
$UCSORGRIGHT
 10
0.0
 20
0.0
 30
0.0
  9
$UCSORGFRONT
 10
0.0
 20
0.0
 30
0.0
  9
$UCSORGBACK
 10
0.0
 20
0.0
 30
0.0
  9
$PUCSBASE
  2

  9
$PUCSNAME
  2

  9
$PUCSORG
 10
0.0
 20
0.0
 30
0.0
  9
$PUCSXDIR
 10
1.0
 20
0.0
 30
0.0
  9
$PUCSYDIR
 10
0.0
 20
1.0
 30
0.0
  9
$PUCSORTHOREF
  2

  9
$PUCSORTHOVIEW
 70
     0
  9
$PUCSORGTOP
 10
0.0
 20
0.0
 30
0.0
  9
$PUCSORGBOTTOM
 10
0.0
 20
0.0
 30
0.0
  9
$PUCSORGLEFT
 10
0.0
 20
0.0
 30
0.0
  9
$PUCSORGRIGHT
 10
0.0
 20
0.0
 30
0.0
  9
$PUCSORGFRONT
 10
0.0
 20
0.0
 30
0.0
  9
$PUCSORGBACK
 10
0.0
 20
0.0
 30
0.0
  9
$USERI1
 70
     0
  9
$USERI2
 70
     0
  9
$USERI3
 70
     0
  9
$USERI4
 70
     0
  9
$USERI5
 70
     0
  9
$USERR1
 40
0.0
  9
$USERR2
 40
0.0
  9
$USERR3
 40
0.0
  9
$USERR4
 40
0.0
  9
$USERR5
 40
0.0
  9
$WORLDVIEW
 70
     1
  9
$SHADEDGE
 70
     3
  9
$SHADEDIF
 70
    70
  9
$TILEMODE
 70
     1
  9
$MAXACTVP
 70
    64
  9
$PINSBASE
 10
0.0
 20
0.0
 30
0.0
  9
$PLIMCHECK
 70
     0
  9
$PEXTMIN
 10
1.000000000000000E+20
 20
1.000000000000000E+20
 30
1.000000000000000E+20
  9
$PEXTMAX
 10
-1.000000000000000E+20
 20
-1.000000000000000E+20
 30
-1.000000000000000E+20
  9
$PLIMMIN
 10
0.0
 20
0.0
  9
$PLIMMAX
 10
12.0
 20
9.0
  9
$UNITMODE
 70
     0
  9
$VISRETAIN
 70
     1
  9
$PLINEGEN
 70
     0
  9
$PSLTSCALE
 70
     1
  9
$TREEDEPTH
 70
  3020
  9
$CMLSTYLE
  2
Standard
  9
$CMLJUST
 70
     0
  9
$CMLSCALE
 40
1.0
  9
$PROXYGRAPHICS
 70
     1
  9
$MEASUREMENT
 70
     0
  9
$CELWEIGHT
370
    -1
  9
$ENDCAPS
280
     0
  9
$JOINSTYLE
280
     0
  9
$LWDISPLAY
290
     0
  9
$INSUNITS
 70
     1
  9
$HYPERLINKBASE
  1

  9
$STYLESHEET
  1

  9
$XEDIT
290
     1
  9
$CEPSNTYPE
380
     0
  9
$PSTYLEMODE
290
     1
  9
$FINGERPRINTGUID
  2
{1626f860-9244-410a-a24e-00d92d7ec2dc}
  9
$VERSIONGUID
  2
{FAEB1C32-E019-11D5-929B-00C0DF256EC4}
  9
$EXTNAMES
290
     1
  9
$PSVPSCALE
 40
0.0
  9
$OLESTARTUP
290
     0
  9
$SORTENTS
280
   127
  9
$INDEXCTL
280
     0
  9
$HIDETEXT
280
     1
  9
$XCLIPFRAME
280
     2
  9
$HALOGAP
280
     0
  9
$OBSCOLOR
 70
   257
  9
$OBSLTYPE
280
     0
  9
$INTERSECTIONDISPLAY
280
     0
  9
$INTERSECTIONCOLOR
 70
   257
  9
$DIMASSOC
280
     2
  9
$PROJECTNAME
  1

  9
$CAMERADISPLAY
290
     0
  9
$LENSLENGTH
 40
50.0
  9
$CAMERAHEIGHT
 40
0.0
  9
$STEPSPERSEC
 40
2.0
  9
$STEPSIZE
 40
6.0
  9
$3DDWFPREC
 40
2.0
  9
$PSOLWIDTH
 40
0.25
  9
$PSOLHEIGHT
 40
4.0
  9
$LOFTANG1
 40
1.570796326794897
  9
$LOFTANG2
 40
1.570796326794897
  9
$LOFTMAG1
 40
0.0
  9
$LOFTMAG2
 40
0.0
  9
$LOFTPARAM
 70
     7
  9
$LOFTNORMALS
280
     1
  9
$LATITUDE
 40
37.795
  9
$LONGITUDE
 40
-122.394
  9
$NORTHDIRECTION
 40
0.0
  9
$TIMEZONE
 70
 -8000
  9
$LIGHTGLYPHDISPLAY
280
     1
  9
$TILEMODELIGHTSYNCH
280
     1
  9
$CMATERIAL
347
44
  9
$SOLIDHIST
280
     0
  9
$SHOWHIST
280
     1
  9
$DWFFRAME
280
     2
  9
$DGNFRAME
280
     2
  9
$REALWORLDSCALE
290
     1
  9
$INTERFERECOLOR
 62
   256
  9
$CSHADOW
280
     0
  9
$SHADOWPLANELOCATION
 40
0.0
  0
ENDSEC
  0
SECTION
  2
CLASSES
  0
CLASS
  1
ACDBDICTIONARYWDFLT
  2
AcDbDictionaryWithDefault
  3
ObjectDBX Classes
 90
        0
 91
        3
280
     0
281
     0
  0
CLASS
  1
VISUALSTYLE
  2
AcDbVisualStyle
  3
ObjectDBX Classes
 90
     4095
 91
        3
280
     0
281
     0
  0
CLASS
  1
MATERIAL
  2
AcDbMaterial
  3
ObjectDBX Classes
 90
     1153
 91
        3
280
     0
281
     0
  0
CLASS
  1
SCALE
  2
AcDbScale
  3
ObjectDBX Classes
 90
     1153
 91
        3
280
     0
281
     0
  0
CLASS
  1
TABLESTYLE
  2
AcDbTableStyle
  3
ObjectDBX Classes
 90
     4095
 91
        3
280
     0
281
     0
  0
CLASS
  1
MLEADERSTYLE
  2
AcDbMLeaderStyle
  3
ACDB_MLEADERSTYLE_CLASS
 90
     4095
 91
        3
280
     0
281
     0
  0
CLASS
  1
SUN
  2
AcDbSun
  3
SCENEOE
 90
     1153
 91
        3
280
     0
281
     0
  0
CLASS
  1
DICTIONARYVAR
  2
AcDbDictionaryVar
  3
ObjectDBX Classes
 90
        0
 91
        3
280
     0
281
     0
  0
CLASS
  1
CELLSTYLEMAP
  2
AcDbCellStyleMap
  3
ObjectDBX Classes
 90
     1152
 91
        3
280
     0
281
     0
  0
ENDSEC
  0
SECTION
  2
TABLES
  0
TABLE
  2
VPORT
  5
8
330
0
100
AcDbSymbolTable
 70
     1
  0
VPORT
  5
29
330
8
100
AcDbSymbolTableRecord
100
AcDbViewportTableRecord
  2
*Active
 70
     0
 10
0.0
 20
0.0
 11
1.0
 21
1.0
 12
10.42990654205607
 22
4.5
 13
0.0
 23
0.0
 14
0.5
 24
0.5
 15
0.5
 25
0.5
 16
0.0
 26
0.0
 36
1.0
 17
0.0
 27
0.0
 37
0.0
 40
9.0
 41
1.972972972850329
 42
50.0
 43
0.0
 44
0.0
 50
0.0
 51
0.0
 71
     0
 72
   100
 73
     1
 74
     3
 75
     0
 76
     0
 77
     0
 78
     0
281
     0
 65
     1
110
0.0
120
0.0
130
0.0
111
1.0
121
0.0
131
0.0
112
0.0
122
1.0
132
0.0
 79
     0
146
0.0
348
2F
 60
     3
 61
     5
292
     1
282
     1
141
0.0
142
0.0
 63
   250
361
6D
  0
ENDTAB
  0
TABLE
  2
LTYPE
  5
5
330
0
100
AcDbSymbolTable
 70
     2
  0
LTYPE
  5
14
330
5
100
AcDbSymbolTableRecord
100
AcDbLinetypeTableRecord
  2
ByBlock
 70
     0
  3

 72
    65
 73
     0
 40
0.0
  0
LTYPE
  5
15
330
5
100
AcDbSymbolTableRecord
100
AcDbLinetypeTableRecord
  2
ByLayer
 70
     0
  3

 72
    65
 73
     0
 40
0.0
  0
LTYPE
  5
16
330
5
100
AcDbSymbolTableRecord
100
AcDbLinetypeTableRecord
  2
Continuous
 70
     0
  3
Solid line
 72
    65
 73
     0
 40
0.0
  0
LTYPE
  5
75
330
5
100
AcDbSymbolTableRecord
100
AcDbLinetypeTableRecord
  2
HIDDEN2
 70
     0
  3
Hidden (.5x) _ _ _ _ _ _ _ _ _ _ _ _ _ _ _ _ _ 
 72
    65
 73
     2
 40
0.1875
 49
0.125
 74
     0
 49
-0.0625
 74
     0
  0
ENDTAB
  0
TABLE
  2
LAYER
  5
2
330
0
100
AcDbSymbolTable
 70
     6
  0
LAYER
  5
10
330
2
100
AcDbSymbolTableRecord
100
AcDbLayerTableRecord
  2
0
 70
     0
 62
     7
  6
Continuous
370
    -3
390
F
347
46
348
0
  0
LAYER
  5
6E
330
2
100
AcDbSymbolTableRecord
100
AcDbLayerTableRecord
  2
VISIBLE
 70
     0
 62
     7
  6
Continuous
370
     0
390
F
347
46
348
0
  0
LAYER
  5
76
330
2
100
AcDbSymbolTableRecord
100
AcDbLayerTableRecord
  2
HIDDEN
 70
     0
 62
   253
  6
HIDDEN2
370
     0
390
F
347
46
348
0
  0
LAYER
  5
7E
330
2
100
AcDbSymbolTableRecord
100
AcDbLayerTableRecord
  2
CENTER
 70
     0
 62
   204
  6
Continuous
370
     0
390
F
347
46
348
0
  0
LAYER
  5
8D
330
2
100
AcDbSymbolTableRecord
100
AcDbLayerTableRecord
  2
DIMENSIONS
 70
     0
 62
     7
  6
Continuous
370
     0
390
F
347
46
348
0
  0
LAYER
  5
FA
330
2
100
AcDbSymbolTableRecord
100
AcDbLayerTableRecord
  2
CONTINUOUS
 70
     0
 62
     7
  6
Continuous
370
     0
390
F
347
46
348
0
  0
ENDTAB
  0
TABLE
  2
STYLE
  5
3
330
0
100
AcDbSymbolTable
 70
     1
  0
STYLE
  5
11
330
3
100
AcDbSymbolTableRecord
100
AcDbTextStyleTableRecord
  2
Standard
 70
     0
 40
0.0
 41
1.0
 50
0.0
 71
     0
 42
0.2
  3
txt
  4

  0
ENDTAB
  0
TABLE
  2
VIEW
  5
6
330
0
100
AcDbSymbolTable
 70
     0
  0
ENDTAB
  0
TABLE
  2
UCS
  5
7
330
0
100
AcDbSymbolTable
 70
     0
  0
ENDTAB
  0
TABLE
  2
APPID
  5
9
330
0
100
AcDbSymbolTable
 70
     1
  0
APPID
  5
12
330
9
100
AcDbSymbolTableRecord
100
AcDbRegAppTableRecord
  2
ACAD
 70
     0
  0
ENDTAB
  0
TABLE
  2
DIMSTYLE
  5
A
330
0
100
AcDbSymbolTable
 70
     1
100
AcDbDimStyleTable
  0
DIMSTYLE
105
27
102
{ACAD_REACTORS
330
8E
330
9A
330
A6
330
B2
330
BE
330
CA
330
D6
330
E2
330
EE
330
122
330
12E
330
13A
330
146
330
152
330
15E
330
16A
330
176
330
18C
102
}
330
A
100
AcDbSymbolTableRecord
100
AcDbDimStyleTableRecord
  2
Standard
 70
     0
178
     0
340
11
  0
ENDTAB
  0
TABLE
  2
BLOCK_RECORD
  5
1
330
0
100
AcDbSymbolTable
 70
    20
  0
BLOCK_RECORD
  5
1F
330
1
100
AcDbSymbolTableRecord
100
AcDbBlockTableRecord
  2
*Model_Space
340
22
 70
     0
280
     1
281
     0
  0
BLOCK_RECORD
  5
1B
330
1
100
AcDbSymbolTableRecord
100
AcDbBlockTableRecord
  2
*Paper_Space
340
1E
 70
     0
280
     1
281
     0
  0
BLOCK_RECORD
  5
23
330
1
100
AcDbSymbolTableRecord
100
AcDbBlockTableRecord
  2
*Paper_Space0
340
26
 70
     0
280
     1
281
     0
  0
BLOCK_RECORD
  5
8F
330
1
100
AcDbSymbolTableRecord
100
AcDbBlockTableRecord
  2
D1
340
0
 70
     0
280
     1
281
     0
  0
BLOCK_RECORD
  5
9B
330
1
100
AcDbSymbolTableRecord
100
AcDbBlockTableRecord
  2
D2
340
0
 70
     0
280
     1
281
     0
  0
BLOCK_RECORD
  5
A7
330
1
100
AcDbSymbolTableRecord
100
AcDbBlockTableRecord
  2
D3
340
0
 70
     0
280
     1
281
     0
  0
BLOCK_RECORD
  5
B3
330
1
100
AcDbSymbolTableRecord
100
AcDbBlockTableRecord
  2
D4
340
0
 70
     0
280
     1
281
     0
  0
BLOCK_RECORD
  5
BF
330
1
100
AcDbSymbolTableRecord
100
AcDbBlockTableRecord
  2
D5
340
0
 70
     0
280
     1
281
     0
  0
BLOCK_RECORD
  5
CB
330
1
100
AcDbSymbolTableRecord
100
AcDbBlockTableRecord
  2
D6
340
0
 70
     0
280
     1
281
     0
  0
BLOCK_RECORD
  5
D7
330
1
100
AcDbSymbolTableRecord
100
AcDbBlockTableRecord
  2
D7
340
0
 70
     0
280
     1
281
     0
  0
BLOCK_RECORD
  5
E3
330
1
100
AcDbSymbolTableRecord
100
AcDbBlockTableRecord
  2
D8
340
0
 70
     0
280
     1
281
     0
  0
BLOCK_RECORD
  5
EF
330
1
100
AcDbSymbolTableRecord
100
AcDbBlockTableRecord
  2
D9
340
0
 70
     0
280
     1
281
     0
  0
BLOCK_RECORD
  5
123
330
1
100
AcDbSymbolTableRecord
100
AcDbBlockTableRecord
  2
D10
340
0
 70
     0
280
     1
281
     0
  0
BLOCK_RECORD
  5
12F
330
1
100
AcDbSymbolTableRecord
100
AcDbBlockTableRecord
  2
D11
340
0
 70
     0
280
     1
281
     0
  0
BLOCK_RECORD
  5
13B
330
1
100
AcDbSymbolTableRecord
100
AcDbBlockTableRecord
  2
D12
340
0
 70
     0
280
     1
281
     0
  0
BLOCK_RECORD
  5
147
330
1
100
AcDbSymbolTableRecord
100
AcDbBlockTableRecord
  2
D13
340
0
 70
     0
280
     1
281
     0
  0
BLOCK_RECORD
  5
153
330
1
100
AcDbSymbolTableRecord
100
AcDbBlockTableRecord
  2
D14
340
0
 70
     0
280
     1
281
     0
  0
BLOCK_RECORD
  5
15F
330
1
100
AcDbSymbolTableRecord
100
AcDbBlockTableRecord
  2
D15
340
0
 70
     0
280
     1
281
     0
  0
BLOCK_RECORD
  5
16B
330
1
100
AcDbSymbolTableRecord
100
AcDbBlockTableRecord
  2
D16
340
0
 70
     0
280
     1
281
     0
  0
BLOCK_RECORD
  5
177
330
1
100
AcDbSymbolTableRecord
100
AcDbBlockTableRecord
  2
D17
340
0
 70
     0
280
     1
281
     0
  0
BLOCK_RECORD
  5
18D
330
1
100
AcDbSymbolTableRecord
100
AcDbBlockTableRecord
  2
D18
340
0
 70
     0
280
     1
281
     0
  0
BLOCK_RECORD
  5
1A8
330
1
100
AcDbSymbolTableRecord
100
AcDbBlockTableRecord
  2
BLOCK14
340
0
102
{BLKREFS
331
1A7
102
}
 70
     0
280
     1
281
     0
  0
ENDTAB
  0
ENDSEC
  0
SECTION
  2
BLOCKS
  0
BLOCK
  5
20
330
1F
100
AcDbEntity
  8
0
100
AcDbBlockBegin
  2
*Model_Space
 70
     0
 10
0.0
 20
0.0
 30
0.0
  3
*Model_Space
  1

  0
ENDBLK
  5
21
330
1F
100
AcDbEntity
  8
0
100
AcDbBlockEnd
  0
BLOCK
  5
1C
330
1B
100
AcDbEntity
 67
     1
  8
0
100
AcDbBlockBegin
  2
*Paper_Space
 70
     0
 10
0.0
 20
0.0
 30
0.0
  3
*Paper_Space
  1

  0
ENDBLK
  5
1D
330
1B
100
AcDbEntity
 67
     1
  8
0
100
AcDbBlockEnd
  0
BLOCK
  5
24
330
23
100
AcDbEntity
  8
0
100
AcDbBlockBegin
  2
*Paper_Space0
 70
     0
 10
0.0
 20
0.0
 30
0.0
  3
*Paper_Space0
  1

  0
ENDBLK
  5
25
330
23
100
AcDbEntity
  8
0
100
AcDbBlockEnd
  0
BLOCK
  5
90
330
8F
100
AcDbEntity
  8
0
100
AcDbBlockBegin
  2
D1
 70
     0
 10
0.0
 20
0.0
 30
0.0
  3
D1
  1

  0
MTEXT
  5
92
330
8F
100
AcDbEntity
  8
DIMENSIONS
100
AcDbMText
 10
5.789210747546103
 20
3.335276629981083
 30
0.0
 40
0.0775536798367834
 41
0.0
 46
0.0
 71
     5
 72
     1
  1
{\fArial|b0|i0|c0|p0;.000}{\fArial|b0|i0|c0|p0;}
 11
6.123031769111886E-17
 21
1.0
 31
0.0
 73
     1
 44
1.0
  0
MTEXT
  5
93
330
8F
100
AcDbEntity
  8
DIMENSIONS
100
AcDbMText
 10
5.789210747546103
 20
3.335276629981083
 30
0.0
 40
0.0775536798367834
 41
0.0
 46
0.0
 71
     5
 72
     1
  1
{\fArial|b0|i0|c0|p0;}
 11
6.123031769111886E-17
 21
1.0
 31
0.0
 73
     1
 44
1.0
  0
MTEXT
  5
94
330
8F
100
AcDbEntity
  8
DIMENSIONS
100
AcDbMText
 10
5.789210747546103
 20
3.335276629981083
 30
0.0
 40
0.0775536798367834
 41
0.0
 46
0.0
 71
     5
 72
     1
  1
{\fArial|b0|i0|c0|p0;}
 11
6.123031769111886E-17
 21
1.0
 31
0.0
 73
     1
 44
1.0
  0
MTEXT
  5
95
330
8F
100
AcDbEntity
  8
DIMENSIONS
100
AcDbMText
 10
5.789210747546103
 20
3.196387741092194
 30
0.0
 40
0.0775536798367834
 41
0.0
 46
0.0
 71
     5
 72
     1
  1
{\fArial|b0|i0|c0|p0;}
 11
6.123031769111886E-17
 21
1.0
 31
0.0
 73
     1
 44
1.0
  0
MTEXT
  5
96
330
8F
100
AcDbEntity
  8
DIMENSIONS
100
AcDbMText
 10
5.789210747546103
 20
3.474165518869972
 30
0.0
 40
0.0775536798367834
 41
0.0
 46
0.0
 71
     5
 72
     1
  1
{\fArial|b0|i0|c0|p0;}
 11
6.123031769111886E-17
 21
1.0
 31
0.0
 73
     1
 44
1.0
  0
LINE
  5
97
330
8F
100
AcDbEntity
  8
DIMENSIONS
100
AcDbLine
 10
5.789210747546103
 20
3.821872733709371
 30
0.0
 11
5.789210747546103
 21
4.036665432096456
 31
0.0
  0
LINE
  5
98
330
8F
100
AcDbEntity
  8
DIMENSIONS
100
AcDbLine
 10
5.789210747546103
 20
4.036665432096456
 30
0.0
 11
5.789210732527609
 21
3.786665432096456
 31
0.0
  0
LINE
  5
99
330
8F
100
AcDbEntity
  8
DIMENSIONS
100
AcDbLine
 10
5.789210732527609
 20
3.786665432096456
 30
0.0
 11
5.789210732527609
 21
3.536665432096456
 31
0.0
  0
ENDBLK
  5
91
330
8F
100
AcDbEntity
  8
0
100
AcDbBlockEnd
  0
BLOCK
  5
9C
330
9B
100
AcDbEntity
  8
0
100
AcDbBlockBegin
  2
D2
 70
     0
 10
0.0
 20
0.0
 30
0.0
  3
D2
  1

  0
MTEXT
  5
9E
330
9B
100
AcDbEntity
  8
DIMENSIONS
100
AcDbMText
 10
6.789210747546102
 20
3.307498856792288
 30
0.0
 40
0.0775536798367834
 41
0.0
 46
0.0
 71
     5
 72
     1
  1
{\fArial|b0|i0|c0|p0;1.000}{\fArial|b0|i0|c0|p0;}
 11
6.123031769111886E-17
 21
1.0
 31
0.0
 73
     1
 44
1.0
  0
MTEXT
  5
9F
330
9B
100
AcDbEntity
  8
DIMENSIONS
100
AcDbMText
 10
6.789210747546102
 20
3.307498856792288
 30
0.0
 40
0.0775536798367834
 41
0.0
 46
0.0
 71
     5
 72
     1
  1
{\fArial|b0|i0|c0|p0;}
 11
6.123031769111886E-17
 21
1.0
 31
0.0
 73
     1
 44
1.0
  0
MTEXT
  5
A0
330
9B
100
AcDbEntity
  8
DIMENSIONS
100
AcDbMText
 10
6.789210747546102
 20
3.307498856792288
 30
0.0
 40
0.0775536798367834
 41
0.0
 46
0.0
 71
     5
 72
     1
  1
{\fArial|b0|i0|c0|p0;}
 11
6.123031769111886E-17
 21
1.0
 31
0.0
 73
     1
 44
1.0
  0
MTEXT
  5
A1
330
9B
100
AcDbEntity
  8
DIMENSIONS
100
AcDbMText
 10
6.789210747546102
 20
3.140832190125621
 30
0.0
 40
0.0775536798367834
 41
0.0
 46
0.0
 71
     5
 72
     1
  1
{\fArial|b0|i0|c0|p0;}
 11
6.123031769111886E-17
 21
1.0
 31
0.0
 73
     1
 44
1.0
  0
MTEXT
  5
A2
330
9B
100
AcDbEntity
  8
DIMENSIONS
100
AcDbMText
 10
6.789210747546102
 20
3.474165523458954
 30
0.0
 40
0.0775536798367834
 41
0.0
 46
0.0
 71
     5
 72
     1
  1
{\fArial|b0|i0|c0|p0;}
 11
6.123031769111886E-17
 21
1.0
 31
0.0
 73
     1
 44
1.0
  0
LINE
  5
A3
330
9B
100
AcDbEntity
  8
DIMENSIONS
100
AcDbLine
 10
6.789210747546103
 20
4.821872733709371
 30
0.0
 11
6.789210747546103
 21
4.036665567262894
 31
0.0
  0
LINE
  5
A4
330
9B
100
AcDbEntity
  8
DIMENSIONS
100
AcDbLine
 10
6.789210747546103
 20
4.036665567262894
 30
0.0
 11
6.789210694981374
 21
3.786665567262894
 31
0.0
  0
LINE
  5
A5
330
9B
100
AcDbEntity
  8
DIMENSIONS
100
AcDbLine
 10
6.789210694981374
 20
3.786665567262894
 30
0.0
 11
6.789210694981374
 21
3.536665567262893
 31
0.0
  0
ENDBLK
  5
9D
330
9B
100
AcDbEntity
  8
0
100
AcDbBlockEnd
  0
BLOCK
  5
A8
330
A7
100
AcDbEntity
  8
0
100
AcDbBlockBegin
  2
D3
 70
     0
 10
0.0
 20
0.0
 30
0.0
  3
D3
  1

  0
MTEXT
  5
AA
330
A7
100
AcDbEntity
  8
DIMENSIONS
100
AcDbMText
 10
8.789210747546102
 20
3.307498852099012
 30
0.0
 40
0.0775536798367834
 41
0.0
 46
0.0
 71
     5
 72
     1
  1
{\fArial|b0|i0|c0|p0;3.000}{\fArial|b0|i0|c0|p0;}
 11
6.123031769111886E-17
 21
1.0
 31
0.0
 73
     1
 44
1.0
  0
MTEXT
  5
AB
330
A7
100
AcDbEntity
  8
DIMENSIONS
100
AcDbMText
 10
8.789210747546102
 20
3.307498852099012
 30
0.0
 40
0.0775536798367834
 41
0.0
 46
0.0
 71
     5
 72
     1
  1
{\fArial|b0|i0|c0|p0;}
 11
6.123031769111886E-17
 21
1.0
 31
0.0
 73
     1
 44
1.0
  0
MTEXT
  5
AC
330
A7
100
AcDbEntity
  8
DIMENSIONS
100
AcDbMText
 10
8.789210747546102
 20
3.307498852099012
 30
0.0
 40
0.0775536798367834
 41
0.0
 46
0.0
 71
     5
 72
     1
  1
{\fArial|b0|i0|c0|p0;}
 11
6.123031769111886E-17
 21
1.0
 31
0.0
 73
     1
 44
1.0
  0
MTEXT
  5
AD
330
A7
100
AcDbEntity
  8
DIMENSIONS
100
AcDbMText
 10
8.789210747546102
 20
3.140832185432346
 30
0.0
 40
0.0775536798367834
 41
0.0
 46
0.0
 71
     5
 72
     1
  1
{\fArial|b0|i0|c0|p0;}
 11
6.123031769111886E-17
 21
1.0
 31
0.0
 73
     1
 44
1.0
  0
MTEXT
  5
AE
330
A7
100
AcDbEntity
  8
DIMENSIONS
100
AcDbMText
 10
8.789210747546102
 20
3.474165518765679
 30
0.0
 40
0.0775536798367834
 41
0.0
 46
0.0
 71
     5
 72
     1
  1
{\fArial|b0|i0|c0|p0;}
 11
6.123031769111886E-17
 21
1.0
 31
0.0
 73
     1
 44
1.0
  0
LINE
  5
AF
330
A7
100
AcDbEntity
  8
DIMENSIONS
100
AcDbLine
 10
8.789210747546104
 20
4.821872733709371
 30
0.0
 11
8.789210747546104
 21
4.036665532532631
 31
0.0
  0
LINE
  5
B0
330
A7
100
AcDbEntity
  8
DIMENSIONS
100
AcDbLine
 10
8.789210747546104
 20
4.036665532532631
 30
0.0
 11
8.7892106902881
 21
3.786665532532631
 31
0.0
  0
LINE
  5
B1
330
A7
100
AcDbEntity
  8
DIMENSIONS
100
AcDbLine
 10
8.7892106902881
 20
3.786665532532631
 30
0.0
 11
8.7892106902881
 21
3.536665532532631
 31
0.0
  0
ENDBLK
  5
A9
330
A7
100
AcDbEntity
  8
0
100
AcDbBlockEnd
  0
BLOCK
  5
B4
330
B3
100
AcDbEntity
  8
0
100
AcDbBlockBegin
  2
D4
 70
     0
 10
0.0
 20
0.0
 30
0.0
  3
D4
  1

  0
MTEXT
  5
B6
330
B3
100
AcDbEntity
  8
DIMENSIONS
100
AcDbMText
 10
9.414210747546104
 20
3.30749885796561
 30
0.0
 40
0.0775536798367834
 41
0.0
 46
0.0
 71
     5
 72
     1
  1
{\fArial|b0|i0|c0|p0;3.625}{\fArial|b0|i0|c0|p0;}
 11
6.123031769111886E-17
 21
1.0
 31
0.0
 73
     1
 44
1.0
  0
MTEXT
  5
B7
330
B3
100
AcDbEntity
  8
DIMENSIONS
100
AcDbMText
 10
9.414210747546104
 20
3.30749885796561
 30
0.0
 40
0.0775536798367834
 41
0.0
 46
0.0
 71
     5
 72
     1
  1
{\fArial|b0|i0|c0|p0;}
 11
6.123031769111886E-17
 21
1.0
 31
0.0
 73
     1
 44
1.0
  0
MTEXT
  5
B8
330
B3
100
AcDbEntity
  8
DIMENSIONS
100
AcDbMText
 10
9.414210747546104
 20
3.30749885796561
 30
0.0
 40
0.0775536798367834
 41
0.0
 46
0.0
 71
     5
 72
     1
  1
{\fArial|b0|i0|c0|p0;}
 11
6.123031769111886E-17
 21
1.0
 31
0.0
 73
     1
 44
1.0
  0
MTEXT
  5
B9
330
B3
100
AcDbEntity
  8
DIMENSIONS
100
AcDbMText
 10
9.414210747546104
 20
3.140832191298944
 30
0.0
 40
0.0775536798367834
 41
0.0
 46
0.0
 71
     5
 72
     1
  1
{\fArial|b0|i0|c0|p0;}
 11
6.123031769111886E-17
 21
1.0
 31
0.0
 73
     1
 44
1.0
  0
MTEXT
  5
BA
330
B3
100
AcDbEntity
  8
DIMENSIONS
100
AcDbMText
 10
9.414210747546104
 20
3.474165524632277
 30
0.0
 40
0.0775536798367834
 41
0.0
 46
0.0
 71
     5
 72
     1
  1
{\fArial|b0|i0|c0|p0;}
 11
6.123031769111886E-17
 21
1.0
 31
0.0
 73
     1
 44
1.0
  0
LINE
  5
BB
330
B3
100
AcDbEntity
  8
DIMENSIONS
100
AcDbLine
 10
9.414210747546104
 20
5.011872733709371
 30
0.0
 11
9.414210747546104
 21
4.03666548207988
 31
0.0
  0
LINE
  5
BC
330
B3
100
AcDbEntity
  8
DIMENSIONS
100
AcDbLine
 10
9.414210747546104
 20
4.03666548207988
 30
0.0
 11
9.414210696154697
 21
3.78666548207988
 31
0.0
  0
LINE
  5
BD
330
B3
100
AcDbEntity
  8
DIMENSIONS
100
AcDbLine
 10
9.414210696154697
 20
3.78666548207988
 30
0.0
 11
9.414210696154697
 21
3.53666548207988
 31
0.0
  0
ENDBLK
  5
B5
330
B3
100
AcDbEntity
  8
0
100
AcDbBlockEnd
  0
BLOCK
  5
C0
330
BF
100
AcDbEntity
  8
0
100
AcDbBlockBegin
  2
D5
 70
     0
 10
0.0
 20
0.0
 30
0.0
  3
D5
  1

  0
MTEXT
  5
C2
330
BF
100
AcDbEntity
  8
DIMENSIONS
100
AcDbMText
 10
9.789210747546104
 20
3.307498851512351
 30
0.0
 40
0.0775536798367834
 41
0.0
 46
0.0
 71
     5
 72
     1
  1
{\fArial|b0|i0|c0|p0;4.000}{\fArial|b0|i0|c0|p0;}
 11
6.123031769111886E-17
 21
1.0
 31
0.0
 73
     1
 44
1.0
  0
MTEXT
  5
C3
330
BF
100
AcDbEntity
  8
DIMENSIONS
100
AcDbMText
 10
9.789210747546104
 20
3.307498851512351
 30
0.0
 40
0.0775536798367834
 41
0.0
 46
0.0
 71
     5
 72
     1
  1
{\fArial|b0|i0|c0|p0;}
 11
6.123031769111886E-17
 21
1.0
 31
0.0
 73
     1
 44
1.0
  0
MTEXT
  5
C4
330
BF
100
AcDbEntity
  8
DIMENSIONS
100
AcDbMText
 10
9.789210747546104
 20
3.307498851512351
 30
0.0
 40
0.0775536798367834
 41
0.0
 46
0.0
 71
     5
 72
     1
  1
{\fArial|b0|i0|c0|p0;}
 11
6.123031769111886E-17
 21
1.0
 31
0.0
 73
     1
 44
1.0
  0
MTEXT
  5
C5
330
BF
100
AcDbEntity
  8
DIMENSIONS
100
AcDbMText
 10
9.789210747546104
 20
3.140832184845684
 30
0.0
 40
0.0775536798367834
 41
0.0
 46
0.0
 71
     5
 72
     1
  1
{\fArial|b0|i0|c0|p0;}
 11
6.123031769111886E-17
 21
1.0
 31
0.0
 73
     1
 44
1.0
  0
MTEXT
  5
C6
330
BF
100
AcDbEntity
  8
DIMENSIONS
100
AcDbMText
 10
9.789210747546104
 20
3.474165518179017
 30
0.0
 40
0.0775536798367834
 41
0.0
 46
0.0
 71
     5
 72
     1
  1
{\fArial|b0|i0|c0|p0;}
 11
6.123031769111886E-17
 21
1.0
 31
0.0
 73
     1
 44
1.0
  0
LINE
  5
C7
330
BF
100
AcDbEntity
  8
DIMENSIONS
100
AcDbLine
 10
9.789210747546104
 20
3.821872733709371
 30
0.0
 11
9.789210747546104
 21
4.036665423061894
 31
0.0
  0
LINE
  5
C8
330
BF
100
AcDbEntity
  8
DIMENSIONS
100
AcDbLine
 10
9.789210747546104
 20
4.036665423061894
 30
0.0
 11
9.789210689701438
 21
3.786665423061894
 31
0.0
  0
LINE
  5
C9
330
BF
100
AcDbEntity
  8
DIMENSIONS
100
AcDbLine
 10
9.789210689701438
 20
3.786665423061894
 30
0.0
 11
9.789210689701438
 21
3.536665423061894
 31
0.0
  0
ENDBLK
  5
C1
330
BF
100
AcDbEntity
  8
0
100
AcDbBlockEnd
  0
BLOCK
  5
CC
330
CB
100
AcDbEntity
  8
0
100
AcDbBlockBegin
  2
D6
 70
     0
 10
0.0
 20
0.0
 30
0.0
  3
D6
  1

  0
MTEXT
  5
CE
330
CB
100
AcDbEntity
  8
DIMENSIONS
100
AcDbMText
 10
5.275565023497339
 20
3.884372733709371
 30
0.0
 40
0.0775536798367834
 41
0.0
 46
0.0
 71
     5
 72
     1
  1
{\fArial|b0|i0|c0|p0;.000}{\fArial|b0|i0|c0|p0;}
 73
     1
 44
1.0
  0
MTEXT
  5
CF
330
CB
100
AcDbEntity
  8
DIMENSIONS
100
AcDbMText
 10
5.275565023497339
 20
3.884372733709371
 30
0.0
 40
0.0775536798367834
 41
0.0
 46
0.0
 71
     5
 72
     1
  1
{\fArial|b0|i0|c0|p0;}
 73
     1
 44
1.0
  0
MTEXT
  5
D0
330
CB
100
AcDbEntity
  8
DIMENSIONS
100
AcDbMText
 10
5.275565023497339
 20
3.884372733709371
 30
0.0
 40
0.0775536798367834
 41
0.0
 46
0.0
 71
     5
 72
     1
  1
{\fArial|b0|i0|c0|p0;}
 73
     1
 44
1.0
  0
MTEXT
  5
D1
330
CB
100
AcDbEntity
  8
DIMENSIONS
100
AcDbMText
 10
5.13667613460845
 20
3.884372733709371
 30
0.0
 40
0.0775536798367834
 41
0.0
 46
0.0
 71
     5
 72
     1
  1
{\fArial|b0|i0|c0|p0;}
 73
     1
 44
1.0
  0
MTEXT
  5
D2
330
CB
100
AcDbEntity
  8
DIMENSIONS
100
AcDbMText
 10
5.414453912386229
 20
3.884372733709371
 30
0.0
 40
0.0775536798367834
 41
0.0
 46
0.0
 71
     5
 72
     1
  1
{\fArial|b0|i0|c0|p0;}
 73
     1
 44
1.0
  0
LINE
  5
D3
330
CB
100
AcDbEntity
  8
DIMENSIONS
100
AcDbLine
 10
5.726710747546102
 20
3.884372733709371
 30
0.0
 11
5.976953942006033
 21
3.884372733709371
 31
0.0
  0
LINE
  5
D4
330
CB
100
AcDbEntity
  8
DIMENSIONS
100
AcDbLine
 10
5.976953942006033
 20
3.884372733709371
 30
0.0
 11
5.726953942006033
 21
3.884372748727864
 31
0.0
  0
LINE
  5
D5
330
CB
100
AcDbEntity
  8
DIMENSIONS
100
AcDbLine
 10
5.726953942006033
 20
3.884372748727864
 30
0.0
 11
5.476953942006033
 21
3.884372748727864
 31
0.0
  0
ENDBLK
  5
CD
330
CB
100
AcDbEntity
  8
0
100
AcDbBlockEnd
  0
BLOCK
  5
D8
330
D7
100
AcDbEntity
  8
0
100
AcDbBlockBegin
  2
D7
 70
     0
 10
0.0
 20
0.0
 30
0.0
  3
D7
  1

  0
MTEXT
  5
DA
330
D7
100
AcDbEntity
  8
DIMENSIONS
100
AcDbMText
 10
5.275565023497339
 20
4.259372733709371
 30
0.0
 40
0.0775536798367834
 41
0.0
 46
0.0
 71
     5
 72
     1
  1
{\fArial|b0|i0|c0|p0;.375}{\fArial|b0|i0|c0|p0;}
 73
     1
 44
1.0
  0
MTEXT
  5
DB
330
D7
100
AcDbEntity
  8
DIMENSIONS
100
AcDbMText
 10
5.275565023497339
 20
4.259372733709371
 30
0.0
 40
0.0775536798367834
 41
0.0
 46
0.0
 71
     5
 72
     1
  1
{\fArial|b0|i0|c0|p0;}
 73
     1
 44
1.0
  0
MTEXT
  5
DC
330
D7
100
AcDbEntity
  8
DIMENSIONS
100
AcDbMText
 10
5.275565023497339
 20
4.259372733709371
 30
0.0
 40
0.0775536798367834
 41
0.0
 46
0.0
 71
     5
 72
     1
  1
{\fArial|b0|i0|c0|p0;}
 73
     1
 44
1.0
  0
MTEXT
  5
DD
330
D7
100
AcDbEntity
  8
DIMENSIONS
100
AcDbMText
 10
5.13667613460845
 20
4.259372733709371
 30
0.0
 40
0.0775536798367834
 41
0.0
 46
0.0
 71
     5
 72
     1
  1
{\fArial|b0|i0|c0|p0;}
 73
     1
 44
1.0
  0
MTEXT
  5
DE
330
D7
100
AcDbEntity
  8
DIMENSIONS
100
AcDbMText
 10
5.414453912386229
 20
4.259372733709371
 30
0.0
 40
0.0775536798367834
 41
0.0
 46
0.0
 71
     5
 72
     1
  1
{\fArial|b0|i0|c0|p0;}
 73
     1
 44
1.0
  0
LINE
  5
DF
330
D7
100
AcDbEntity
  8
DIMENSIONS
100
AcDbLine
 10
6.536710747546103
 20
4.259372733709371
 30
0.0
 11
5.976953942006033
 21
4.259372733709371
 31
0.0
  0
LINE
  5
E0
330
D7
100
AcDbEntity
  8
DIMENSIONS
100
AcDbLine
 10
5.976953942006033
 20
4.259372733709371
 30
0.0
 11
5.726953942006033
 21
4.259372743095929
 31
0.0
  0
LINE
  5
E1
330
D7
100
AcDbEntity
  8
DIMENSIONS
100
AcDbLine
 10
5.726953942006033
 20
4.259372743095929
 30
0.0
 11
5.476953942006033
 21
4.259372743095929
 31
0.0
  0
ENDBLK
  5
D9
330
D7
100
AcDbEntity
  8
0
100
AcDbBlockEnd
  0
BLOCK
  5
E4
330
E3
100
AcDbEntity
  8
0
100
AcDbBlockBegin
  2
D8
 70
     0
 10
0.0
 20
0.0
 30
0.0
  3
D8
  1

  0
MTEXT
  5
E6
330
E3
100
AcDbEntity
  8
DIMENSIONS
100
AcDbMText
 10
5.247787250308543
 20
4.884372733709371
 30
0.0
 40
0.0775536798367834
 41
0.0
 46
0.0
 71
     5
 72
     1
  1
{\fArial|b0|i0|c0|p0;1.000}{\fArial|b0|i0|c0|p0;}
 73
     1
 44
1.0
  0
MTEXT
  5
E7
330
E3
100
AcDbEntity
  8
DIMENSIONS
100
AcDbMText
 10
5.247787250308543
 20
4.884372733709371
 30
0.0
 40
0.0775536798367834
 41
0.0
 46
0.0
 71
     5
 72
     1
  1
{\fArial|b0|i0|c0|p0;}
 73
     1
 44
1.0
  0
MTEXT
  5
E8
330
E3
100
AcDbEntity
  8
DIMENSIONS
100
AcDbMText
 10
5.247787250308543
 20
4.884372733709371
 30
0.0
 40
0.0775536798367834
 41
0.0
 46
0.0
 71
     5
 72
     1
  1
{\fArial|b0|i0|c0|p0;}
 73
     1
 44
1.0
  0
MTEXT
  5
E9
330
E3
100
AcDbEntity
  8
DIMENSIONS
100
AcDbMText
 10
5.081120583641876
 20
4.884372733709371
 30
0.0
 40
0.0775536798367834
 41
0.0
 46
0.0
 71
     5
 72
     1
  1
{\fArial|b0|i0|c0|p0;}
 73
     1
 44
1.0
  0
MTEXT
  5
EA
330
E3
100
AcDbEntity
  8
DIMENSIONS
100
AcDbMText
 10
5.41445391697521
 20
4.884372733709371
 30
0.0
 40
0.0775536798367834
 41
0.0
 46
0.0
 71
     5
 72
     1
  1
{\fArial|b0|i0|c0|p0;}
 73
     1
 44
1.0
  0
LINE
  5
EB
330
E3
100
AcDbEntity
  8
DIMENSIONS
100
AcDbLine
 10
6.726710747546103
 20
4.884372733709371
 30
0.0
 11
5.976953754274868
 21
4.884372733709371
 31
0.0
  0
LINE
  5
EC
330
E3
100
AcDbEntity
  8
DIMENSIONS
100
AcDbLine
 10
5.976953754274868
 20
4.884372733709371
 30
0.0
 11
5.726953754274868
 21
4.884372733709371
 31
0.0
  0
LINE
  5
ED
330
E3
100
AcDbEntity
  8
DIMENSIONS
100
AcDbLine
 10
5.726953754274868
 20
4.884372733709371
 30
0.0
 11
5.476953754274868
 21
4.884372733709371
 31
0.0
  0
ENDBLK
  5
E5
330
E3
100
AcDbEntity
  8
0
100
AcDbBlockEnd
  0
BLOCK
  5
F0
330
EF
100
AcDbEntity
  8
0
100
AcDbBlockBegin
  2
D9
 70
     0
 10
0.0
 20
0.0
 30
0.0
  3
D9
  1

  0
MTEXT
  5
F2
330
EF
100
AcDbEntity
  8
DIMENSIONS
100
AcDbMText
 10
5.247787250308543
 20
5.884372733709371
 30
0.0
 40
0.0775536798367834
 41
0.0
 46
0.0
 71
     5
 72
     1
  1
{\fArial|b0|i0|c0|p0;2.000}{\fArial|b0|i0|c0|p0;}
 73
     1
 44
1.0
  0
MTEXT
  5
F3
330
EF
100
AcDbEntity
  8
DIMENSIONS
100
AcDbMText
 10
5.247787250308543
 20
5.884372733709371
 30
0.0
 40
0.0775536798367834
 41
0.0
 46
0.0
 71
     5
 72
     1
  1
{\fArial|b0|i0|c0|p0;}
 73
     1
 44
1.0
  0
MTEXT
  5
F4
330
EF
100
AcDbEntity
  8
DIMENSIONS
100
AcDbMText
 10
5.247787250308543
 20
5.884372733709371
 30
0.0
 40
0.0775536798367834
 41
0.0
 46
0.0
 71
     5
 72
     1
  1
{\fArial|b0|i0|c0|p0;}
 73
     1
 44
1.0
  0
MTEXT
  5
F5
330
EF
100
AcDbEntity
  8
DIMENSIONS
100
AcDbMText
 10
5.081120583641876
 20
5.884372733709371
 30
0.0
 40
0.0775536798367834
 41
0.0
 46
0.0
 71
     5
 72
     1
  1
{\fArial|b0|i0|c0|p0;}
 73
     1
 44
1.0
  0
MTEXT
  5
F6
330
EF
100
AcDbEntity
  8
DIMENSIONS
100
AcDbMText
 10
5.41445391697521
 20
5.884372733709371
 30
0.0
 40
0.0775536798367834
 41
0.0
 46
0.0
 71
     5
 72
     1
  1
{\fArial|b0|i0|c0|p0;}
 73
     1
 44
1.0
  0
LINE
  5
F7
330
EF
100
AcDbEntity
  8
DIMENSIONS
100
AcDbLine
 10
5.726710747546102
 20
5.884372733709371
 30
0.0
 11
5.976953754274868
 21
5.884372733709371
 31
0.0
  0
LINE
  5
F8
330
EF
100
AcDbEntity
  8
DIMENSIONS
100
AcDbLine
 10
5.976953754274868
 20
5.884372733709371
 30
0.0
 11
5.726953754274868
 21
5.884372718690877
 31
0.0
  0
LINE
  5
F9
330
EF
100
AcDbEntity
  8
DIMENSIONS
100
AcDbLine
 10
5.726953754274868
 20
5.884372718690877
 30
0.0
 11
5.476953754274868
 21
5.884372718690877
 31
0.0
  0
ENDBLK
  5
F1
330
EF
100
AcDbEntity
  8
0
100
AcDbBlockEnd
  0
BLOCK
  5
124
330
123
100
AcDbEntity
  8
0
100
AcDbBlockBegin
  2
D10
 70
     0
 10
0.0
 20
0.0
 30
0.0
  3
D10
  1

  0
MTEXT
  5
126
330
123
100
AcDbEntity
  8
DIMENSIONS
100
AcDbMText
 10
5.789210747546103
 20
6.87861735801998
 30
0.0
 40
0.0775536798367834
 41
0.0
 46
0.0
 71
     5
 72
     1
  1
{\fArial|b0|i0|c0|p0;.000}{\fArial|b0|i0|c0|p0;}
 11
6.123031769111886E-17
 21
1.0
 31
0.0
 73
     1
 44
1.0
  0
MTEXT
  5
127
330
123
100
AcDbEntity
  8
DIMENSIONS
100
AcDbMText
 10
5.789210747546103
 20
6.87861735801998
 30
0.0
 40
0.0775536798367834
 41
0.0
 46
0.0
 71
     5
 72
     1
  1
{\fArial|b0|i0|c0|p0;}
 11
6.123031769111886E-17
 21
1.0
 31
0.0
 73
     1
 44
1.0
  0
MTEXT
  5
128
330
123
100
AcDbEntity
  8
DIMENSIONS
100
AcDbMText
 10
5.789210747546103
 20
6.87861735801998
 30
0.0
 40
0.0775536798367834
 41
0.0
 46
0.0
 71
     5
 72
     1
  1
{\fArial|b0|i0|c0|p0;}
 11
6.123031769111886E-17
 21
1.0
 31
0.0
 73
     1
 44
1.0
  0
MTEXT
  5
129
330
123
100
AcDbEntity
  8
DIMENSIONS
100
AcDbMText
 10
5.789210747546103
 20
6.739728469131091
 30
0.0
 40
0.0775536798367834
 41
0.0
 46
0.0
 71
     5
 72
     1
  1
{\fArial|b0|i0|c0|p0;}
 11
6.123031769111886E-17
 21
1.0
 31
0.0
 73
     1
 44
1.0
  0
MTEXT
  5
12A
330
123
100
AcDbEntity
  8
DIMENSIONS
100
AcDbMText
 10
5.789210747546103
 20
7.017506246908869
 30
0.0
 40
0.0775536798367834
 41
0.0
 46
0.0
 71
     5
 72
     1
  1
{\fArial|b0|i0|c0|p0;}
 11
6.123031769111886E-17
 21
1.0
 31
0.0
 73
     1
 44
1.0
  0
LINE
  5
12B
330
123
100
AcDbEntity
  8
DIMENSIONS
100
AcDbLine
 10
5.789210747546103
 20
7.318119972709606
 30
0.0
 11
5.789210747546103
 21
7.580006160135353
 31
0.0
  0
LINE
  5
12C
330
123
100
AcDbEntity
  8
DIMENSIONS
100
AcDbLine
 10
5.789210747546103
 20
7.580006160135353
 30
0.0
 11
5.78921073628223
 21
7.330006160135353
 31
0.0
  0
LINE
  5
12D
330
123
100
AcDbEntity
  8
DIMENSIONS
100
AcDbLine
 10
5.78921073628223
 20
7.330006160135353
 30
0.0
 11
5.78921073628223
 21
7.080006160135353
 31
0.0
  0
ENDBLK
  5
125
330
123
100
AcDbEntity
  8
0
100
AcDbBlockEnd
  0
BLOCK
  5
130
330
12F
100
AcDbEntity
  8
0
100
AcDbBlockBegin
  2
D11
 70
     0
 10
0.0
 20
0.0
 30
0.0
  3
D11
  1

  0
MTEXT
  5
132
330
12F
100
AcDbEntity
  8
DIMENSIONS
100
AcDbMText
 10
6.789210747546103
 20
6.850839584831188
 30
0.0
 40
0.0775536798367834
 41
0.0
 46
0.0
 71
     5
 72
     1
  1
{\fArial|b0|i0|c0|p0;1.000}{\fArial|b0|i0|c0|p0;}
 11
6.123031769111886E-17
 21
1.0
 31
0.0
 73
     1
 44
1.0
  0
MTEXT
  5
133
330
12F
100
AcDbEntity
  8
DIMENSIONS
100
AcDbMText
 10
6.789210747546103
 20
6.850839584831188
 30
0.0
 40
0.0775536798367834
 41
0.0
 46
0.0
 71
     5
 72
     1
  1
{\fArial|b0|i0|c0|p0;}
 11
6.123031769111886E-17
 21
1.0
 31
0.0
 73
     1
 44
1.0
  0
MTEXT
  5
134
330
12F
100
AcDbEntity
  8
DIMENSIONS
100
AcDbMText
 10
6.789210747546103
 20
6.850839584831188
 30
0.0
 40
0.0775536798367834
 41
0.0
 46
0.0
 71
     5
 72
     1
  1
{\fArial|b0|i0|c0|p0;}
 11
6.123031769111886E-17
 21
1.0
 31
0.0
 73
     1
 44
1.0
  0
MTEXT
  5
135
330
12F
100
AcDbEntity
  8
DIMENSIONS
100
AcDbMText
 10
6.789210747546103
 20
6.684172918164522
 30
0.0
 40
0.0775536798367834
 41
0.0
 46
0.0
 71
     5
 72
     1
  1
{\fArial|b0|i0|c0|p0;}
 11
6.123031769111886E-17
 21
1.0
 31
0.0
 73
     1
 44
1.0
  0
MTEXT
  5
136
330
12F
100
AcDbEntity
  8
DIMENSIONS
100
AcDbMText
 10
6.789210747546103
 20
7.017506251497855
 30
0.0
 40
0.0775536798367834
 41
0.0
 46
0.0
 71
     5
 72
     1
  1
{\fArial|b0|i0|c0|p0;}
 11
6.123031769111886E-17
 21
1.0
 31
0.0
 73
     1
 44
1.0
  0
LINE
  5
137
330
12F
100
AcDbEntity
  8
DIMENSIONS
100
AcDbLine
 10
6.789210747546103
 20
7.258119972709607
 30
0.0
 11
6.789210747546103
 21
7.580006295301795
 31
0.0
  0
LINE
  5
138
330
12F
100
AcDbEntity
  8
DIMENSIONS
100
AcDbLine
 10
6.789210747546103
 20
7.580006295301795
 30
0.0
 11
6.789210792601583
 21
7.330006295301794
 31
0.0
  0
LINE
  5
139
330
12F
100
AcDbEntity
  8
DIMENSIONS
100
AcDbLine
 10
6.789210792601583
 20
7.330006295301794
 30
0.0
 11
6.789210792601583
 21
7.080006295301795
 31
0.0
  0
ENDBLK
  5
131
330
12F
100
AcDbEntity
  8
0
100
AcDbBlockEnd
  0
BLOCK
  5
13C
330
13B
100
AcDbEntity
  8
0
100
AcDbBlockBegin
  2
D12
 70
     0
 10
0.0
 20
0.0
 30
0.0
  3
D12
  1

  0
MTEXT
  5
13E
330
13B
100
AcDbEntity
  8
DIMENSIONS
100
AcDbMText
 10
8.789210747546104
 20
6.85083958013791
 30
0.0
 40
0.0775536798367834
 41
0.0
 46
0.0
 71
     5
 72
     1
  1
{\fArial|b0|i0|c0|p0;3.000}{\fArial|b0|i0|c0|p0;}
 11
6.123031769111886E-17
 21
1.0
 31
0.0
 73
     1
 44
1.0
  0
MTEXT
  5
13F
330
13B
100
AcDbEntity
  8
DIMENSIONS
100
AcDbMText
 10
8.789210747546104
 20
6.85083958013791
 30
0.0
 40
0.0775536798367834
 41
0.0
 46
0.0
 71
     5
 72
     1
  1
{\fArial|b0|i0|c0|p0;}
 11
6.123031769111886E-17
 21
1.0
 31
0.0
 73
     1
 44
1.0
  0
MTEXT
  5
140
330
13B
100
AcDbEntity
  8
DIMENSIONS
100
AcDbMText
 10
8.789210747546104
 20
6.85083958013791
 30
0.0
 40
0.0775536798367834
 41
0.0
 46
0.0
 71
     5
 72
     1
  1
{\fArial|b0|i0|c0|p0;}
 11
6.123031769111886E-17
 21
1.0
 31
0.0
 73
     1
 44
1.0
  0
MTEXT
  5
141
330
13B
100
AcDbEntity
  8
DIMENSIONS
100
AcDbMText
 10
8.789210747546104
 20
6.684172913471243
 30
0.0
 40
0.0775536798367834
 41
0.0
 46
0.0
 71
     5
 72
     1
  1
{\fArial|b0|i0|c0|p0;}
 11
6.123031769111886E-17
 21
1.0
 31
0.0
 73
     1
 44
1.0
  0
MTEXT
  5
142
330
13B
100
AcDbEntity
  8
DIMENSIONS
100
AcDbMText
 10
8.789210747546104
 20
7.017506246804577
 30
0.0
 40
0.0775536798367834
 41
0.0
 46
0.0
 71
     5
 72
     1
  1
{\fArial|b0|i0|c0|p0;}
 11
6.123031769111886E-17
 21
1.0
 31
0.0
 73
     1
 44
1.0
  0
LINE
  5
143
330
13B
100
AcDbEntity
  8
DIMENSIONS
100
AcDbLine
 10
8.789210747546104
 20
7.258119972709607
 30
0.0
 11
8.789210747546104
 21
7.580006260571528
 31
0.0
  0
LINE
  5
144
330
13B
100
AcDbEntity
  8
DIMENSIONS
100
AcDbLine
 10
8.789210747546104
 20
7.580006260571528
 30
0.0
 11
8.789210787908303
 21
7.330006260571529
 31
0.0
  0
LINE
  5
145
330
13B
100
AcDbEntity
  8
DIMENSIONS
100
AcDbLine
 10
8.789210787908303
 20
7.330006260571529
 30
0.0
 11
8.789210787908303
 21
7.080006260571528
 31
0.0
  0
ENDBLK
  5
13D
330
13B
100
AcDbEntity
  8
0
100
AcDbBlockEnd
  0
BLOCK
  5
148
330
147
100
AcDbEntity
  8
0
100
AcDbBlockBegin
  2
D13
 70
     0
 10
0.0
 20
0.0
 30
0.0
  3
D13
  1

  0
MTEXT
  5
14A
330
147
100
AcDbEntity
  8
DIMENSIONS
100
AcDbMText
 10
9.414210747546104
 20
6.850839586004508
 30
0.0
 40
0.0775536798367834
 41
0.0
 46
0.0
 71
     5
 72
     1
  1
{\fArial|b0|i0|c0|p0;3.625}{\fArial|b0|i0|c0|p0;}
 11
6.123031769111886E-17
 21
1.0
 31
0.0
 73
     1
 44
1.0
  0
MTEXT
  5
14B
330
147
100
AcDbEntity
  8
DIMENSIONS
100
AcDbMText
 10
9.414210747546104
 20
6.850839586004508
 30
0.0
 40
0.0775536798367834
 41
0.0
 46
0.0
 71
     5
 72
     1
  1
{\fArial|b0|i0|c0|p0;}
 11
6.123031769111886E-17
 21
1.0
 31
0.0
 73
     1
 44
1.0
  0
MTEXT
  5
14C
330
147
100
AcDbEntity
  8
DIMENSIONS
100
AcDbMText
 10
9.414210747546104
 20
6.850839586004508
 30
0.0
 40
0.0775536798367834
 41
0.0
 46
0.0
 71
     5
 72
     1
  1
{\fArial|b0|i0|c0|p0;}
 11
6.123031769111886E-17
 21
1.0
 31
0.0
 73
     1
 44
1.0
  0
MTEXT
  5
14D
330
147
100
AcDbEntity
  8
DIMENSIONS
100
AcDbMText
 10
9.414210747546104
 20
6.684172919337841
 30
0.0
 40
0.0775536798367834
 41
0.0
 46
0.0
 71
     5
 72
     1
  1
{\fArial|b0|i0|c0|p0;}
 11
6.123031769111886E-17
 21
1.0
 31
0.0
 73
     1
 44
1.0
  0
MTEXT
  5
14E
330
147
100
AcDbEntity
  8
DIMENSIONS
100
AcDbMText
 10
9.414210747546104
 20
7.017506252671175
 30
0.0
 40
0.0775536798367834
 41
0.0
 46
0.0
 71
     5
 72
     1
  1
{\fArial|b0|i0|c0|p0;}
 11
6.123031769111886E-17
 21
1.0
 31
0.0
 73
     1
 44
1.0
  0
LINE
  5
14F
330
147
100
AcDbEntity
  8
DIMENSIONS
100
AcDbLine
 10
9.414210747546104
 20
7.693119972709606
 30
0.0
 11
9.414210747546104
 21
7.580006210118777
 31
0.0
  0
LINE
  5
150
330
147
100
AcDbEntity
  8
DIMENSIONS
100
AcDbLine
 10
9.414210747546104
 20
7.580006210118777
 30
0.0
 11
9.414210793774902
 21
7.330006210118777
 31
0.0
  0
LINE
  5
151
330
147
100
AcDbEntity
  8
DIMENSIONS
100
AcDbLine
 10
9.414210793774902
 20
7.330006210118777
 30
0.0
 11
9.414210793774902
 21
7.080006210118777
 31
0.0
  0
ENDBLK
  5
149
330
147
100
AcDbEntity
  8
0
100
AcDbBlockEnd
  0
BLOCK
  5
154
330
153
100
AcDbEntity
  8
0
100
AcDbBlockBegin
  2
D14
 70
     0
 10
0.0
 20
0.0
 30
0.0
  3
D14
  1

  0
MTEXT
  5
156
330
153
100
AcDbEntity
  8
DIMENSIONS
100
AcDbMText
 10
9.789210747546104
 20
6.850839579551248
 30
0.0
 40
0.0775536798367834
 41
0.0
 46
0.0
 71
     5
 72
     1
  1
{\fArial|b0|i0|c0|p0;4.000}{\fArial|b0|i0|c0|p0;}
 11
6.123031769111886E-17
 21
1.0
 31
0.0
 73
     1
 44
1.0
  0
MTEXT
  5
157
330
153
100
AcDbEntity
  8
DIMENSIONS
100
AcDbMText
 10
9.789210747546104
 20
6.850839579551248
 30
0.0
 40
0.0775536798367834
 41
0.0
 46
0.0
 71
     5
 72
     1
  1
{\fArial|b0|i0|c0|p0;}
 11
6.123031769111886E-17
 21
1.0
 31
0.0
 73
     1
 44
1.0
  0
MTEXT
  5
158
330
153
100
AcDbEntity
  8
DIMENSIONS
100
AcDbMText
 10
9.789210747546104
 20
6.850839579551248
 30
0.0
 40
0.0775536798367834
 41
0.0
 46
0.0
 71
     5
 72
     1
  1
{\fArial|b0|i0|c0|p0;}
 11
6.123031769111886E-17
 21
1.0
 31
0.0
 73
     1
 44
1.0
  0
MTEXT
  5
159
330
153
100
AcDbEntity
  8
DIMENSIONS
100
AcDbMText
 10
9.789210747546104
 20
6.684172912884581
 30
0.0
 40
0.0775536798367834
 41
0.0
 46
0.0
 71
     5
 72
     1
  1
{\fArial|b0|i0|c0|p0;}
 11
6.123031769111886E-17
 21
1.0
 31
0.0
 73
     1
 44
1.0
  0
MTEXT
  5
15A
330
153
100
AcDbEntity
  8
DIMENSIONS
100
AcDbMText
 10
9.789210747546104
 20
7.017506246217915
 30
0.0
 40
0.0775536798367834
 41
0.0
 46
0.0
 71
     5
 72
     1
  1
{\fArial|b0|i0|c0|p0;}
 11
6.123031769111886E-17
 21
1.0
 31
0.0
 73
     1
 44
1.0
  0
LINE
  5
15B
330
153
100
AcDbEntity
  8
DIMENSIONS
100
AcDbLine
 10
9.789210747546104
 20
7.318119972709606
 30
0.0
 11
9.789210747546104
 21
7.580006151100791
 31
0.0
  0
LINE
  5
15C
330
153
100
AcDbEntity
  8
DIMENSIONS
100
AcDbLine
 10
9.789210747546104
 20
7.580006151100791
 30
0.0
 11
9.789210787321643
 21
7.330006151100791
 31
0.0
  0
LINE
  5
15D
330
153
100
AcDbEntity
  8
DIMENSIONS
100
AcDbLine
 10
9.789210787321643
 20
7.330006151100791
 30
0.0
 11
9.789210787321643
 21
7.080006151100791
 31
0.0
  0
ENDBLK
  5
155
330
153
100
AcDbEntity
  8
0
100
AcDbBlockEnd
  0
BLOCK
  5
160
330
15F
100
AcDbEntity
  8
0
100
AcDbBlockBegin
  2
D15
 70
     0
 10
0.0
 20
0.0
 30
0.0
  3
D15
  1

  0
MTEXT
  5
162
330
15F
100
AcDbEntity
  8
DIMENSIONS
100
AcDbMText
 10
5.297573724130949
 20
7.380619972709606
 30
0.0
 40
0.0775536798367834
 41
0.0
 46
0.0
 71
     5
 72
     1
  1
{\fArial|b0|i0|c0|p0;.000}{\fArial|b0|i0|c0|p0;}
 73
     1
 44
1.0
  0
MTEXT
  5
163
330
15F
100
AcDbEntity
  8
DIMENSIONS
100
AcDbMText
 10
5.297573724130949
 20
7.380619972709606
 30
0.0
 40
0.0775536798367834
 41
0.0
 46
0.0
 71
     5
 72
     1
  1
{\fArial|b0|i0|c0|p0;}
 73
     1
 44
1.0
  0
MTEXT
  5
164
330
15F
100
AcDbEntity
  8
DIMENSIONS
100
AcDbMText
 10
5.297573724130949
 20
7.380619972709606
 30
0.0
 40
0.0775536798367834
 41
0.0
 46
0.0
 71
     5
 72
     1
  1
{\fArial|b0|i0|c0|p0;}
 73
     1
 44
1.0
  0
MTEXT
  5
165
330
15F
100
AcDbEntity
  8
DIMENSIONS
100
AcDbMText
 10
5.15868483524206
 20
7.380619972709606
 30
0.0
 40
0.0775536798367834
 41
0.0
 46
0.0
 71
     5
 72
     1
  1
{\fArial|b0|i0|c0|p0;}
 73
     1
 44
1.0
  0
MTEXT
  5
166
330
15F
100
AcDbEntity
  8
DIMENSIONS
100
AcDbMText
 10
5.436462613019838
 20
7.380619972709606
 30
0.0
 40
0.0775536798367834
 41
0.0
 46
0.0
 71
     5
 72
     1
  1
{\fArial|b0|i0|c0|p0;}
 73
     1
 44
1.0
  0
LINE
  5
167
330
15F
100
AcDbEntity
  8
DIMENSIONS
100
AcDbLine
 10
5.726710747546102
 20
7.380619972709606
 30
0.0
 11
5.998962605093412
 21
7.380619972709606
 31
0.0
  0
LINE
  5
168
330
15F
100
AcDbEntity
  8
DIMENSIONS
100
AcDbLine
 10
5.998962605093412
 20
7.380619972709606
 30
0.0
 11
5.748962605093412
 21
7.380619983973476
 31
0.0
  0
LINE
  5
169
330
15F
100
AcDbEntity
  8
DIMENSIONS
100
AcDbLine
 10
5.748962605093412
 20
7.380619983973476
 30
0.0
 11
5.498962605093412
 21
7.380619983973476
 31
0.0
  0
ENDBLK
  5
161
330
15F
100
AcDbEntity
  8
0
100
AcDbBlockEnd
  0
BLOCK
  5
16C
330
16B
100
AcDbEntity
  8
0
100
AcDbBlockBegin
  2
D16
 70
     0
 10
0.0
 20
0.0
 30
0.0
  3
D16
  1

  0
MTEXT
  5
16E
330
16B
100
AcDbEntity
  8
DIMENSIONS
100
AcDbMText
 10
5.297573724130949
 20
7.755619972709607
 30
0.0
 40
0.0775536798367834
 41
0.0
 46
0.0
 71
     5
 72
     1
  1
{\fArial|b0|i0|c0|p0;.375}{\fArial|b0|i0|c0|p0;}
 73
     1
 44
1.0
  0
MTEXT
  5
16F
330
16B
100
AcDbEntity
  8
DIMENSIONS
100
AcDbMText
 10
5.297573724130949
 20
7.755619972709607
 30
0.0
 40
0.0775536798367834
 41
0.0
 46
0.0
 71
     5
 72
     1
  1
{\fArial|b0|i0|c0|p0;}
 73
     1
 44
1.0
  0
MTEXT
  5
170
330
16B
100
AcDbEntity
  8
DIMENSIONS
100
AcDbMText
 10
5.297573724130949
 20
7.755619972709607
 30
0.0
 40
0.0775536798367834
 41
0.0
 46
0.0
 71
     5
 72
     1
  1
{\fArial|b0|i0|c0|p0;}
 73
     1
 44
1.0
  0
MTEXT
  5
171
330
16B
100
AcDbEntity
  8
DIMENSIONS
100
AcDbMText
 10
5.15868483524206
 20
7.755619972709607
 30
0.0
 40
0.0775536798367834
 41
0.0
 46
0.0
 71
     5
 72
     1
  1
{\fArial|b0|i0|c0|p0;}
 73
     1
 44
1.0
  0
MTEXT
  5
172
330
16B
100
AcDbEntity
  8
DIMENSIONS
100
AcDbMText
 10
5.436462613019838
 20
7.755619972709607
 30
0.0
 40
0.0775536798367834
 41
0.0
 46
0.0
 71
     5
 72
     1
  1
{\fArial|b0|i0|c0|p0;}
 73
     1
 44
1.0
  0
LINE
  5
173
330
16B
100
AcDbEntity
  8
DIMENSIONS
100
AcDbLine
 10
6.536710747546103
 20
7.755619972709606
 30
0.0
 11
5.998962605093412
 21
7.755619972709606
 31
0.0
  0
LINE
  5
174
330
16B
100
AcDbEntity
  8
DIMENSIONS
100
AcDbLine
 10
5.998962605093412
 20
7.755619972709606
 30
0.0
 11
5.748962605093412
 21
7.755619978341541
 31
0.0
  0
LINE
  5
175
330
16B
100
AcDbEntity
  8
DIMENSIONS
100
AcDbLine
 10
5.748962605093412
 20
7.755619978341541
 30
0.0
 11
5.498962605093412
 21
7.755619978341541
 31
0.0
  0
ENDBLK
  5
16D
330
16B
100
AcDbEntity
  8
0
100
AcDbBlockEnd
  0
BLOCK
  5
178
330
177
100
AcDbEntity
  8
0
100
AcDbBlockBegin
  2
D17
 70
     0
 10
0.0
 20
0.0
 30
0.0
  3
D17
  1

  0
MTEXT
  5
17A
330
177
100
AcDbEntity
  8
DIMENSIONS
100
AcDbMText
 10
5.297573724130949
 20
8.130619972709606
 30
0.0
 40
0.0775536798367834
 41
0.0
 46
0.0
 71
     5
 72
     1
  1
{\fArial|b0|i0|c0|p0;.750}{\fArial|b0|i0|c0|p0;}
 73
     1
 44
1.0
  0
MTEXT
  5
17B
330
177
100
AcDbEntity
  8
DIMENSIONS
100
AcDbMText
 10
5.297573724130949
 20
8.130619972709606
 30
0.0
 40
0.0775536798367834
 41
0.0
 46
0.0
 71
     5
 72
     1
  1
{\fArial|b0|i0|c0|p0;}
 73
     1
 44
1.0
  0
MTEXT
  5
17C
330
177
100
AcDbEntity
  8
DIMENSIONS
100
AcDbMText
 10
5.297573724130949
 20
8.130619972709606
 30
0.0
 40
0.0775536798367834
 41
0.0
 46
0.0
 71
     5
 72
     1
  1
{\fArial|b0|i0|c0|p0;}
 73
     1
 44
1.0
  0
MTEXT
  5
17D
330
177
100
AcDbEntity
  8
DIMENSIONS
100
AcDbMText
 10
5.15868483524206
 20
8.130619972709606
 30
0.0
 40
0.0775536798367834
 41
0.0
 46
0.0
 71
     5
 72
     1
  1
{\fArial|b0|i0|c0|p0;}
 73
     1
 44
1.0
  0
MTEXT
  5
17E
330
177
100
AcDbEntity
  8
DIMENSIONS
100
AcDbMText
 10
5.436462613019838
 20
8.130619972709606
 30
0.0
 40
0.0775536798367834
 41
0.0
 46
0.0
 71
     5
 72
     1
  1
{\fArial|b0|i0|c0|p0;}
 73
     1
 44
1.0
  0
LINE
  5
17F
330
177
100
AcDbEntity
  8
DIMENSIONS
100
AcDbLine
 10
5.726710747546102
 20
8.130619972709606
 30
0.0
 11
5.998962605093412
 21
8.130619972709606
 31
0.0
  0
LINE
  5
180
330
177
100
AcDbEntity
  8
DIMENSIONS
100
AcDbLine
 10
5.998962605093412
 20
8.130619972709606
 30
0.0
 11
5.748962605093412
 21
8.130619972709606
 31
0.0
  0
LINE
  5
181
330
177
100
AcDbEntity
  8
DIMENSIONS
100
AcDbLine
 10
5.748962605093412
 20
8.130619972709606
 30
0.0
 11
5.498962605093412
 21
8.130619972709606
 31
0.0
  0
ENDBLK
  5
179
330
177
100
AcDbEntity
  8
0
100
AcDbBlockEnd
  0
BLOCK
  5
18E
330
18D
100
AcDbEntity
  8
0
100
AcDbBlockBegin
  2
D18
 70
     0
 10
0.0
 20
0.0
 30
0.0
  3
D18
  1

  0
MTEXT
  5
190
330
18D
100
AcDbEntity
  8
DIMENSIONS
100
AcDbMText
 10
11.82540090065303
 20
6.136532881128497
 30
0.0
 40
0.0775536798367834
 41
0.0
 46
0.0
 71
     5
 72
     1
  1
{\fArial|b0|i0|c0|p0;.750}{\fArial|b0|i0|c0|p0;}
 73
     1
 44
1.0
  0
MTEXT
  5
191
330
18D
100
AcDbEntity
  8
DIMENSIONS
100
AcDbMText
 10
11.82540090065303
 20
6.136532881128497
 30
0.0
 40
0.0775536798367834
 41
0.0
 46
0.0
 71
     5
 72
     1
  1
{\fArial|b0|i0|c0|p0;}
 73
     1
 44
1.0
  0
MTEXT
  5
192
330
18D
100
AcDbEntity
  8
DIMENSIONS
100
AcDbMText
 10
11.82540090065303
 20
6.136532881128497
 30
0.0
 40
0.0775536798367834
 41
0.0
 46
0.0
 71
     5
 72
     1
  1
{\fArial|b0|i0|c0|p0;}
 73
     1
 44
1.0
  0
MTEXT
  5
193
330
18D
100
AcDbEntity
  8
DIMENSIONS
100
AcDbMText
 10
11.68651201176414
 20
6.136532881128497
 30
0.0
 40
0.0775536798367834
 41
0.0
 46
0.0
 71
     5
 72
     1
  1
{\fArial|b0|i0|c0|p0;}
 73
     1
 44
1.0
  0
MTEXT
  5
194
330
18D
100
AcDbEntity
  8
DIMENSIONS
100
AcDbMText
 10
11.96428978954192
 20
6.136532881128497
 30
0.0
 40
0.0775536798367834
 41
0.0
 46
0.0
 71
     5
 72
     1
  1
{\fArial|b0|i0|c0|p0;}
 73
     1
 44
1.0
  0
LINE
  5
195
330
18D
100
AcDbEntity
  8
DIMENSIONS
100
AcDbLine
 10
12.20040090065303
 20
5.946872733709371
 30
0.0
 11
12.20040090065303
 21
6.199032881128497
 31
0.0
  0
LINE
  5
196
330
18D
100
AcDbEntity
  8
DIMENSIONS
100
AcDbLine
 10
11.45040090065303
 20
5.946872733709371
 30
0.0
 11
11.45040090065303
 21
6.199032881128497
 31
0.0
  0
LWPOLYLINE
  5
197
330
18D
100
AcDbEntity
  8
DIMENSIONS
100
AcDbPolyline
 90
        4
 70
     0
 43
0.0
 10
12.20040090065303
 20
6.136532881128497
 10
12.11040090065303
 20
6.121532881128497
 10
12.11040090065303
 20
6.151532881128497
 10
12.20040090065303
 20
6.136532881128497
  0
LINE
  5
198
330
18D
100
AcDbEntity
  8
DIMENSIONS
100
AcDbLine
 10
12.11040090065303
 20
6.136532881128497
 30
0.0
 11
12.02678977222894
 21
6.136532843582263
 31
0.0
  0
LWPOLYLINE
  5
199
330
18D
100
AcDbEntity
  8
DIMENSIONS
100
AcDbPolyline
 90
        4
 70
     0
 43
0.0
 10
11.45040090065303
 20
6.136532881128497
 10
11.54040090065303
 20
6.151532881128497
 10
11.54040090065303
 20
6.121532881128497
 10
11.45040090065303
 20
6.136532881128497
  0
LINE
  5
19A
330
18D
100
AcDbEntity
  8
DIMENSIONS
100
AcDbLine
 10
11.54040090065303
 20
6.136532881128497
 30
0.0
 11
11.59623421083286
 21
6.136532843582263
 31
0.0
  0
HATCH
  5
19B
330
18D
100
AcDbEntity
  8
0
 62
     7
100
AcDbHatch
 10
0.0
 20
0.0
 30
0.0
210
0.0
220
0.0
230
1.0
  2
SOLID
 70
     1
 71
     0
 91
        2
 92
        0
 93
        3
 72
     1
 10
12.11040090065303
 20
6.151532881128497
 11
12.20040090065303
 21
6.136532881128497
 72
     1
 10
12.20040090065303
 20
6.136532881128497
 11
12.11040090065303
 21
6.121532881128497
 72
     1
 10
12.11040090065303
 20
6.121532881128497
 11
12.11040090065303
 21
6.151532881128497
 97
        0
 92
        0
 93
        3
 72
     1
 10
11.54040090065303
 20
6.121532881128497
 11
11.45040090065303
 21
6.136532881128497
 72
     1
 10
11.45040090065303
 20
6.136532881128497
 11
11.54040090065303
 21
6.151532881128497
 72
     1
 10
11.54040090065303
 20
6.151532881128497
 11
11.54040090065303
 21
6.121532881128497
 97
        0
 75
     0
 76
     1
 98
        0
  0
ENDBLK
  5
18F
330
18D
100
AcDbEntity
  8
0
100
AcDbBlockEnd
  0
BLOCK
  5
1A9
330
1A8
100
AcDbEntity
  8
0
100
AcDbBlockBegin
  2
BLOCK14
 70
     0
 10
0.0
 20
0.0
 30
0.0
  3
BLOCK14
  1

  0
LINE
  5
1AB
330
1A8
100
AcDbEntity
  8
CONTINUOUS
100
AcDbLine
 10
0.4999999999999999
 20
0.4999999999999999
 30
0.0
 11
16.50000000000004
 21
0.4999999999999999
 31
0.0
  0
LINE
  5
1AC
330
1A8
100
AcDbEntity
  8
CONTINUOUS
100
AcDbLine
 10
16.50000000000004
 20
10.5
 30
0.0
 11
0.4999999999999999
 21
10.5
 31
0.0
  0
LINE
  5
1AD
330
1A8
100
AcDbEntity
  8
CONTINUOUS
100
AcDbLine
 10
1.12000000000002
 20
0.88
 30
0.0
 11
15.87999999999996
 21
0.88
 31
0.0
  0
LINE
  5
1AE
330
1A8
100
AcDbEntity
  8
CONTINUOUS
100
AcDbLine
 10
15.88
 20
10.12
 30
0.0
 11
1.120000000000039
 21
10.12
 31
0.0
  0
LWPOLYLINE
  5
1AF
330
1A8
100
AcDbEntity
  8
CONTINUOUS
100
AcDbPolyline
 90
        5
 70
     0
 43
0.0
 10
8.35
 20
0.730000000000004
 10
8.65
 20
0.730000000000004
 10
8.5
 20
0.88
 10
8.5
 20
0.88
 10
8.35
 20
0.730000000000004
  0
LWPOLYLINE
  5
1B0
330
1A8
100
AcDbEntity
  8
CONTINUOUS
100
AcDbPolyline
 90
        5
 70
     0
 43
0.0
 10
8.35
 20
10.27
 10
8.65
 20
10.27
 10
8.5
 20
10.12
 10
8.5
 20
10.12
 10
8.35
 20
10.27
  0
LINE
  5
1B1
330
1A8
100
AcDbEntity
  8
CONTINUOUS
100
AcDbLine
 10
0.4999999999999999
 20
10.5
 30
0.0
 11
0.4999999999999999
 21
0.4999999999999999
 31
0.0
  0
LINE
  5
1B2
330
1A8
100
AcDbEntity
  8
CONTINUOUS
100
AcDbLine
 10
1.120000000000039
 20
10.12
 30
0.0
 11
1.12000000000002
 21
0.88
 31
0.0
  0
LWPOLYLINE
  5
1B3
330
1A8
100
AcDbEntity
  8
CONTINUOUS
100
AcDbPolyline
 90
        5
 70
     0
 43
0.0
 10
0.98
 20
5.35
 10
0.98
 20
5.649999999999999
 10
1.12000000000002
 20
5.499999999999999
 10
1.12000000000002
 20
5.499999999999999
 10
0.98
 20
5.35
  0
LINE
  5
1B4
330
1A8
100
AcDbEntity
  8
CONTINUOUS
100
AcDbLine
 10
16.50000000000004
 20
0.4999999999999999
 30
0.0
 11
16.50000000000004
 21
10.5
 31
0.0
  0
LINE
  5
1B5
330
1A8
100
AcDbEntity
  8
CONTINUOUS
100
AcDbLine
 10
15.87999999999996
 20
0.88
 30
0.0
 11
15.88
 21
10.12
 31
0.0
  0
LWPOLYLINE
  5
1B6
330
1A8
100
AcDbEntity
  8
CONTINUOUS
100
AcDbPolyline
 90
        5
 70
     0
 43
0.0
 10
16.02000000000004
 20
5.35
 10
16.02000000000004
 20
5.649999999999999
 10
15.88
 20
5.499999999999999
 10
15.88
 20
5.499999999999999
 10
16.02000000000004
 20
5.35
  0
LINE
  5
1B7
330
1A8
100
AcDbEntity
  8
CONTINUOUS
100
AcDbLine
 10
11.63
 20
1.13
 30
0.0
 11
15.88
 21
1.13
 31
0.0
  0
LINE
  5
1B8
330
1A8
100
AcDbEntity
  8
CONTINUOUS
100
AcDbLine
 10
12.01
 20
1.13
 30
0.0
 11
12.01
 21
1.51
 31
0.0
  0
LINE
  5
1B9
330
1A8
100
AcDbEntity
  8
CONTINUOUS
100
AcDbLine
 10
12.63
 20
0.88
 30
0.0
 11
12.63
 21
1.13
 31
0.0
  0
LINE
  5
1BA
330
1A8
100
AcDbEntity
  8
CONTINUOUS
100
AcDbLine
 10
13.13000000000004
 20
1.13
 30
0.0
 11
13.13000000000004
 21
1.51
 31
0.0
  0
LINE
  5
1BB
330
1A8
100
AcDbEntity
  8
CONTINUOUS
100
AcDbLine
 10
14.13
 20
0.88
 30
0.0
 11
14.13
 21
1.13
 31
0.0
  0
LINE
  5
1BC
330
1A8
100
AcDbEntity
  8
CONTINUOUS
100
AcDbLine
 10
15.5
 20
1.13
 30
0.0
 11
15.5
 21
1.51
 31
0.0
  0
LINE
  5
1BD
330
1A8
100
AcDbEntity
  8
CONTINUOUS
100
AcDbLine
 10
10.38
 20
9.870000000000001
 30
0.0
 11
15.88
 21
9.870000000000001
 31
0.0
  0
LINE
  5
1BE
330
1A8
100
AcDbEntity
  8
CONTINUOUS
100
AcDbLine
 10
10.38
 20
9.620000000000001
 30
0.0
 11
15.88
 21
9.620000000000001
 31
0.0
  0
LINE
  5
1BF
330
1A8
100
AcDbEntity
  8
CONTINUOUS
100
AcDbLine
 10
10.38
 20
10.12
 30
0.0
 11
10.38
 21
9.072700000000001
 31
0.0
  0
LINE
  5
1C0
330
1A8
100
AcDbEntity
  8
CONTINUOUS
100
AcDbLine
 10
10.88
 20
9.620000000000001
 30
0.0
 11
10.88
 21
9.870000000000001
 31
0.0
  0
LINE
  5
1C1
330
1A8
100
AcDbEntity
  8
CONTINUOUS
100
AcDbLine
 10
11.26
 20
9.620000000000001
 30
0.0
 11
11.26
 21
9.870000000000001
 31
0.0
  0
LINE
  5
1C2
330
1A8
100
AcDbEntity
  8
CONTINUOUS
100
AcDbLine
 10
14.00000000000004
 20
9.620000000000001
 30
0.0
 11
14.00000000000004
 21
9.870000000000001
 31
0.0
  0
LINE
  5
1C3
330
1A8
100
AcDbEntity
  8
CONTINUOUS
100
AcDbLine
 10
14.88
 20
9.620000000000001
 30
0.0
 11
14.88
 21
9.870000000000001
 31
0.0
  0
LINE
  5
1C4
330
1A8
100
AcDbEntity
  8
CONTINUOUS
100
AcDbLine
 10
8.5
 20
0.6300000000000039
 30
0.0
 11
8.5
 21
0.730000000000004
 31
0.0
  0
LINE
  5
1C5
330
1A8
100
AcDbEntity
  8
CONTINUOUS
100
AcDbLine
 10
0.88
 20
5.499999999999999
 30
0.0
 11
0.98
 21
5.499999999999999
 31
0.0
  0
LINE
  5
1C6
330
1A8
100
AcDbEntity
  8
CONTINUOUS
100
AcDbLine
 10
8.5
 20
10.37
 30
0.0
 11
8.5
 21
10.27
 31
0.0
  0
LINE
  5
1C7
330
1A8
100
AcDbEntity
  8
CONTINUOUS
100
AcDbLine
 10
16.12000000000004
 20
5.499999999999999
 30
0.0
 11
16.02000000000004
 21
5.499999999999999
 31
0.0
  0
LINE
  5
1C8
330
1A8
100
AcDbEntity
  8
CONTINUOUS
100
AcDbLine
 10
11.63
 20
1.51
 30
0.0
 11
15.88
 21
1.51
 31
0.0
  0
LINE
  5
1C9
330
1A8
100
AcDbEntity
  8
CONTINUOUS
100
AcDbLine
 10
11.63
 20
0.88
 30
0.0
 11
11.63
 21
1.51
 31
0.0
  0
MTEXT
  5
1CA
330
1A8
100
AcDbEntity
  8
CONTINUOUS
100
AcDbMText
 10
14.33071751968504
 20
9.759476535433071
 30
0.0
 40
0.0603195287619427
 41
0.0
 46
0.0
 71
     4
 72
     1
  1
{\fArial|b0|i0|c0|p0;\C7;DATE}{\fArial|b0|i0|c0|p0;\C7;}
 73
     1
 44
1.0
  0
MTEXT
  5
1CB
330
1A8
100
AcDbEntity
  8
CONTINUOUS
100
AcDbMText
 10
13.20401751968504
 20
1.445076535433071
 30
0.0
 40
0.0603195287619427
 41
0.0
 46
0.0
 71
     4
 72
     1
  1
{\fArial|b0|i0|c0|p0;\C7;DWG NO.}{\fArial|b0|i0|c0|p0;\C7;}
 73
     1
 44
1.0
  0
MTEXT
  5
1CC
330
1A8
100
AcDbEntity
  8
CONTINUOUS
100
AcDbMText
 10
13.09321751968504
 20
10.00167653543307
 30
0.0
 40
0.0603195287619427
 41
0.0
 46
0.0
 71
     4
 72
     1
  1
{\fArial|b0|i0|c0|p0;\C7;REVISIONS}{\fArial|b0|i0|c0|p0;\C7;}
 73
     1
 44
1.0
  0
MTEXT
  5
1CD
330
1A8
100
AcDbEntity
  8
CONTINUOUS
100
AcDbMText
 10
14.95034578578677
 20
0.9999521510807559
 30
0.0
 40
0.0775536798367834
 41
0.0
 46
0.0
 71
     5
 72
     1
  1
{\fArial|b0|i0|c0|p0;\C7;1 OF 1}{\fArial|b0|i0|c0|p0;\C7;}
 73
     1
 44
1.0
  0
MTEXT
  5
1CE
330
1A8
100
AcDbEntity
  8
CONTINUOUS
100
AcDbMText
 10
11.72091751968504
 20
1.445076535433071
 30
0.0
 40
0.0603195287619427
 41
0.0
 46
0.0
 71
     4
 72
     1
  1
{\fArial|b0|i0|c0|p0;\C7;SIZE}{\fArial|b0|i0|c0|p0;\C7;}
 73
     1
 44
1.0
  0
MTEXT
  5
1CF
330
1A8
100
AcDbEntity
  8
CONTINUOUS
100
AcDbMText
 10
10.96311751968504
 20
9.759476535433071
 30
0.0
 40
0.0603195287619427
 41
0.0
 46
0.0
 71
     4
 72
     1
  1
{\fArial|b0|i0|c0|p0;\C7;REV}{\fArial|b0|i0|c0|p0;\C7;}
 73
     1
 44
1.0
  0
MTEXT
  5
1D0
330
1A8
100
AcDbEntity
  8
CONTINUOUS
100
AcDbMText
 10
0.4440925196850473
 20
0.590316535433067
 30
0.0
 40
0.180958586285828
 41
0.0
 46
0.0
 71
     4
 72
     1
  1
{\fArial|b0|i0|c0|p0;\C7;}
 73
     1
 44
1.0
  0
MTEXT
  5
1D1
330
1A8
100
AcDbEntity
  8
CONTINUOUS
100
AcDbMText
 10
15.58351751968504
 20
1.445076535433071
 30
0.0
 40
0.0603195287619427
 41
0.0
 46
0.0
 71
     4
 72
     1
  1
{\fArial|b0|i0|c0|p0;\C7;REV}{\fArial|b0|i0|c0|p0;\C7;}
 73
     1
 44
1.0
  0
MTEXT
  5
1D2
330
1A8
100
AcDbEntity
  8
CONTINUOUS
100
AcDbMText
 10
13.64436064161106
 20
1.267061987444705
 30
0.0
 40
0.0775536798367834
 41
0.0
 46
0.0
 71
     4
 72
     1
  1
{\fArial|b0|i0|c0|p0;\C7;Float Switch Bracket}{\fArial|b0|i0|c0|p0;\C7;}
 73
     1
 44
1.0
  0
MTEXT
  5
1D3
330
1A8
100
AcDbEntity
  8
CONTINUOUS
100
AcDbMText
 10
11.75956978554252
 20
1.284119165971858
 30
0.0
 40
0.1464902841361465
 41
0.0
 46
0.0
 71
     4
 72
     1
  1
{\fArial|b0|i0|c0|p0;\C7;B}{\fArial|b0|i0|c0|p0;\C7;}
 73
     1
 44
1.0
  0
MTEXT
  5
1D4
330
1A8
100
AcDbEntity
  8
CONTINUOUS
100
AcDbMText
 10
10.49171751968504
 20
9.759476535433071
 30
0.0
 40
0.0603195287619427
 41
0.0
 46
0.0
 71
     4
 72
     1
  1
{\fArial|b0|i0|c0|p0;\C7;ZONE}{\fArial|b0|i0|c0|p0;\C7;}
 73
     1
 44
1.0
  0
MTEXT
  5
1D5
330
1A8
100
AcDbEntity
  8
CONTINUOUS
100
AcDbMText
 10
15.12441751968504
 20
9.759476535433071
 30
0.0
 40
0.0603195287619427
 41
0.0
 46
0.0
 71
     4
 72
     1
  1
{\fArial|b0|i0|c0|p0;\C7;APPROVED}{\fArial|b0|i0|c0|p0;\C7;}
 73
     1
 44
1.0
  0
MTEXT
  5
1D6
330
1A8
100
AcDbEntity
  8
CONTINUOUS
100
AcDbMText
 10
14.17406705062744
 20
1.056925201730807
 30
0.0
 40
0.0603195287619427
 41
0.0
 46
0.0
 71
     4
 72
     1
  1
{\fArial|b0|i0|c0|p0;\C7;SHEET}{\fArial|b0|i0|c0|p0;\C7;}
 73
     1
 44
1.0
  0
MTEXT
  5
1D7
330
1A8
100
AcDbEntity
  8
CONTINUOUS
100
AcDbMText
 10
12.08191751968504
 20
1.445076535433071
 30
0.0
 40
0.0603195287619427
 41
0.0
 46
0.0
 71
     4
 72
     1
  1
{\fArial|b0|i0|c0|p0;\C7;FSCM NO.}{\fArial|b0|i0|c0|p0;\C7;}
 73
     1
 44
1.0
  0
MTEXT
  5
1D8
330
1A8
100
AcDbEntity
  8
CONTINUOUS
100
AcDbMText
 10
12.26501751968504
 20
9.759476535433071
 30
0.0
 40
0.0603195287619427
 41
0.0
 46
0.0
 71
     4
 72
     1
  1
{\fArial|b0|i0|c0|p0;\C7;DESCRIPTION}{\fArial|b0|i0|c0|p0;\C7;}
 73
     1
 44
1.0
  0
ENDBLK
  5
1AA
330
1A8
100
AcDbEntity
  8
0
100
AcDbBlockEnd
  0
ENDSEC
  0
SECTION
  2
ENTITIES
  0
LINE
  5
6F
330
1F
100
AcDbEntity
  8
VISIBLE
100
AcDbLine
 10
9.789210747546104
 20
3.884372733709371
 30
0.0
 11
5.789210747546103
 21
3.884372733709371
 31
0.0
  0
CIRCLE
  5
70
330
1F
100
AcDbEntity
  8
VISIBLE
100
AcDbCircle
 10
8.789210747546104
 20
4.884372733709371
 30
0.0
 40
0.1875
  0
LINE
  5
71
330
1F
100
AcDbEntity
  8
VISIBLE
100
AcDbLine
 10
9.789210747546104
 20
5.884372733709371
 30
0.0
 11
9.789210747546104
 21
3.884372733709371
 31
0.0
  0
LINE
  5
72
330
1F
100
AcDbEntity
  8
VISIBLE
100
AcDbLine
 10
5.789210747546103
 20
5.884372733709371
 30
0.0
 11
9.789210747546104
 21
5.884372733709371
 31
0.0
  0
LINE
  5
73
330
1F
100
AcDbEntity
  8
VISIBLE
100
AcDbLine
 10
5.789210747546103
 20
3.884372733709371
 30
0.0
 11
5.789210747546103
 21
5.884372733709371
 31
0.0
  0
CIRCLE
  5
74
330
1F
100
AcDbEntity
  8
VISIBLE
100
AcDbCircle
 10
6.789210747546103
 20
4.884372733709371
 30
0.0
 40
0.1875
  0
LINE
  5
77
330
1F
100
AcDbEntity
  8
HIDDEN
100
AcDbLine
 10
9.316210747546103
 20
5.134372733709371
 30
0.0
 11
9.512210747546103
 21
5.134372733709371
 31
0.0
  0
LINE
  5
78
330
1F
100
AcDbEntity
  8
HIDDEN
100
AcDbLine
 10
6.539210747546103
 20
4.259372733709371
 30
0.0
 11
6.539210747546103
 21
4.35737273370937
 31
0.0
  0
LINE
  5
79
330
1F
100
AcDbEntity
  8
HIDDEN
100
AcDbLine
 10
6.539210747546103
 20
4.161372733709371
 30
0.0
 11
6.539210747546103
 21
4.259372733709371
 31
0.0
  0
LINE
  5
7A
330
1F
100
AcDbEntity
  8
HIDDEN
100
AcDbLine
 10
5.789210747546103
 20
4.35737273370937
 30
0.0
 11
6.539210747546103
 21
4.35737273370937
 31
0.0
  0
LINE
  5
7B
330
1F
100
AcDbEntity
  8
HIDDEN
100
AcDbLine
 10
5.789210747546103
 20
4.161372733709371
 30
0.0
 11
6.539210747546103
 21
4.161372733709371
 31
0.0
  0
LINE
  5
7C
330
1F
100
AcDbEntity
  8
HIDDEN
100
AcDbLine
 10
9.512210747546103
 20
5.884372733709371
 30
0.0
 11
9.512210747546103
 21
5.134372733709371
 31
0.0
  0
LINE
  5
7D
330
1F
100
AcDbEntity
  8
HIDDEN
100
AcDbLine
 10
9.316210747546103
 20
5.884372733709371
 30
0.0
 11
9.316210747546103
 21
5.134372733709371
 31
0.0
  0
LINE
  5
7F
330
1F
100
AcDbEntity
  8
CENTER
100
AcDbLine
 10
6.149210747546103
 20
4.259372733709371
 30
0.0
 11
6.179210747546103
 21
4.259372733709371
 31
0.0
  0
LINE
  5
80
330
1F
100
AcDbEntity
  8
CENTER
100
AcDbLine
 10
6.119210747546103
 20
4.259372733709371
 30
0.0
 11
5.922360353845315
 21
4.259372733709371
 31
0.0
  0
LINE
  5
81
330
1F
100
AcDbEntity
  8
CENTER
100
AcDbLine
 10
6.209210747546103
 20
4.259372733709371
 30
0.0
 11
6.406061141246891
 21
4.259372733709371
 31
0.0
  0
LINE
  5
82
330
1F
100
AcDbEntity
  8
CENTER
100
AcDbLine
 10
5.892360353845316
 20
4.259372733709371
 30
0.0
 11
5.862360353845316
 21
4.259372733709371
 31
0.0
  0
LINE
  5
83
330
1F
100
AcDbEntity
  8
CENTER
100
AcDbLine
 10
6.43606114124689
 20
4.259372733709371
 30
0.0
 11
6.46606114124689
 21
4.259372733709371
 31
0.0
  0
LINE
  5
84
330
1F
100
AcDbEntity
  8
CENTER
100
AcDbLine
 10
5.832360353845315
 20
4.259372733709371
 30
0.0
 11
5.729210747546103
 21
4.259372733709371
 31
0.0
  0
LINE
  5
85
330
1F
100
AcDbEntity
  8
CENTER
100
AcDbLine
 10
6.496061141246891
 20
4.259372733709371
 30
0.0
 11
6.599210747546103
 21
4.259372733709371
 31
0.0
  0
LINE
  5
86
330
1F
100
AcDbEntity
  8
CENTER
100
AcDbLine
 10
9.414210747546104
 20
5.494372733709371
 30
0.0
 11
9.414210747546104
 21
5.52437273370937
 31
0.0
  0
LINE
  5
87
330
1F
100
AcDbEntity
  8
CENTER
100
AcDbLine
 10
9.414210747546104
 20
5.464372733709371
 30
0.0
 11
9.414210747546104
 21
5.267522340008584
 31
0.0
  0
LINE
  5
88
330
1F
100
AcDbEntity
  8
CENTER
100
AcDbLine
 10
9.414210747546104
 20
5.55437273370937
 30
0.0
 11
9.414210747546104
 21
5.751223127410158
 31
0.0
  0
LINE
  5
89
330
1F
100
AcDbEntity
  8
CENTER
100
AcDbLine
 10
9.414210747546104
 20
5.237522340008583
 30
0.0
 11
9.414210747546104
 21
5.207522340008583
 31
0.0
  0
LINE
  5
8A
330
1F
100
AcDbEntity
  8
CENTER
100
AcDbLine
 10
9.414210747546104
 20
5.781223127410158
 30
0.0
 11
9.414210747546104
 21
5.811223127410158
 31
0.0
  0
LINE
  5
8B
330
1F
100
AcDbEntity
  8
CENTER
100
AcDbLine
 10
9.414210747546104
 20
5.177522340008583
 30
0.0
 11
9.414210747546104
 21
5.074372733709371
 31
0.0
  0
LINE
  5
8C
330
1F
100
AcDbEntity
  8
CENTER
100
AcDbLine
 10
9.414210747546104
 20
5.841223127410158
 30
0.0
 11
9.414210747546104
 21
5.94437273370937
 31
0.0
  0
DIMENSION
  5
8E
330
1F
100
AcDbEntity
  8
DIMENSIONS
100
AcDbDimension
280
     0
  2
D1
 10
5.789210747546103
 20
3.884372733709371
 30
0.0
 11
13.57842149509221
 21
8.219649363690454
 31
0.0
 70
    38
  1
<>
 71
     5
 42
-1.0
 73
     0
 74
     0
 75
     0
 53
90.0
  3
Standard
100
AcDbOrdinateDimension
 13
5.789210747546103
 23
3.884372733709371
 33
0.0
 14
13.57842149509221
 24
8.219649363690454
 34
0.0
1001
ACAD
1000
DSTYLE
1002
{
1070
    76
1070
     0
1070
    75
1070
     0
1070
   282
1070
     0
1070
   281
1070
     0
1070
    77
1070
     0
1070
    79
1070
     0
1070
    78
1070
     0
1070
   272
1070
     3
1070
   271
1070
     3
1070
   179
1070
     3
1070
   140
1040
0.0984076433121019
1070
    71
1070
     0
1070
    72
1070
     0
1070
    48
1040
0.0
1070
    47
1040
0.0
1002
}
  0
DIMENSION
  5
9A
330
1F
100
AcDbEntity
  8
DIMENSIONS
100
AcDbDimension
280
     0
  2
D2
 10
5.789210747546103
 20
3.884372733709371
 30
0.0
 11
14.5784214950922
 21
8.191871590501659
 31
0.0
 70
    38
  1
<>
 71
     5
 42
-1.0
 73
     0
 74
     0
 75
     0
 53
90.0
  3
Standard
100
AcDbOrdinateDimension
 13
6.789210747546103
 23
4.884372733709371
 33
0.0
 14
14.5784214950922
 24
8.191871590501659
 34
0.0
1001
ACAD
1000
DSTYLE
1002
{
1070
    76
1070
     0
1070
    75
1070
     0
1070
   282
1070
     0
1070
   281
1070
     0
1070
    77
1070
     0
1070
    79
1070
     0
1070
    78
1070
     0
1070
   272
1070
     3
1070
   271
1070
     3
1070
   179
1070
     3
1070
   140
1040
0.0984076433121019
1070
    71
1070
     0
1070
    72
1070
     0
1070
    48
1040
0.0
1070
    47
1040
0.0
1002
}
  0
DIMENSION
  5
A6
330
1F
100
AcDbEntity
  8
DIMENSIONS
100
AcDbDimension
280
     0
  2
D3
 10
5.789210747546103
 20
3.884372733709371
 30
0.0
 11
16.5784214950922
 21
8.191871585808382
 31
0.0
 70
    38
  1
<>
 71
     5
 42
-1.0
 73
     0
 74
     0
 75
     0
 53
90.0
  3
Standard
100
AcDbOrdinateDimension
 13
8.789210747546104
 23
4.884372733709371
 33
0.0
 14
16.5784214950922
 24
8.191871585808382
 34
0.0
1001
ACAD
1000
DSTYLE
1002
{
1070
    76
1070
     0
1070
    75
1070
     0
1070
   282
1070
     0
1070
   281
1070
     0
1070
    77
1070
     0
1070
    79
1070
     0
1070
    78
1070
     0
1070
   272
1070
     3
1070
   271
1070
     3
1070
   179
1070
     3
1070
   140
1040
0.0984076433121019
1070
    71
1070
     0
1070
    72
1070
     0
1070
    48
1040
0.0
1070
    47
1040
0.0
1002
}
  0
DIMENSION
  5
B2
330
1F
100
AcDbEntity
  8
DIMENSIONS
100
AcDbDimension
280
     0
  2
D4
 10
5.789210747546103
 20
3.884372733709371
 30
0.0
 11
17.20342149509221
 21
8.191871591674982
 31
0.0
 70
    38
  1
<>
 71
     5
 42
-1.0
 73
     0
 74
     0
 75
     0
 53
90.0
  3
Standard
100
AcDbOrdinateDimension
 13
9.414210747546104
 23
5.074372733709371
 33
0.0
 14
17.20342149509221
 24
8.191871591674982
 34
0.0
1001
ACAD
1000
DSTYLE
1002
{
1070
    76
1070
     0
1070
    75
1070
     0
1070
   282
1070
     0
1070
   281
1070
     0
1070
    77
1070
     0
1070
    79
1070
     0
1070
    78
1070
     0
1070
   272
1070
     3
1070
   271
1070
     3
1070
   179
1070
     3
1070
   140
1040
0.0984076433121019
1070
    71
1070
     0
1070
    72
1070
     0
1070
    48
1040
0.0
1070
    47
1040
0.0
1002
}
  0
DIMENSION
  5
BE
330
1F
100
AcDbEntity
  8
DIMENSIONS
100
AcDbDimension
280
     0
  2
D5
 10
5.789210747546103
 20
3.884372733709371
 30
0.0
 11
17.57842149509221
 21
8.19187158522172
 31
0.0
 70
    38
  1
<>
 71
     5
 42
-1.0
 73
     0
 74
     0
 75
     0
 53
90.0
  3
Standard
100
AcDbOrdinateDimension
 13
9.789210747546104
 23
3.884372733709371
 33
0.0
 14
17.57842149509221
 24
8.19187158522172
 34
0.0
1001
ACAD
1000
DSTYLE
1002
{
1070
    76
1070
     0
1070
    75
1070
     0
1070
   282
1070
     0
1070
   281
1070
     0
1070
    77
1070
     0
1070
    79
1070
     0
1070
    78
1070
     0
1070
   272
1070
     3
1070
   271
1070
     3
1070
   179
1070
     3
1070
   140
1040
0.0984076433121019
1070
    71
1070
     0
1070
    72
1070
     0
1070
    48
1040
0.0
1070
    47
1040
0.0
1002
}
  0
DIMENSION
  5
CA
330
1F
100
AcDbEntity
  8
DIMENSIONS
100
AcDbDimension
280
     0
  2
D6
 10
5.789210747546103
 20
3.884372733709371
 30
0.0
 11
13.06477577104344
 21
8.768745467418741
 31
0.0
 70
    38
  1
<>
 71
     5
 42
-1.0
 73
     0
 74
     0
 75
     0
 53
360.0
  3
Standard
100
AcDbOrdinateDimension
 13
5.789210747546103
 23
3.884372733709371
 33
0.0
 14
13.06477577104344
 24
8.768745467418741
 34
0.0
1001
ACAD
1000
DSTYLE
1002
{
1070
    76
1070
     0
1070
    75
1070
     0
1070
   282
1070
     0
1070
   281
1070
     0
1070
    77
1070
     0
1070
    79
1070
     0
1070
    78
1070
     0
1070
   272
1070
     3
1070
   271
1070
     3
1070
   179
1070
     3
1070
   140
1040
0.0984076433121019
1070
    71
1070
     0
1070
    72
1070
     0
1070
    48
1040
0.0
1070
    47
1040
0.0
1002
}
  0
DIMENSION
  5
D6
330
1F
100
AcDbEntity
  8
DIMENSIONS
100
AcDbDimension
280
     0
  2
D7
 10
5.789210747546103
 20
3.884372733709371
 30
0.0
 11
13.06477577104344
 21
9.143745467418741
 31
0.0
 70
    38
  1
<>
 71
     5
 42
-1.0
 73
     0
 74
     0
 75
     0
 53
360.0
  3
Standard
100
AcDbOrdinateDimension
 13
6.599210747546103
 23
4.259372733709371
 33
0.0
 14
13.06477577104344
 24
9.143745467418741
 34
0.0
1001
ACAD
1000
DSTYLE
1002
{
1070
    76
1070
     0
1070
    75
1070
     0
1070
   282
1070
     0
1070
   281
1070
     0
1070
    77
1070
     0
1070
    79
1070
     0
1070
    78
1070
     0
1070
   272
1070
     3
1070
   271
1070
     3
1070
   179
1070
     3
1070
   140
1040
0.0984076433121019
1070
    71
1070
     0
1070
    72
1070
     0
1070
    48
1040
0.0
1070
    47
1040
0.0
1002
}
  0
DIMENSION
  5
E2
330
1F
100
AcDbEntity
  8
DIMENSIONS
100
AcDbDimension
280
     0
  2
D8
 10
5.789210747546103
 20
3.884372733709371
 30
0.0
 11
13.03699799785465
 21
9.768745467418741
 31
0.0
 70
    38
  1
<>
 71
     5
 42
-1.0
 73
     0
 74
     0
 75
     0
 53
360.0
  3
Standard
100
AcDbOrdinateDimension
 13
6.789210747546103
 23
4.884372733709371
 33
0.0
 14
13.03699799785465
 24
9.768745467418741
 34
0.0
1001
ACAD
1000
DSTYLE
1002
{
1070
    76
1070
     0
1070
    75
1070
     0
1070
   282
1070
     0
1070
   281
1070
     0
1070
    77
1070
     0
1070
    79
1070
     0
1070
    78
1070
     0
1070
   272
1070
     3
1070
   271
1070
     3
1070
   179
1070
     3
1070
   140
1040
0.0984076433121019
1070
    71
1070
     0
1070
    72
1070
     0
1070
    48
1040
0.0
1070
    47
1040
0.0
1002
}
  0
DIMENSION
  5
EE
330
1F
100
AcDbEntity
  8
DIMENSIONS
100
AcDbDimension
280
     0
  2
D9
 10
5.789210747546103
 20
3.884372733709371
 30
0.0
 11
13.03699799785465
 21
10.76874546741874
 31
0.0
 70
    38
  1
<>
 71
     5
 42
-1.0
 73
     0
 74
     0
 75
     0
 53
360.0
  3
Standard
100
AcDbOrdinateDimension
 13
5.789210747546103
 23
5.884372733709371
 33
0.0
 14
13.03699799785465
 24
10.76874546741874
 34
0.0
1001
ACAD
1000
DSTYLE
1002
{
1070
    76
1070
     0
1070
    75
1070
     0
1070
   282
1070
     0
1070
   281
1070
     0
1070
    77
1070
     0
1070
    79
1070
     0
1070
    78
1070
     0
1070
   272
1070
     3
1070
   271
1070
     3
1070
   179
1070
     3
1070
   140
1040
0.0984076433121019
1070
    71
1070
     0
1070
    72
1070
     0
1070
    48
1040
0.0
1070
    47
1040
0.0
1002
}
  0
MTEXT
  5
FB
330
1F
100
AcDbEntity
  8
CONTINUOUS
100
AcDbMText
 10
6.459205206923583
 20
6.290084592449111
 30
0.0
 40
0.0775536798367834
 41
0.0
 46
0.0
 71
     1
 72
     1
  1
{\fArial|b0|i0|c0|p0;\C7;2x 1/8 NPT }{\fAlibre Symbols|b0|i0|c0|p0;\C7;x}{\fArial|b0|i0|c0|p0;\C7; THRU}{\fArial|b0|i0|c0|p0;\C7;}
 73
     1
 44
1.0
  0
LINE
  5
FC
330
1F
100
AcDbEntity
  8
CONTINUOUS
100
AcDbLine
 10
7.737584472015472
 20
6.200312403347638
 30
0.0
 11
7.550084472015472
 21
6.200312403347638
 31
0.0
  0
LINE
  5
FD
330
1F
100
AcDbEntity
  8
CONTINUOUS
100
AcDbLine
 10
8.64076185152012
 20
5.117533263698111
 30
0.0
 11
8.64076185152012
 21
5.117533263698111
 31
0.0
  0
LINE
  5
FE
330
1F
100
AcDbEntity
  8
CONTINUOUS
100
AcDbLine
 10
8.64076185152012
 20
5.117533263698111
 30
0.0
 11
7.737584472015472
 21
6.200312403347638
 31
0.0
  0
LWPOLYLINE
  5
FF
330
1F
100
AcDbEntity
  8
CONTINUOUS
100
AcDbPolyline
 90
        4
 70
     0
 43
0.0
 10
8.69841089091087
 20
5.048420397621494
 10
8.629243040507355
 20
5.107925090466318
 10
8.652280662532892
 20
5.127141436929901
 10
8.69841089091087
 20
5.048420397621494
  0
HATCH
  5
100
330
1F
100
AcDbEntity
  8
0
 62
     7
100
AcDbHatch
 10
0.0
 20
0.0
 30
0.0
210
0.0
220
0.0
230
1.0
  2
SOLID
 70
     1
 71
     0
 91
        1
 92
        0
 93
        3
 72
     1
 10
8.652280662532892
 20
5.127141436929901
 11
8.69841089091087
 21
5.048420397621494
 72
     1
 10
8.69841089091087
 20
5.048420397621494
 11
8.629243040507355
 21
5.107925090466318
 72
     1
 10
8.629243040507355
 20
5.107925090466318
 11
8.652280662532892
 21
5.127141436929901
 97
        0
 75
     0
 76
     1
 98
        0
  0
LINE
  5
101
330
1F
100
AcDbEntity
  8
VISIBLE
100
AcDbLine
 10
5.789210747546103
 20
8.130619972709606
 30
0.0
 11
5.789210747546103
 21
7.380619972709606
 31
0.0
  0
LINE
  5
102
330
1F
100
AcDbEntity
  8
VISIBLE
100
AcDbLine
 10
5.789210747546103
 20
7.380619972709606
 30
0.0
 11
9.789210747546104
 21
7.380619972709606
 31
0.0
  0
LINE
  5
103
330
1F
100
AcDbEntity
  8
VISIBLE
100
AcDbLine
 10
9.789210747546104
 20
8.130619972709606
 30
0.0
 11
5.789210747546103
 21
8.130619972709606
 31
0.0
  0
LINE
  5
104
330
1F
100
AcDbEntity
  8
VISIBLE
100
AcDbLine
 10
9.789210747546104
 20
8.130619972709606
 30
0.0
 11
9.789210747546104
 21
7.380619972709606
 31
0.0
  0
CIRCLE
  5
105
330
1F
100
AcDbEntity
  8
VISIBLE
100
AcDbCircle
 10
9.414210747546104
 20
7.755619972709606
 30
0.0
 40
0.097999999999999
  0
LINE
  5
106
330
1F
100
AcDbEntity
  8
HIDDEN
100
AcDbLine
 10
6.539210747546103
 20
7.657619972709607
 30
0.0
 11
6.539210747546103
 21
7.853619972709606
 31
0.0
  0
LINE
  5
107
330
1F
100
AcDbEntity
  8
HIDDEN
100
AcDbLine
 10
6.976710747546103
 20
7.380619972709606
 30
0.0
 11
6.976710747546103
 21
8.130619972709606
 31
0.0
  0
LINE
  5
108
330
1F
100
AcDbEntity
  8
HIDDEN
100
AcDbLine
 10
6.601710747546103
 20
7.380619972709606
 30
0.0
 11
6.601710747546103
 21
8.130619972709606
 31
0.0
  0
LINE
  5
109
330
1F
100
AcDbEntity
  8
HIDDEN
100
AcDbLine
 10
8.976710747546104
 20
7.380619972709606
 30
0.0
 11
8.976710747546104
 21
8.130619972709606
 31
0.0
  0
LINE
  5
10A
330
1F
100
AcDbEntity
  8
HIDDEN
100
AcDbLine
 10
5.789210747546103
 20
7.657619972709607
 30
0.0
 11
6.539210747546103
 21
7.657619972709607
 31
0.0
  0
LINE
  5
10B
330
1F
100
AcDbEntity
  8
HIDDEN
100
AcDbLine
 10
8.601710747546104
 20
7.380619972709606
 30
0.0
 11
8.601710747546104
 21
8.130619972709606
 31
0.0
  0
LINE
  5
10C
330
1F
100
AcDbEntity
  8
HIDDEN
100
AcDbLine
 10
5.789210747546103
 20
7.853619972709606
 30
0.0
 11
6.539210747546103
 21
7.853619972709606
 31
0.0
  0
LINE
  5
10D
330
1F
100
AcDbEntity
  8
CENTER
100
AcDbLine
 10
6.149210747546103
 20
7.755619972709606
 30
0.0
 11
6.179210747546103
 21
7.755619972709606
 31
0.0
  0
LINE
  5
10E
330
1F
100
AcDbEntity
  8
CENTER
100
AcDbLine
 10
6.119210747546103
 20
7.755619972709606
 30
0.0
 11
5.922360353845315
 21
7.755619972709606
 31
0.0
  0
LINE
  5
10F
330
1F
100
AcDbEntity
  8
CENTER
100
AcDbLine
 10
6.209210747546103
 20
7.755619972709606
 30
0.0
 11
6.406061141246891
 21
7.755619972709606
 31
0.0
  0
LINE
  5
110
330
1F
100
AcDbEntity
  8
CENTER
100
AcDbLine
 10
5.892360353845316
 20
7.755619972709606
 30
0.0
 11
5.862360353845316
 21
7.755619972709606
 31
0.0
  0
LINE
  5
111
330
1F
100
AcDbEntity
  8
CENTER
100
AcDbLine
 10
6.43606114124689
 20
7.755619972709606
 30
0.0
 11
6.46606114124689
 21
7.755619972709606
 31
0.0
  0
LINE
  5
112
330
1F
100
AcDbEntity
  8
CENTER
100
AcDbLine
 10
5.832360353845315
 20
7.755619972709606
 30
0.0
 11
5.729210747546103
 21
7.755619972709606
 31
0.0
  0
LINE
  5
113
330
1F
100
AcDbEntity
  8
CENTER
100
AcDbLine
 10
6.496061141246891
 20
7.755619972709606
 30
0.0
 11
6.599210747546103
 21
7.755619972709606
 31
0.0
  0
LINE
  5
114
330
1F
100
AcDbEntity
  8
CENTER
100
AcDbLine
 10
6.789210747546103
 20
7.740619972709607
 30
0.0
 11
6.789210747546103
 21
7.770619972709606
 31
0.0
  0
LINE
  5
115
330
1F
100
AcDbEntity
  8
CENTER
100
AcDbLine
 10
6.789210747546103
 20
7.710619972709607
 30
0.0
 11
6.789210747546103
 21
7.513769579008819
 31
0.0
  0
LINE
  5
116
330
1F
100
AcDbEntity
  8
CENTER
100
AcDbLine
 10
6.789210747546103
 20
7.800619972709606
 30
0.0
 11
6.789210747546103
 21
7.997470366410394
 31
0.0
  0
LINE
  5
117
330
1F
100
AcDbEntity
  8
CENTER
100
AcDbLine
 10
6.789210747546103
 20
7.483769579008819
 30
0.0
 11
6.789210747546103
 21
7.453769579008819
 31
0.0
  0
LINE
  5
118
330
1F
100
AcDbEntity
  8
CENTER
100
AcDbLine
 10
6.789210747546103
 20
8.027470366410395
 30
0.0
 11
6.789210747546103
 21
8.057470366410394
 31
0.0
  0
LINE
  5
119
330
1F
100
AcDbEntity
  8
CENTER
100
AcDbLine
 10
6.789210747546103
 20
7.423769579008819
 30
0.0
 11
6.789210747546103
 21
7.320619972709606
 31
0.0
  0
LINE
  5
11A
330
1F
100
AcDbEntity
  8
CENTER
100
AcDbLine
 10
6.789210747546103
 20
8.087470366410393
 30
0.0
 11
6.789210747546103
 21
8.190619972709607
 31
0.0
  0
LINE
  5
11B
330
1F
100
AcDbEntity
  8
CENTER
100
AcDbLine
 10
8.789210747546104
 20
7.740619972709607
 30
0.0
 11
8.789210747546104
 21
7.770619972709606
 31
0.0
  0
LINE
  5
11C
330
1F
100
AcDbEntity
  8
CENTER
100
AcDbLine
 10
8.789210747546104
 20
7.710619972709607
 30
0.0
 11
8.789210747546104
 21
7.513769579008819
 31
0.0
  0
LINE
  5
11D
330
1F
100
AcDbEntity
  8
CENTER
100
AcDbLine
 10
8.789210747546104
 20
7.800619972709606
 30
0.0
 11
8.789210747546104
 21
7.997470366410394
 31
0.0
  0
LINE
  5
11E
330
1F
100
AcDbEntity
  8
CENTER
100
AcDbLine
 10
8.789210747546104
 20
7.483769579008819
 30
0.0
 11
8.789210747546104
 21
7.453769579008819
 31
0.0
  0
LINE
  5
11F
330
1F
100
AcDbEntity
  8
CENTER
100
AcDbLine
 10
8.789210747546104
 20
8.027470366410395
 30
0.0
 11
8.789210747546104
 21
8.057470366410394
 31
0.0
  0
LINE
  5
120
330
1F
100
AcDbEntity
  8
CENTER
100
AcDbLine
 10
8.789210747546104
 20
7.423769579008819
 30
0.0
 11
8.789210747546104
 21
7.320619972709606
 31
0.0
  0
LINE
  5
121
330
1F
100
AcDbEntity
  8
CENTER
100
AcDbLine
 10
8.789210747546104
 20
8.087470366410393
 30
0.0
 11
8.789210747546104
 21
8.190619972709607
 31
0.0
  0
DIMENSION
  5
122
330
1F
100
AcDbEntity
  8
DIMENSIONS
100
AcDbDimension
280
     0
  2
D10
 10
5.789210747546103
 20
7.380619972709606
 30
0.0
 11
13.57842149509221
 21
15.00923733072959
 31
0.0
 70
    38
  1
<>
 71
     5
 42
-1.0
 73
     0
 74
     0
 75
     0
 53
90.0
  3
Standard
100
AcDbOrdinateDimension
 13
5.789210747546103
 23
7.380619972709606
 33
0.0
 14
13.57842149509221
 24
15.00923733072959
 34
0.0
1001
ACAD
1000
DSTYLE
1002
{
1070
    76
1070
     0
1070
    75
1070
     0
1070
   282
1070
     0
1070
   281
1070
     0
1070
    77
1070
     0
1070
    79
1070
     0
1070
    78
1070
     0
1070
   272
1070
     3
1070
   271
1070
     3
1070
   179
1070
     3
1070
   140
1040
0.0984076433121019
1070
    71
1070
     0
1070
    72
1070
     0
1070
    48
1040
0.0
1070
    47
1040
0.0
1002
}
  0
DIMENSION
  5
12E
330
1F
100
AcDbEntity
  8
DIMENSIONS
100
AcDbDimension
280
     0
  2
D11
 10
5.789210747546103
 20
7.380619972709606
 30
0.0
 11
14.57842149509221
 21
14.98145955754079
 31
0.0
 70
    38
  1
<>
 71
     5
 42
-1.0
 73
     0
 74
     0
 75
     0
 53
90.0
  3
Standard
100
AcDbOrdinateDimension
 13
6.789210747546103
 23
7.320619972709606
 33
0.0
 14
14.57842149509221
 24
14.98145955754079
 34
0.0
1001
ACAD
1000
DSTYLE
1002
{
1070
    76
1070
     0
1070
    75
1070
     0
1070
   282
1070
     0
1070
   281
1070
     0
1070
    77
1070
     0
1070
    79
1070
     0
1070
    78
1070
     0
1070
   272
1070
     3
1070
   271
1070
     3
1070
   179
1070
     3
1070
   140
1040
0.0984076433121019
1070
    71
1070
     0
1070
    72
1070
     0
1070
    48
1040
0.0
1070
    47
1040
0.0
1002
}
  0
DIMENSION
  5
13A
330
1F
100
AcDbEntity
  8
DIMENSIONS
100
AcDbDimension
280
     0
  2
D12
 10
5.789210747546103
 20
7.380619972709606
 30
0.0
 11
16.57842149509221
 21
14.98145955284752
 31
0.0
 70
    38
  1
<>
 71
     5
 42
-1.0
 73
     0
 74
     0
 75
     0
 53
90.0
  3
Standard
100
AcDbOrdinateDimension
 13
8.789210747546104
 23
7.320619972709606
 33
0.0
 14
16.57842149509221
 24
14.98145955284752
 34
0.0
1001
ACAD
1000
DSTYLE
1002
{
1070
    76
1070
     0
1070
    75
1070
     0
1070
   282
1070
     0
1070
   281
1070
     0
1070
    77
1070
     0
1070
    79
1070
     0
1070
    78
1070
     0
1070
   272
1070
     3
1070
   271
1070
     3
1070
   179
1070
     3
1070
   140
1040
0.0984076433121019
1070
    71
1070
     0
1070
    72
1070
     0
1070
    48
1040
0.0
1070
    47
1040
0.0
1002
}
  0
DIMENSION
  5
146
330
1F
100
AcDbEntity
  8
DIMENSIONS
100
AcDbDimension
280
     0
  2
D13
 10
5.789210747546103
 20
7.380619972709606
 30
0.0
 11
17.20342149509221
 21
14.98145955871411
 31
0.0
 70
    38
  1
<>
 71
     5
 42
-1.0
 73
     0
 74
     0
 75
     0
 53
90.0
  3
Standard
100
AcDbOrdinateDimension
 13
9.414210747546104
 23
7.755619972709606
 33
0.0
 14
17.20342149509221
 24
14.98145955871411
 34
0.0
1001
ACAD
1000
DSTYLE
1002
{
1070
    76
1070
     0
1070
    75
1070
     0
1070
   282
1070
     0
1070
   281
1070
     0
1070
    77
1070
     0
1070
    79
1070
     0
1070
    78
1070
     0
1070
   272
1070
     3
1070
   271
1070
     3
1070
   179
1070
     3
1070
   140
1040
0.0984076433121019
1070
    71
1070
     0
1070
    72
1070
     0
1070
    48
1040
0.0
1070
    47
1040
0.0
1002
}
  0
DIMENSION
  5
152
330
1F
100
AcDbEntity
  8
DIMENSIONS
100
AcDbDimension
280
     0
  2
D14
 10
5.789210747546103
 20
7.380619972709606
 30
0.0
 11
17.57842149509221
 21
14.98145955226085
 31
0.0
 70
    38
  1
<>
 71
     5
 42
-1.0
 73
     0
 74
     0
 75
     0
 53
90.0
  3
Standard
100
AcDbOrdinateDimension
 13
9.789210747546104
 23
7.380619972709606
 33
0.0
 14
17.57842149509221
 24
14.98145955226085
 34
0.0
1001
ACAD
1000
DSTYLE
1002
{
1070
    76
1070
     0
1070
    75
1070
     0
1070
   282
1070
     0
1070
   281
1070
     0
1070
    77
1070
     0
1070
    79
1070
     0
1070
    78
1070
     0
1070
   272
1070
     3
1070
   271
1070
     3
1070
   179
1070
     3
1070
   140
1040
0.0984076433121019
1070
    71
1070
     0
1070
    72
1070
     0
1070
    48
1040
0.0
1070
    47
1040
0.0
1002
}
  0
DIMENSION
  5
15E
330
1F
100
AcDbEntity
  8
DIMENSIONS
100
AcDbDimension
280
     0
  2
D15
 10
5.789210747546103
 20
7.380619972709606
 30
0.0
 11
13.08678447167705
 21
15.51123994541921
 31
0.0
 70
    38
  1
<>
 71
     5
 42
-1.0
 73
     0
 74
     0
 75
     0
 53
360.0
  3
Standard
100
AcDbOrdinateDimension
 13
5.789210747546103
 23
7.380619972709606
 33
0.0
 14
13.08678447167705
 24
15.51123994541921
 34
0.0
1001
ACAD
1000
DSTYLE
1002
{
1070
    76
1070
     0
1070
    75
1070
     0
1070
   282
1070
     0
1070
   281
1070
     0
1070
    77
1070
     0
1070
    79
1070
     0
1070
    78
1070
     0
1070
   272
1070
     3
1070
   271
1070
     3
1070
   179
1070
     3
1070
   140
1040
0.0984076433121019
1070
    71
1070
     0
1070
    72
1070
     0
1070
    48
1040
0.0
1070
    47
1040
0.0
1002
}
  0
DIMENSION
  5
16A
330
1F
100
AcDbEntity
  8
DIMENSIONS
100
AcDbDimension
280
     0
  2
D16
 10
5.789210747546103
 20
7.380619972709606
 30
0.0
 11
13.08678447167705
 21
15.88623994541921
 31
0.0
 70
    38
  1
<>
 71
     5
 42
-1.0
 73
     0
 74
     0
 75
     0
 53
360.0
  3
Standard
100
AcDbOrdinateDimension
 13
6.599210747546103
 23
7.755619972709606
 33
0.0
 14
13.08678447167705
 24
15.88623994541921
 34
0.0
1001
ACAD
1000
DSTYLE
1002
{
1070
    76
1070
     0
1070
    75
1070
     0
1070
   282
1070
     0
1070
   281
1070
     0
1070
    77
1070
     0
1070
    79
1070
     0
1070
    78
1070
     0
1070
   272
1070
     3
1070
   271
1070
     3
1070
   179
1070
     3
1070
   140
1040
0.0984076433121019
1070
    71
1070
     0
1070
    72
1070
     0
1070
    48
1040
0.0
1070
    47
1040
0.0
1002
}
  0
DIMENSION
  5
176
330
1F
100
AcDbEntity
  8
DIMENSIONS
100
AcDbDimension
280
     0
  2
D17
 10
5.789210747546103
 20
7.380619972709606
 30
0.0
 11
13.08678447167705
 21
16.26123994541921
 31
0.0
 70
    38
  1
<>
 71
     5
 42
-1.0
 73
     0
 74
     0
 75
     0
 53
360.0
  3
Standard
100
AcDbOrdinateDimension
 13
5.789210747546103
 23
8.130619972709606
 33
0.0
 14
13.08678447167705
 24
16.26123994541921
 34
0.0
1001
ACAD
1000
DSTYLE
1002
{
1070
    76
1070
     0
1070
    75
1070
     0
1070
   282
1070
     0
1070
   281
1070
     0
1070
    77
1070
     0
1070
    79
1070
     0
1070
    78
1070
     0
1070
   272
1070
     3
1070
   271
1070
     3
1070
   179
1070
     3
1070
   140
1040
0.0984076433121019
1070
    71
1070
     0
1070
    72
1070
     0
1070
    48
1040
0.0
1070
    47
1040
0.0
1002
}
  0
MTEXT
  5
182
330
1F
100
AcDbEntity
  8
CONTINUOUS
100
AcDbMText
 10
10.44203129163634
 20
7.545350662476811
 30
0.0
 40
0.0775536798367834
 41
0.0
 46
0.0
 71
     4
 72
     1
  1
{\fArial|b0|i0|c0|p0;\C7;1/4-20 UNC }{\fAlibre Symbols|b0|i0|c0|p0;\C7;x}{\fArial|b0|i0|c0|p0;\C7; .750}{\fArial|b0|i0|c0|p0;\C7;}
 73
     1
 44
1.0
  0
LINE
  5
183
330
1F
100
AcDbEntity
  8
CONTINUOUS
100
AcDbLine
 10
10.20531869321114
 20
7.54535066247681
 30
0.0
 11
10.39281869321114
 21
7.54535066247681
 31
0.0
  0
LINE
  5
184
330
1F
100
AcDbEntity
  8
CONTINUOUS
100
AcDbLine
 10
9.595902469283711
 20
7.707327962479985
 30
0.0
 11
9.595902469283711
 21
7.707327962479985
 31
0.0
  0
LINE
  5
185
330
1F
100
AcDbEntity
  8
CONTINUOUS
100
AcDbLine
 10
9.595902469283711
 20
7.707327962479985
 30
0.0
 11
10.20531869321114
 21
7.54535066247681
 31
0.0
  0
LWPOLYLINE
  5
186
330
1F
100
AcDbEntity
  8
CONTINUOUS
100
AcDbPolyline
 90
        4
 70
     0
 43
0.0
 10
9.508922389728463
 20
7.730446478015434
 10
9.599755555206288
 20
7.72182464240586
 10
9.592049383361141
 20
7.692831282554112
 10
9.508922389728463
 20
7.730446478015434
  0
HATCH
  5
187
330
1F
100
AcDbEntity
  8
0
 62
     7
100
AcDbHatch
 10
0.0
 20
0.0
 30
0.0
210
0.0
220
0.0
230
1.0
  2
SOLID
 70
     1
 71
     0
 91
        1
 92
        0
 93
        3
 72
     1
 10
9.592049383361141
 20
7.692831282554112
 11
9.508922389728463
 21
7.730446478015434
 72
     1
 10
9.508922389728463
 20
7.730446478015434
 11
9.599755555206288
 21
7.72182464240586
 72
     1
 10
9.599755555206288
 20
7.72182464240586
 11
9.592049383361141
 21
7.692831282554112
 97
        0
 75
     0
 76
     1
 98
        0
  0
LINE
  5
188
330
1F
100
AcDbEntity
  8
VISIBLE
100
AcDbLine
 10
12.20040090065303
 20
3.884372733709371
 30
0.0
 11
11.45040090065303
 21
3.884372733709371
 31
0.0
  0
LINE
  5
189
330
1F
100
AcDbEntity
  8
VISIBLE
100
AcDbLine
 10
12.20040090065303
 20
3.884372733709371
 30
0.0
 11
12.20040090065303
 21
5.884372733709371
 31
0.0
  0
LINE
  5
18A
330
1F
100
AcDbEntity
  8
VISIBLE
100
AcDbLine
 10
11.45040090065303
 20
5.884372733709371
 30
0.0
 11
11.45040090065303
 21
3.884372733709371
 31
0.0
  0
LINE
  5
18B
330
1F
100
AcDbEntity
  8
VISIBLE
100
AcDbLine
 10
12.20040090065303
 20
5.884372733709371
 30
0.0
 11
11.45040090065303
 21
5.884372733709371
 31
0.0
  0
DIMENSION
  5
18C
330
1F
100
AcDbEntity
  8
DIMENSIONS
100
AcDbDimension
280
     0
  2
D18
 10
0.0
 20
0.0
 30
0.0
 11
24.02580180130607
 21
11.02090561483787
 31
0.0
 70
    32
  1
<>
 71
     5
 42
-1.0
 73
     0
 74
     0
 75
     0
 53
180.0
  3
Standard
100
AcDbAlignedDimension
 13
12.20040090065303
 23
5.884372733709371
 33
0.0
 14
11.45040090065303
 24
5.884372733709371
 34
0.0
 50
180.0
100
AcDbRotatedDimension
1001
ACAD
1000
DSTYLE
1002
{
1070
    76
1070
     0
1070
    75
1070
     0
1070
   282
1070
     0
1070
   281
1070
     0
1070
    77
1070
     0
1070
    79
1070
     0
1070
    78
1070
     0
1070
   272
1070
     3
1070
   271
1070
     3
1070
   179
1070
     3
1070
   140
1040
0.0984076433121019
1070
    71
1070
     0
1070
    72
1070
     0
1070
    48
1040
0.0
1070
    47
1040
0.0
1002
}
  0
LINE
  5
19C
330
1F
100
AcDbEntity
  8
VISIBLE
100
AcDbLine
 10
2.888535281804603
 20
3.884372733709371
 30
0.0
 11
3.638535281804603
 21
3.884372733709371
 31
0.0
  0
CIRCLE
  5
19D
330
1F
100
AcDbEntity
  8
VISIBLE
100
AcDbCircle
 10
3.263535281804603
 20
4.259372733709371
 30
0.0
 40
0.0979999999999999
  0
LINE
  5
19E
330
1F
100
AcDbEntity
  8
VISIBLE
100
AcDbLine
 10
2.888535281804603
 20
5.884372733709371
 30
0.0
 11
2.888535281804603
 21
3.884372733709371
 31
0.0
  0
LINE
  5
19F
330
1F
100
AcDbEntity
  8
VISIBLE
100
AcDbLine
 10
2.888535281804603
 20
5.884372733709371
 30
0.0
 11
3.638535281804603
 21
5.884372733709371
 31
0.0
  0
LINE
  5
1A0
330
1F
100
AcDbEntity
  8
VISIBLE
100
AcDbLine
 10
3.638535281804602
 20
3.884372733709371
 30
0.0
 11
3.638535281804602
 21
5.884372733709371
 31
0.0
  0
MTEXT
  5
1A1
330
1F
100
AcDbEntity
  8
CONTINUOUS
100
AcDbMText
 10
3.818178374107799
 20
3.383887741092205
 30
0.0
 40
0.0775536798367834
 41
0.0
 46
0.0
 71
     4
 72
     1
  1
{\fArial|b0|i0|c0|p0;\C7;1/4-20 UNC }{\fAlibre Symbols|b0|i0|c0|p0;\C7;x}{\fArial|b0|i0|c0|p0;\C7; .750}{\fArial|b0|i0|c0|p0;\C7;}
 73
     1
 44
1.0
  0
LINE
  5
1A2
330
1F
100
AcDbEntity
  8
CONTINUOUS
100
AcDbLine
 10
3.581465775682602
 20
3.383887741092205
 30
0.0
 11
3.768965775682602
 21
3.383887741092205
 31
0.0
  0
LINE
  5
1A3
330
1F
100
AcDbEntity
  8
CONTINUOUS
100
AcDbLine
 10
3.327706728901833
 20
4.082663861896326
 30
0.0
 11
3.327706728901833
 21
4.082663861896326
 31
0.0
  0
LINE
  5
1A4
330
1F
100
AcDbEntity
  8
CONTINUOUS
100
AcDbLine
 10
3.327706728901833
 20
4.082663861896326
 30
0.0
 11
3.581465775682602
 21
3.383887741092205
 31
0.0
  0
LWPOLYLINE
  5
1A5
330
1F
100
AcDbEntity
  8
CONTINUOUS
100
AcDbPolyline
 90
        4
 70
     0
 43
0.0
 10
3.296986355291457
 20
4.167258534572795
 10
3.341805841014577
 20
4.087783924164722
 10
3.313607616789088
 20
4.07754379962793
 10
3.296986355291457
 20
4.167258534572795
  0
HATCH
  5
1A6
330
1F
100
AcDbEntity
  8
0
 62
     7
100
AcDbHatch
 10
0.0
 20
0.0
 30
0.0
210
0.0
220
0.0
230
1.0
  2
SOLID
 70
     1
 71
     0
 91
        1
 92
        0
 93
        3
 72
     1
 10
3.313607616789088
 20
4.07754379962793
 11
3.296986355291457
 21
4.167258534572795
 72
     1
 10
3.296986355291457
 20
4.167258534572795
 11
3.341805841014577
 21
4.087783924164722
 72
     1
 10
3.341805841014577
 20
4.087783924164722
 11
3.313607616789088
 21
4.07754379962793
 97
        0
 75
     0
 76
     1
 98
        0
  0
INSERT
  5
1A7
330
1F
100
AcDbEntity
  8
CONTINUOUS
100
AcDbBlockReference
  2
BLOCK14
 10
0.0
 20
0.0
 30
0.0
  0
ENDSEC
  0
SECTION
  2
OBJECTS
  0
DICTIONARY
  5
C
330
0
100
AcDbDictionary
281
     1
  3
ACAD_DETAILVIEWSTYLE
350
1E0
  3
ACAD_GROUP
350
D
  3
ACAD_LAYOUT
350
1A
  3
ACAD_MATERIAL
350
43
  3
ACAD_MLEADERSTYLE
350
6B
  3
ACAD_MLINESTYLE
350
17
  3
ACAD_PLOTSETTINGS
350
19
  3
ACAD_PLOTSTYLENAME
350
E
  3
ACAD_SCALELIST
350
47
  3
ACAD_SECTIONVIEWSTYLE
350
1E1
  3
ACAD_TABLESTYLE
350
69
  3
ACAD_VISUALSTYLE
350
2A
  3
ACDB_RECOMPOSE_DATA
350
1DD
  3
AcDbVariableDictionary
350
1D9
  0
SUN
  5
6D
330
29
100
AcDbSun
 90
        1
290
     0
 63
     7
421
 16777215
 40
1.0
291
     1
 91
  2455826
 92
 54000000
292
     0
 70
     2
 71
   256
280
     1
  0
DICTIONARY
  5
1E0
102
{ACAD_REACTORS
330
C
102
}
330
C
100
AcDbDictionary
281
     1
  0
DICTIONARY
  5
D
102
{ACAD_REACTORS
330
C
102
}
330
C
100
AcDbDictionary
281
     1
  0
DICTIONARY
  5
1A
102
{ACAD_REACTORS
330
C
102
}
330
C
100
AcDbDictionary
281
     1
  3
Layout1
350
1E
  3
Layout2
350
26
  3
Model
350
22
  0
DICTIONARY
  5
43
102
{ACAD_REACTORS
330
C
102
}
330
C
100
AcDbDictionary
281
     1
  3
ByBlock
350
45
  3
ByLayer
350
44
  3
Global
350
46
  0
DICTIONARY
  5
6B
102
{ACAD_REACTORS
330
C
102
}
330
C
100
AcDbDictionary
281
     1
  3
Standard
350
6C
  0
DICTIONARY
  5
17
102
{ACAD_REACTORS
330
C
102
}
330
C
100
AcDbDictionary
281
     1
  3
Standard
350
18
  0
DICTIONARY
  5
19
102
{ACAD_REACTORS
330
C
102
}
330
C
100
AcDbDictionary
281
     1
  0
ACDBDICTIONARYWDFLT
  5
E
102
{ACAD_REACTORS
330
C
102
}
330
C
100
AcDbDictionary
281
     1
  3
Normal
350
F
100
AcDbDictionaryWithDefault
340
F
  0
DICTIONARY
  5
47
102
{ACAD_REACTORS
330
C
102
}
330
C
100
AcDbDictionary
281
     1
  3
A0
350
48
  3
A1
350
49
  3
A2
350
4A
  3
A3
350
4B
  3
A4
350
4C
  3
A5
350
4D
  3
A6
350
4E
  3
A7
350
4F
  3
A8
350
50
  3
A9
350
51
  3
B0
350
52
  3
B1
350
53
  3
B2
350
54
  3
B3
350
55
  3
B4
350
56
  3
B5
350
57
  3
B6
350
58
  3
B7
350
59
  3
B8
350
5A
  3
B9
350
5B
  3
C0
350
5C
  3
C1
350
5D
  3
C2
350
5E
  3
C3
350
5F
  3
C4
350
60
  3
C5
350
61
  3
C6
350
62
  3
C7
350
63
  3
C8
350
64
  3
C9
350
65
  3
D0
350
66
  3
D1
350
67
  3
D2
350
68
  0
DICTIONARY
  5
1E1
102
{ACAD_REACTORS
330
C
102
}
330
C
100
AcDbDictionary
281
     1
  0
DICTIONARY
  5
69
102
{ACAD_REACTORS
330
C
102
}
330
C
100
AcDbDictionary
281
     1
  3
Standard
350
6A
  0
DICTIONARY
  5
2A
102
{ACAD_REACTORS
330
C
102
}
330
C
100
AcDbDictionary
281
     1
  3
2dWireframe
350
2F
  3
Basic
350
32
  3
Brighten
350
36
  3
ColorChange
350
3A
  3
Conceptual
350
34
  3
Dim
350
35
  3
EdgeColorOff
350
3D
  3
Facepattern
350
39
  3
Flat
350
2B
  3
FlatWithEdges
350
2C
  3
Gouraud
350
2D
  3
GouraudWithEdges
350
2E
  3
Hidden
350
31
  3
JitterOff
350
3B
  3
Linepattern
350
38
  3
OverhangOff
350
3C
  3
Realistic
350
33
  3
Shaded
350
42
  3
Shaded with edges
350
41
  3
Shades of Gray
350
3E
  3
Sketchy
350
3F
  3
Thicken
350
37
  3
Wireframe
350
30
  3
X-Ray
350
40
  0
XRECORD
  5
1DD
102
{ACAD_REACTORS
330
C
102
}
330
C
100
AcDbXrecord
280
     1
 90
        1
330
6A
  0
DICTIONARY
  5
1D9
102
{ACAD_REACTORS
330
C
102
}
330
C
100
AcDbDictionary
281
     1
  3
CANNOSCALE
350
1DA
  3
CMLEADERSTYLE
350
1DF
  3
CTABLESTYLE
350
1DE
  0
LAYOUT
  5
1E
102
{ACAD_REACTORS
330
1A
102
}
330
1A
100
AcDbPlotSettings
  1

  2
none_device
  4

  6

 40
0.0
 41
0.0
 42
0.0
 43
0.0
 44
0.0
 45
0.0
 46
0.0
 47
0.0
 48
0.0
 49
0.0
140
0.0
141
0.0
142
1.0
143
1.0
 70
   688
 72
     0
 73
     0
 74
     5
  7

 75
    16
 76
     0
 77
     2
 78
   300
147
1.0
148
0.0
149
0.0
100
AcDbLayout
  1
Layout1
 70
     1
 71
     1
 10
0.0
 20
0.0
 11
12.0
 21
9.0
 12
0.0
 22
0.0
 32
0.0
 14
1.000000000000000E+20
 24
1.000000000000000E+20
 34
1.000000000000000E+20
 15
-1.000000000000000E+20
 25
-1.000000000000000E+20
 35
-1.000000000000000E+20
146
0.0
 13
0.0
 23
0.0
 33
0.0
 16
1.0
 26
0.0
 36
0.0
 17
0.0
 27
1.0
 37
0.0
 76
     0
330
1B
  0
LAYOUT
  5
26
102
{ACAD_REACTORS
330
1A
102
}
330
1A
100
AcDbPlotSettings
  1

  2
none_device
  4

  6

 40
0.0
 41
0.0
 42
0.0
 43
0.0
 44
0.0
 45
0.0
 46
0.0
 47
0.0
 48
0.0
 49
0.0
140
0.0
141
0.0
142
1.0
143
1.0
 70
   688
 72
     0
 73
     0
 74
     5
  7

 75
    16
 76
     0
 77
     2
 78
   300
147
1.0
148
0.0
149
0.0
100
AcDbLayout
  1
Layout2
 70
     1
 71
     2
 10
0.0
 20
0.0
 11
0.0
 21
0.0
 12
0.0
 22
0.0
 32
0.0
 14
0.0
 24
0.0
 34
0.0
 15
0.0
 25
0.0
 35
0.0
146
0.0
 13
0.0
 23
0.0
 33
0.0
 16
1.0
 26
0.0
 36
0.0
 17
0.0
 27
1.0
 37
0.0
 76
     0
330
23
  0
LAYOUT
  5
22
102
{ACAD_REACTORS
330
1A
102
}
330
1A
100
AcDbPlotSettings
  1

  2
none_device
  4
Letter_(8.50_x_11.00_Inches)
  6

 40
6.35
 41
6.35
 42
6.35000508
 43
6.35000508
 44
215.9
 45
279.4
 46
0.0
 47
0.0
 48
0.0
 49
0.0
140
0.0
141
0.0
142
1.0
143
1.0
 70
  1712
 72
     0
 73
     0
 74
     0
  7

 75
     0
 76
     0
 77
     2
 78
   300
147
1.0
148
0.0
149
0.0
100
AcDbLayout
  1
Model
 70
     1
 71
     0
 10
0.0
 20
0.0
 11
12.0
 21
9.0
 12
0.0
 22
0.0
 32
0.0
 14
1.000000000000000E+20
 24
1.000000000000000E+20
 34
1.000000000000000E+20
 15
-1.000000000000000E+20
 25
-1.000000000000000E+20
 35
-1.000000000000000E+20
146
0.0
 13
0.0
 23
0.0
 33
0.0
 16
1.0
 26
0.0
 36
0.0
 17
0.0
 27
1.0
 37
0.0
 76
     0
330
1F
331
29
  0
MATERIAL
  5
45
102
{ACAD_REACTORS
330
43
102
}
330
43
100
AcDbMaterial
  1
ByBlock
 72
     1
 94
      127
  0
MATERIAL
  5
44
102
{ACAD_REACTORS
330
43
102
}
330
43
100
AcDbMaterial
  1
ByLayer
 72
     1
 94
      127
  0
MATERIAL
  5
46
102
{ACAD_REACTORS
330
43
102
}
330
43
100
AcDbMaterial
  1
Global
 72
     1
 94
      127
  0
MLEADERSTYLE
  5
6C
102
{ACAD_REACTORS
330
6B
102
}
330
6B
100
AcDbMLeaderStyle
179
     2
170
     2
171
     1
172
     0
 90
        2
 40
0.0
 41
0.0
173
     1
 91
-1056964608
340
14
 92
       -2
290
     1
 42
0.09
291
     1
 43
0.36
  3
Standard
341
0
 44
0.18
300

342
11
174
     1
178
     6
175
     1
176
     0
 93
-1056964608
 45
0.18
292
     0
297
     0
 46
0.18
343
0
 94
-1056964608
 47
1.0
 49
1.0
140
1.0
293
     1
141
0.0
294
     1
177
     0
142
1.0
295
     0
296
     0
143
0.125
271
     0
272
     9
273
     9
298
     0
  0
MLINESTYLE
  5
18
102
{ACAD_REACTORS
330
17
102
}
330
17
100
AcDbMlineStyle
  2
Standard
 70
     0
  3

 62
   256
 51
90.0
 52
90.0
 71
     2
 49
0.5
 62
   256
  6
BYLAYER
 49
-0.5
 62
   256
  6
BYLAYER
  0
ACDBPLACEHOLDER
  5
F
102
{ACAD_REACTORS
330
E
102
}
330
E
  0
SCALE
  5
48
102
{ACAD_REACTORS
330
47
102
}
330
47
100
AcDbScale
 70
     0
300
1:1
140
1.0
141
1.0
290
     1
  0
SCALE
  5
49
102
{ACAD_REACTORS
330
47
102
}
330
47
100
AcDbScale
 70
     0
300
1:2
140
1.0
141
2.0
290
     0
  0
SCALE
  5
4A
102
{ACAD_REACTORS
330
47
102
}
330
47
100
AcDbScale
 70
     0
300
1:4
140
1.0
141
4.0
290
     0
  0
SCALE
  5
4B
102
{ACAD_REACTORS
330
47
102
}
330
47
100
AcDbScale
 70
     0
300
1:5
140
1.0
141
5.0
290
     0
  0
SCALE
  5
4C
102
{ACAD_REACTORS
330
47
102
}
330
47
100
AcDbScale
 70
     0
300
1:8
140
1.0
141
8.0
290
     0
  0
SCALE
  5
4D
102
{ACAD_REACTORS
330
47
102
}
330
47
100
AcDbScale
 70
     0
300
1:10
140
1.0
141
10.0
290
     0
  0
SCALE
  5
4E
102
{ACAD_REACTORS
330
47
102
}
330
47
100
AcDbScale
 70
     0
300
1:16
140
1.0
141
16.0
290
     0
  0
SCALE
  5
4F
102
{ACAD_REACTORS
330
47
102
}
330
47
100
AcDbScale
 70
     0
300
1:20
140
1.0
141
20.0
290
     0
  0
SCALE
  5
50
102
{ACAD_REACTORS
330
47
102
}
330
47
100
AcDbScale
 70
     0
300
1:30
140
1.0
141
30.0
290
     0
  0
SCALE
  5
51
102
{ACAD_REACTORS
330
47
102
}
330
47
100
AcDbScale
 70
     0
300
1:40
140
1.0
141
40.0
290
     0
  0
SCALE
  5
52
102
{ACAD_REACTORS
330
47
102
}
330
47
100
AcDbScale
 70
     0
300
1:50
140
1.0
141
50.0
290
     0
  0
SCALE
  5
53
102
{ACAD_REACTORS
330
47
102
}
330
47
100
AcDbScale
 70
     0
300
1:100
140
1.0
141
100.0
290
     0
  0
SCALE
  5
54
102
{ACAD_REACTORS
330
47
102
}
330
47
100
AcDbScale
 70
     0
300
2:1
140
2.0
141
1.0
290
     0
  0
SCALE
  5
55
102
{ACAD_REACTORS
330
47
102
}
330
47
100
AcDbScale
 70
     0
300
4:1
140
4.0
141
1.0
290
     0
  0
SCALE
  5
56
102
{ACAD_REACTORS
330
47
102
}
330
47
100
AcDbScale
 70
     0
300
8:1
140
8.0
141
1.0
290
     0
  0
SCALE
  5
57
102
{ACAD_REACTORS
330
47
102
}
330
47
100
AcDbScale
 70
     0
300
10:1
140
10.0
141
1.0
290
     0
  0
SCALE
  5
58
102
{ACAD_REACTORS
330
47
102
}
330
47
100
AcDbScale
 70
     0
300
100:1
140
100.0
141
1.0
290
     0
  0
SCALE
  5
59
102
{ACAD_REACTORS
330
47
102
}
330
47
100
AcDbScale
 70
     0
300
1/128" = 1'-0"
140
0.0078125
141
12.0
290
     0
  0
SCALE
  5
5A
102
{ACAD_REACTORS
330
47
102
}
330
47
100
AcDbScale
 70
     0
300
1/64" = 1'-0"
140
0.015625
141
12.0
290
     0
  0
SCALE
  5
5B
102
{ACAD_REACTORS
330
47
102
}
330
47
100
AcDbScale
 70
     0
300
1/32" = 1'-0"
140
0.03125
141
12.0
290
     0
  0
SCALE
  5
5C
102
{ACAD_REACTORS
330
47
102
}
330
47
100
AcDbScale
 70
     0
300
1/16" = 1'-0"
140
0.0625
141
12.0
290
     0
  0
SCALE
  5
5D
102
{ACAD_REACTORS
330
47
102
}
330
47
100
AcDbScale
 70
     0
300
3/32" = 1'-0"
140
0.09375
141
12.0
290
     0
  0
SCALE
  5
5E
102
{ACAD_REACTORS
330
47
102
}
330
47
100
AcDbScale
 70
     0
300
1/8" = 1'-0"
140
0.125
141
12.0
290
     0
  0
SCALE
  5
5F
102
{ACAD_REACTORS
330
47
102
}
330
47
100
AcDbScale
 70
     0
300
3/16" = 1'-0"
140
0.1875
141
12.0
290
     0
  0
SCALE
  5
60
102
{ACAD_REACTORS
330
47
102
}
330
47
100
AcDbScale
 70
     0
300
1/4" = 1'-0"
140
0.25
141
12.0
290
     0
  0
SCALE
  5
61
102
{ACAD_REACTORS
330
47
102
}
330
47
100
AcDbScale
 70
     0
300
3/8" = 1'-0"
140
0.375
141
12.0
290
     0
  0
SCALE
  5
62
102
{ACAD_REACTORS
330
47
102
}
330
47
100
AcDbScale
 70
     0
300
1/2" = 1'-0"
140
0.5
141
12.0
290
     0
  0
SCALE
  5
63
102
{ACAD_REACTORS
330
47
102
}
330
47
100
AcDbScale
 70
     0
300
3/4" = 1'-0"
140
0.75
141
12.0
290
     0
  0
SCALE
  5
64
102
{ACAD_REACTORS
330
47
102
}
330
47
100
AcDbScale
 70
     0
300
1" = 1'-0"
140
1.0
141
12.0
290
     0
  0
SCALE
  5
65
102
{ACAD_REACTORS
330
47
102
}
330
47
100
AcDbScale
 70
     0
300
1-1/2" = 1'-0"
140
1.5
141
12.0
290
     0
  0
SCALE
  5
66
102
{ACAD_REACTORS
330
47
102
}
330
47
100
AcDbScale
 70
     0
300
3" = 1'-0"
140
3.0
141
12.0
290
     0
  0
SCALE
  5
67
102
{ACAD_REACTORS
330
47
102
}
330
47
100
AcDbScale
 70
     0
300
6" = 1'-0"
140
6.0
141
12.0
290
     0
  0
SCALE
  5
68
102
{ACAD_REACTORS
330
47
102
}
330
47
100
AcDbScale
 70
     0
300
1'-0" = 1'-0"
140
12.0
141
12.0
290
     0
  0
TABLESTYLE
  5
6A
102
{ACAD_REACTORS
330
69
102
}
102
{ACAD_XDICTIONARY
360
1DB
102
}
330
69
100
AcDbTableStyle
  3
Standard
 70
     0
 71
     0
 40
0.06
 41
0.06
280
     0
281
     0
  7
Standard
140
0.18
170
     2
 62
     0
 63
   257
283
     0
 90
        4
 91
        0
  1

274
    -2
284
     1
 64
     0
275
    -2
285
     1
 65
     0
276
    -2
286
     1
 66
     0
277
    -2
287
     1
 67
     0
278
    -2
288
     1
 68
     0
279
    -2
289
     1
 69
     0
  7
Standard
140
0.25
170
     5
 62
     0
 63
   257
283
     0
 90
        4
 91
        0
  1

274
    -2
284
     1
 64
     0
275
    -2
285
     1
 65
     0
276
    -2
286
     1
 66
     0
277
    -2
287
     1
 67
     0
278
    -2
288
     1
 68
     0
279
    -2
289
     1
 69
     0
  7
Standard
140
0.18
170
     5
 62
     0
 63
   257
283
     0
 90
        4
 91
        0
  1

274
    -2
284
     1
 64
     0
275
    -2
285
     1
 65
     0
276
    -2
286
     1
 66
     0
277
    -2
287
     1
 67
     0
278
    -2
288
     1
 68
     0
279
    -2
289
     1
 69
     0
  0
VISUALSTYLE
  5
2F
102
{ACAD_REACTORS
330
2A
102
}
330
2A
100
AcDbVisualStyle
  2
2dWireframe
 70
     4
177
     3
291
     0
 70
    58
 90
        0
176
     1
 90
        2
176
     1
 90
        0
176
     1
 90
        0
176
     1
 40
0.6
176
     1
 40
30.0
176
     1
 62
     7
420
 16777215
176
     1
 90
        1
176
     1
 90
        4
176
     1
 62
     7
176
     1
 62
   257
176
     1
 90
        1
176
     1
 90
        1
176
     1
 40
1.0
176
     1
 90
        0
176
     1
 62
   257
176
     1
 40
1.0
176
     1
 90
        1
176
     1
 90
        6
176
     1
 90
        2
176
     1
 62
     7
176
     1
 90
        5
176
     1
 90
        0
176
     1
 90
        0
176
     1
290
     0
176
     1
 90
        1
176
     1
 40
0.0
176
     1
 90
        0
176
     1
290
     1
176
     1
290
     1
176
     1
290
     0
176
     1
290
     0
176
     1
290
     0
176
     1
290
     0
176
     1
290
     0
176
     1
290
     0
176
     1
290
     0
176
     1
 90
       50
176
     1
 40
0.0
176
     1
 40
1.0
176
     1
 90
        0
176
     1
 62
    18
420
        0
176
     1
 90
       50
176
     1
 90
        3
176
     1
 62
     5
420
      255
176
     1
290
     0
176
     1
 90
       50
176
     1
 90
       50
176
     1
 90
       50
176
     1
290
     0
176
     1
 90
       50
176
     1
 62
   256
176
     0
 40
1.0
176
     0
 90
        2
176
     1
  1
strokes_ogs.tif
176
     1
290
     0
176
     1
 40
1.0
176
     1
 40
1.0
176
     1
  0
VISUALSTYLE
  5
32
102
{ACAD_REACTORS
330
2A
102
}
330
2A
100
AcDbVisualStyle
  2
Basic
 70
     7
177
     3
291
     1
 70
    58
 90
        1
176
     1
 90
        0
176
     1
 90
        1
176
     1
 90
        0
176
     1
 40
0.6
176
     1
 40
30.0
176
     1
 62
     7
420
 16777215
176
     1
 90
        0
176
     1
 90
        4
176
     1
 62
     7
176
     1
 62
   257
176
     1
 90
        1
176
     1
 90
        1
176
     1
 40
1.0
176
     1
 90
        8
176
     1
 62
     7
176
     1
 40
1.0
176
     1
 90
        1
176
     1
 90
        6
176
     1
 90
        2
176
     1
 62
     7
176
     1
 90
        5
176
     1
 90
        0
176
     1
 90
        0
176
     1
290
     0
176
     1
 90
        1
176
     1
 40
0.0
176
     1
 90
        0
176
     1
290
     0
176
     1
290
     1
176
     1
290
     1
176
     1
290
     0
176
     1
290
     0
176
     1
290
     0
176
     1
290
     0
176
     1
290
     0
176
     1
290
     0
176
     1
 90
       50
176
     1
 40
0.0
176
     1
 40
1.0
176
     1
 90
        0
176
     1
 62
    18
420
        0
176
     1
 90
       50
176
     1
 90
        3
176
     1
 62
     5
420
      255
176
     1
290
     0
176
     1
 90
       50
176
     1
 90
       50
176
     1
 90
       50
176
     1
290
     0
176
     1
 90
       50
176
     1
 62
   256
176
     0
 40
1.0
176
     0
 90
        2
176
     1
  1
strokes_ogs.tif
176
     1
290
     0
176
     1
 40
1.0
176
     1
 40
1.0
176
     1
  0
VISUALSTYLE
  5
36
102
{ACAD_REACTORS
330
2A
102
}
330
2A
100
AcDbVisualStyle
  2
Brighten
 70
    12
177
     3
291
     1
 70
    58
 90
        2
176
     1
 90
        2
176
     1
 90
        0
176
     1
 90
        0
176
     1
 40
0.6
176
     1
 40
30.0
176
     1
 62
     7
420
 16777215
176
     1
 90
        1
176
     1
 90
        4
176
     1
 62
     7
176
     1
 62
   257
176
     1
 90
        1
176
     1
 90
        1
176
     1
 40
1.0
176
     1
 90
        8
176
     1
 62
     7
176
     1
 40
1.0
176
     1
 90
        1
176
     1
 90
        6
176
     1
 90
        2
176
     1
 62
     7
176
     1
 90
        5
176
     1
 90
        0
176
     1
 90
        0
176
     1
290
     0
176
     1
 90
        1
176
     1
 40
50.0
176
     1
 90
        0
176
     1
290
     0
176
     1
290
     1
176
     1
290
     1
176
     1
290
     0
176
     1
290
     0
176
     1
290
     0
176
     1
290
     0
176
     1
290
     0
176
     1
290
     0
176
     1
 90
       50
176
     1
 40
0.0
176
     1
 40
1.0
176
     1
 90
        0
176
     1
 62
    18
420
        0
176
     1
 90
       50
176
     1
 90
        3
176
     1
 62
     5
420
      255
176
     1
290
     0
176
     1
 90
       50
176
     1
 90
       50
176
     1
 90
       50
176
     1
290
     0
176
     1
 90
       50
176
     1
 62
   256
176
     0
 40
1.0
176
     0
 90
        2
176
     1
  1
strokes_ogs.tif
176
     1
290
     0
176
     1
 40
1.0
176
     1
 40
1.0
176
     1
  0
VISUALSTYLE
  5
3A
102
{ACAD_REACTORS
330
2A
102
}
330
2A
100
AcDbVisualStyle
  2
ColorChange
 70
    16
177
     3
291
     1
 70
    58
 90
        2
176
     1
 90
        2
176
     1
 90
        3
176
     1
 90
        0
176
     1
 40
0.6
176
     1
 40
30.0
176
     1
 62
     8
420
  8421504
176
     1
 90
        1
176
     1
 90
        4
176
     1
 62
     7
176
     1
 62
   257
176
     1
 90
        1
176
     1
 90
        1
176
     1
 40
1.0
176
     1
 90
        8
176
     1
 62
     8
420
  8421504
176
     1
 40
1.0
176
     1
 90
        1
176
     1
 90
        6
176
     1
 90
        2
176
     1
 62
     7
176
     1
 90
        5
176
     1
 90
        0
176
     1
 90
        0
176
     1
290
     0
176
     1
 90
        1
176
     1
 40
0.0
176
     1
 90
        0
176
     1
290
     0
176
     1
290
     1
176
     1
290
     1
176
     1
290
     0
176
     1
290
     0
176
     1
290
     0
176
     1
290
     0
176
     1
290
     0
176
     1
290
     0
176
     1
 90
       50
176
     1
 40
0.0
176
     1
 40
1.0
176
     1
 90
        0
176
     1
 62
    18
420
        0
176
     1
 90
       50
176
     1
 90
        3
176
     1
 62
     5
420
      255
176
     1
290
     0
176
     1
 90
       50
176
     1
 90
       50
176
     1
 90
       50
176
     1
290
     0
176
     1
 90
       50
176
     1
 62
   256
176
     0
 40
1.0
176
     0
 90
        2
176
     1
  1
strokes_ogs.tif
176
     1
290
     0
176
     1
 40
1.0
176
     1
 40
1.0
176
     1
  0
VISUALSTYLE
  5
34
102
{ACAD_REACTORS
330
2A
102
}
330
2A
100
AcDbVisualStyle
  2
Conceptual
 70
     9
177
     3
291
     0
 70
    58
 90
        3
176
     1
 90
        2
176
     1
 90
        0
176
     1
 90
        0
176
     1
 40
0.6
176
     1
 40
30.0
176
     1
 62
     7
420
 16777215
176
     1
 90
        2
176
     1
 90
        2
176
     1
 62
     7
176
     1
 62
   257
176
     1
 90
        1
176
     1
 90
        1
176
     1
 40
179.0
176
     1
 90
        8
176
     1
 62
     7
176
     1
 40
1.0
176
     1
 90
        1
176
     1
 90
        6
176
     1
 90
        2
176
     1
 62
     7
176
     1
 90
        3
176
     1
 90
        0
176
     1
 90
        0
176
     1
290
     0
176
     1
 90
        1
176
     1
 40
0.0
176
     1
 90
        0
176
     1
290
     0
176
     1
290
     1
176
     1
290
     1
176
     1
290
     0
176
     1
290
     0
176
     1
290
     0
176
     1
290
     0
176
     1
290
     0
176
     1
290
     0
176
     1
 90
       50
176
     1
 40
0.0
176
     1
 40
1.0
176
     1
 90
        0
176
     1
 62
    18
420
        0
176
     1
 90
       50
176
     1
 90
        3
176
     1
 62
     5
420
      255
176
     1
290
     0
176
     1
 90
       50
176
     1
 90
       50
176
     1
 90
       50
176
     1
290
     0
176
     1
 90
       50
176
     1
 62
   256
176
     0
 40
1.0
176
     0
 90
        2
176
     1
  1
strokes_ogs.tif
176
     1
290
     0
176
     1
 40
1.0
176
     1
 40
1.0
176
     1
  0
VISUALSTYLE
  5
35
102
{ACAD_REACTORS
330
2A
102
}
330
2A
100
AcDbVisualStyle
  2
Dim
 70
    11
177
     3
291
     1
 70
    58
 90
        2
176
     1
 90
        2
176
     1
 90
        0
176
     1
 90
        0
176
     1
 40
0.6
176
     1
 40
30.0
176
     1
 62
     7
420
 16777215
176
     1
 90
        1
176
     1
 90
        4
176
     1
 62
     7
176
     1
 62
   257
176
     1
 90
        1
176
     1
 90
        1
176
     1
 40
1.0
176
     1
 90
        8
176
     1
 62
     7
176
     1
 40
1.0
176
     1
 90
        1
176
     1
 90
        6
176
     1
 90
        2
176
     1
 62
     7
176
     1
 90
        5
176
     1
 90
        0
176
     1
 90
        0
176
     1
290
     0
176
     1
 90
        1
176
     1
 40
-50.0
176
     1
 90
        0
176
     1
290
     0
176
     1
290
     1
176
     1
290
     1
176
     1
290
     0
176
     1
290
     0
176
     1
290
     0
176
     1
290
     0
176
     1
290
     0
176
     1
290
     0
176
     1
 90
       50
176
     1
 40
0.0
176
     1
 40
1.0
176
     1
 90
        0
176
     1
 62
    18
420
        0
176
     1
 90
       50
176
     1
 90
        3
176
     1
 62
     5
420
      255
176
     1
290
     0
176
     1
 90
       50
176
     1
 90
       50
176
     1
 90
       50
176
     1
290
     0
176
     1
 90
       50
176
     1
 62
   256
176
     0
 40
1.0
176
     0
 90
        2
176
     1
  1
strokes_ogs.tif
176
     1
290
     0
176
     1
 40
1.0
176
     1
 40
1.0
176
     1
  0
VISUALSTYLE
  5
3D
102
{ACAD_REACTORS
330
2A
102
}
330
2A
100
AcDbVisualStyle
  2
EdgeColorOff
 70
    22
177
     3
291
     1
 70
    58
 90
        2
176
     0
 90
        2
176
     0
 90
        0
176
     0
 90
        0
176
     0
 40
0.6
176
     0
 40
30.0
176
     0
 62
     7
420
 16777215
176
     0
 90
        1
176
     0
 90
        4
176
     0
 62
     7
176
     0
 62
   257
176
     0
 90
        1
176
     0
 90
        1
176
     0
 40
1.0
176
     0
 90
        8
176
     2
 62
     7
176
     0
 40
1.0
176
     0
 90
        1
176
     0
 90
        6
176
     0
 90
        2
176
     0
 62
     7
176
     0
 90
        5
176
     0
 90
        0
176
     0
 90
        0
176
     0
290
     0
176
     0
 90
        1
176
     0
 40
0.0
176
     0
 90
        0
176
     0
290
     0
176
     0
290
     1
176
     0
290
     1
176
     0
290
     0
176
     0
290
     0
176
     0
290
     0
176
     0
290
     0
176
     0
290
     0
176
     0
290
     0
176
     0
 90
       50
176
     0
 40
0.0
176
     0
 40
1.0
176
     0
 90
        0
176
     0
 62
    18
420
        0
176
     0
 90
       50
176
     0
 90
        3
176
     0
 62
     5
420
      255
176
     0
290
     0
176
     0
 90
       50
176
     0
 90
       50
176
     0
 90
       50
176
     0
290
     0
176
     0
 90
       50
176
     0
 62
   256
176
     0
 40
1.0
176
     0
 90
        2
176
     0
  1
strokes_ogs.tif
176
     0
290
     0
176
     0
 40
1.0
176
     0
 40
1.0
176
     0
  0
VISUALSTYLE
  5
39
102
{ACAD_REACTORS
330
2A
102
}
330
2A
100
AcDbVisualStyle
  2
Facepattern
 70
    15
177
     3
291
     1
 70
    58
 90
        2
176
     1
 90
        2
176
     1
 90
        0
176
     1
 90
        0
176
     1
 40
0.6
176
     1
 40
30.0
176
     1
 62
     7
420
 16777215
176
     1
 90
        1
176
     1
 90
        4
176
     1
 62
     7
176
     1
 62
   257
176
     1
 90
        1
176
     1
 90
        1
176
     1
 40
1.0
176
     1
 90
        8
176
     1
 62
     7
176
     1
 40
1.0
176
     1
 90
        1
176
     1
 90
        6
176
     1
 90
        2
176
     1
 62
     7
176
     1
 90
        5
176
     1
 90
        0
176
     1
 90
        0
176
     1
290
     0
176
     1
 90
        1
176
     1
 40
0.0
176
     1
 90
        0
176
     1
290
     0
176
     1
290
     1
176
     1
290
     1
176
     1
290
     0
176
     1
290
     0
176
     1
290
     0
176
     1
290
     0
176
     1
290
     0
176
     1
290
     0
176
     1
 90
       50
176
     1
 40
0.0
176
     1
 40
1.0
176
     1
 90
        0
176
     1
 62
    18
420
        0
176
     1
 90
       50
176
     1
 90
        3
176
     1
 62
     5
420
      255
176
     1
290
     0
176
     1
 90
       50
176
     1
 90
       50
176
     1
 90
       50
176
     1
290
     0
176
     1
 90
       50
176
     1
 62
   256
176
     0
 40
1.0
176
     0
 90
        2
176
     1
  1
strokes_ogs.tif
176
     1
290
     0
176
     1
 40
1.0
176
     1
 40
1.0
176
     1
  0
VISUALSTYLE
  5
2B
102
{ACAD_REACTORS
330
2A
102
}
330
2A
100
AcDbVisualStyle
  2
Flat
 70
     0
177
     3
291
     1
 70
    58
 90
        2
176
     1
 90
        1
176
     1
 90
        1
176
     1
 90
        2
176
     1
 40
0.6
176
     1
 40
30.0
176
     1
 62
     7
420
 16777215
176
     1
 90
        0
176
     1
 90
        0
176
     1
 62
     7
176
     1
 62
   257
176
     1
 90
        1
176
     1
 90
        1
176
     1
 40
1.0
176
     1
 90
        8
176
     1
 62
     7
176
     1
 40
1.0
176
     1
 90
        1
176
     1
 90
        6
176
     1
 90
        2
176
     1
 62
     7
176
     1
 90
        5
176
     1
 90
        0
176
     1
 90
        0
176
     1
290
     0
176
     1
 90
       13
176
     1
 40
0.0
176
     1
 90
        0
176
     1
290
     0
176
     1
290
     1
176
     1
290
     1
176
     1
290
     0
176
     1
290
     0
176
     1
290
     0
176
     1
290
     0
176
     1
290
     0
176
     1
290
     0
176
     1
 90
       50
176
     1
 40
0.0
176
     1
 40
1.0
176
     1
 90
        0
176
     1
 62
    18
420
        0
176
     1
 90
       50
176
     1
 90
        3
176
     1
 62
     5
420
      255
176
     1
290
     0
176
     1
 90
       50
176
     1
 90
       50
176
     1
 90
       50
176
     1
290
     0
176
     1
 90
       50
176
     1
 62
   256
176
     0
 40
1.0
176
     0
 90
        2
176
     1
  1
strokes_ogs.tif
176
     1
290
     0
176
     1
 40
1.0
176
     1
 40
1.0
176
     1
  0
VISUALSTYLE
  5
2C
102
{ACAD_REACTORS
330
2A
102
}
330
2A
100
AcDbVisualStyle
  2
FlatWithEdges
 70
     1
177
     3
291
     1
 70
    58
 90
        2
176
     1
 90
        1
176
     1
 90
        1
176
     1
 90
        2
176
     1
 40
0.6
176
     1
 40
30.0
176
     1
 62
     7
420
 16777215
176
     1
 90
        1
176
     1
 90
        0
176
     1
 62
     7
176
     1
 62
   257
176
     1
 90
        1
176
     1
 90
        1
176
     1
 40
1.0
176
     1
 90
        0
176
     1
 62
   257
176
     1
 40
1.0
176
     1
 90
        1
176
     1
 90
        6
176
     1
 90
        2
176
     1
 62
     7
176
     1
 90
        5
176
     1
 90
        0
176
     1
 90
        0
176
     1
290
     0
176
     1
 90
       13
176
     1
 40
0.0
176
     1
 90
        0
176
     1
290
     0
176
     1
290
     1
176
     1
290
     1
176
     1
290
     0
176
     1
290
     0
176
     1
290
     0
176
     1
290
     0
176
     1
290
     0
176
     1
290
     0
176
     1
 90
       50
176
     1
 40
0.0
176
     1
 40
1.0
176
     1
 90
        0
176
     1
 62
    18
420
        0
176
     1
 90
       50
176
     1
 90
        3
176
     1
 62
     5
420
      255
176
     1
290
     0
176
     1
 90
       50
176
     1
 90
       50
176
     1
 90
       50
176
     1
290
     0
176
     1
 90
       50
176
     1
 62
   256
176
     0
 40
1.0
176
     0
 90
        2
176
     1
  1
strokes_ogs.tif
176
     1
290
     0
176
     1
 40
1.0
176
     1
 40
1.0
176
     1
  0
VISUALSTYLE
  5
2D
102
{ACAD_REACTORS
330
2A
102
}
330
2A
100
AcDbVisualStyle
  2
Gouraud
 70
     2
177
     3
291
     1
 70
    58
 90
        2
176
     1
 90
        2
176
     1
 90
        1
176
     1
 90
        2
176
     1
 40
0.6
176
     1
 40
30.0
176
     1
 62
     7
420
 16777215
176
     1
 90
        0
176
     1
 90
        0
176
     1
 62
     7
176
     1
 62
   257
176
     1
 90
        1
176
     1
 90
        1
176
     1
 40
1.0
176
     1
 90
        0
176
     1
 62
     7
176
     1
 40
1.0
176
     1
 90
        1
176
     1
 90
        6
176
     1
 90
        2
176
     1
 62
     7
176
     1
 90
        5
176
     1
 90
        0
176
     1
 90
        0
176
     1
290
     0
176
     1
 90
       13
176
     1
 40
0.0
176
     1
 90
        0
176
     1
290
     0
176
     1
290
     1
176
     1
290
     1
176
     1
290
     0
176
     1
290
     0
176
     1
290
     0
176
     1
290
     0
176
     1
290
     0
176
     1
290
     0
176
     1
 90
       50
176
     1
 40
0.0
176
     1
 40
1.0
176
     1
 90
        0
176
     1
 62
    18
420
        0
176
     1
 90
       50
176
     1
 90
        3
176
     1
 62
     5
420
      255
176
     1
290
     0
176
     1
 90
       50
176
     1
 90
       50
176
     1
 90
       50
176
     1
290
     0
176
     1
 90
       50
176
     1
 62
   256
176
     0
 40
1.0
176
     0
 90
        2
176
     1
  1
strokes_ogs.tif
176
     1
290
     0
176
     1
 40
1.0
176
     1
 40
1.0
176
     1
  0
VISUALSTYLE
  5
2E
102
{ACAD_REACTORS
330
2A
102
}
330
2A
100
AcDbVisualStyle
  2
GouraudWithEdges
 70
     3
177
     3
291
     1
 70
    58
 90
        2
176
     1
 90
        2
176
     1
 90
        1
176
     1
 90
        2
176
     1
 40
0.6
176
     1
 40
30.0
176
     1
 62
     7
420
 16777215
176
     1
 90
        1
176
     1
 90
        0
176
     1
 62
     7
176
     1
 62
   257
176
     1
 90
        1
176
     1
 90
        1
176
     1
 40
1.0
176
     1
 90
        0
176
     1
 62
   257
176
     1
 40
1.0
176
     1
 90
        1
176
     1
 90
        6
176
     1
 90
        2
176
     1
 62
     7
176
     1
 90
        5
176
     1
 90
        0
176
     1
 90
        0
176
     1
290
     0
176
     1
 90
       13
176
     1
 40
0.0
176
     1
 90
        0
176
     1
290
     0
176
     1
290
     1
176
     1
290
     1
176
     1
290
     0
176
     1
290
     0
176
     1
290
     0
176
     1
290
     0
176
     1
290
     0
176
     1
290
     0
176
     1
 90
       50
176
     1
 40
0.0
176
     1
 40
1.0
176
     1
 90
        0
176
     1
 62
    18
420
        0
176
     1
 90
       50
176
     1
 90
        3
176
     1
 62
     5
420
      255
176
     1
290
     0
176
     1
 90
       50
176
     1
 90
       50
176
     1
 90
       50
176
     1
290
     0
176
     1
 90
       50
176
     1
 62
   256
176
     0
 40
1.0
176
     0
 90
        2
176
     1
  1
strokes_ogs.tif
176
     1
290
     0
176
     1
 40
1.0
176
     1
 40
1.0
176
     1
  0
VISUALSTYLE
  5
31
102
{ACAD_REACTORS
330
2A
102
}
330
2A
100
AcDbVisualStyle
  2
Hidden
 70
     6
177
     3
291
     0
 70
    58
 90
        1
176
     1
 90
        2
176
     1
 90
        2
176
     1
 90
        0
176
     1
 40
0.6
176
     1
 40
30.0
176
     1
 62
     7
420
 16777215
176
     1
 90
        2
176
     1
 90
        2
176
     1
 62
     7
176
     1
 62
   257
176
     1
 90
        2
176
     1
 90
        1
176
     1
 40
40.0
176
     1
 90
        0
176
     1
 62
   257
176
     1
 40
1.0
176
     1
 90
        1
176
     1
 90
        6
176
     1
 90
        2
176
     1
 62
     7
176
     1
 90
        3
176
     1
 90
        0
176
     1
 90
        0
176
     1
290
     0
176
     1
 90
        1
176
     1
 40
0.0
176
     1
 90
        0
176
     1
290
     0
176
     1
290
     1
176
     1
290
     1
176
     1
290
     0
176
     1
290
     0
176
     1
290
     0
176
     1
290
     0
176
     1
290
     0
176
     1
290
     0
176
     1
 90
       50
176
     1
 40
0.0
176
     1
 40
1.0
176
     1
 90
        0
176
     1
 62
    18
420
        0
176
     1
 90
       50
176
     1
 90
        3
176
     1
 62
     5
420
      255
176
     1
290
     0
176
     1
 90
       50
176
     1
 90
       50
176
     1
 90
       50
176
     1
290
     0
176
     1
 90
       50
176
     1
 62
   256
176
     0
 40
1.0
176
     0
 90
        2
176
     1
  1
strokes_ogs.tif
176
     1
290
     0
176
     1
 40
1.0
176
     1
 40
1.0
176
     1
  0
VISUALSTYLE
  5
3B
102
{ACAD_REACTORS
330
2A
102
}
330
2A
100
AcDbVisualStyle
  2
JitterOff
 70
    20
177
     3
291
     1
 70
    58
 90
        2
176
     0
 90
        2
176
     0
 90
        0
176
     0
 90
        0
176
     0
 40
0.6
176
     0
 40
30.0
176
     0
 62
     7
420
 16777215
176
     0
 90
        1
176
     0
 90
        4
176
     0
 62
     7
176
     0
 62
   257
176
     0
 90
        1
176
     0
 90
        1
176
     0
 40
1.0
176
     0
 90
       10
176
     2
 62
     7
176
     0
 40
1.0
176
     0
 90
        1
176
     0
 90
        6
176
     0
 90
        2
176
     0
 62
     7
176
     0
 90
        5
176
     0
 90
        0
176
     0
 90
        0
176
     0
290
     0
176
     0
 90
        1
176
     0
 40
0.0
176
     0
 90
        0
176
     0
290
     0
176
     0
290
     1
176
     0
290
     1
176
     0
290
     0
176
     0
290
     0
176
     0
290
     0
176
     0
290
     0
176
     0
290
     0
176
     0
290
     0
176
     0
 90
       50
176
     0
 40
0.0
176
     0
 40
1.0
176
     0
 90
        0
176
     0
 62
    18
420
        0
176
     0
 90
       50
176
     0
 90
        3
176
     0
 62
     5
420
      255
176
     0
290
     0
176
     0
 90
       50
176
     0
 90
       50
176
     0
 90
       50
176
     0
290
     0
176
     0
 90
       50
176
     0
 62
   256
176
     0
 40
1.0
176
     0
 90
        2
176
     0
  1
strokes_ogs.tif
176
     0
290
     0
176
     0
 40
1.0
176
     0
 40
1.0
176
     0
  0
VISUALSTYLE
  5
38
102
{ACAD_REACTORS
330
2A
102
}
330
2A
100
AcDbVisualStyle
  2
Linepattern
 70
    14
177
     3
291
     1
 70
    58
 90
        2
176
     1
 90
        2
176
     1
 90
        0
176
     1
 90
        0
176
     1
 40
0.6
176
     1
 40
30.0
176
     1
 62
     7
420
 16777215
176
     1
 90
        1
176
     1
 90
        4
176
     1
 62
     7
176
     1
 62
   257
176
     1
 90
        7
176
     1
 90
        7
176
     1
 40
1.0
176
     1
 90
        8
176
     1
 62
     7
176
     1
 40
1.0
176
     1
 90
        1
176
     1
 90
        6
176
     1
 90
        2
176
     1
 62
     7
176
     1
 90
        5
176
     1
 90
        0
176
     1
 90
        0
176
     1
290
     0
176
     1
 90
        1
176
     1
 40
0.0
176
     1
 90
        0
176
     1
290
     0
176
     1
290
     1
176
     1
290
     1
176
     1
290
     0
176
     1
290
     0
176
     1
290
     0
176
     1
290
     0
176
     1
290
     0
176
     1
290
     0
176
     1
 90
       50
176
     1
 40
0.0
176
     1
 40
1.0
176
     1
 90
        0
176
     1
 62
    18
420
        0
176
     1
 90
       50
176
     1
 90
        3
176
     1
 62
     5
420
      255
176
     1
290
     0
176
     1
 90
       50
176
     1
 90
       50
176
     1
 90
       50
176
     1
290
     0
176
     1
 90
       50
176
     1
 62
   256
176
     0
 40
1.0
176
     0
 90
        2
176
     1
  1
strokes_ogs.tif
176
     1
290
     0
176
     1
 40
1.0
176
     1
 40
1.0
176
     1
  0
VISUALSTYLE
  5
3C
102
{ACAD_REACTORS
330
2A
102
}
330
2A
100
AcDbVisualStyle
  2
OverhangOff
 70
    21
177
     3
291
     1
 70
    58
 90
        2
176
     0
 90
        2
176
     0
 90
        0
176
     0
 90
        0
176
     0
 40
0.6
176
     0
 40
30.0
176
     0
 62
     7
420
 16777215
176
     0
 90
        1
176
     0
 90
        4
176
     0
 62
     7
176
     0
 62
   257
176
     0
 90
        1
176
     0
 90
        1
176
     0
 40
1.0
176
     0
 90
        9
176
     2
 62
     7
176
     0
 40
1.0
176
     0
 90
        1
176
     0
 90
        6
176
     0
 90
        2
176
     0
 62
     7
176
     0
 90
        5
176
     0
 90
        0
176
     0
 90
        0
176
     0
290
     0
176
     0
 90
        1
176
     0
 40
0.0
176
     0
 90
        0
176
     0
290
     0
176
     0
290
     1
176
     0
290
     1
176
     0
290
     0
176
     0
290
     0
176
     0
290
     0
176
     0
290
     0
176
     0
290
     0
176
     0
290
     0
176
     0
 90
       50
176
     0
 40
0.0
176
     0
 40
1.0
176
     0
 90
        0
176
     0
 62
    18
420
        0
176
     0
 90
       50
176
     0
 90
        3
176
     0
 62
     5
420
      255
176
     0
290
     0
176
     0
 90
       50
176
     0
 90
       50
176
     0
 90
       50
176
     0
290
     0
176
     0
 90
       50
176
     0
 62
   256
176
     0
 40
1.0
176
     0
 90
        2
176
     0
  1
strokes_ogs.tif
176
     0
290
     0
176
     0
 40
1.0
176
     0
 40
1.0
176
     0
  0
VISUALSTYLE
  5
33
102
{ACAD_REACTORS
330
2A
102
}
330
2A
100
AcDbVisualStyle
  2
Realistic
 70
     8
177
     3
291
     0
 70
    58
 90
        2
176
     1
 90
        3
176
     1
 90
        0
176
     1
 90
        2
176
     1
 40
0.6
176
     1
 40
30.0
176
     1
 62
     7
420
 16777215
176
     1
 90
        0
176
     1
 90
        0
176
     1
 62
     7
176
     1
 62
   257
176
     1
 90
        1
176
     1
 90
        1
176
     1
 40
1.0
176
     1
 90
        8
176
     1
 62
   257
176
     1
 40
1.0
176
     1
 90
        1
176
     1
 90
        6
176
     1
 90
        2
176
     1
 62
     7
176
     1
 90
        3
176
     1
 90
        0
176
     1
 90
        0
176
     1
290
     0
176
     1
 90
       13
176
     1
 40
0.0
176
     1
 90
        0
176
     1
290
     0
176
     1
290
     1
176
     1
290
     1
176
     1
290
     0
176
     1
290
     0
176
     1
290
     0
176
     1
290
     0
176
     1
290
     0
176
     1
290
     0
176
     1
 90
       50
176
     1
 40
0.0
176
     1
 40
1.0
176
     1
 90
        0
176
     1
 62
    18
420
        0
176
     1
 90
       50
176
     1
 90
        3
176
     1
 62
     5
420
      255
176
     1
290
     0
176
     1
 90
       50
176
     1
 90
       50
176
     1
 90
       50
176
     1
290
     0
176
     1
 90
       50
176
     1
 62
   256
176
     0
 40
1.0
176
     0
 90
        2
176
     1
  1
strokes_ogs.tif
176
     1
290
     0
176
     1
 40
1.0
176
     1
 40
1.0
176
     1
  0
VISUALSTYLE
  5
42
102
{ACAD_REACTORS
330
2A
102
}
330
2A
100
AcDbVisualStyle
  2
Shaded
 70
    27
177
     3
291
     0
 70
    58
 90
        2
176
     1
 90
        2
176
     1
 90
        1
176
     1
 90
        2
176
     1
 40
0.6
176
     1
 40
30.0
176
     1
 62
     7
420
 16777215
176
     1
 90
        0
176
     1
 90
        4
176
     1
 62
     7
176
     1
 62
   257
176
     1
 90
        1
176
     1
 90
        1
176
     1
 40
1.0
176
     1
 90
        8
176
     1
 62
   257
176
     1
 40
1.0
176
     1
 90
        1
176
     1
 90
        6
176
     1
 90
        2
176
     1
 62
     8
420
  7895160
176
     1
 90
        3
176
     1
 90
        0
176
     1
 90
        0
176
     1
290
     0
176
     1
 90
        5
176
     1
 40
0.0
176
     1
 90
        0
176
     1
290
     0
176
     1
290
     1
176
     1
290
     1
176
     1
290
     0
176
     1
290
     0
176
     1
290
     0
176
     1
290
     0
176
     1
290
     0
176
     1
290
     0
176
     1
 90
       50
176
     1
 40
0.0
176
     1
 40
1.0
176
     1
 90
        0
176
     1
 62
    18
420
        0
176
     1
 90
       50
176
     1
 90
        3
176
     1
 62
     5
420
      255
176
     1
290
     0
176
     1
 90
       50
176
     1
 90
       50
176
     1
 90
       50
176
     1
290
     0
176
     1
 90
       50
176
     1
 62
   256
176
     0
 40
1.0
176
     0
 90
        2
176
     1
  1
strokes_ogs.tif
176
     1
290
     0
176
     1
 40
1.0
176
     1
 40
1.0
176
     1
  0
VISUALSTYLE
  5
41
102
{ACAD_REACTORS
330
2A
102
}
330
2A
100
AcDbVisualStyle
  2
Shaded with edges
 70
    26
177
     3
291
     0
 70
    58
 90
        2
176
     1
 90
        2
176
     1
 90
        1
176
     1
 90
        2
176
     1
 40
0.6
176
     1
 40
30.0
176
     1
 62
     7
420
 16777215
176
     1
 90
        1
176
     1
 90
       10
176
     1
 62
     7
176
     1
 62
   257
176
     1
 90
        2
176
     1
 90
        1
176
     1
 40
1.0
176
     1
 90
        8
176
     1
 62
   257
176
     1
 40
1.0
176
     1
 90
        1
176
     1
 90
        6
176
     1
 90
        2
176
     1
 62
     7
176
     1
 90
        3
176
     1
 90
        0
176
     1
 90
        0
176
     1
290
     0
176
     1
 90
        5
176
     1
 40
0.0
176
     1
 90
        0
176
     1
290
     0
176
     1
290
     1
176
     1
290
     1
176
     1
290
     0
176
     1
290
     0
176
     1
290
     0
176
     1
290
     0
176
     1
290
     0
176
     1
290
     0
176
     1
 90
       50
176
     1
 40
0.0
176
     1
 40
1.0
176
     1
 90
        0
176
     1
 62
    18
420
        0
176
     1
 90
       50
176
     1
 90
        3
176
     1
 62
     5
420
      255
176
     1
290
     0
176
     1
 90
       50
176
     1
 90
       50
176
     1
 90
       50
176
     1
290
     0
176
     1
 90
       50
176
     1
 62
   256
176
     0
 40
1.0
176
     0
 90
        2
176
     1
  1
strokes_ogs.tif
176
     1
290
     0
176
     1
 40
1.0
176
     1
 40
1.0
176
     1
  0
VISUALSTYLE
  5
3E
102
{ACAD_REACTORS
330
2A
102
}
330
2A
100
AcDbVisualStyle
  2
Shades of Gray
 70
    23
177
     3
291
     0
 70
    58
 90
        2
176
     1
 90
        2
176
     1
 90
        3
176
     1
 90
        0
176
     1
 40
0.6
176
     1
 40
30.0
176
     1
 62
     7
420
 16777215
176
     1
 90
        2
176
     1
 90
        2
176
     1
 62
     7
176
     1
 62
     7
176
     1
 90
        1
176
     1
 90
        1
176
     1
 40
40.0
176
     1
 90
        8
176
     1
 62
     7
176
     1
 40
1.0
176
     1
 90
        1
176
     1
 90
        6
176
     1
 90
        2
176
     1
 62
     7
176
     1
 90
        3
176
     1
 90
        0
176
     1
 90
        0
176
     1
290
     0
176
     1
 90
        1
176
     1
 40
0.0
176
     1
 90
        0
176
     1
290
     0
176
     1
290
     1
176
     1
290
     1
176
     1
290
     0
176
     1
290
     0
176
     1
290
     0
176
     1
290
     0
176
     1
290
     0
176
     1
290
     0
176
     1
 90
       50
176
     1
 40
0.0
176
     1
 40
1.0
176
     1
 90
        0
176
     1
 62
    18
420
        0
176
     1
 90
       50
176
     1
 90
        3
176
     1
 62
     5
420
      255
176
     1
290
     0
176
     1
 90
       50
176
     1
 90
       50
176
     1
 90
       50
176
     1
290
     0
176
     1
 90
       50
176
     1
 62
   256
176
     0
 40
1.0
176
     0
 90
        2
176
     1
  1
strokes_ogs.tif
176
     1
290
     0
176
     1
 40
1.0
176
     1
 40
1.0
176
     1
  0
VISUALSTYLE
  5
3F
102
{ACAD_REACTORS
330
2A
102
}
330
2A
100
AcDbVisualStyle
  2
Sketchy
 70
    24
177
     3
291
     0
 70
    58
 90
        1
176
     1
 90
        2
176
     1
 90
        2
176
     1
 90
        0
176
     1
 40
0.6
176
     1
 40
30.0
176
     1
 62
     7
420
 16777215
176
     1
 90
        2
176
     1
 90
        2
176
     1
 62
     7
176
     1
 62
     7
176
     1
 90
        1
176
     1
 90
        1
176
     1
 40
40.0
176
     1
 90
       11
176
     1
 62
     7
176
     1
 40
1.0
176
     1
 90
        1
176
     1
 90
        6
176
     1
 90
        2
176
     1
 62
     7
176
     1
 90
        6
176
     1
 90
        0
176
     1
 90
        0
176
     1
290
     0
176
     1
 90
        1
176
     1
 40
0.0
176
     1
 90
        0
176
     1
290
     0
176
     1
290
     1
176
     1
290
     1
176
     1
290
     0
176
     1
290
     0
176
     1
290
     0
176
     1
290
     0
176
     1
290
     0
176
     1
290
     0
176
     1
 90
       50
176
     1
 40
0.0
176
     1
 40
1.0
176
     1
 90
        0
176
     1
 62
    18
420
        0
176
     1
 90
       50
176
     1
 90
        3
176
     1
 62
     5
420
      255
176
     1
290
     0
176
     1
 90
       50
176
     1
 90
       50
176
     1
 90
       50
176
     1
290
     0
176
     1
 90
       50
176
     1
 62
   256
176
     0
 40
1.0
176
     0
 90
        2
176
     1
  1
strokes_ogs.tif
176
     1
290
     0
176
     1
 40
1.0
176
     1
 40
1.0
176
     1
  0
VISUALSTYLE
  5
37
102
{ACAD_REACTORS
330
2A
102
}
330
2A
100
AcDbVisualStyle
  2
Thicken
 70
    13
177
     3
291
     1
 70
    58
 90
        2
176
     1
 90
        2
176
     1
 90
        0
176
     1
 90
        0
176
     1
 40
0.6
176
     1
 40
30.0
176
     1
 62
     7
420
 16777215
176
     1
 90
        1
176
     1
 90
        4
176
     1
 62
     7
176
     1
 62
   257
176
     1
 90
        1
176
     1
 90
        1
176
     1
 40
1.0
176
     1
 90
       12
176
     1
 62
     7
176
     1
 40
1.0
176
     1
 90
        1
176
     1
 90
        6
176
     1
 90
        2
176
     1
 62
     7
176
     1
 90
        5
176
     1
 90
        0
176
     1
 90
        0
176
     1
290
     0
176
     1
 90
        1
176
     1
 40
0.0
176
     1
 90
        0
176
     1
290
     0
176
     1
290
     1
176
     1
290
     1
176
     1
290
     0
176
     1
290
     0
176
     1
290
     0
176
     1
290
     0
176
     1
290
     0
176
     1
290
     0
176
     1
 90
       50
176
     1
 40
0.0
176
     1
 40
1.0
176
     1
 90
        0
176
     1
 62
    18
420
        0
176
     1
 90
       50
176
     1
 90
        3
176
     1
 62
     5
420
      255
176
     1
290
     0
176
     1
 90
       50
176
     1
 90
       50
176
     1
 90
       50
176
     1
290
     0
176
     1
 90
       50
176
     1
 62
   256
176
     0
 40
1.0
176
     0
 90
        2
176
     1
  1
strokes_ogs.tif
176
     1
290
     0
176
     1
 40
1.0
176
     1
 40
1.0
176
     1
  0
VISUALSTYLE
  5
30
102
{ACAD_REACTORS
330
2A
102
}
330
2A
100
AcDbVisualStyle
  2
Wireframe
 70
     5
177
     3
291
     0
 70
    58
 90
        0
176
     1
 90
        2
176
     1
 90
        0
176
     1
 90
        0
176
     1
 40
0.6
176
     1
 40
30.0
176
     1
 62
     7
420
 16777215
176
     1
 90
        1
176
     1
 90
        4
176
     1
 62
     7
176
     1
 62
   257
176
     1
 90
        1
176
     1
 90
        1
176
     1
 40
1.0
176
     1
 90
        0
176
     1
 62
   257
176
     1
 40
1.0
176
     1
 90
        1
176
     1
 90
        6
176
     1
 90
        2
176
     1
 62
     7
176
     1
 90
        3
176
     1
 90
        0
176
     1
 90
        0
176
     1
290
     0
176
     1
 90
        1
176
     1
 40
0.0
176
     1
 90
        0
176
     1
290
     0
176
     1
290
     1
176
     1
290
     1
176
     1
290
     0
176
     1
290
     0
176
     1
290
     0
176
     1
290
     0
176
     1
290
     0
176
     1
290
     0
176
     1
 90
       50
176
     1
 40
0.0
176
     1
 40
1.0
176
     1
 90
        0
176
     1
 62
    18
420
        0
176
     1
 90
       50
176
     1
 90
        3
176
     1
 62
     5
420
      255
176
     1
290
     0
176
     1
 90
       50
176
     1
 90
       50
176
     1
 90
       50
176
     1
290
     0
176
     1
 90
       50
176
     1
 62
   256
176
     0
 40
1.0
176
     0
 90
        2
176
     1
  1
strokes_ogs.tif
176
     1
290
     0
176
     1
 40
1.0
176
     1
 40
1.0
176
     1
  0
VISUALSTYLE
  5
40
102
{ACAD_REACTORS
330
2A
102
}
330
2A
100
AcDbVisualStyle
  2
X-Ray
 70
    25
177
     3
291
     0
 70
    58
 90
        2
176
     1
 90
        2
176
     1
 90
        1
176
     1
 90
        1
176
     1
 40
0.5
176
     1
 40
30.0
176
     1
 62
     7
420
 16777215
176
     1
 90
        1
176
     1
 90
        0
176
     1
 62
     7
176
     1
 62
   257
176
     1
 90
        1
176
     1
 90
        1
176
     1
 40
1.0
176
     1
 90
        8
176
     1
 62
     7
176
     1
 40
1.0
176
     1
 90
        1
176
     1
 90
        6
176
     1
 90
        2
176
     1
 62
     7
176
     1
 90
        3
176
     1
 90
        0
176
     1
 90
        0
176
     1
290
     0
176
     1
 90
       13
176
     1
 40
0.0
176
     1
 90
        0
176
     1
290
     0
176
     1
290
     1
176
     1
290
     1
176
     1
290
     0
176
     1
290
     0
176
     1
290
     0
176
     1
290
     0
176
     1
290
     0
176
     1
290
     0
176
     1
 90
       50
176
     1
 40
0.0
176
     1
 40
1.0
176
     1
 90
        0
176
     1
 62
    18
420
        0
176
     1
 90
       50
176
     1
 90
        3
176
     1
 62
     5
420
      255
176
     1
290
     0
176
     1
 90
       50
176
     1
 90
       50
176
     1
 90
       50
176
     1
290
     0
176
     1
 90
       50
176
     1
 62
   256
176
     0
 40
1.0
176
     0
 90
        2
176
     1
  1
strokes_ogs.tif
176
     1
290
     0
176
     1
 40
1.0
176
     1
 40
1.0
176
     1
  0
DICTIONARYVAR
  5
1DA
102
{ACAD_REACTORS
330
1D9
102
}
330
1D9
100
DictionaryVariables
280
     0
  1
1:1
  0
DICTIONARYVAR
  5
1DF
102
{ACAD_REACTORS
330
1D9
102
}
330
1D9
100
DictionaryVariables
280
     0
  1
Standard
  0
DICTIONARYVAR
  5
1DE
102
{ACAD_REACTORS
330
1D9
102
}
330
1D9
100
DictionaryVariables
280
     0
  1
Standard
  0
DICTIONARY
  5
1DB
330
6A
100
AcDbDictionary
280
     1
281
     1
  3
ACAD_ROUNDTRIP_2008_TABLESTYLE_CELLSTYLEMAP
360
1DC
  0
CELLSTYLEMAP
  5
1DC
102
{ACAD_REACTORS
330
1DB
102
}
330
1DB
100
AcDbCellStyleMap
 90
        3
300
CELLSTYLE
  1
TABLEFORMAT_BEGIN
 90
        5
170
     1
 91
        0
 92
    32768
 62
   257
 93
        1
300
CONTENTFORMAT
  1
CONTENTFORMAT_BEGIN
 90
        0
 91
        0
 92
        4
 93
        0
300

 40
0.0
140
1.0
 94
        5
 62
     0
340
11
144
0.25
309
CONTENTFORMAT_END
171
     1
301
MARGIN
  1
CELLMARGIN_BEGIN
 40
0.06
 40
0.06
 40
0.06
 40
0.06
 40
0.06
 40
0.06
309
CELLMARGIN_END
 94
        6
 95
        1
302
GRIDFORMAT
  1
GRIDFORMAT_BEGIN
 90
        0
 91
        1
 62
     0
 92
       -2
340
14
 93
        0
 40
0.045
309
GRIDFORMAT_END
 95
        2
302
GRIDFORMAT
  1
GRIDFORMAT_BEGIN
 90
        0
 91
        1
 62
     0
 92
       -2
340
14
 93
        0
 40
0.045
309
GRIDFORMAT_END
 95
        4
302
GRIDFORMAT
  1
GRIDFORMAT_BEGIN
 90
        0
 91
        1
 62
     0
 92
       -2
340
14
 93
        0
 40
0.045
309
GRIDFORMAT_END
 95
        8
302
GRIDFORMAT
  1
GRIDFORMAT_BEGIN
 90
        0
 91
        1
 62
     0
 92
       -2
340
14
 93
        0
 40
0.045
309
GRIDFORMAT_END
 95
       16
302
GRIDFORMAT
  1
GRIDFORMAT_BEGIN
 90
        0
 91
        1
 62
     0
 92
       -2
340
14
 93
        0
 40
0.045
309
GRIDFORMAT_END
 95
       32
302
GRIDFORMAT
  1
GRIDFORMAT_BEGIN
 90
        0
 91
        1
 62
     0
 92
       -2
340
14
 93
        0
 40
0.045
309
GRIDFORMAT_END
309
TABLEFORMAT_END
  1
CELLSTYLE_BEGIN
 90
        1
 91
        1
300
_TITLE
309
CELLSTYLE_END
300
CELLSTYLE
  1
TABLEFORMAT_BEGIN
 90
        5
170
     1
 91
        0
 92
        0
 62
   257
 93
        1
300
CONTENTFORMAT
  1
CONTENTFORMAT_BEGIN
 90
        0
 91
        0
 92
        4
 93
        0
300

 40
0.0
140
1.0
 94
        5
 62
     0
340
11
144
0.18
309
CONTENTFORMAT_END
171
     1
301
MARGIN
  1
CELLMARGIN_BEGIN
 40
0.06
 40
0.06
 40
0.06
 40
0.06
 40
0.06
 40
0.06
309
CELLMARGIN_END
 94
        6
 95
        1
302
GRIDFORMAT
  1
GRIDFORMAT_BEGIN
 90
        0
 91
        1
 62
     0
 92
       -2
340
14
 93
        0
 40
0.045
309
GRIDFORMAT_END
 95
        2
302
GRIDFORMAT
  1
GRIDFORMAT_BEGIN
 90
        0
 91
        1
 62
     0
 92
       -2
340
14
 93
        0
 40
0.045
309
GRIDFORMAT_END
 95
        4
302
GRIDFORMAT
  1
GRIDFORMAT_BEGIN
 90
        0
 91
        1
 62
     0
 92
       -2
340
14
 93
        0
 40
0.045
309
GRIDFORMAT_END
 95
        8
302
GRIDFORMAT
  1
GRIDFORMAT_BEGIN
 90
        0
 91
        1
 62
     0
 92
       -2
340
14
 93
        0
 40
0.045
309
GRIDFORMAT_END
 95
       16
302
GRIDFORMAT
  1
GRIDFORMAT_BEGIN
 90
        0
 91
        1
 62
     0
 92
       -2
340
14
 93
        0
 40
0.045
309
GRIDFORMAT_END
 95
       32
302
GRIDFORMAT
  1
GRIDFORMAT_BEGIN
 90
        0
 91
        1
 62
     0
 92
       -2
340
14
 93
        0
 40
0.045
309
GRIDFORMAT_END
309
TABLEFORMAT_END
  1
CELLSTYLE_BEGIN
 90
        2
 91
        1
300
_HEADER
309
CELLSTYLE_END
300
CELLSTYLE
  1
TABLEFORMAT_BEGIN
 90
        5
170
     1
 91
        0
 92
        0
 62
   257
 93
        1
300
CONTENTFORMAT
  1
CONTENTFORMAT_BEGIN
 90
        0
 91
        0
 92
        4
 93
        0
300

 40
0.0
140
1.0
 94
        2
 62
     0
340
11
144
0.18
309
CONTENTFORMAT_END
171
     1
301
MARGIN
  1
CELLMARGIN_BEGIN
 40
0.06
 40
0.06
 40
0.06
 40
0.06
 40
0.06
 40
0.06
309
CELLMARGIN_END
 94
        6
 95
        1
302
GRIDFORMAT
  1
GRIDFORMAT_BEGIN
 90
        0
 91
        1
 62
     0
 92
       -2
340
14
 93
        0
 40
0.045
309
GRIDFORMAT_END
 95
        2
302
GRIDFORMAT
  1
GRIDFORMAT_BEGIN
 90
        0
 91
        1
 62
     0
 92
       -2
340
14
 93
        0
 40
0.045
309
GRIDFORMAT_END
 95
        4
302
GRIDFORMAT
  1
GRIDFORMAT_BEGIN
 90
        0
 91
        1
 62
     0
 92
       -2
340
14
 93
        0
 40
0.045
309
GRIDFORMAT_END
 95
        8
302
GRIDFORMAT
  1
GRIDFORMAT_BEGIN
 90
        0
 91
        1
 62
     0
 92
       -2
340
14
 93
        0
 40
0.045
309
GRIDFORMAT_END
 95
       16
302
GRIDFORMAT
  1
GRIDFORMAT_BEGIN
 90
        0
 91
        1
 62
     0
 92
       -2
340
14
 93
        0
 40
0.045
309
GRIDFORMAT_END
 95
       32
302
GRIDFORMAT
  1
GRIDFORMAT_BEGIN
 90
        0
 91
        1
 62
     0
 92
       -2
340
14
 93
        0
 40
0.045
309
GRIDFORMAT_END
309
TABLEFORMAT_END
  1
CELLSTYLE_BEGIN
 90
        3
 91
        2
300
_DATA
309
CELLSTYLE_END
  0
ENDSEC
  0
EOF
